<svg width="250" height="166" viewBox="0 0 250 166" fill="none" xmlns="http://www.w3.org/2000/svg">
<path d="M57.38 165.3C46.16 165.3 36.26 162.917 27.68 158.15C19.1 153.31 12.39 146.6 7.55 138.02C2.78333 129.44 0.4 119.54 0.4 108.32V57.28C0.4 46.06 2.78333 36.16 7.55 27.58C12.39 19 19.1 12.3267 27.68 7.56C36.26 2.72 46.16 0.299997 57.38 0.299997C68.6 0.299997 78.4633 2.72 86.97 7.56C95.55 12.3267 102.26 19 107.1 27.58C111.94 36.16 114.36 46.06 114.36 57.28V108.32C114.36 119.54 111.94 129.44 107.1 138.02C102.26 146.6 95.55 153.31 86.97 158.15C78.4633 162.917 68.6 165.3 57.38 165.3ZM57.38 140.11C62.9533 140.11 68.0133 138.79 72.56 136.15C77.1067 133.437 80.7 129.843 83.34 125.37C85.98 120.823 87.3 115.763 87.3 110.19V55.3C87.3 49.6533 85.98 44.5933 83.34 40.12C80.7 35.5733 77.1067 31.98 72.56 29.34C68.0133 26.6267 62.9533 25.27 57.38 25.27C51.8067 25.27 46.7467 26.6267 42.2 29.34C37.6533 31.98 34.06 35.5733 31.42 40.12C28.78 44.5933 27.46 49.6533 27.46 55.3V110.19C27.46 115.763 28.78 120.823 31.42 125.37C34.06 129.843 37.6533 133.437 42.2 136.15C46.7467 138.79 51.8067 140.11 57.38 140.11ZM140.805 161.78V138.68L208.565 78.29C213.845 73.5967 217.511 69.16 219.565 64.98C221.618 60.8 222.645 56.7667 222.645 52.88C222.645 47.6 221.508 42.9067 219.235 38.8C216.961 34.62 213.808 31.32 209.775 28.9C205.815 26.48 201.231 25.27 196.025 25.27C190.525 25.27 185.648 26.5533 181.395 29.12C177.215 31.6133 173.951 34.95 171.605 39.13C169.258 43.31 168.158 47.82 168.305 52.66H141.025C141.025 42.1 143.371 32.8967 148.065 25.05C152.831 17.2033 159.358 11.1167 167.645 6.79C176.005 2.46333 185.648 0.299997 196.575 0.299997C206.695 0.299997 215.788 2.57333 223.855 7.11999C231.921 11.5933 238.265 17.8267 242.885 25.82C247.505 33.74 249.815 42.87 249.815 53.21C249.815 60.7633 248.788 67.1067 246.735 72.24C244.681 77.3733 241.601 82.1033 237.495 86.43C233.461 90.7567 228.438 95.56 222.425 100.84L174.355 143.41L171.935 136.81H249.815V161.78H140.805Z" fill="white" fill-opacity="0.1"/>
</svg>
