<svg width="245" height="166" viewBox="0 0 245 166" fill="none" xmlns="http://www.w3.org/2000/svg">
<path d="M57.38 165.3C46.16 165.3 36.26 162.917 27.68 158.15C19.1 153.31 12.39 146.6 7.55 138.02C2.78333 129.44 0.4 119.54 0.4 108.32V57.28C0.4 46.06 2.78333 36.16 7.55 27.58C12.39 19 19.1 12.3267 27.68 7.56C36.26 2.72 46.16 0.299997 57.38 0.299997C68.6 0.299997 78.4633 2.72 86.97 7.56C95.55 12.3267 102.26 19 107.1 27.58C111.94 36.16 114.36 46.06 114.36 57.28V108.32C114.36 119.54 111.94 129.44 107.1 138.02C102.26 146.6 95.55 153.31 86.97 158.15C78.4633 162.917 68.6 165.3 57.38 165.3ZM57.38 140.11C62.9533 140.11 68.0133 138.79 72.56 136.15C77.1067 133.437 80.7 129.843 83.34 125.37C85.98 120.823 87.3 115.763 87.3 110.19V55.3C87.3 49.6533 85.98 44.5933 83.34 40.12C80.7 35.5733 77.1067 31.98 72.56 29.34C68.0133 26.6267 62.9533 25.27 57.38 25.27C51.8067 25.27 46.7467 26.6267 42.2 29.34C37.6533 31.98 34.06 35.5733 31.42 40.12C28.78 44.5933 27.46 49.6533 27.46 55.3V110.19C27.46 115.763 28.78 120.823 31.42 125.37C34.06 129.843 37.6533 133.437 42.2 136.15C46.7467 138.79 51.8067 140.11 57.38 140.11ZM190.525 164.97C182.605 164.97 175.125 163.43 168.085 160.35C161.045 157.27 154.921 152.907 149.715 147.26C144.581 141.613 140.878 134.94 138.605 127.24L164.235 120.31C166.068 126.617 169.405 131.493 174.245 134.94C179.158 138.313 184.548 139.963 190.415 139.89C195.621 139.89 200.278 138.68 204.385 136.26C208.491 133.84 211.718 130.577 214.065 126.47C216.411 122.29 217.585 117.633 217.585 112.5C217.585 104.653 215.055 98.09 209.995 92.81C204.935 87.53 198.408 84.89 190.415 84.89C187.995 84.89 185.611 85.22 183.265 85.88C180.991 86.54 178.791 87.4567 176.665 88.63L164.565 67.73L217.805 22.19L220.115 28.57H144.765V3.59999H241.895V28.68L199.105 69.82L198.885 62.01C208.491 62.67 216.668 65.3467 223.415 70.04C230.235 74.7333 235.441 80.7833 239.035 88.19C242.701 95.5967 244.535 103.7 244.535 112.5C244.535 122.473 242.078 131.42 237.165 139.34C232.325 147.26 225.798 153.53 217.585 158.15C209.445 162.697 200.425 164.97 190.525 164.97Z" fill="white" fill-opacity="0.1"/>
</svg>
