<svg width="248" height="166" viewBox="0 0 248 166" fill="none" xmlns="http://www.w3.org/2000/svg">
<path d="M57.38 165.3C46.16 165.3 36.26 162.917 27.68 158.15C19.1 153.31 12.39 146.6 7.55 138.02C2.78333 129.44 0.4 119.54 0.4 108.32V57.28C0.4 46.06 2.78333 36.16 7.55 27.58C12.39 19 19.1 12.3267 27.68 7.56C36.26 2.72 46.16 0.299997 57.38 0.299997C68.6 0.299997 78.4633 2.72 86.97 7.56C95.55 12.3267 102.26 19 107.1 27.58C111.94 36.16 114.36 46.06 114.36 57.28V108.32C114.36 119.54 111.94 129.44 107.1 138.02C102.26 146.6 95.55 153.31 86.97 158.15C78.4633 162.917 68.6 165.3 57.38 165.3ZM57.38 140.11C62.9533 140.11 68.0133 138.79 72.56 136.15C77.1067 133.437 80.7 129.843 83.34 125.37C85.98 120.823 87.3 115.763 87.3 110.19V55.3C87.3 49.6533 85.98 44.5933 83.34 40.12C80.7 35.5733 77.1067 31.98 72.56 29.34C68.0133 26.6267 62.9533 25.27 57.38 25.27C51.8067 25.27 46.7467 26.6267 42.2 29.34C37.6533 31.98 34.06 35.5733 31.42 40.12C28.78 44.5933 27.46 49.6533 27.46 55.3V110.19C27.46 115.763 28.78 120.823 31.42 125.37C34.06 129.843 37.6533 133.437 42.2 136.15C46.7467 138.79 51.8067 140.11 57.38 140.11ZM192.175 165.3C184.108 165.3 176.591 163.65 169.625 160.35C162.658 156.977 156.645 152.357 151.585 146.49C146.598 140.623 143.005 133.803 140.805 126.03L166.325 119.21C167.351 123.463 169.221 127.13 171.935 130.21C174.721 133.29 177.948 135.673 181.615 137.36C185.355 139.047 189.205 139.89 193.165 139.89C198.298 139.89 202.991 138.643 207.245 136.15C211.498 133.657 214.871 130.32 217.365 126.14C219.858 121.887 221.105 117.193 221.105 112.06C221.105 106.927 219.821 102.27 217.255 98.09C214.761 93.8367 211.388 90.5 207.135 88.08C202.881 85.5867 198.225 84.34 193.165 84.34C187.078 84.34 182.018 85.44 177.985 87.64C174.025 89.84 170.981 92.1867 168.855 94.68L146.195 87.42L151.035 3.59999H237.055V28.46H165.225L175.125 19.11L171.605 77.41L166.765 71.47C170.871 67.73 175.638 64.9433 181.065 63.11C186.491 61.2767 191.735 60.36 196.795 60.36C206.695 60.36 215.458 62.6333 223.085 67.18C230.785 71.6533 236.798 77.7767 241.125 85.55C245.525 93.3233 247.725 102.16 247.725 112.06C247.725 121.96 245.158 130.943 240.025 139.01C234.891 147.003 228.108 153.383 219.675 158.15C211.315 162.917 202.148 165.3 192.175 165.3Z" fill="white" fill-opacity="0.1"/>
</svg>
