<svg width="518" height="348" viewBox="0 0 518 348" fill="none" xmlns="http://www.w3.org/2000/svg">
<path d="M15.55 36.6C12.9167 36.6 10.7 36.1167 8.9 35.15C7.1 34.1833 5.65 32.8833 4.55 31.25C3.45 29.6167 2.65 27.8 2.15 25.8C1.68333 23.8 1.45 21.75 1.45 19.65C1.45 15.75 2 12.3667 3.1 9.5C4.2 6.6 5.78333 4.36666 7.85 2.8C9.91667 1.2 12.4167 0.399999 15.35 0.399999C17.75 0.399999 19.7833 0.883332 21.45 1.85C23.15 2.78333 24.4667 4.01667 25.4 5.55C26.3333 7.08333 26.8833 8.73333 27.05 10.5H21.1C20.8 8.96666 20.15 7.78333 19.15 6.95C18.15 6.11667 16.8667 5.7 15.3 5.7C13.0667 5.7 11.2667 6.73333 9.9 8.8C8.53333 10.8333 7.8 13.95 7.7 18.15C8.5 16.7833 9.7 15.65 11.3 14.75C12.9 13.85 14.6833 13.4 16.65 13.4C18.5833 13.4 20.4 13.8667 22.1 14.8C23.8 15.7333 25.1667 17.05 26.2 18.75C27.2667 20.45 27.8 22.45 27.8 24.75C27.8 26.85 27.2833 28.8 26.25 30.6C25.25 32.4 23.8167 33.85 21.95 34.95C20.1167 36.05 17.9833 36.6 15.55 36.6ZM15.2 31.1C17.0667 31.1 18.6 30.5333 19.8 29.4C21.0333 28.2333 21.65 26.7667 21.65 25C21.65 23.1333 21.0333 21.6333 19.8 20.5C18.5667 19.3667 17 18.8 15.1 18.8C13.8667 18.8 12.75 19.0833 11.75 19.65C10.7833 20.1833 10.0167 20.9167 9.45 21.85C8.88333 22.75 8.6 23.7667 8.6 24.9C8.6 26.7 9.21667 28.1833 10.45 29.35C11.7167 30.5167 13.3 31.1 15.2 31.1ZM38.0395 36V8.3L32.2895 9.65V4.75L40.7395 0.999998H44.6895V36H38.0395ZM58.8258 18.2C57.2258 18.2 55.7758 17.85 54.4758 17.15C53.1758 16.4167 52.1424 15.3833 51.3758 14.05C50.6091 12.7167 50.2258 11.1333 50.2258 9.3C50.2258 7.46666 50.6091 5.88333 51.3758 4.55C52.1424 3.21667 53.1758 2.2 54.4758 1.5C55.7758 0.766665 57.2424 0.399999 58.8758 0.399999C60.4758 0.399999 61.9091 0.766665 63.1758 1.5C64.4758 2.2 65.5091 3.21667 66.2758 4.55C67.0424 5.88333 67.4258 7.46666 67.4258 9.3C67.4258 11.1333 67.0424 12.7167 66.2758 14.05C65.5091 15.3833 64.4758 16.4167 63.1758 17.15C61.8758 17.85 60.4258 18.2 58.8258 18.2ZM56.9258 36L76.6758 0.999998H82.9258L63.1758 36H56.9258ZM58.8258 13.75C59.7924 13.75 60.6258 13.3833 61.3258 12.65C62.0258 11.8833 62.3758 10.7667 62.3758 9.3C62.3758 7.83333 62.0258 6.71667 61.3258 5.95C60.6591 5.18333 59.8258 4.8 58.8258 4.8C57.8258 4.8 56.9758 5.18333 56.2758 5.95C55.6091 6.71667 55.2758 7.83333 55.2758 9.3C55.2758 10.7667 55.6091 11.8833 56.2758 12.65C56.9758 13.3833 57.8258 13.75 58.8258 13.75ZM81.2258 36.6C79.6258 36.6 78.1758 36.25 76.8758 35.55C75.5758 34.8167 74.5424 33.7833 73.7758 32.45C73.0091 31.1167 72.6258 29.5333 72.6258 27.7C72.6258 25.8667 73.0091 24.3 73.7758 23C74.5424 21.6667 75.5758 20.65 76.8758 19.95C78.1758 19.2167 79.6424 18.85 81.2758 18.85C82.8758 18.85 84.3091 19.2167 85.5758 19.95C86.8758 20.65 87.9091 21.6667 88.6758 23C89.4424 24.3 89.8258 25.8667 89.8258 27.7C89.8258 29.5333 89.4424 31.1167 88.6758 32.45C87.9091 33.7833 86.8758 34.8167 85.5758 35.55C84.3091 36.25 82.8591 36.6 81.2258 36.6ZM81.2258 32.15C82.2258 32.15 83.0591 31.7833 83.7258 31.05C84.4258 30.2833 84.7758 29.1667 84.7758 27.7C84.7758 26.2333 84.4258 25.1167 83.7258 24.35C83.0591 23.5833 82.2258 23.2 81.2258 23.2C80.2258 23.2 79.3758 23.5833 78.6758 24.35C78.0091 25.1167 77.6758 26.2333 77.6758 27.7C77.6758 29.1667 78.0091 30.2833 78.6758 31.05C79.3758 31.7833 80.2258 32.15 81.2258 32.15Z" fill="#4678F7"/>
<path d="M119.677 36.6C117.31 36.6 115.177 36.0667 113.277 35C111.41 33.9 109.927 32.3833 108.827 30.45C107.727 28.4833 107.177 26.2 107.177 23.6C107.177 21 107.727 18.7333 108.827 16.8C109.96 14.8333 111.477 13.3167 113.377 12.25C115.277 11.15 117.394 10.6 119.727 10.6C122.094 10.6 124.21 11.15 126.077 12.25C127.977 13.3167 129.477 14.8333 130.577 16.8C131.71 18.7333 132.277 21 132.277 23.6C132.277 26.2 131.71 28.4833 130.577 30.45C129.477 32.3833 127.977 33.9 126.077 35C124.177 36.0667 122.044 36.6 119.677 36.6ZM119.677 32.05C120.944 32.05 122.11 31.7333 123.177 31.1C124.277 30.4667 125.16 29.5333 125.827 28.3C126.494 27.0333 126.827 25.4667 126.827 23.6C126.827 21.7333 126.494 20.1833 125.827 18.95C125.194 17.6833 124.327 16.7333 123.227 16.1C122.16 15.4667 120.994 15.15 119.727 15.15C118.46 15.15 117.277 15.4667 116.177 16.1C115.11 16.7333 114.244 17.6833 113.577 18.95C112.91 20.1833 112.577 21.7333 112.577 23.6C112.577 25.4667 112.91 27.0333 113.577 28.3C114.244 29.5333 115.11 30.4667 116.177 31.1C117.244 31.7333 118.41 32.05 119.677 32.05ZM139.409 36V15.65H135.859V11.2H139.409V7.6C139.409 4.9 140.075 2.96666 141.409 1.8C142.775 0.599999 144.692 -1.43051e-06 147.159 -1.43051e-06H149.759V4.5H147.959C146.792 4.5 145.959 4.75 145.459 5.25C144.959 5.71667 144.709 6.51667 144.709 7.65V11.2H150.409V15.65H144.709V36H139.409ZM168.341 47V11.2H173.091L173.641 15.05C174.441 13.8833 175.541 12.85 176.941 11.95C178.341 11.05 180.141 10.6 182.341 10.6C184.741 10.6 186.858 11.1667 188.691 12.3C190.525 13.4333 191.958 14.9833 192.991 16.95C194.058 18.9167 194.591 21.15 194.591 23.65C194.591 26.15 194.058 28.3833 192.991 30.35C191.958 32.2833 190.525 33.8167 188.691 34.95C186.858 36.05 184.725 36.6 182.291 36.6C180.358 36.6 178.641 36.2167 177.141 35.45C175.675 34.6833 174.508 33.6 173.641 32.2V47H168.341ZM181.391 32C183.658 32 185.525 31.2333 186.991 29.7C188.458 28.1333 189.191 26.1 189.191 23.6C189.191 21.9667 188.858 20.5167 188.191 19.25C187.525 17.9833 186.608 17 185.441 16.3C184.275 15.5667 182.925 15.2 181.391 15.2C179.125 15.2 177.258 15.9833 175.791 17.55C174.358 19.1167 173.641 21.1333 173.641 23.6C173.641 26.1 174.358 28.1333 175.791 29.7C177.258 31.2333 179.125 32 181.391 32ZM212.074 36.6C209.64 36.6 207.474 36.0667 205.574 35C203.707 33.9 202.24 32.3833 201.174 30.45C200.107 28.5167 199.574 26.2667 199.574 23.7C199.574 21.1 200.09 18.8167 201.124 16.85C202.19 14.8833 203.657 13.35 205.524 12.25C207.424 11.15 209.624 10.6 212.124 10.6C214.557 10.6 216.674 11.15 218.474 12.25C220.274 13.3167 221.674 14.75 222.674 16.55C223.674 18.35 224.174 20.3333 224.174 22.5C224.174 22.8333 224.157 23.2 224.124 23.6C224.124 23.9667 224.107 24.3833 224.074 24.85H204.774C204.94 27.25 205.724 29.0833 207.124 30.35C208.557 31.5833 210.207 32.2 212.074 32.2C213.574 32.2 214.824 31.8667 215.824 31.2C216.857 30.5 217.624 29.5667 218.124 28.4H223.424C222.757 30.7333 221.424 32.6833 219.424 34.25C217.457 35.8167 215.007 36.6 212.074 36.6ZM212.074 14.95C210.307 14.95 208.74 15.4833 207.374 16.55C206.007 17.5833 205.174 19.15 204.874 21.25H218.874C218.774 19.3167 218.09 17.7833 216.824 16.65C215.557 15.5167 213.974 14.95 212.074 14.95ZM241.423 36.6C239.056 36.6 236.923 36.0667 235.023 35C233.156 33.9 231.673 32.3833 230.573 30.45C229.473 28.4833 228.923 26.2 228.923 23.6C228.923 21 229.473 18.7333 230.573 16.8C231.706 14.8333 233.223 13.3167 235.123 12.25C237.023 11.15 239.14 10.6 241.473 10.6C243.84 10.6 245.956 11.15 247.823 12.25C249.723 13.3167 251.223 14.8333 252.323 16.8C253.456 18.7333 254.023 21 254.023 23.6C254.023 26.2 253.456 28.4833 252.323 30.45C251.223 32.3833 249.723 33.9 247.823 35C245.923 36.0667 243.79 36.6 241.423 36.6ZM241.423 32.05C242.69 32.05 243.856 31.7333 244.923 31.1C246.023 30.4667 246.906 29.5333 247.573 28.3C248.24 27.0333 248.573 25.4667 248.573 23.6C248.573 21.7333 248.24 20.1833 247.573 18.95C246.94 17.6833 246.073 16.7333 244.973 16.1C243.906 15.4667 242.74 15.15 241.473 15.15C240.206 15.15 239.023 15.4667 237.923 16.1C236.856 16.7333 235.99 17.6833 235.323 18.95C234.656 20.1833 234.323 21.7333 234.323 23.6C234.323 25.4667 234.656 27.0333 235.323 28.3C235.99 29.5333 236.856 30.4667 237.923 31.1C238.99 31.7333 240.156 32.05 241.423 32.05ZM259.905 47V11.2H264.655L265.205 15.05C266.005 13.8833 267.105 12.85 268.505 11.95C269.905 11.05 271.705 10.6 273.905 10.6C276.305 10.6 278.421 11.1667 280.255 12.3C282.088 13.4333 283.521 14.9833 284.555 16.95C285.621 18.9167 286.155 21.15 286.155 23.65C286.155 26.15 285.621 28.3833 284.555 30.35C283.521 32.2833 282.088 33.8167 280.255 34.95C278.421 36.05 276.288 36.6 273.855 36.6C271.921 36.6 270.205 36.2167 268.705 35.45C267.238 34.6833 266.071 33.6 265.205 32.2V47H259.905ZM272.955 32C275.221 32 277.088 31.2333 278.555 29.7C280.021 28.1333 280.755 26.1 280.755 23.6C280.755 21.9667 280.421 20.5167 279.755 19.25C279.088 17.9833 278.171 17 277.005 16.3C275.838 15.5667 274.488 15.2 272.955 15.2C270.688 15.2 268.821 15.9833 267.355 17.55C265.921 19.1167 265.205 21.1333 265.205 23.6C265.205 26.1 265.921 28.1333 267.355 29.7C268.821 31.2333 270.688 32 272.955 32ZM292.037 36V-1.43051e-06H297.337V36H292.037ZM315.799 36.6C313.365 36.6 311.199 36.0667 309.299 35C307.432 33.9 305.965 32.3833 304.899 30.45C303.832 28.5167 303.299 26.2667 303.299 23.7C303.299 21.1 303.815 18.8167 304.849 16.85C305.915 14.8833 307.382 13.35 309.249 12.25C311.149 11.15 313.349 10.6 315.849 10.6C318.282 10.6 320.399 11.15 322.199 12.25C323.999 13.3167 325.399 14.75 326.399 16.55C327.399 18.35 327.899 20.3333 327.899 22.5C327.899 22.8333 327.882 23.2 327.849 23.6C327.849 23.9667 327.832 24.3833 327.799 24.85H308.499C308.665 27.25 309.449 29.0833 310.849 30.35C312.282 31.5833 313.932 32.2 315.799 32.2C317.299 32.2 318.549 31.8667 319.549 31.2C320.582 30.5 321.349 29.5667 321.849 28.4H327.149C326.482 30.7333 325.149 32.6833 323.149 34.25C321.182 35.8167 318.732 36.6 315.799 36.6ZM315.799 14.95C314.032 14.95 312.465 15.4833 311.099 16.55C309.732 17.5833 308.899 19.15 308.599 21.25H322.599C322.499 19.3167 321.815 17.7833 320.549 16.65C319.282 15.5167 317.699 14.95 315.799 14.95ZM357.596 36.6C355.196 36.6 353.079 36.0333 351.246 34.9C349.412 33.7667 347.979 32.2167 346.946 30.25C345.912 28.2833 345.396 26.05 345.396 23.55C345.396 21.05 345.912 18.8333 346.946 16.9C347.979 14.9333 349.412 13.4 351.246 12.3C353.112 11.1667 355.246 10.6 357.646 10.6C359.612 10.6 361.329 10.9833 362.796 11.75C364.296 12.5167 365.462 13.6 366.296 15V-1.43051e-06H371.596V36H366.846L366.296 32.15C365.496 33.3167 364.396 34.35 362.996 35.25C361.596 36.15 359.796 36.6 357.596 36.6ZM358.546 32C360.812 32 362.662 31.2167 364.096 29.65C365.562 28.0833 366.296 26.0667 366.296 23.6C366.296 21.1 365.562 19.0833 364.096 17.55C362.662 15.9833 360.812 15.2 358.546 15.2C356.279 15.2 354.412 15.9833 352.946 17.55C351.479 19.0833 350.746 21.1 350.746 23.6C350.746 25.2333 351.079 26.6833 351.746 27.95C352.412 29.2167 353.329 30.2167 354.496 30.95C355.696 31.65 357.046 32 358.546 32ZM390.028 36.6C387.661 36.6 385.528 36.0667 383.628 35C381.761 33.9 380.278 32.3833 379.178 30.45C378.078 28.4833 377.528 26.2 377.528 23.6C377.528 21 378.078 18.7333 379.178 16.8C380.311 14.8333 381.828 13.3167 383.728 12.25C385.628 11.15 387.745 10.6 390.078 10.6C392.445 10.6 394.561 11.15 396.428 12.25C398.328 13.3167 399.828 14.8333 400.928 16.8C402.061 18.7333 402.628 21 402.628 23.6C402.628 26.2 402.061 28.4833 400.928 30.45C399.828 32.3833 398.328 33.9 396.428 35C394.528 36.0667 392.395 36.6 390.028 36.6ZM390.028 32.05C391.295 32.05 392.461 31.7333 393.528 31.1C394.628 30.4667 395.511 29.5333 396.178 28.3C396.845 27.0333 397.178 25.4667 397.178 23.6C397.178 21.7333 396.845 20.1833 396.178 18.95C395.545 17.6833 394.678 16.7333 393.578 16.1C392.511 15.4667 391.345 15.15 390.078 15.15C388.811 15.15 387.628 15.4667 386.528 16.1C385.461 16.7333 384.595 17.6833 383.928 18.95C383.261 20.1833 382.928 21.7333 382.928 23.6C382.928 25.4667 383.261 27.0333 383.928 28.3C384.595 29.5333 385.461 30.4667 386.528 31.1C387.595 31.7333 388.761 32.05 390.028 32.05ZM408.51 36V11.2H413.21L413.61 15.55C414.376 14.0167 415.493 12.8167 416.96 11.95C418.46 11.05 420.176 10.6 422.11 10.6C425.11 10.6 427.46 11.5333 429.16 13.4C430.893 15.2667 431.76 18.05 431.76 21.75V36H426.51V22.3C426.51 17.5 424.543 15.1 420.61 15.1C418.643 15.1 417.01 15.8 415.71 17.2C414.443 18.6 413.81 20.6 413.81 23.2V36H408.51ZM436.652 12.75L439.452 0.999998H445.202L440.352 12.75H436.652ZM460.665 36C458.232 36 456.298 35.4167 454.865 34.25C453.432 33.05 452.715 30.9333 452.715 27.9V15.65H448.465V11.2H452.715L453.365 4.9H458.015V11.2H465.015V15.65H458.015V27.9C458.015 29.2667 458.298 30.2167 458.865 30.75C459.465 31.25 460.482 31.5 461.915 31.5H464.765V36H460.665ZM12.75 96C10.3167 96 8.38333 95.4167 6.95 94.25C5.51667 93.05 4.8 90.9333 4.8 87.9V75.65H0.55V71.2H4.8L5.45 64.9H10.1V71.2H17.1V75.65H10.1V87.9C10.1 89.2667 10.3833 90.2167 10.95 90.75C11.55 91.25 12.5667 91.5 14 91.5H16.85V96H12.75ZM22.7148 96V60H28.0148V75.2C28.8482 73.7667 29.9982 72.65 31.4648 71.85C32.9648 71.0167 34.6148 70.6 36.4148 70.6C39.3815 70.6 41.7148 71.5333 43.4148 73.4C45.1148 75.2667 45.9648 78.05 45.9648 81.75V96H40.7148V82.3C40.7148 77.5 38.7982 75.1 34.9648 75.1C32.9648 75.1 31.2982 75.8 29.9648 77.2C28.6648 78.6 28.0148 80.6 28.0148 83.2V96H22.7148ZM55.357 66.5C54.357 66.5 53.5237 66.2 52.857 65.6C52.2237 64.9667 51.907 64.1833 51.907 63.25C51.907 62.3167 52.2237 61.55 52.857 60.95C53.5237 60.3167 54.357 60 55.357 60C56.357 60 57.1737 60.3167 57.807 60.95C58.4737 61.55 58.807 62.3167 58.807 63.25C58.807 64.1833 58.4737 64.9667 57.807 65.6C57.1737 66.2 56.357 66.5 55.357 66.5ZM52.707 96V71.2H58.007V96H52.707ZM65.1535 96V71.2H69.8535L70.2535 75.55C71.0202 74.0167 72.1369 72.8167 73.6035 71.95C75.1035 71.05 76.8202 70.6 78.7535 70.6C81.7535 70.6 84.1035 71.5333 85.8035 73.4C87.5369 75.2667 88.4035 78.05 88.4035 81.75V96H83.1535V82.3C83.1535 77.5 81.1869 75.1 77.2535 75.1C75.2868 75.1 73.6535 75.8 72.3535 77.2C71.0869 78.6 70.4535 80.6 70.4535 83.2V96H65.1535ZM94.7957 96V60H100.096V81.45L109.596 71.2H115.946L105.396 82.45L117.496 96H110.796L100.096 83.3V96H94.7957ZM137.5 66.5C136.5 66.5 135.667 66.2 135 65.6C134.367 64.9667 134.05 64.1833 134.05 63.25C134.05 62.3167 134.367 61.55 135 60.95C135.667 60.3167 136.5 60 137.5 60C138.5 60 139.317 60.3167 139.95 60.95C140.617 61.55 140.95 62.3167 140.95 63.25C140.95 64.1833 140.617 64.9667 139.95 65.6C139.317 66.2 138.5 66.5 137.5 66.5ZM134.85 96V71.2H140.15V96H134.85ZM157.696 96C155.263 96 153.33 95.4167 151.896 94.25C150.463 93.05 149.746 90.9333 149.746 87.9V75.65H145.496V71.2H149.746L150.396 64.9H155.046V71.2H162.046V75.65H155.046V87.9C155.046 89.2667 155.33 90.2167 155.896 90.75C156.496 91.25 157.513 91.5 158.946 91.5H161.796V96H157.696ZM166.161 72.75L168.961 61H174.711L169.861 72.75H166.161ZM187.33 96.6C184.197 96.6 181.614 95.8333 179.58 94.3C177.547 92.7667 176.38 90.7333 176.08 88.2H181.43C181.697 89.3333 182.33 90.3167 183.33 91.15C184.33 91.95 185.647 92.35 187.28 92.35C188.88 92.35 190.047 92.0167 190.78 91.35C191.514 90.6833 191.88 89.9167 191.88 89.05C191.88 87.7833 191.364 86.9333 190.33 86.5C189.33 86.0333 187.93 85.6167 186.13 85.25C184.73 84.95 183.33 84.55 181.93 84.05C180.564 83.55 179.414 82.85 178.48 81.95C177.58 81.0167 177.13 79.7667 177.13 78.2C177.13 76.0333 177.964 74.2333 179.63 72.8C181.297 71.3333 183.63 70.6 186.63 70.6C189.397 70.6 191.63 71.2667 193.33 72.6C195.064 73.9333 196.08 75.8167 196.38 78.25H191.28C191.114 77.1833 190.614 76.35 189.78 75.75C188.98 75.15 187.897 74.85 186.53 74.85C185.197 74.85 184.164 75.1333 183.43 75.7C182.697 76.2333 182.33 76.9333 182.33 77.8C182.33 78.6667 182.83 79.35 183.83 79.85C184.864 80.35 186.214 80.8 187.88 81.2C189.547 81.5667 191.08 82 192.48 82.5C193.914 82.9667 195.064 83.6667 195.93 84.6C196.797 85.5333 197.23 86.9 197.23 88.7C197.264 90.9667 196.38 92.85 194.58 94.35C192.814 95.85 190.397 96.6 187.33 96.6ZM217.164 96V75.65H213.614V71.2H217.164V67.6C217.164 64.9 217.831 62.9667 219.164 61.8C220.531 60.6 222.447 60 224.914 60H227.514V64.5H225.714C224.547 64.5 223.714 64.75 223.214 65.25C222.714 65.7167 222.464 66.5167 222.464 67.65V71.2H228.164V75.65H222.464V96H217.164ZM240.773 96.6C238.673 96.6 236.939 96.25 235.573 95.55C234.206 94.85 233.189 93.9333 232.523 92.8C231.856 91.6333 231.523 90.3667 231.523 89C231.523 86.6 232.456 84.7 234.323 83.3C236.189 81.9 238.856 81.2 242.323 81.2H248.823V80.75C248.823 78.8167 248.289 77.3667 247.223 76.4C246.189 75.4333 244.839 74.95 243.173 74.95C241.706 74.95 240.423 75.3167 239.323 76.05C238.256 76.75 237.606 77.8 237.373 79.2H232.073C232.239 77.4 232.839 75.8667 233.873 74.6C234.939 73.3 236.273 72.3167 237.873 71.65C239.506 70.95 241.289 70.6 243.223 70.6C246.689 70.6 249.373 71.5167 251.273 73.35C253.173 75.15 254.123 77.6167 254.123 80.75V96H249.523L249.073 91.75C248.373 93.1167 247.356 94.2667 246.023 95.2C244.689 96.1333 242.939 96.6 240.773 96.6ZM241.823 92.3C243.256 92.3 244.456 91.9667 245.423 91.3C246.423 90.6 247.189 89.6833 247.723 88.55C248.289 87.4167 248.639 86.1667 248.773 84.8H242.873C240.773 84.8 239.273 85.1667 238.373 85.9C237.506 86.6333 237.073 87.55 237.073 88.65C237.073 89.7833 237.489 90.6833 238.323 91.35C239.189 91.9833 240.356 92.3 241.823 92.3ZM263.452 66.5C262.452 66.5 261.619 66.2 260.952 65.6C260.319 64.9667 260.002 64.1833 260.002 63.25C260.002 62.3167 260.319 61.55 260.952 60.95C261.619 60.3167 262.452 60 263.452 60C264.452 60 265.269 60.3167 265.902 60.95C266.569 61.55 266.902 62.3167 266.902 63.25C266.902 64.1833 266.569 64.9667 265.902 65.6C265.269 66.2 264.452 66.5 263.452 66.5ZM260.802 96V71.2H266.102V96H260.802ZM273.249 96V71.2H277.999L278.449 75.9C279.316 74.2667 280.516 72.9833 282.049 72.05C283.616 71.0833 285.499 70.6 287.699 70.6V76.15H286.249C284.782 76.15 283.466 76.4 282.299 76.9C281.166 77.3667 280.249 78.1833 279.549 79.35C278.882 80.4833 278.549 82.0667 278.549 84.1V96H273.249ZM315.541 96C313.107 96 311.174 95.4167 309.741 94.25C308.307 93.05 307.591 90.9333 307.591 87.9V75.65H303.341V71.2H307.591L308.241 64.9H312.891V71.2H319.891V75.65H312.891V87.9C312.891 89.2667 313.174 90.2167 313.741 90.75C314.341 91.25 315.357 91.5 316.791 91.5H319.641V96H315.541ZM325.505 96V60H330.805V75.2C331.639 73.7667 332.789 72.65 334.255 71.85C335.755 71.0167 337.405 70.6 339.205 70.6C342.172 70.6 344.505 71.5333 346.205 73.4C347.905 75.2667 348.755 78.05 348.755 81.75V96H343.505V82.3C343.505 77.5 341.589 75.1 337.755 75.1C335.755 75.1 334.089 75.8 332.755 77.2C331.455 78.6 330.805 80.6 330.805 83.2V96H325.505ZM363.548 96.6C361.448 96.6 359.714 96.25 358.348 95.55C356.981 94.85 355.964 93.9333 355.298 92.8C354.631 91.6333 354.298 90.3667 354.298 89C354.298 86.6 355.231 84.7 357.098 83.3C358.964 81.9 361.631 81.2 365.098 81.2H371.598V80.75C371.598 78.8167 371.064 77.3667 369.998 76.4C368.964 75.4333 367.614 74.95 365.948 74.95C364.481 74.95 363.198 75.3167 362.098 76.05C361.031 76.75 360.381 77.8 360.148 79.2H354.848C355.014 77.4 355.614 75.8667 356.648 74.6C357.714 73.3 359.048 72.3167 360.648 71.65C362.281 70.95 364.064 70.6 365.998 70.6C369.464 70.6 372.148 71.5167 374.048 73.35C375.948 75.15 376.898 77.6167 376.898 80.75V96H372.298L371.848 91.75C371.148 93.1167 370.131 94.2667 368.798 95.2C367.464 96.1333 365.714 96.6 363.548 96.6ZM364.598 92.3C366.031 92.3 367.231 91.9667 368.198 91.3C369.198 90.6 369.964 89.6833 370.498 88.55C371.064 87.4167 371.414 86.1667 371.548 84.8H365.648C363.548 84.8 362.048 85.1667 361.148 85.9C360.281 86.6333 359.848 87.55 359.848 88.65C359.848 89.7833 360.264 90.6833 361.098 91.35C361.964 91.9833 363.131 92.3 364.598 92.3ZM393.139 96C390.706 96 388.772 95.4167 387.339 94.25C385.906 93.05 385.189 90.9333 385.189 87.9V75.65H380.939V71.2H385.189L385.839 64.9H390.489V71.2H397.489V75.65H390.489V87.9C390.489 89.2667 390.772 90.2167 391.339 90.75C391.939 91.25 392.956 91.5 394.389 91.5H397.239V96H393.139ZM16.3 156.6C14.3667 156.6 12.65 156.217 11.15 155.45C9.68333 154.683 8.51667 153.6 7.65 152.2L7.1 156H2.35V120H7.65V135.05C8.45 133.883 9.55 132.85 10.95 131.95C12.35 131.05 14.15 130.6 16.35 130.6C18.75 130.6 20.8667 131.167 22.7 132.3C24.5333 133.433 25.9667 134.983 27 136.95C28.0667 138.917 28.6 141.15 28.6 143.65C28.6 146.15 28.0667 148.383 27 150.35C25.9667 152.283 24.5333 153.817 22.7 154.95C20.8667 156.05 18.7333 156.6 16.3 156.6ZM15.4 152C17.6667 152 19.5333 151.233 21 149.7C22.4667 148.133 23.2 146.1 23.2 143.6C23.2 141.967 22.8667 140.517 22.2 139.25C21.5333 137.983 20.6167 137 19.45 136.3C18.2833 135.567 16.9333 135.2 15.4 135.2C13.1333 135.2 11.2667 135.983 9.8 137.55C8.36667 139.117 7.65 141.133 7.65 143.6C7.65 146.1 8.36667 148.133 9.8 149.7C11.2667 151.233 13.1333 152 15.4 152ZM42.8824 156.6C40.7824 156.6 39.0491 156.25 37.6824 155.55C36.3158 154.85 35.2991 153.933 34.6324 152.8C33.9658 151.633 33.6324 150.367 33.6324 149C33.6324 146.6 34.5658 144.7 36.4324 143.3C38.2991 141.9 40.9658 141.2 44.4324 141.2H50.9324V140.75C50.9324 138.817 50.3991 137.367 49.3324 136.4C48.2991 135.433 46.9491 134.95 45.2824 134.95C43.8158 134.95 42.5324 135.317 41.4324 136.05C40.3658 136.75 39.7158 137.8 39.4824 139.2H34.1824C34.3491 137.4 34.9491 135.867 35.9824 134.6C37.0491 133.3 38.3824 132.317 39.9824 131.65C41.6158 130.95 43.3991 130.6 45.3324 130.6C48.7991 130.6 51.4824 131.517 53.3824 133.35C55.2824 135.15 56.2324 137.617 56.2324 140.75V156H51.6324L51.1824 151.75C50.4824 153.117 49.4658 154.267 48.1324 155.2C46.7991 156.133 45.0491 156.6 42.8824 156.6ZM43.9324 152.3C45.3658 152.3 46.5658 151.967 47.5324 151.3C48.5324 150.6 49.2991 149.683 49.8324 148.55C50.3991 147.417 50.7491 146.167 50.8824 144.8H44.9824C42.8824 144.8 41.3824 145.167 40.4824 145.9C39.6158 146.633 39.1824 147.55 39.1824 148.65C39.1824 149.783 39.5991 150.683 40.4324 151.35C41.2991 151.983 42.4658 152.3 43.9324 152.3ZM62.5621 156V131.2H67.2621L67.6621 135.55C68.4288 134.017 69.5454 132.817 71.0121 131.95C72.5121 131.05 74.2288 130.6 76.1621 130.6C79.1621 130.6 81.5121 131.533 83.2121 133.4C84.9454 135.267 85.8121 138.05 85.8121 141.75V156H80.5621V142.3C80.5621 137.5 78.5954 135.1 74.6621 135.1C72.6954 135.1 71.0621 135.8 69.7621 137.2C68.4954 138.6 67.8621 140.6 67.8621 143.2V156H62.5621ZM92.2043 156V120H97.5043V141.45L107.004 131.2H113.354L102.804 142.45L114.904 156H108.204L97.5043 143.3V156H92.2043ZM127.743 156.6C124.609 156.6 122.026 155.833 119.993 154.3C117.959 152.767 116.793 150.733 116.493 148.2H121.843C122.109 149.333 122.743 150.317 123.743 151.15C124.743 151.95 126.059 152.35 127.693 152.35C129.293 152.35 130.459 152.017 131.193 151.35C131.926 150.683 132.293 149.917 132.293 149.05C132.293 147.783 131.776 146.933 130.743 146.5C129.743 146.033 128.343 145.617 126.543 145.25C125.143 144.95 123.743 144.55 122.343 144.05C120.976 143.55 119.826 142.85 118.893 141.95C117.993 141.017 117.543 139.767 117.543 138.2C117.543 136.033 118.376 134.233 120.043 132.8C121.709 131.333 124.043 130.6 127.043 130.6C129.809 130.6 132.043 131.267 133.743 132.6C135.476 133.933 136.493 135.817 136.793 138.25H131.693C131.526 137.183 131.026 136.35 130.193 135.75C129.393 135.15 128.309 134.85 126.943 134.85C125.609 134.85 124.576 135.133 123.843 135.7C123.109 136.233 122.743 136.933 122.743 137.8C122.743 138.667 123.243 139.35 124.243 139.85C125.276 140.35 126.626 140.8 128.293 141.2C129.959 141.567 131.493 142 132.893 142.5C134.326 142.967 135.476 143.667 136.343 144.6C137.209 145.533 137.643 146.9 137.643 148.7C137.676 150.967 136.793 152.85 134.993 154.35C133.226 155.85 130.809 156.6 127.743 156.6ZM156.326 156V120H161.626V135.2C162.459 133.767 163.609 132.65 165.076 131.85C166.576 131.017 168.226 130.6 170.026 130.6C172.993 130.6 175.326 131.533 177.026 133.4C178.726 135.267 179.576 138.05 179.576 141.75V156H174.326V142.3C174.326 137.5 172.409 135.1 168.576 135.1C166.576 135.1 164.909 135.8 163.576 137.2C162.276 138.6 161.626 140.6 161.626 143.2V156H156.326ZM194.368 156.6C192.268 156.6 190.535 156.25 189.168 155.55C187.802 154.85 186.785 153.933 186.118 152.8C185.452 151.633 185.118 150.367 185.118 149C185.118 146.6 186.052 144.7 187.918 143.3C189.785 141.9 192.452 141.2 195.918 141.2H202.418V140.75C202.418 138.817 201.885 137.367 200.818 136.4C199.785 135.433 198.435 134.95 196.768 134.95C195.302 134.95 194.018 135.317 192.918 136.05C191.852 136.75 191.202 137.8 190.968 139.2H185.668C185.835 137.4 186.435 135.867 187.468 134.6C188.535 133.3 189.868 132.317 191.468 131.65C193.102 130.95 194.885 130.6 196.818 130.6C200.285 130.6 202.968 131.517 204.868 133.35C206.768 135.15 207.718 137.617 207.718 140.75V156H203.118L202.668 151.75C201.968 153.117 200.952 154.267 199.618 155.2C198.285 156.133 196.535 156.6 194.368 156.6ZM195.418 152.3C196.852 152.3 198.052 151.967 199.018 151.3C200.018 150.6 200.785 149.683 201.318 148.55C201.885 147.417 202.235 146.167 202.368 144.8H196.468C194.368 144.8 192.868 145.167 191.968 145.9C191.102 146.633 190.668 147.55 190.668 148.65C190.668 149.783 191.085 150.683 191.918 151.35C192.785 151.983 193.952 152.3 195.418 152.3ZM220.168 156L210.868 131.2H216.418L223.318 150.95L230.218 131.2H235.718L226.468 156H220.168ZM250.554 156.6C248.121 156.6 245.954 156.067 244.054 155C242.187 153.9 240.721 152.383 239.654 150.45C238.587 148.517 238.054 146.267 238.054 143.7C238.054 141.1 238.571 138.817 239.604 136.85C240.671 134.883 242.137 133.35 244.004 132.25C245.904 131.15 248.104 130.6 250.604 130.6C253.037 130.6 255.154 131.15 256.954 132.25C258.754 133.317 260.154 134.75 261.154 136.55C262.154 138.35 262.654 140.333 262.654 142.5C262.654 142.833 262.637 143.2 262.604 143.6C262.604 143.967 262.587 144.383 262.554 144.85H243.254C243.421 147.25 244.204 149.083 245.604 150.35C247.037 151.583 248.687 152.2 250.554 152.2C252.054 152.2 253.304 151.867 254.304 151.2C255.337 150.5 256.104 149.567 256.604 148.4H261.904C261.237 150.733 259.904 152.683 257.904 154.25C255.937 155.817 253.487 156.6 250.554 156.6ZM250.554 134.95C248.787 134.95 247.221 135.483 245.854 136.55C244.487 137.583 243.654 139.15 243.354 141.25H257.354C257.254 139.317 256.571 137.783 255.304 136.65C254.037 135.517 252.454 134.95 250.554 134.95ZM292.801 156.6C290.367 156.6 288.184 156.05 286.251 154.95C284.351 153.85 282.851 152.333 281.751 150.4C280.684 148.433 280.151 146.167 280.151 143.6C280.151 141.033 280.684 138.783 281.751 136.85C282.851 134.883 284.351 133.35 286.251 132.25C288.184 131.15 290.367 130.6 292.801 130.6C295.867 130.6 298.434 131.4 300.501 133C302.601 134.6 303.951 136.767 304.551 139.5H299.001C298.667 138.133 297.934 137.067 296.801 136.3C295.667 135.533 294.334 135.15 292.801 135.15C291.501 135.15 290.301 135.483 289.201 136.15C288.101 136.783 287.217 137.733 286.551 139C285.884 140.233 285.551 141.767 285.551 143.6C285.551 145.433 285.884 146.983 286.551 148.25C287.217 149.483 288.101 150.433 289.201 151.1C290.301 151.767 291.501 152.1 292.801 152.1C294.334 152.1 295.667 151.717 296.801 150.95C297.934 150.183 298.667 149.1 299.001 147.7H304.551C303.984 150.367 302.651 152.517 300.551 154.15C298.451 155.783 295.867 156.6 292.801 156.6ZM322.049 156.6C319.682 156.6 317.549 156.067 315.649 155C313.782 153.9 312.299 152.383 311.199 150.45C310.099 148.483 309.549 146.2 309.549 143.6C309.549 141 310.099 138.733 311.199 136.8C312.332 134.833 313.849 133.317 315.749 132.25C317.649 131.15 319.765 130.6 322.099 130.6C324.465 130.6 326.582 131.15 328.449 132.25C330.349 133.317 331.849 134.833 332.949 136.8C334.082 138.733 334.649 141 334.649 143.6C334.649 146.2 334.082 148.483 332.949 150.45C331.849 152.383 330.349 153.9 328.449 155C326.549 156.067 324.415 156.6 322.049 156.6ZM322.049 152.05C323.315 152.05 324.482 151.733 325.549 151.1C326.649 150.467 327.532 149.533 328.199 148.3C328.865 147.033 329.199 145.467 329.199 143.6C329.199 141.733 328.865 140.183 328.199 138.95C327.565 137.683 326.699 136.733 325.599 136.1C324.532 135.467 323.365 135.15 322.099 135.15C320.832 135.15 319.649 135.467 318.549 136.1C317.482 136.733 316.615 137.683 315.949 138.95C315.282 140.183 314.949 141.733 314.949 143.6C314.949 145.467 315.282 147.033 315.949 148.3C316.615 149.533 317.482 150.467 318.549 151.1C319.615 151.733 320.782 152.05 322.049 152.05ZM340.53 156V131.2H345.23L345.63 135.55C346.397 134.017 347.514 132.817 348.98 131.95C350.48 131.05 352.197 130.6 354.13 130.6C357.13 130.6 359.48 131.533 361.18 133.4C362.914 135.267 363.78 138.05 363.78 141.75V156H358.53V142.3C358.53 137.5 356.564 135.1 352.63 135.1C350.664 135.1 349.03 135.8 347.73 137.2C346.464 138.6 345.83 140.6 345.83 143.2V156H340.53ZM380.573 156C378.139 156 376.206 155.417 374.773 154.25C373.339 153.05 372.623 150.933 372.623 147.9V135.65H368.373V131.2H372.623L373.273 124.9H377.923V131.2H384.923V135.65H377.923V147.9C377.923 149.267 378.206 150.217 378.773 150.75C379.373 151.25 380.389 151.5 381.823 151.5H384.673V156H380.573ZM393.538 126.5C392.538 126.5 391.704 126.2 391.038 125.6C390.404 124.967 390.088 124.183 390.088 123.25C390.088 122.317 390.404 121.55 391.038 120.95C391.704 120.317 392.538 120 393.538 120C394.538 120 395.354 120.317 395.988 120.95C396.654 121.55 396.988 122.317 396.988 123.25C396.988 124.183 396.654 124.967 395.988 125.6C395.354 126.2 394.538 126.5 393.538 126.5ZM390.888 156V131.2H396.188V156H390.888ZM403.334 156V131.2H408.034L408.434 135.55C409.201 134.017 410.317 132.817 411.784 131.95C413.284 131.05 415.001 130.6 416.934 130.6C419.934 130.6 422.284 131.533 423.984 133.4C425.717 135.267 426.584 138.05 426.584 141.75V156H421.334V142.3C421.334 137.5 419.367 135.1 415.434 135.1C413.467 135.1 411.834 135.8 410.534 137.2C409.267 138.6 408.634 140.6 408.634 143.2V156H403.334ZM442.126 156.6C439.126 156.6 436.759 155.667 435.026 153.8C433.326 151.933 432.476 149.15 432.476 145.45V131.2H437.776V144.9C437.776 149.7 439.743 152.1 443.676 152.1C445.643 152.1 447.259 151.4 448.526 150C449.793 148.6 450.426 146.6 450.426 144V131.2H455.726V156H451.026L450.626 151.65C449.859 153.183 448.726 154.4 447.226 155.3C445.759 156.167 444.059 156.6 442.126 156.6ZM474.218 156.6C471.785 156.6 469.618 156.067 467.718 155C465.852 153.9 464.385 152.383 463.318 150.45C462.252 148.517 461.718 146.267 461.718 143.7C461.718 141.1 462.235 138.817 463.268 136.85C464.335 134.883 465.802 133.35 467.668 132.25C469.568 131.15 471.768 130.6 474.268 130.6C476.702 130.6 478.818 131.15 480.618 132.25C482.418 133.317 483.818 134.75 484.818 136.55C485.818 138.35 486.318 140.333 486.318 142.5C486.318 142.833 486.302 143.2 486.268 143.6C486.268 143.967 486.252 144.383 486.218 144.85H466.918C467.085 147.25 467.868 149.083 469.268 150.35C470.702 151.583 472.352 152.2 474.218 152.2C475.718 152.2 476.968 151.867 477.968 151.2C479.002 150.5 479.768 149.567 480.268 148.4H485.568C484.902 150.733 483.568 152.683 481.568 154.25C479.602 155.817 477.152 156.6 474.218 156.6ZM474.218 134.95C472.452 134.95 470.885 135.483 469.518 136.55C468.152 137.583 467.318 139.15 467.018 141.25H481.018C480.918 139.317 480.235 137.783 478.968 136.65C477.702 135.517 476.118 134.95 474.218 134.95ZM503.268 156.6C500.868 156.6 498.751 156.033 496.918 154.9C495.084 153.767 493.651 152.217 492.618 150.25C491.584 148.283 491.068 146.05 491.068 143.55C491.068 141.05 491.584 138.833 492.618 136.9C493.651 134.933 495.084 133.4 496.918 132.3C498.784 131.167 500.918 130.6 503.318 130.6C505.284 130.6 507.001 130.983 508.468 131.75C509.968 132.517 511.134 133.6 511.968 135V120H517.268V156H512.518L511.968 152.15C511.168 153.317 510.068 154.35 508.668 155.25C507.268 156.15 505.468 156.6 503.268 156.6ZM504.218 152C506.484 152 508.334 151.217 509.768 149.65C511.234 148.083 511.968 146.067 511.968 143.6C511.968 141.1 511.234 139.083 509.768 137.55C508.334 135.983 506.484 135.2 504.218 135.2C501.951 135.2 500.084 135.983 498.618 137.55C497.151 139.083 496.418 141.1 496.418 143.6C496.418 145.233 496.751 146.683 497.418 147.95C498.084 149.217 499.001 150.217 500.168 150.95C501.368 151.65 502.718 152 504.218 152ZM12.75 216C10.3167 216 8.38333 215.417 6.95 214.25C5.51667 213.05 4.8 210.933 4.8 207.9V195.65H0.55V191.2H4.8L5.45 184.9H10.1V191.2H17.1V195.65H10.1V207.9C10.1 209.267 10.3833 210.217 10.95 210.75C11.55 211.25 12.5667 211.5 14 211.5H16.85V216H12.75ZM33.6801 216.6C31.3134 216.6 29.1801 216.067 27.2801 215C25.4134 213.9 23.9301 212.383 22.8301 210.45C21.7301 208.483 21.1801 206.2 21.1801 203.6C21.1801 201 21.7301 198.733 22.8301 196.8C23.9634 194.833 25.4801 193.317 27.3801 192.25C29.2801 191.15 31.3967 190.6 33.7301 190.6C36.0967 190.6 38.2134 191.15 40.0801 192.25C41.9801 193.317 43.4801 194.833 44.5801 196.8C45.7134 198.733 46.2801 201 46.2801 203.6C46.2801 206.2 45.7134 208.483 44.5801 210.45C43.4801 212.383 41.9801 213.9 40.0801 215C38.1801 216.067 36.0467 216.6 33.6801 216.6ZM33.6801 212.05C34.9467 212.05 36.1134 211.733 37.1801 211.1C38.2801 210.467 39.1634 209.533 39.8301 208.3C40.4967 207.033 40.8301 205.467 40.8301 203.6C40.8301 201.733 40.4967 200.183 39.8301 198.95C39.1967 197.683 38.3301 196.733 37.2301 196.1C36.1634 195.467 34.9967 195.15 33.7301 195.15C32.4634 195.15 31.2801 195.467 30.1801 196.1C29.1134 196.733 28.2467 197.683 27.5801 198.95C26.9134 200.183 26.5801 201.733 26.5801 203.6C26.5801 205.467 26.9134 207.033 27.5801 208.3C28.2467 209.533 29.1134 210.467 30.1801 211.1C31.2467 211.733 32.4134 212.05 33.6801 212.05ZM76.6594 216.6C74.226 216.6 72.0427 216.05 70.1094 214.95C68.2094 213.85 66.7094 212.333 65.6094 210.4C64.5427 208.433 64.0094 206.167 64.0094 203.6C64.0094 201.033 64.5427 198.783 65.6094 196.85C66.7094 194.883 68.2094 193.35 70.1094 192.25C72.0427 191.15 74.226 190.6 76.6594 190.6C79.726 190.6 82.2927 191.4 84.3594 193C86.4594 194.6 87.8094 196.767 88.4094 199.5H82.8594C82.526 198.133 81.7927 197.067 80.6594 196.3C79.526 195.533 78.1927 195.15 76.6594 195.15C75.3594 195.15 74.1594 195.483 73.0594 196.15C71.9594 196.783 71.076 197.733 70.4094 199C69.7427 200.233 69.4094 201.767 69.4094 203.6C69.4094 205.433 69.7427 206.983 70.4094 208.25C71.076 209.483 71.9594 210.433 73.0594 211.1C74.1594 211.767 75.3594 212.1 76.6594 212.1C78.1927 212.1 79.526 211.717 80.6594 210.95C81.7927 210.183 82.526 209.1 82.8594 207.7H88.4094C87.8427 210.367 86.5094 212.517 84.4094 214.15C82.3094 215.783 79.726 216.6 76.6594 216.6ZM94.3074 216V180H99.6074V195.2C100.441 193.767 101.591 192.65 103.057 191.85C104.557 191.017 106.207 190.6 108.007 190.6C110.974 190.6 113.307 191.533 115.007 193.4C116.707 195.267 117.557 198.05 117.557 201.75V216H112.307V202.3C112.307 197.5 110.391 195.1 106.557 195.1C104.557 195.1 102.891 195.8 101.557 197.2C100.257 198.6 99.6074 200.6 99.6074 203.2V216H94.3074ZM132.35 216.6C130.25 216.6 128.516 216.25 127.15 215.55C125.783 214.85 124.766 213.933 124.1 212.8C123.433 211.633 123.1 210.367 123.1 209C123.1 206.6 124.033 204.7 125.9 203.3C127.766 201.9 130.433 201.2 133.9 201.2H140.4V200.75C140.4 198.817 139.866 197.367 138.8 196.4C137.766 195.433 136.416 194.95 134.75 194.95C133.283 194.95 132 195.317 130.9 196.05C129.833 196.75 129.183 197.8 128.95 199.2H123.65C123.816 197.4 124.416 195.867 125.45 194.6C126.516 193.3 127.85 192.317 129.45 191.65C131.083 190.95 132.866 190.6 134.8 190.6C138.266 190.6 140.95 191.517 142.85 193.35C144.75 195.15 145.7 197.617 145.7 200.75V216H141.1L140.65 211.75C139.95 213.117 138.933 214.267 137.6 215.2C136.266 216.133 134.516 216.6 132.35 216.6ZM133.4 212.3C134.833 212.3 136.033 211.967 137 211.3C138 210.6 138.766 209.683 139.3 208.55C139.866 207.417 140.216 206.167 140.35 204.8H134.45C132.35 204.8 130.85 205.167 129.95 205.9C129.083 206.633 128.65 207.55 128.65 208.65C128.65 209.783 129.066 210.683 129.9 211.35C130.766 211.983 131.933 212.3 133.4 212.3ZM152.029 216V191.2H156.779L157.229 195.9C158.096 194.267 159.296 192.983 160.829 192.05C162.396 191.083 164.279 190.6 166.479 190.6V196.15H165.029C163.563 196.15 162.246 196.4 161.079 196.9C159.946 197.367 159.029 198.183 158.329 199.35C157.663 200.483 157.329 202.067 157.329 204.1V216H152.029ZM180.738 208.4C179.438 208.4 178.238 208.25 177.138 207.95L174.988 210.05C175.354 210.283 175.804 210.483 176.338 210.65C176.871 210.817 177.621 210.967 178.588 211.1C179.554 211.233 180.871 211.367 182.538 211.5C185.838 211.8 188.221 212.6 189.688 213.9C191.154 215.167 191.888 216.867 191.888 219C191.888 220.467 191.488 221.85 190.688 223.15C189.921 224.483 188.704 225.55 187.038 226.35C185.404 227.183 183.304 227.6 180.738 227.6C177.271 227.6 174.454 226.933 172.288 225.6C170.154 224.3 169.088 222.317 169.088 219.65C169.088 218.617 169.354 217.583 169.888 216.55C170.454 215.55 171.338 214.6 172.538 213.7C171.838 213.4 171.221 213.083 170.688 212.75C170.188 212.383 169.738 212.017 169.338 211.65V210.45L173.638 206.05C171.704 204.383 170.738 202.2 170.738 199.5C170.738 197.867 171.121 196.383 171.888 195.05C172.688 193.683 173.838 192.6 175.338 191.8C176.838 191 178.638 190.6 180.738 190.6C182.138 190.6 183.438 190.8 184.638 191.2H193.888V194.7L189.488 194.95C190.288 196.317 190.688 197.833 190.688 199.5C190.688 201.167 190.288 202.667 189.488 204C188.721 205.333 187.588 206.4 186.088 207.2C184.621 208 182.838 208.4 180.738 208.4ZM180.738 204.25C182.271 204.25 183.504 203.85 184.438 203.05C185.404 202.217 185.888 201.05 185.888 199.55C185.888 198.017 185.404 196.85 184.438 196.05C183.504 195.25 182.271 194.85 180.738 194.85C179.171 194.85 177.904 195.25 176.938 196.05C176.004 196.85 175.538 198.017 175.538 199.55C175.538 201.05 176.004 202.217 176.938 203.05C177.904 203.85 179.171 204.25 180.738 204.25ZM174.088 219.15C174.088 220.583 174.721 221.65 175.988 222.35C177.254 223.083 178.838 223.45 180.738 223.45C182.571 223.45 184.054 223.05 185.188 222.25C186.321 221.483 186.888 220.45 186.888 219.15C186.888 218.183 186.504 217.35 185.738 216.65C184.971 215.983 183.521 215.567 181.388 215.4C179.788 215.3 178.371 215.15 177.138 214.95C175.971 215.583 175.171 216.267 174.738 217C174.304 217.733 174.088 218.45 174.088 219.15ZM209.388 216.6C206.955 216.6 204.788 216.067 202.888 215C201.022 213.9 199.555 212.383 198.488 210.45C197.422 208.517 196.888 206.267 196.888 203.7C196.888 201.1 197.405 198.817 198.438 196.85C199.505 194.883 200.972 193.35 202.838 192.25C204.738 191.15 206.938 190.6 209.438 190.6C211.872 190.6 213.988 191.15 215.788 192.25C217.588 193.317 218.988 194.75 219.988 196.55C220.988 198.35 221.488 200.333 221.488 202.5C221.488 202.833 221.472 203.2 221.438 203.6C221.438 203.967 221.422 204.383 221.388 204.85H202.088C202.255 207.25 203.038 209.083 204.438 210.35C205.872 211.583 207.522 212.2 209.388 212.2C210.888 212.2 212.138 211.867 213.138 211.2C214.172 210.5 214.938 209.567 215.438 208.4H220.738C220.072 210.733 218.738 212.683 216.738 214.25C214.772 215.817 212.322 216.6 209.388 216.6ZM209.388 194.95C207.622 194.95 206.055 195.483 204.688 196.55C203.322 197.583 202.488 199.15 202.188 201.25H216.188C216.088 199.317 215.405 197.783 214.138 196.65C212.872 195.517 211.288 194.95 209.388 194.95ZM241.135 216V195.65H237.585V191.2H241.135V187.6C241.135 184.9 241.802 182.967 243.135 181.8C244.502 180.6 246.418 180 248.885 180H251.485V184.5H249.685C248.518 184.5 247.685 184.75 247.185 185.25C246.685 185.717 246.435 186.517 246.435 187.65V191.2H252.135V195.65H246.435V216H241.135ZM267.944 216.6C265.577 216.6 263.444 216.067 261.544 215C259.677 213.9 258.194 212.383 257.094 210.45C255.994 208.483 255.444 206.2 255.444 203.6C255.444 201 255.994 198.733 257.094 196.8C258.227 194.833 259.744 193.317 261.644 192.25C263.544 191.15 265.66 190.6 267.994 190.6C270.36 190.6 272.477 191.15 274.344 192.25C276.244 193.317 277.744 194.833 278.844 196.8C279.977 198.733 280.544 201 280.544 203.6C280.544 206.2 279.977 208.483 278.844 210.45C277.744 212.383 276.244 213.9 274.344 215C272.444 216.067 270.31 216.6 267.944 216.6ZM267.944 212.05C269.21 212.05 270.377 211.733 271.444 211.1C272.544 210.467 273.427 209.533 274.094 208.3C274.76 207.033 275.094 205.467 275.094 203.6C275.094 201.733 274.76 200.183 274.094 198.95C273.46 197.683 272.594 196.733 271.494 196.1C270.427 195.467 269.26 195.15 267.994 195.15C266.727 195.15 265.544 195.467 264.444 196.1C263.377 196.733 262.51 197.683 261.844 198.95C261.177 200.183 260.844 201.733 260.844 203.6C260.844 205.467 261.177 207.033 261.844 208.3C262.51 209.533 263.377 210.467 264.444 211.1C265.51 211.733 266.677 212.05 267.944 212.05ZM286.425 216V191.2H291.175L291.625 195.9C292.492 194.267 293.692 192.983 295.225 192.05C296.792 191.083 298.675 190.6 300.875 190.6V196.15H299.425C297.959 196.15 296.642 196.4 295.475 196.9C294.342 197.367 293.425 198.183 292.725 199.35C292.059 200.483 291.725 202.067 291.725 204.1V216H286.425ZM316.486 216.6C314.053 216.6 311.886 216.067 309.986 215C308.119 213.9 306.653 212.383 305.586 210.45C304.519 208.517 303.986 206.267 303.986 203.7C303.986 201.1 304.503 198.817 305.536 196.85C306.603 194.883 308.069 193.35 309.936 192.25C311.836 191.15 314.036 190.6 316.536 190.6C318.969 190.6 321.086 191.15 322.886 192.25C324.686 193.317 326.086 194.75 327.086 196.55C328.086 198.35 328.586 200.333 328.586 202.5C328.586 202.833 328.569 203.2 328.536 203.6C328.536 203.967 328.519 204.383 328.486 204.85H309.186C309.353 207.25 310.136 209.083 311.536 210.35C312.969 211.583 314.619 212.2 316.486 212.2C317.986 212.2 319.236 211.867 320.236 211.2C321.269 210.5 322.036 209.567 322.536 208.4H327.836C327.169 210.733 325.836 212.683 323.836 214.25C321.869 215.817 319.419 216.6 316.486 216.6ZM316.486 194.95C314.719 194.95 313.153 195.483 311.786 196.55C310.419 197.583 309.586 199.15 309.286 201.25H323.286C323.186 199.317 322.503 197.783 321.236 196.65C319.969 195.517 318.386 194.95 316.486 194.95ZM337.235 186.5C336.235 186.5 335.402 186.2 334.735 185.6C334.102 184.967 333.785 184.183 333.785 183.25C333.785 182.317 334.102 181.55 334.735 180.95C335.402 180.317 336.235 180 337.235 180C338.235 180 339.052 180.317 339.685 180.95C340.352 181.55 340.685 182.317 340.685 183.25C340.685 184.183 340.352 184.967 339.685 185.6C339.052 186.2 338.235 186.5 337.235 186.5ZM334.585 216V191.2H339.885V216H334.585ZM357.182 208.4C355.882 208.4 354.682 208.25 353.582 207.95L351.432 210.05C351.798 210.283 352.248 210.483 352.782 210.65C353.315 210.817 354.065 210.967 355.032 211.1C355.998 211.233 357.315 211.367 358.982 211.5C362.282 211.8 364.665 212.6 366.132 213.9C367.598 215.167 368.332 216.867 368.332 219C368.332 220.467 367.932 221.85 367.132 223.15C366.365 224.483 365.148 225.55 363.482 226.35C361.848 227.183 359.748 227.6 357.182 227.6C353.715 227.6 350.898 226.933 348.732 225.6C346.598 224.3 345.532 222.317 345.532 219.65C345.532 218.617 345.798 217.583 346.332 216.55C346.898 215.55 347.782 214.6 348.982 213.7C348.282 213.4 347.665 213.083 347.132 212.75C346.632 212.383 346.182 212.017 345.782 211.65V210.45L350.082 206.05C348.148 204.383 347.182 202.2 347.182 199.5C347.182 197.867 347.565 196.383 348.332 195.05C349.132 193.683 350.282 192.6 351.782 191.8C353.282 191 355.082 190.6 357.182 190.6C358.582 190.6 359.882 190.8 361.082 191.2H370.332V194.7L365.932 194.95C366.732 196.317 367.132 197.833 367.132 199.5C367.132 201.167 366.732 202.667 365.932 204C365.165 205.333 364.032 206.4 362.532 207.2C361.065 208 359.282 208.4 357.182 208.4ZM357.182 204.25C358.715 204.25 359.948 203.85 360.882 203.05C361.848 202.217 362.332 201.05 362.332 199.55C362.332 198.017 361.848 196.85 360.882 196.05C359.948 195.25 358.715 194.85 357.182 194.85C355.615 194.85 354.348 195.25 353.382 196.05C352.448 196.85 351.982 198.017 351.982 199.55C351.982 201.05 352.448 202.217 353.382 203.05C354.348 203.85 355.615 204.25 357.182 204.25ZM350.532 219.15C350.532 220.583 351.165 221.65 352.432 222.35C353.698 223.083 355.282 223.45 357.182 223.45C359.015 223.45 360.498 223.05 361.632 222.25C362.765 221.483 363.332 220.45 363.332 219.15C363.332 218.183 362.948 217.35 362.182 216.65C361.415 215.983 359.965 215.567 357.832 215.4C356.232 215.3 354.815 215.15 353.582 214.95C352.415 215.583 351.615 216.267 351.182 217C350.748 217.733 350.532 218.45 350.532 219.15ZM375.209 216V191.2H379.909L380.309 195.55C381.076 194.017 382.192 192.817 383.659 191.95C385.159 191.05 386.876 190.6 388.809 190.6C391.809 190.6 394.159 191.533 395.859 193.4C397.592 195.267 398.459 198.05 398.459 201.75V216H393.209V202.3C393.209 197.5 391.242 195.1 387.309 195.1C385.342 195.1 383.709 195.8 382.409 197.2C381.142 198.6 380.509 200.6 380.509 203.2V216H375.209ZM12.75 276C10.3167 276 8.38333 275.417 6.95 274.25C5.51667 273.05 4.8 270.933 4.8 267.9V255.65H0.55V251.2H4.8L5.45 244.9H10.1V251.2H17.1V255.65H10.1V267.9C10.1 269.267 10.3833 270.217 10.95 270.75C11.55 271.25 12.5667 271.5 14 271.5H16.85V276H12.75ZM22.7148 276V251.2H27.4648L27.9148 255.9C28.7815 254.267 29.9815 252.983 31.5148 252.05C33.0815 251.083 34.9648 250.6 37.1648 250.6V256.15H35.7148C34.2482 256.15 32.9315 256.4 31.7648 256.9C30.6315 257.367 29.7148 258.183 29.0148 259.35C28.3482 260.483 28.0148 262.067 28.0148 264.1V276H22.7148ZM50.259 276.6C48.159 276.6 46.4257 276.25 45.059 275.55C43.6923 274.85 42.6757 273.933 42.009 272.8C41.3423 271.633 41.009 270.367 41.009 269C41.009 266.6 41.9423 264.7 43.809 263.3C45.6757 261.9 48.3423 261.2 51.809 261.2H58.309V260.75C58.309 258.817 57.7757 257.367 56.709 256.4C55.6757 255.433 54.3257 254.95 52.659 254.95C51.1923 254.95 49.909 255.317 48.809 256.05C47.7423 256.75 47.0923 257.8 46.859 259.2H41.559C41.7257 257.4 42.3257 255.867 43.359 254.6C44.4257 253.3 45.759 252.317 47.359 251.65C48.9923 250.95 50.7757 250.6 52.709 250.6C56.1757 250.6 58.859 251.517 60.759 253.35C62.659 255.15 63.609 257.617 63.609 260.75V276H59.009L58.559 271.75C57.859 273.117 56.8423 274.267 55.509 275.2C54.1757 276.133 52.4257 276.6 50.259 276.6ZM51.309 272.3C52.7423 272.3 53.9423 271.967 54.909 271.3C55.909 270.6 56.6757 269.683 57.209 268.55C57.7757 267.417 58.1257 266.167 58.259 264.8H52.359C50.259 264.8 48.759 265.167 47.859 265.9C46.9923 266.633 46.559 267.55 46.559 268.65C46.559 269.783 46.9757 270.683 47.809 271.35C48.6757 271.983 49.8423 272.3 51.309 272.3ZM69.9387 276V251.2H74.6387L75.0387 255.55C75.8053 254.017 76.922 252.817 78.3887 251.95C79.8887 251.05 81.6053 250.6 83.5387 250.6C86.5387 250.6 88.8887 251.533 90.5887 253.4C92.322 255.267 93.1887 258.05 93.1887 261.75V276H87.9387V262.3C87.9387 257.5 85.972 255.1 82.0387 255.1C80.072 255.1 78.4387 255.8 77.1387 257.2C75.872 258.6 75.2387 260.6 75.2387 263.2V276H69.9387ZM109.481 276.6C106.348 276.6 103.764 275.833 101.731 274.3C99.6975 272.767 98.5309 270.733 98.2309 268.2H103.581C103.848 269.333 104.481 270.317 105.481 271.15C106.481 271.95 107.798 272.35 109.431 272.35C111.031 272.35 112.198 272.017 112.931 271.35C113.664 270.683 114.031 269.917 114.031 269.05C114.031 267.783 113.514 266.933 112.481 266.5C111.481 266.033 110.081 265.617 108.281 265.25C106.881 264.95 105.481 264.55 104.081 264.05C102.714 263.55 101.564 262.85 100.631 261.95C99.7309 261.017 99.2809 259.767 99.2809 258.2C99.2809 256.033 100.114 254.233 101.781 252.8C103.448 251.333 105.781 250.6 108.781 250.6C111.548 250.6 113.781 251.267 115.481 252.6C117.214 253.933 118.231 255.817 118.531 258.25H113.431C113.264 257.183 112.764 256.35 111.931 255.75C111.131 255.15 110.048 254.85 108.681 254.85C107.348 254.85 106.314 255.133 105.581 255.7C104.848 256.233 104.481 256.933 104.481 257.8C104.481 258.667 104.981 259.35 105.981 259.85C107.014 260.35 108.364 260.8 110.031 261.2C111.698 261.567 113.231 262 114.631 262.5C116.064 262.967 117.214 263.667 118.081 264.6C118.948 265.533 119.381 266.9 119.381 268.7C119.414 270.967 118.531 272.85 116.731 274.35C114.964 275.85 112.548 276.6 109.481 276.6ZM133.717 276.6C131.617 276.6 129.883 276.25 128.517 275.55C127.15 274.85 126.133 273.933 125.467 272.8C124.8 271.633 124.467 270.367 124.467 269C124.467 266.6 125.4 264.7 127.267 263.3C129.133 261.9 131.8 261.2 135.267 261.2H141.767V260.75C141.767 258.817 141.233 257.367 140.167 256.4C139.133 255.433 137.783 254.95 136.117 254.95C134.65 254.95 133.367 255.317 132.267 256.05C131.2 256.75 130.55 257.8 130.317 259.2H125.017C125.183 257.4 125.783 255.867 126.817 254.6C127.883 253.3 129.217 252.317 130.817 251.65C132.45 250.95 134.233 250.6 136.167 250.6C139.633 250.6 142.317 251.517 144.217 253.35C146.117 255.15 147.067 257.617 147.067 260.75V276H142.467L142.017 271.75C141.317 273.117 140.3 274.267 138.967 275.2C137.633 276.133 135.883 276.6 133.717 276.6ZM134.767 272.3C136.2 272.3 137.4 271.967 138.367 271.3C139.367 270.6 140.133 269.683 140.667 268.55C141.233 267.417 141.583 266.167 141.717 264.8H135.817C133.717 264.8 132.217 265.167 131.317 265.9C130.45 266.633 130.017 267.55 130.017 268.65C130.017 269.783 130.433 270.683 131.267 271.35C132.133 271.983 133.3 272.3 134.767 272.3ZM165.146 276.6C162.713 276.6 160.53 276.05 158.596 274.95C156.696 273.85 155.196 272.333 154.096 270.4C153.03 268.433 152.496 266.167 152.496 263.6C152.496 261.033 153.03 258.783 154.096 256.85C155.196 254.883 156.696 253.35 158.596 252.25C160.53 251.15 162.713 250.6 165.146 250.6C168.213 250.6 170.78 251.4 172.846 253C174.946 254.6 176.296 256.767 176.896 259.5H171.346C171.013 258.133 170.28 257.067 169.146 256.3C168.013 255.533 166.68 255.15 165.146 255.15C163.846 255.15 162.646 255.483 161.546 256.15C160.446 256.783 159.563 257.733 158.896 259C158.23 260.233 157.896 261.767 157.896 263.6C157.896 265.433 158.23 266.983 158.896 268.25C159.563 269.483 160.446 270.433 161.546 271.1C162.646 271.767 163.846 272.1 165.146 272.1C166.68 272.1 168.013 271.717 169.146 270.95C170.28 270.183 171.013 269.1 171.346 267.7H176.896C176.33 270.367 174.996 272.517 172.896 274.15C170.796 275.783 168.213 276.6 165.146 276.6ZM192.706 276C190.273 276 188.34 275.417 186.906 274.25C185.473 273.05 184.756 270.933 184.756 267.9V255.65H180.506V251.2H184.756L185.406 244.9H190.056V251.2H197.056V255.65H190.056V267.9C190.056 269.267 190.34 270.217 190.906 270.75C191.506 271.25 192.523 271.5 193.956 271.5H196.806V276H192.706ZM205.671 246.5C204.671 246.5 203.838 246.2 203.171 245.6C202.538 244.967 202.221 244.183 202.221 243.25C202.221 242.317 202.538 241.55 203.171 240.95C203.838 240.317 204.671 240 205.671 240C206.671 240 207.488 240.317 208.121 240.95C208.788 241.55 209.121 242.317 209.121 243.25C209.121 244.183 208.788 244.967 208.121 245.6C207.488 246.2 206.671 246.5 205.671 246.5ZM203.021 276V251.2H208.321V276H203.021ZM227.068 276.6C224.701 276.6 222.568 276.067 220.668 275C218.801 273.9 217.318 272.383 216.218 270.45C215.118 268.483 214.568 266.2 214.568 263.6C214.568 261 215.118 258.733 216.218 256.8C217.351 254.833 218.868 253.317 220.768 252.25C222.668 251.15 224.784 250.6 227.118 250.6C229.484 250.6 231.601 251.15 233.468 252.25C235.368 253.317 236.868 254.833 237.968 256.8C239.101 258.733 239.668 261 239.668 263.6C239.668 266.2 239.101 268.483 237.968 270.45C236.868 272.383 235.368 273.9 233.468 275C231.568 276.067 229.434 276.6 227.068 276.6ZM227.068 272.05C228.334 272.05 229.501 271.733 230.568 271.1C231.668 270.467 232.551 269.533 233.218 268.3C233.884 267.033 234.218 265.467 234.218 263.6C234.218 261.733 233.884 260.183 233.218 258.95C232.584 257.683 231.718 256.733 230.618 256.1C229.551 255.467 228.384 255.15 227.118 255.15C225.851 255.15 224.668 255.467 223.568 256.1C222.501 256.733 221.634 257.683 220.968 258.95C220.301 260.183 219.968 261.733 219.968 263.6C219.968 265.467 220.301 267.033 220.968 268.3C221.634 269.533 222.501 270.467 223.568 271.1C224.634 271.733 225.801 272.05 227.068 272.05ZM245.549 276V251.2H250.249L250.649 255.55C251.416 254.017 252.533 252.817 253.999 251.95C255.499 251.05 257.216 250.6 259.149 250.6C262.149 250.6 264.499 251.533 266.199 253.4C267.933 255.267 268.799 258.05 268.799 261.75V276H263.549V262.3C263.549 257.5 261.583 255.1 257.649 255.1C255.683 255.1 254.049 255.8 252.749 257.2C251.483 258.6 250.849 260.6 250.849 263.2V276H245.549ZM285.091 276.6C281.958 276.6 279.375 275.833 277.341 274.3C275.308 272.767 274.141 270.733 273.841 268.2H279.191C279.458 269.333 280.091 270.317 281.091 271.15C282.091 271.95 283.408 272.35 285.041 272.35C286.641 272.35 287.808 272.017 288.541 271.35C289.275 270.683 289.641 269.917 289.641 269.05C289.641 267.783 289.125 266.933 288.091 266.5C287.091 266.033 285.691 265.617 283.891 265.25C282.491 264.95 281.091 264.55 279.691 264.05C278.325 263.55 277.175 262.85 276.241 261.95C275.341 261.017 274.891 259.767 274.891 258.2C274.891 256.033 275.725 254.233 277.391 252.8C279.058 251.333 281.391 250.6 284.391 250.6C287.158 250.6 289.391 251.267 291.091 252.6C292.825 253.933 293.841 255.817 294.141 258.25H289.041C288.875 257.183 288.375 256.35 287.541 255.75C286.741 255.15 285.658 254.85 284.291 254.85C282.958 254.85 281.925 255.133 281.191 255.7C280.458 256.233 280.091 256.933 280.091 257.8C280.091 258.667 280.591 259.35 281.591 259.85C282.625 260.35 283.975 260.8 285.641 261.2C287.308 261.567 288.841 262 290.241 262.5C291.675 262.967 292.825 263.667 293.691 264.6C294.558 265.533 294.991 266.9 294.991 268.7C295.025 270.967 294.141 272.85 292.341 274.35C290.575 275.85 288.158 276.6 285.091 276.6ZM314.925 276V255.65H311.375V251.2H314.925V247.6C314.925 244.9 315.592 242.967 316.925 241.8C318.292 240.6 320.208 240 322.675 240H325.275V244.5H323.475C322.308 244.5 321.475 244.75 320.975 245.25C320.475 245.717 320.225 246.517 320.225 247.65V251.2H325.925V255.65H320.225V276H314.925ZM341.734 276.6C339.3 276.6 337.134 276.067 335.234 275C333.367 273.9 331.9 272.383 330.834 270.45C329.767 268.517 329.234 266.267 329.234 263.7C329.234 261.1 329.75 258.817 330.784 256.85C331.85 254.883 333.317 253.35 335.184 252.25C337.084 251.15 339.284 250.6 341.784 250.6C344.217 250.6 346.334 251.15 348.134 252.25C349.934 253.317 351.334 254.75 352.334 256.55C353.334 258.35 353.834 260.333 353.834 262.5C353.834 262.833 353.817 263.2 353.784 263.6C353.784 263.967 353.767 264.383 353.734 264.85H334.434C334.6 267.25 335.384 269.083 336.784 270.35C338.217 271.583 339.867 272.2 341.734 272.2C343.234 272.2 344.484 271.867 345.484 271.2C346.517 270.5 347.284 269.567 347.784 268.4H353.084C352.417 270.733 351.084 272.683 349.084 274.25C347.117 275.817 344.667 276.6 341.734 276.6ZM341.734 254.95C339.967 254.95 338.4 255.483 337.034 256.55C335.667 257.583 334.834 259.15 334.534 261.25H348.534C348.434 259.317 347.75 257.783 346.484 256.65C345.217 255.517 343.634 254.95 341.734 254.95ZM371.083 276.6C368.649 276.6 366.483 276.067 364.583 275C362.716 273.9 361.249 272.383 360.183 270.45C359.116 268.517 358.583 266.267 358.583 263.7C358.583 261.1 359.099 258.817 360.133 256.85C361.199 254.883 362.666 253.35 364.533 252.25C366.433 251.15 368.633 250.6 371.133 250.6C373.566 250.6 375.683 251.15 377.483 252.25C379.283 253.317 380.683 254.75 381.683 256.55C382.683 258.35 383.183 260.333 383.183 262.5C383.183 262.833 383.166 263.2 383.133 263.6C383.133 263.967 383.116 264.383 383.083 264.85H363.783C363.949 267.25 364.733 269.083 366.133 270.35C367.566 271.583 369.216 272.2 371.083 272.2C372.583 272.2 373.833 271.867 374.833 271.2C375.866 270.5 376.633 269.567 377.133 268.4H382.433C381.766 270.733 380.433 272.683 378.433 274.25C376.466 275.817 374.016 276.6 371.083 276.6ZM371.083 254.95C369.316 254.95 367.749 255.483 366.383 256.55C365.016 257.583 364.183 259.15 363.883 261.25H377.883C377.783 259.317 377.099 257.783 375.833 256.65C374.566 255.517 372.983 254.95 371.083 254.95ZM398.732 276.6C395.599 276.6 393.015 275.833 390.982 274.3C388.949 272.767 387.782 270.733 387.482 268.2H392.832C393.099 269.333 393.732 270.317 394.732 271.15C395.732 271.95 397.049 272.35 398.682 272.35C400.282 272.35 401.449 272.017 402.182 271.35C402.915 270.683 403.282 269.917 403.282 269.05C403.282 267.783 402.765 266.933 401.732 266.5C400.732 266.033 399.332 265.617 397.532 265.25C396.132 264.95 394.732 264.55 393.332 264.05C391.965 263.55 390.815 262.85 389.882 261.95C388.982 261.017 388.532 259.767 388.532 258.2C388.532 256.033 389.365 254.233 391.032 252.8C392.699 251.333 395.032 250.6 398.032 250.6C400.799 250.6 403.032 251.267 404.732 252.6C406.465 253.933 407.482 255.817 407.782 258.25H402.682C402.515 257.183 402.015 256.35 401.182 255.75C400.382 255.15 399.299 254.85 397.932 254.85C396.599 254.85 395.565 255.133 394.832 255.7C394.099 256.233 393.732 256.933 393.732 257.8C393.732 258.667 394.232 259.35 395.232 259.85C396.265 260.35 397.615 260.8 399.282 261.2C400.949 261.567 402.482 262 403.882 262.5C405.315 262.967 406.465 263.667 407.332 264.6C408.199 265.533 408.632 266.9 408.632 268.7C408.665 270.967 407.782 272.85 405.982 274.35C404.215 275.85 401.799 276.6 398.732 276.6ZM13.65 336.6C11.25 336.6 9.13333 336.033 7.3 334.9C5.46667 333.767 4.03333 332.217 3 330.25C1.96667 328.283 1.45 326.05 1.45 323.55C1.45 321.05 1.96667 318.833 3 316.9C4.03333 314.933 5.46667 313.4 7.3 312.3C9.16667 311.167 11.3 310.6 13.7 310.6C15.6667 310.6 17.3833 310.983 18.85 311.75C20.35 312.517 21.5167 313.6 22.35 315V300H27.65V336H22.9L22.35 332.15C21.55 333.317 20.45 334.35 19.05 335.25C17.65 336.15 15.85 336.6 13.65 336.6ZM14.6 332C16.8667 332 18.7167 331.217 20.15 329.65C21.6167 328.083 22.35 326.067 22.35 323.6C22.35 321.1 21.6167 319.083 20.15 317.55C18.7167 315.983 16.8667 315.2 14.6 315.2C12.3333 315.2 10.4667 315.983 9 317.55C7.53333 319.083 6.8 321.1 6.8 323.6C6.8 325.233 7.13333 326.683 7.8 327.95C8.46667 329.217 9.38333 330.217 10.55 330.95C11.75 331.65 13.1 332 14.6 332ZM43.6324 336.6C40.6324 336.6 38.2658 335.667 36.5324 333.8C34.8324 331.933 33.9824 329.15 33.9824 325.45V311.2H39.2824V324.9C39.2824 329.7 41.2491 332.1 45.1824 332.1C47.1491 332.1 48.7658 331.4 50.0324 330C51.2991 328.6 51.9324 326.6 51.9324 324V311.2H57.2324V336H52.5324L52.1324 331.65C51.3658 333.183 50.2324 334.4 48.7324 335.3C47.2658 336.167 45.5658 336.6 43.6324 336.6ZM64.1246 336V311.2H68.8746L69.3246 315.9C70.1913 314.267 71.3913 312.983 72.9246 312.05C74.4913 311.083 76.3746 310.6 78.5746 310.6V316.15H77.1246C75.6579 316.15 74.3413 316.4 73.1746 316.9C72.0413 317.367 71.1246 318.183 70.4246 319.35C69.7579 320.483 69.4246 322.067 69.4246 324.1V336H64.1246ZM86.2687 306.5C85.2687 306.5 84.4354 306.2 83.7687 305.6C83.1354 304.967 82.8187 304.183 82.8187 303.25C82.8187 302.317 83.1354 301.55 83.7687 300.95C84.4354 300.317 85.2687 300 86.2687 300C87.2687 300 88.0854 300.317 88.7187 300.95C89.3854 301.55 89.7187 302.317 89.7187 303.25C89.7187 304.183 89.3854 304.967 88.7187 305.6C88.0854 306.2 87.2687 306.5 86.2687 306.5ZM83.6187 336V311.2H88.9187V336H83.6187ZM96.0652 336V311.2H100.765L101.165 315.55C101.932 314.017 103.049 312.817 104.515 311.95C106.015 311.05 107.732 310.6 109.665 310.6C112.665 310.6 115.015 311.533 116.715 313.4C118.449 315.267 119.315 318.05 119.315 321.75V336H114.065V322.3C114.065 317.5 112.099 315.1 108.165 315.1C106.199 315.1 104.565 315.8 103.265 317.2C101.999 318.6 101.365 320.6 101.365 323.2V336H96.0652ZM135.857 328.4C134.557 328.4 133.357 328.25 132.257 327.95L130.107 330.05C130.474 330.283 130.924 330.483 131.457 330.65C131.991 330.817 132.741 330.967 133.707 331.1C134.674 331.233 135.991 331.367 137.657 331.5C140.957 331.8 143.341 332.6 144.807 333.9C146.274 335.167 147.007 336.867 147.007 339C147.007 340.467 146.607 341.85 145.807 343.15C145.041 344.483 143.824 345.55 142.157 346.35C140.524 347.183 138.424 347.6 135.857 347.6C132.391 347.6 129.574 346.933 127.407 345.6C125.274 344.3 124.207 342.317 124.207 339.65C124.207 338.617 124.474 337.583 125.007 336.55C125.574 335.55 126.457 334.6 127.657 333.7C126.957 333.4 126.341 333.083 125.807 332.75C125.307 332.383 124.857 332.017 124.457 331.65V330.45L128.757 326.05C126.824 324.383 125.857 322.2 125.857 319.5C125.857 317.867 126.241 316.383 127.007 315.05C127.807 313.683 128.957 312.6 130.457 311.8C131.957 311 133.757 310.6 135.857 310.6C137.257 310.6 138.557 310.8 139.757 311.2H149.007V314.7L144.607 314.95C145.407 316.317 145.807 317.833 145.807 319.5C145.807 321.167 145.407 322.667 144.607 324C143.841 325.333 142.707 326.4 141.207 327.2C139.741 328 137.957 328.4 135.857 328.4ZM135.857 324.25C137.391 324.25 138.624 323.85 139.557 323.05C140.524 322.217 141.007 321.05 141.007 319.55C141.007 318.017 140.524 316.85 139.557 316.05C138.624 315.25 137.391 314.85 135.857 314.85C134.291 314.85 133.024 315.25 132.057 316.05C131.124 316.85 130.657 318.017 130.657 319.55C130.657 321.05 131.124 322.217 132.057 323.05C133.024 323.85 134.291 324.25 135.857 324.25ZM129.207 339.15C129.207 340.583 129.841 341.65 131.107 342.35C132.374 343.083 133.957 343.45 135.857 343.45C137.691 343.45 139.174 343.05 140.307 342.25C141.441 341.483 142.007 340.45 142.007 339.15C142.007 338.183 141.624 337.35 140.857 336.65C140.091 335.983 138.641 335.567 136.507 335.4C134.907 335.3 133.491 335.15 132.257 334.95C131.091 335.583 130.291 336.267 129.857 337C129.424 337.733 129.207 338.45 129.207 339.15ZM177.032 336C174.599 336 172.666 335.417 171.232 334.25C169.799 333.05 169.082 330.933 169.082 327.9V315.65H164.832V311.2H169.082L169.732 304.9H174.382V311.2H181.382V315.65H174.382V327.9C174.382 329.267 174.666 330.217 175.232 330.75C175.832 331.25 176.849 331.5 178.282 331.5H181.132V336H177.032ZM186.997 336V300H192.297V315.2C193.131 313.767 194.281 312.65 195.747 311.85C197.247 311.017 198.897 310.6 200.697 310.6C203.664 310.6 205.997 311.533 207.697 313.4C209.397 315.267 210.247 318.05 210.247 321.75V336H204.997V322.3C204.997 317.5 203.081 315.1 199.247 315.1C197.247 315.1 195.581 315.8 194.247 317.2C192.947 318.6 192.297 320.6 192.297 323.2V336H186.997ZM228.239 336.6C225.806 336.6 223.639 336.067 221.739 335C219.873 333.9 218.406 332.383 217.339 330.45C216.273 328.517 215.739 326.267 215.739 323.7C215.739 321.1 216.256 318.817 217.289 316.85C218.356 314.883 219.823 313.35 221.689 312.25C223.589 311.15 225.789 310.6 228.289 310.6C230.723 310.6 232.839 311.15 234.639 312.25C236.439 313.317 237.839 314.75 238.839 316.55C239.839 318.35 240.339 320.333 240.339 322.5C240.339 322.833 240.323 323.2 240.289 323.6C240.289 323.967 240.273 324.383 240.239 324.85H220.939C221.106 327.25 221.889 329.083 223.289 330.35C224.723 331.583 226.373 332.2 228.239 332.2C229.739 332.2 230.989 331.867 231.989 331.2C233.023 330.5 233.789 329.567 234.289 328.4H239.589C238.923 330.733 237.589 332.683 235.589 334.25C233.623 335.817 231.173 336.6 228.239 336.6ZM228.239 314.95C226.473 314.95 224.906 315.483 223.539 316.55C222.173 317.583 221.339 319.15 221.039 321.25H235.039C234.939 319.317 234.256 317.783 232.989 316.65C231.723 315.517 230.139 314.95 228.239 314.95ZM258.736 347V311.2H263.486L264.036 315.05C264.836 313.883 265.936 312.85 267.336 311.95C268.736 311.05 270.536 310.6 272.736 310.6C275.136 310.6 277.253 311.167 279.086 312.3C280.92 313.433 282.353 314.983 283.386 316.95C284.453 318.917 284.986 321.15 284.986 323.65C284.986 326.15 284.453 328.383 283.386 330.35C282.353 332.283 280.92 333.817 279.086 334.95C277.253 336.05 275.12 336.6 272.686 336.6C270.753 336.6 269.036 336.217 267.536 335.45C266.07 334.683 264.903 333.6 264.036 332.2V347H258.736ZM271.786 332C274.053 332 275.92 331.233 277.386 329.7C278.853 328.133 279.586 326.1 279.586 323.6C279.586 321.967 279.253 320.517 278.586 319.25C277.92 317.983 277.003 317 275.836 316.3C274.67 315.567 273.32 315.2 271.786 315.2C269.52 315.2 267.653 315.983 266.186 317.55C264.753 319.117 264.036 321.133 264.036 323.6C264.036 326.1 264.753 328.133 266.186 329.7C267.653 331.233 269.52 332 271.786 332ZM299.269 336.6C297.169 336.6 295.435 336.25 294.069 335.55C292.702 334.85 291.685 333.933 291.019 332.8C290.352 331.633 290.019 330.367 290.019 329C290.019 326.6 290.952 324.7 292.819 323.3C294.685 321.9 297.352 321.2 300.819 321.2H307.319V320.75C307.319 318.817 306.785 317.367 305.719 316.4C304.685 315.433 303.335 314.95 301.669 314.95C300.202 314.95 298.919 315.317 297.819 316.05C296.752 316.75 296.102 317.8 295.869 319.2H290.569C290.735 317.4 291.335 315.867 292.369 314.6C293.435 313.3 294.769 312.317 296.369 311.65C298.002 310.95 299.785 310.6 301.719 310.6C305.185 310.6 307.869 311.517 309.769 313.35C311.669 315.15 312.619 317.617 312.619 320.75V336H308.019L307.569 331.75C306.869 333.117 305.852 334.267 304.519 335.2C303.185 336.133 301.435 336.6 299.269 336.6ZM300.319 332.3C301.752 332.3 302.952 331.967 303.919 331.3C304.919 330.6 305.685 329.683 306.219 328.55C306.785 327.417 307.135 326.167 307.269 324.8H301.369C299.269 324.8 297.769 325.167 296.869 325.9C296.002 326.633 295.569 327.55 295.569 328.65C295.569 329.783 295.985 330.683 296.819 331.35C297.685 331.983 298.852 332.3 300.319 332.3ZM318.948 336V311.2H323.648L324.048 315.55C324.815 314.017 325.932 312.817 327.398 311.95C328.898 311.05 330.615 310.6 332.548 310.6C335.548 310.6 337.898 311.533 339.598 313.4C341.332 315.267 342.198 318.05 342.198 321.75V336H336.948V322.3C336.948 317.5 334.982 315.1 331.048 315.1C329.082 315.1 327.448 315.8 326.148 317.2C324.882 318.6 324.248 320.6 324.248 323.2V336H318.948ZM359.891 336.6C357.491 336.6 355.374 336.033 353.541 334.9C351.707 333.767 350.274 332.217 349.241 330.25C348.207 328.283 347.691 326.05 347.691 323.55C347.691 321.05 348.207 318.833 349.241 316.9C350.274 314.933 351.707 313.4 353.541 312.3C355.407 311.167 357.541 310.6 359.941 310.6C361.907 310.6 363.624 310.983 365.091 311.75C366.591 312.517 367.757 313.6 368.591 315V300H373.891V336H369.141L368.591 332.15C367.791 333.317 366.691 334.35 365.291 335.25C363.891 336.15 362.091 336.6 359.891 336.6ZM360.841 332C363.107 332 364.957 331.217 366.391 329.65C367.857 328.083 368.591 326.067 368.591 323.6C368.591 321.1 367.857 319.083 366.391 317.55C364.957 315.983 363.107 315.2 360.841 315.2C358.574 315.2 356.707 315.983 355.241 317.55C353.774 319.083 353.041 321.1 353.041 323.6C353.041 325.233 353.374 326.683 354.041 327.95C354.707 329.217 355.624 330.217 356.791 330.95C357.991 331.65 359.341 332 360.841 332ZM392.323 336.6C389.89 336.6 387.723 336.067 385.823 335C383.956 333.9 382.49 332.383 381.423 330.45C380.356 328.517 379.823 326.267 379.823 323.7C379.823 321.1 380.34 318.817 381.373 316.85C382.44 314.883 383.906 313.35 385.773 312.25C387.673 311.15 389.873 310.6 392.373 310.6C394.806 310.6 396.923 311.15 398.723 312.25C400.523 313.317 401.923 314.75 402.923 316.55C403.923 318.35 404.423 320.333 404.423 322.5C404.423 322.833 404.406 323.2 404.373 323.6C404.373 323.967 404.356 324.383 404.323 324.85H385.023C385.19 327.25 385.973 329.083 387.373 330.35C388.806 331.583 390.456 332.2 392.323 332.2C393.823 332.2 395.073 331.867 396.073 331.2C397.106 330.5 397.873 329.567 398.373 328.4H403.673C403.006 330.733 401.673 332.683 399.673 334.25C397.706 335.817 395.256 336.6 392.323 336.6ZM392.323 314.95C390.556 314.95 388.99 315.483 387.623 316.55C386.256 317.583 385.423 319.15 385.123 321.25H399.123C399.023 319.317 398.34 317.783 397.073 316.65C395.806 315.517 394.223 314.95 392.323 314.95ZM410.072 336V311.2H414.772L415.222 314.7C416.022 313.433 417.072 312.433 418.372 311.7C419.706 310.967 421.239 310.6 422.972 310.6C426.906 310.6 429.639 312.15 431.172 315.25C432.072 313.817 433.272 312.683 434.772 311.85C436.306 311.017 437.956 310.6 439.722 310.6C442.822 310.6 445.256 311.533 447.022 313.4C448.789 315.267 449.672 318.05 449.672 321.75V336H444.372V322.3C444.372 317.5 442.539 315.1 438.872 315.1C437.006 315.1 435.472 315.8 434.272 317.2C433.106 318.6 432.522 320.6 432.522 323.2V336H427.222V322.3C427.222 317.5 425.372 315.1 421.672 315.1C419.839 315.1 418.322 315.8 417.122 317.2C415.956 318.6 415.372 320.6 415.372 323.2V336H410.072ZM459.023 306.5C458.023 306.5 457.19 306.2 456.523 305.6C455.89 304.967 455.573 304.183 455.573 303.25C455.573 302.317 455.89 301.55 456.523 300.95C457.19 300.317 458.023 300 459.023 300C460.023 300 460.84 300.317 461.473 300.95C462.14 301.55 462.473 302.317 462.473 303.25C462.473 304.183 462.14 304.967 461.473 305.6C460.84 306.2 460.023 306.5 459.023 306.5ZM456.373 336V311.2H461.673V336H456.373ZM480.57 336.6C478.136 336.6 475.953 336.05 474.02 334.95C472.12 333.85 470.62 332.333 469.52 330.4C468.453 328.433 467.92 326.167 467.92 323.6C467.92 321.033 468.453 318.783 469.52 316.85C470.62 314.883 472.12 313.35 474.02 312.25C475.953 311.15 478.136 310.6 480.57 310.6C483.636 310.6 486.203 311.4 488.27 313C490.37 314.6 491.72 316.767 492.32 319.5H486.77C486.436 318.133 485.703 317.067 484.57 316.3C483.436 315.533 482.103 315.15 480.57 315.15C479.27 315.15 478.07 315.483 476.97 316.15C475.87 316.783 474.986 317.733 474.32 319C473.653 320.233 473.32 321.767 473.32 323.6C473.32 325.433 473.653 326.983 474.32 328.25C474.986 329.483 475.87 330.433 476.97 331.1C478.07 331.767 479.27 332.1 480.57 332.1C482.103 332.1 483.436 331.717 484.57 330.95C485.703 330.183 486.436 329.1 486.77 327.7H492.32C491.753 330.367 490.42 332.517 488.32 334.15C486.22 335.783 483.636 336.6 480.57 336.6ZM500.318 336.3C499.318 336.3 498.484 335.983 497.818 335.35C497.184 334.683 496.868 333.9 496.868 333C496.868 332.067 497.184 331.283 497.818 330.65C498.484 329.983 499.318 329.65 500.318 329.65C501.318 329.65 502.134 329.983 502.768 330.65C503.401 331.283 503.718 332.067 503.718 333C503.718 333.9 503.401 334.683 502.768 335.35C502.134 335.983 501.318 336.3 500.318 336.3Z" fill="#1D1A1B"/>
</svg>
