<svg width="1000" height="54" viewBox="0 0 1000 54" fill="none" xmlns="http://www.w3.org/2000/svg">
<path d="M0.68 41L15.128 1.8H20.112L34.504 41H29.52L25.936 30.92H9.248L5.608 41H0.68ZM10.648 27.112H24.536L17.592 7.736L10.648 27.112ZM54.8915 41.672C52.6142 41.672 50.5795 41.2053 48.7875 40.272C47.0328 39.3387 45.6888 38.032 44.7555 36.352L44.3075 41H40.0515V0.679998H44.7555V17.816C45.6515 16.472 46.9208 15.2587 48.5635 14.176C50.2435 13.0933 52.3715 12.552 54.9475 12.552C57.7102 12.552 60.1182 13.1867 62.1715 14.456C64.2248 15.7253 65.8115 17.4613 66.9315 19.664C68.0888 21.8667 68.6675 24.368 68.6675 27.168C68.6675 29.968 68.0888 32.4693 66.9315 34.672C65.8115 36.8373 64.2062 38.5547 62.1155 39.824C60.0622 41.056 57.6542 41.672 54.8915 41.672ZM54.3875 37.584C56.2542 37.584 57.8968 37.1547 59.3155 36.296C60.7342 35.4 61.8542 34.168 62.6755 32.6C63.4968 31.032 63.9075 29.2027 63.9075 27.112C63.9075 25.0213 63.4968 23.192 62.6755 21.624C61.8542 20.056 60.7342 18.8427 59.3155 17.984C57.8968 17.088 56.2542 16.64 54.3875 16.64C52.5208 16.64 50.8782 17.088 49.4595 17.984C48.0408 18.8427 46.9208 20.056 46.0995 21.624C45.2782 23.192 44.8675 25.0213 44.8675 27.112C44.8675 29.2027 45.2782 31.032 46.0995 32.6C46.9208 34.168 48.0408 35.4 49.4595 36.296C50.8782 37.1547 52.5208 37.584 54.3875 37.584ZM78.0716 7.064C77.1382 7.064 76.3542 6.76533 75.7196 6.168C75.1222 5.53333 74.8236 4.74933 74.8236 3.816C74.8236 2.92 75.1222 2.17333 75.7196 1.576C76.3542 0.978665 77.1382 0.679998 78.0716 0.679998C78.9676 0.679998 79.7329 0.978665 80.3676 1.576C81.0022 2.17333 81.3196 2.92 81.3196 3.816C81.3196 4.74933 81.0022 5.53333 80.3676 6.168C79.7329 6.76533 78.9676 7.064 78.0716 7.064ZM75.7196 41V13.224H80.4236V41H75.7196ZM88.614 41V0.679998H93.318V41H88.614ZM103.884 7.064C102.951 7.064 102.167 6.76533 101.532 6.168C100.935 5.53333 100.636 4.74933 100.636 3.816C100.636 2.92 100.935 2.17333 101.532 1.576C102.167 0.978665 102.951 0.679998 103.884 0.679998C104.78 0.679998 105.545 0.978665 106.18 1.576C106.815 2.17333 107.132 2.92 107.132 3.816C107.132 4.74933 106.815 5.53333 106.18 6.168C105.545 6.76533 104.78 7.064 103.884 7.064ZM101.532 41V13.224H106.236V41H101.532ZM125.403 41C122.864 41 120.867 40.384 119.411 39.152C117.955 37.92 117.227 35.6987 117.227 32.488V17.2H112.41V13.224H117.227L117.843 6.56H121.931V13.224H130.107V17.2H121.931V32.488C121.931 34.2427 122.285 35.4373 122.995 36.072C123.704 36.6693 124.955 36.968 126.747 36.968H129.659V41H125.403ZM139.107 53.32L145.995 38.312H144.371L133.339 13.224H138.435L147.619 34.84L157.363 13.224H162.235L144.035 53.32H139.107ZM192.996 41C190.458 41 188.46 40.384 187.004 39.152C185.548 37.92 184.82 35.6987 184.82 32.488V17.2H180.004V13.224H184.82L185.436 6.56H189.524V13.224H197.7V17.2H189.524V32.488C189.524 34.2427 189.879 35.4373 190.588 36.072C191.298 36.6693 192.548 36.968 194.34 36.968H197.252V41H192.996ZM215.567 41.672C212.954 41.672 210.602 41.0747 208.511 39.88C206.42 38.6853 204.759 37.0053 203.527 34.84C202.332 32.6373 201.735 30.0613 201.735 27.112C201.735 24.1627 202.351 21.6053 203.583 19.44C204.815 17.2373 206.476 15.5387 208.567 14.344C210.695 13.1493 213.066 12.552 215.679 12.552C218.292 12.552 220.644 13.1493 222.735 14.344C224.826 15.5387 226.468 17.2373 227.663 19.44C228.895 21.6053 229.511 24.1627 229.511 27.112C229.511 30.0613 228.895 32.6373 227.663 34.84C226.431 37.0053 224.751 38.6853 222.623 39.88C220.532 41.0747 218.18 41.672 215.567 41.672ZM215.567 37.64C217.172 37.64 218.666 37.248 220.047 36.464C221.428 35.68 222.548 34.504 223.407 32.936C224.266 31.368 224.695 29.4267 224.695 27.112C224.695 24.7973 224.266 22.856 223.407 21.288C222.586 19.72 221.484 18.544 220.103 17.76C218.722 16.976 217.247 16.584 215.679 16.584C214.074 16.584 212.58 16.976 211.199 17.76C209.818 18.544 208.698 19.72 207.839 21.288C206.98 22.856 206.551 24.7973 206.551 27.112C206.551 29.4267 206.98 31.368 207.839 32.936C208.698 34.504 209.799 35.68 211.143 36.464C212.524 37.248 213.999 37.64 215.567 37.64ZM250.872 53.32V13.224H255.128L255.576 17.816C256.472 16.472 257.741 15.2587 259.384 14.176C261.064 13.0933 263.192 12.552 265.768 12.552C268.53 12.552 270.938 13.1867 272.992 14.456C275.045 15.7253 276.632 17.4613 277.752 19.664C278.909 21.8667 279.488 24.368 279.488 27.168C279.488 29.968 278.909 32.4693 277.752 34.672C276.632 36.8373 275.026 38.5547 272.936 39.824C270.882 41.056 268.474 41.672 265.712 41.672C263.434 41.672 261.4 41.2053 259.608 40.272C257.853 39.3387 256.509 38.032 255.576 36.352V53.32H250.872ZM265.208 37.584C267.074 37.584 268.717 37.1547 270.136 36.296C271.554 35.4 272.674 34.168 273.496 32.6C274.317 31.032 274.728 29.2027 274.728 27.112C274.728 25.0213 274.317 23.192 273.496 21.624C272.674 20.056 271.554 18.8427 270.136 17.984C268.717 17.088 267.074 16.64 265.208 16.64C263.341 16.64 261.698 17.088 260.28 17.984C258.861 18.8427 257.741 20.056 256.92 21.624C256.098 23.192 255.688 25.0213 255.688 27.112C255.688 29.2027 256.098 31.032 256.92 32.6C257.741 34.168 258.861 35.4 260.28 36.296C261.698 37.1547 263.341 37.584 265.208 37.584ZM288.892 7.064C287.959 7.064 287.175 6.76533 286.54 6.168C285.943 5.53333 285.644 4.74933 285.644 3.816C285.644 2.92 285.943 2.17333 286.54 1.576C287.175 0.978665 287.959 0.679998 288.892 0.679998C289.788 0.679998 290.553 0.978665 291.188 1.576C291.823 2.17333 292.14 2.92 292.14 3.816C292.14 4.74933 291.823 5.53333 291.188 6.168C290.553 6.76533 289.788 7.064 288.892 7.064ZM286.54 41V13.224H291.244V41H286.54ZM312.202 41.672C309.552 41.672 307.162 41.0747 305.034 39.88C302.944 38.648 301.282 36.9493 300.05 34.784C298.856 32.5813 298.258 30.024 298.258 27.112C298.258 24.2 298.856 21.6613 300.05 19.496C301.282 17.2933 302.944 15.5947 305.034 14.4C307.162 13.168 309.552 12.552 312.202 12.552C315.488 12.552 318.25 13.4107 320.49 15.128C322.768 16.8453 324.205 19.1413 324.802 22.016H319.986C319.613 20.2987 318.698 18.9733 317.242 18.04C315.786 17.0693 314.088 16.584 312.146 16.584C310.578 16.584 309.104 16.976 307.722 17.76C306.341 18.544 305.221 19.72 304.362 21.288C303.504 22.856 303.074 24.7973 303.074 27.112C303.074 29.4267 303.504 31.368 304.362 32.936C305.221 34.504 306.341 35.6987 307.722 36.52C309.104 37.304 310.578 37.696 312.146 37.696C314.088 37.696 315.786 37.2293 317.242 36.296C318.698 35.3253 319.613 33.9627 319.986 32.208H324.802C324.242 35.008 322.824 37.2853 320.546 39.04C318.269 40.7947 315.488 41.672 312.202 41.672ZM331.372 41V0.679998H336.076V24.928L347.444 13.224H353.212L340.892 25.768L354.78 41H348.788L336.076 26.608V41H331.372ZM389.251 41.672C386.974 41.672 384.939 41.2053 383.147 40.272C381.392 39.3387 380.048 38.032 379.115 36.352L378.667 41H374.411V0.679998H379.115V17.816C380.011 16.472 381.28 15.2587 382.923 14.176C384.603 13.0933 386.731 12.552 389.307 12.552C392.07 12.552 394.478 13.1867 396.531 14.456C398.584 15.7253 400.171 17.4613 401.291 19.664C402.448 21.8667 403.027 24.368 403.027 27.168C403.027 29.968 402.448 32.4693 401.291 34.672C400.171 36.8373 398.566 38.5547 396.475 39.824C394.422 41.056 392.014 41.672 389.251 41.672ZM388.747 37.584C390.614 37.584 392.256 37.1547 393.675 36.296C395.094 35.4 396.214 34.168 397.035 32.6C397.856 31.032 398.267 29.2027 398.267 27.112C398.267 25.0213 397.856 23.192 397.035 21.624C396.214 20.056 395.094 18.8427 393.675 17.984C392.256 17.088 390.614 16.64 388.747 16.64C386.88 16.64 385.238 17.088 383.819 17.984C382.4 18.8427 381.28 20.056 380.459 21.624C379.638 23.192 379.227 25.0213 379.227 27.112C379.227 29.2027 379.638 31.032 380.459 32.6C381.28 34.168 382.4 35.4 383.819 36.296C385.238 37.1547 386.88 37.584 388.747 37.584ZM422.063 41.672C419.412 41.672 417.06 41.0747 415.007 39.88C412.954 38.648 411.33 36.9493 410.135 34.784C408.978 32.6187 408.399 30.0613 408.399 27.112C408.399 24.2 408.978 21.6613 410.135 19.496C411.292 17.2933 412.898 15.5947 414.951 14.4C417.042 13.168 419.45 12.552 422.175 12.552C424.863 12.552 427.178 13.168 429.119 14.4C431.098 15.5947 432.61 17.1813 433.655 19.16C434.7 21.1387 435.223 23.2667 435.223 25.544C435.223 25.9547 435.204 26.3653 435.167 26.776C435.167 27.1867 435.167 27.6533 435.167 28.176H413.047C413.159 30.304 413.644 32.0773 414.503 33.496C415.399 34.8773 416.5 35.9227 417.807 36.632C419.151 37.3413 420.57 37.696 422.063 37.696C424.004 37.696 425.628 37.248 426.935 36.352C428.242 35.456 429.194 34.2427 429.791 32.712H434.439C433.692 35.288 432.255 37.4347 430.127 39.152C428.036 40.832 425.348 41.672 422.063 41.672ZM422.063 16.528C419.823 16.528 417.826 17.2187 416.071 18.6C414.354 19.944 413.364 21.9227 413.103 24.536H430.575C430.463 22.0347 429.604 20.0747 427.999 18.656C426.394 17.2373 424.415 16.528 422.063 16.528ZM451.504 41C448.965 41 446.968 40.384 445.512 39.152C444.056 37.92 443.328 35.6987 443.328 32.488V17.2H438.512V13.224H443.328L443.944 6.56H448.032V13.224H456.208V17.2H448.032V32.488C448.032 34.2427 448.387 35.4373 449.096 36.072C449.805 36.6693 451.056 36.968 452.848 36.968H455.76V41H451.504ZM467.784 41L459.664 13.224H464.368L470.248 35.008L476.744 13.224H482.064L488.616 35.008L494.44 13.224H499.2L491.08 41H486.264L479.432 18.096L472.6 41H467.784ZM515.852 41.672C513.201 41.672 510.849 41.0747 508.796 39.88C506.743 38.648 505.119 36.9493 503.924 34.784C502.767 32.6187 502.188 30.0613 502.188 27.112C502.188 24.2 502.767 21.6613 503.924 19.496C505.081 17.2933 506.687 15.5947 508.74 14.4C510.831 13.168 513.239 12.552 515.964 12.552C518.652 12.552 520.967 13.168 522.908 14.4C524.887 15.5947 526.399 17.1813 527.444 19.16C528.489 21.1387 529.012 23.2667 529.012 25.544C529.012 25.9547 528.993 26.3653 528.956 26.776C528.956 27.1867 528.956 27.6533 528.956 28.176H506.836C506.948 30.304 507.433 32.0773 508.292 33.496C509.188 34.8773 510.289 35.9227 511.596 36.632C512.94 37.3413 514.359 37.696 515.852 37.696C517.793 37.696 519.417 37.248 520.724 36.352C522.031 35.456 522.983 34.2427 523.58 32.712H528.228C527.481 35.288 526.044 37.4347 523.916 39.152C521.825 40.832 519.137 41.672 515.852 41.672ZM515.852 16.528C513.612 16.528 511.615 17.2187 509.86 18.6C508.143 19.944 507.153 21.9227 506.892 24.536H524.364C524.252 22.0347 523.393 20.0747 521.788 18.656C520.183 17.2373 518.204 16.528 515.852 16.528ZM547.735 41.672C545.084 41.672 542.732 41.0747 540.679 39.88C538.625 38.648 537.001 36.9493 535.807 34.784C534.649 32.6187 534.071 30.0613 534.071 27.112C534.071 24.2 534.649 21.6613 535.807 19.496C536.964 17.2933 538.569 15.5947 540.623 14.4C542.713 13.168 545.121 12.552 547.847 12.552C550.535 12.552 552.849 13.168 554.791 14.4C556.769 15.5947 558.281 17.1813 559.327 19.16C560.372 21.1387 560.895 23.2667 560.895 25.544C560.895 25.9547 560.876 26.3653 560.839 26.776C560.839 27.1867 560.839 27.6533 560.839 28.176H538.719C538.831 30.304 539.316 32.0773 540.175 33.496C541.071 34.8773 542.172 35.9227 543.479 36.632C544.823 37.3413 546.241 37.696 547.735 37.696C549.676 37.696 551.3 37.248 552.607 36.352C553.913 35.456 554.865 34.2427 555.463 32.712H560.111C559.364 35.288 557.927 37.4347 555.799 39.152C553.708 40.832 551.02 41.672 547.735 41.672ZM547.735 16.528C545.495 16.528 543.497 17.2187 541.743 18.6C540.025 19.944 539.036 21.9227 538.775 24.536H556.247C556.135 22.0347 555.276 20.0747 553.671 18.656C552.065 17.2373 550.087 16.528 547.735 16.528ZM567.13 41V13.224H571.386L571.666 18.208C572.562 16.4533 573.85 15.072 575.53 14.064C577.21 13.056 579.114 12.552 581.242 12.552C584.527 12.552 587.14 13.56 589.082 15.576C591.06 17.5547 592.05 20.616 592.05 24.76V41H587.346V25.264C587.346 19.4773 584.956 16.584 580.178 16.584C577.788 16.584 575.791 17.4613 574.186 19.216C572.618 20.9333 571.834 23.3973 571.834 26.608V41H567.13ZM619.597 41L611.477 13.224H616.181L622.061 35.008L628.557 13.224H633.877L640.429 35.008L646.253 13.224H651.013L642.893 41H638.077L631.245 18.096L624.413 41H619.597ZM664.471 41.672C662.157 41.672 660.234 41.28 658.703 40.496C657.173 39.712 656.034 38.6667 655.287 37.36C654.541 36.0533 654.167 34.6347 654.167 33.104C654.167 30.2667 655.25 28.0827 657.415 26.552C659.581 25.0213 662.53 24.256 666.263 24.256H673.767V23.92C673.767 21.4933 673.133 19.664 671.863 18.432C670.594 17.1627 668.895 16.528 666.767 16.528C664.938 16.528 663.351 16.9947 662.007 17.928C660.701 18.824 659.879 20.1493 659.543 21.904H654.727C654.914 19.888 655.586 18.1893 656.743 16.808C657.938 15.4267 659.413 14.3813 661.167 13.672C662.922 12.9253 664.789 12.552 666.767 12.552C670.65 12.552 673.562 13.5973 675.503 15.688C677.482 17.7413 678.471 20.4853 678.471 23.92V41H674.271L673.991 36.016C673.207 37.584 672.05 38.928 670.519 40.048C669.026 41.1307 667.01 41.672 664.471 41.672ZM665.199 37.696C666.991 37.696 668.522 37.2293 669.791 36.296C671.098 35.3627 672.087 34.1493 672.759 32.656C673.431 31.1627 673.767 29.5947 673.767 27.952V27.896H666.655C663.893 27.896 661.933 28.3813 660.775 29.352C659.655 30.2853 659.095 31.4613 659.095 32.88C659.095 34.336 659.618 35.512 660.663 36.408C661.746 37.2667 663.258 37.696 665.199 37.696ZM685.528 41V0.679998H690.232V41H685.528ZM697.942 41V0.679998H702.646V41H697.942ZM722.844 41.672C720.194 41.672 717.842 41.0747 715.788 39.88C713.735 38.648 712.111 36.9493 710.916 34.784C709.759 32.6187 709.18 30.0613 709.18 27.112C709.18 24.2 709.759 21.6613 710.916 19.496C712.074 17.2933 713.679 15.5947 715.732 14.4C717.823 13.168 720.231 12.552 722.956 12.552C725.644 12.552 727.959 13.168 729.9 14.4C731.879 15.5947 733.391 17.1813 734.436 19.16C735.482 21.1387 736.004 23.2667 736.004 25.544C736.004 25.9547 735.986 26.3653 735.948 26.776C735.948 27.1867 735.948 27.6533 735.948 28.176H713.828C713.94 30.304 714.426 32.0773 715.284 33.496C716.18 34.8773 717.282 35.9227 718.588 36.632C719.932 37.3413 721.351 37.696 722.844 37.696C724.786 37.696 726.41 37.248 727.716 36.352C729.023 35.456 729.975 34.2427 730.572 32.712H735.22C734.474 35.288 733.036 37.4347 730.908 39.152C728.818 40.832 726.13 41.672 722.844 41.672ZM722.844 16.528C720.604 16.528 718.607 17.2187 716.852 18.6C715.135 19.944 714.146 21.9227 713.884 24.536H731.356C731.244 22.0347 730.386 20.0747 728.78 18.656C727.175 17.2373 725.196 16.528 722.844 16.528ZM752.285 41C749.747 41 747.749 40.384 746.293 39.152C744.837 37.92 744.109 35.6987 744.109 32.488V17.2H739.293V13.224H744.109L744.725 6.56H748.813V13.224H756.989V17.2H748.813V32.488C748.813 34.2427 749.168 35.4373 749.877 36.072C750.587 36.6693 751.837 36.968 753.629 36.968H756.541V41H752.285ZM787.026 41.672C784.711 41.672 782.789 41.28 781.258 40.496C779.727 39.712 778.589 38.6667 777.842 37.36C777.095 36.0533 776.722 34.6347 776.722 33.104C776.722 30.2667 777.805 28.0827 779.97 26.552C782.135 25.0213 785.085 24.256 788.818 24.256H796.322V23.92C796.322 21.4933 795.687 19.664 794.418 18.432C793.149 17.1627 791.45 16.528 789.322 16.528C787.493 16.528 785.906 16.9947 784.562 17.928C783.255 18.824 782.434 20.1493 782.098 21.904H777.282C777.469 19.888 778.141 18.1893 779.298 16.808C780.493 15.4267 781.967 14.3813 783.722 13.672C785.477 12.9253 787.343 12.552 789.322 12.552C793.205 12.552 796.117 13.5973 798.058 15.688C800.037 17.7413 801.026 20.4853 801.026 23.92V41H796.826L796.546 36.016C795.762 37.584 794.605 38.928 793.074 40.048C791.581 41.1307 789.565 41.672 787.026 41.672ZM787.754 37.696C789.546 37.696 791.077 37.2293 792.346 36.296C793.653 35.3627 794.642 34.1493 795.314 32.656C795.986 31.1627 796.322 29.5947 796.322 27.952V27.896H789.21C786.447 27.896 784.487 28.3813 783.33 29.352C782.21 30.2853 781.65 31.4613 781.65 32.88C781.65 34.336 782.173 35.512 783.218 36.408C784.301 37.2667 785.813 37.696 787.754 37.696ZM808.083 41V13.224H812.339L812.619 18.208C813.515 16.4533 814.803 15.072 816.483 14.064C818.163 13.056 820.067 12.552 822.195 12.552C825.48 12.552 828.093 13.56 830.035 15.576C832.013 17.5547 833.003 20.616 833.003 24.76V41H828.299V25.264C828.299 19.4773 825.909 16.584 821.131 16.584C818.741 16.584 816.744 17.4613 815.139 19.216C813.571 20.9333 812.787 23.3973 812.787 26.608V41H808.083ZM852.73 41.672C849.967 41.672 847.54 41.0373 845.45 39.768C843.396 38.4987 841.791 36.7627 840.634 34.56C839.514 32.3573 838.954 29.856 838.954 27.056C838.954 24.256 839.532 21.7733 840.69 19.608C841.847 17.4053 843.452 15.688 845.506 14.456C847.559 13.1867 849.986 12.552 852.786 12.552C855.063 12.552 857.079 13.0187 858.834 13.952C860.588 14.8853 861.951 16.192 862.922 17.872V0.679998H867.626V41H863.37L862.922 36.408C862.026 37.752 860.738 38.9653 859.058 40.048C857.378 41.1307 855.268 41.672 852.73 41.672ZM853.234 37.584C855.1 37.584 856.743 37.1547 858.162 36.296C859.618 35.4 860.738 34.168 861.522 32.6C862.343 31.032 862.754 29.2027 862.754 27.112C862.754 25.0213 862.343 23.192 861.522 21.624C860.738 20.056 859.618 18.8427 858.162 17.984C856.743 17.088 855.1 16.64 853.234 16.64C851.404 16.64 849.762 17.088 848.306 17.984C846.887 18.8427 845.767 20.056 844.946 21.624C844.162 23.192 843.77 25.0213 843.77 27.112C843.77 29.2027 844.162 31.032 844.946 32.6C845.767 34.168 846.887 35.4 848.306 36.296C849.762 37.1547 851.404 37.584 853.234 37.584ZM902.882 41.672C900.231 41.672 897.842 41.0747 895.714 39.88C893.623 38.648 891.962 36.9493 890.73 34.784C889.535 32.5813 888.938 30.024 888.938 27.112C888.938 24.2 889.535 21.6613 890.73 19.496C891.962 17.2933 893.623 15.5947 895.714 14.4C897.842 13.168 900.231 12.552 902.882 12.552C906.167 12.552 908.93 13.4107 911.17 15.128C913.447 16.8453 914.885 19.1413 915.482 22.016H910.666C910.293 20.2987 909.378 18.9733 907.922 18.04C906.466 17.0693 904.767 16.584 902.826 16.584C901.258 16.584 899.783 16.976 898.402 17.76C897.021 18.544 895.901 19.72 895.042 21.288C894.183 22.856 893.754 24.7973 893.754 27.112C893.754 29.4267 894.183 31.368 895.042 32.936C895.901 34.504 897.021 35.6987 898.402 36.52C899.783 37.304 901.258 37.696 902.826 37.696C904.767 37.696 906.466 37.2293 907.922 36.296C909.378 35.3253 910.293 33.9627 910.666 32.208H915.482C914.922 35.008 913.503 37.2853 911.226 39.04C908.949 40.7947 906.167 41.672 902.882 41.672ZM931.292 41.672C928.977 41.672 927.054 41.28 925.524 40.496C923.993 39.712 922.854 38.6667 922.108 37.36C921.361 36.0533 920.988 34.6347 920.988 33.104C920.988 30.2667 922.07 28.0827 924.236 26.552C926.401 25.0213 929.35 24.256 933.084 24.256H940.588V23.92C940.588 21.4933 939.953 19.664 938.684 18.432C937.414 17.1627 935.716 16.528 933.588 16.528C931.758 16.528 930.172 16.9947 928.828 17.928C927.521 18.824 926.7 20.1493 926.364 21.904H921.548C921.734 19.888 922.406 18.1893 923.564 16.808C924.758 15.4267 926.233 14.3813 927.988 13.672C929.742 12.9253 931.609 12.552 933.588 12.552C937.47 12.552 940.382 13.5973 942.324 15.688C944.302 17.7413 945.292 20.4853 945.292 23.92V41H941.092L940.812 36.016C940.028 37.584 938.87 38.928 937.34 40.048C935.846 41.1307 933.83 41.672 931.292 41.672ZM932.02 37.696C933.812 37.696 935.342 37.2293 936.612 36.296C937.918 35.3627 938.908 34.1493 939.58 32.656C940.252 31.1627 940.588 29.5947 940.588 27.952V27.896H933.476C930.713 27.896 928.753 28.3813 927.596 29.352C926.476 30.2853 925.916 31.4613 925.916 32.88C925.916 34.336 926.438 35.512 927.484 36.408C928.566 37.2667 930.078 37.696 932.02 37.696ZM952.348 41V13.224H956.604L956.996 18.544C957.855 16.7147 959.162 15.2587 960.916 14.176C962.671 13.0933 964.836 12.552 967.412 12.552V17.48H966.124C964.482 17.48 962.97 17.7787 961.588 18.376C960.207 18.936 959.106 19.9067 958.284 21.288C957.463 22.6693 957.052 24.5733 957.052 27V41H952.348ZM984.253 41.672C981.49 41.672 979.064 41.0373 976.973 39.768C974.92 38.4987 973.314 36.7627 972.157 34.56C971.037 32.3573 970.477 29.856 970.477 27.056C970.477 24.256 971.056 21.7733 972.213 19.608C973.37 17.4053 974.976 15.688 977.029 14.456C979.082 13.1867 981.509 12.552 984.309 12.552C986.586 12.552 988.602 13.0187 990.357 13.952C992.112 14.8853 993.474 16.192 994.445 17.872V0.679998H999.149V41H994.893L994.445 36.408C993.549 37.752 992.261 38.9653 990.581 40.048C988.901 41.1307 986.792 41.672 984.253 41.672ZM984.757 37.584C986.624 37.584 988.266 37.1547 989.685 36.296C991.141 35.4 992.261 34.168 993.045 32.6C993.866 31.032 994.277 29.2027 994.277 27.112C994.277 25.0213 993.866 23.192 993.045 21.624C992.261 20.056 991.141 18.8427 989.685 17.984C988.266 17.088 986.624 16.64 984.757 16.64C982.928 16.64 981.285 17.088 979.829 17.984C978.41 18.8427 977.29 20.056 976.469 21.624C975.685 23.192 975.293 25.0213 975.293 27.112C975.293 29.2027 975.685 31.032 976.469 32.6C977.29 34.168 978.41 35.4 979.829 36.296C981.285 37.1547 982.928 37.584 984.757 37.584Z" fill="white"/>
</svg>
