<svg width="1117" height="61" viewBox="0 0 1117 61" fill="none" xmlns="http://www.w3.org/2000/svg">
<g filter="url(#filter0_d_102_2302)">
<path d="M4.32614 13V0.399999H11.9941V1.642H5.83814V6.07H11.0761V7.294H5.83814V13H4.32614ZM17.6827 13.216C16.8427 13.216 16.0867 13.024 15.4147 12.64C14.7427 12.256 14.2087 11.716 13.8127 11.02C13.4287 10.312 13.2367 9.484 13.2367 8.536C13.2367 7.588 13.4347 6.766 13.8307 6.07C14.2267 5.362 14.7607 4.816 15.4327 4.432C16.1167 4.048 16.8787 3.856 17.7187 3.856C18.5587 3.856 19.3147 4.048 19.9867 4.432C20.6587 4.816 21.1867 5.362 21.5707 6.07C21.9667 6.766 22.1647 7.588 22.1647 8.536C22.1647 9.484 21.9667 10.312 21.5707 11.02C21.1747 11.716 20.6347 12.256 19.9507 12.64C19.2787 13.024 18.5227 13.216 17.6827 13.216ZM17.6827 11.92C18.1987 11.92 18.6787 11.794 19.1227 11.542C19.5667 11.29 19.9267 10.912 20.2027 10.408C20.4787 9.904 20.6167 9.28 20.6167 8.536C20.6167 7.792 20.4787 7.168 20.2027 6.664C19.9387 6.16 19.5847 5.782 19.1407 5.53C18.6967 5.278 18.2227 5.152 17.7187 5.152C17.2027 5.152 16.7227 5.278 16.2787 5.53C15.8347 5.782 15.4747 6.16 15.1987 6.664C14.9227 7.168 14.7847 7.792 14.7847 8.536C14.7847 9.28 14.9227 9.904 15.1987 10.408C15.4747 10.912 15.8287 11.29 16.2607 11.542C16.7047 11.794 17.1787 11.92 17.6827 11.92ZM24.417 13V4.072H25.785L25.911 5.782C26.187 5.194 26.607 4.726 27.171 4.378C27.735 4.03 28.431 3.856 29.259 3.856V5.44H28.845C28.317 5.44 27.831 5.536 27.387 5.728C26.943 5.908 26.589 6.22 26.325 6.664C26.061 7.108 25.929 7.72 25.929 8.5V13H24.417ZM39.5477 13C38.7317 13 38.0897 12.802 37.6217 12.406C37.1537 12.01 36.9197 11.296 36.9197 10.264V5.35H35.3717V4.072H36.9197L37.1177 1.93H38.4317V4.072H41.0597V5.35H38.4317V10.264C38.4317 10.828 38.5457 11.212 38.7737 11.416C39.0017 11.608 39.4037 11.704 39.9797 11.704H40.9157V13H39.5477ZM43.1307 13V0.0399995H44.6427V5.602C44.9427 5.05 45.3687 4.624 45.9207 4.324C46.4727 4.012 47.0727 3.856 47.7207 3.856C48.7527 3.856 49.5807 4.18 50.2047 4.828C50.8287 5.464 51.1407 6.448 51.1407 7.78V13H49.6467V7.942C49.6467 6.082 48.8967 5.152 47.3967 5.152C46.6167 5.152 45.9627 5.434 45.4347 5.998C44.9067 6.55 44.6427 7.342 44.6427 8.374V13H43.1307ZM57.5955 13.216C56.7435 13.216 55.9875 13.024 55.3275 12.64C54.6675 12.244 54.1455 11.698 53.7615 11.002C53.3895 10.306 53.2035 9.484 53.2035 8.536C53.2035 7.6 53.3895 6.784 53.7615 6.088C54.1335 5.38 54.6495 4.834 55.3095 4.45C55.9815 4.054 56.7555 3.856 57.6315 3.856C58.4955 3.856 59.2395 4.054 59.8635 4.45C60.4995 4.834 60.9855 5.344 61.3215 5.98C61.6575 6.616 61.8255 7.3 61.8255 8.032C61.8255 8.164 61.8195 8.296 61.8075 8.428C61.8075 8.56 61.8075 8.71 61.8075 8.878H54.6975C54.7335 9.562 54.8895 10.132 55.1655 10.588C55.4535 11.032 55.8075 11.368 56.2275 11.596C56.6595 11.824 57.1155 11.938 57.5955 11.938C58.2195 11.938 58.7415 11.794 59.1615 11.506C59.5815 11.218 59.8875 10.828 60.0795 10.336H61.5735C61.3335 11.164 60.8715 11.854 60.1875 12.406C59.5155 12.946 58.6515 13.216 57.5955 13.216ZM57.5955 5.134C56.8755 5.134 56.2335 5.356 55.6695 5.8C55.1175 6.232 54.7995 6.868 54.7155 7.708H60.3315C60.2955 6.904 60.0195 6.274 59.5035 5.818C58.9875 5.362 58.3515 5.134 57.5955 5.134ZM68.8932 13V4.072H70.2612L70.3512 5.674C70.6392 5.11 71.0532 4.666 71.5932 4.342C72.1332 4.018 72.7452 3.856 73.4292 3.856C74.4852 3.856 75.3252 4.18 75.9492 4.828C76.5852 5.464 76.9032 6.448 76.9032 7.78V13H75.3912V7.942C75.3912 6.082 74.6232 5.152 73.0872 5.152C72.3192 5.152 71.6772 5.434 71.1612 5.998C70.6572 6.55 70.4052 7.342 70.4052 8.374V13H68.8932ZM83.358 13.216C82.506 13.216 81.75 13.024 81.09 12.64C80.43 12.244 79.908 11.698 79.524 11.002C79.152 10.306 78.966 9.484 78.966 8.536C78.966 7.6 79.152 6.784 79.524 6.088C79.896 5.38 80.412 4.834 81.072 4.45C81.744 4.054 82.518 3.856 83.394 3.856C84.258 3.856 85.002 4.054 85.626 4.45C86.262 4.834 86.748 5.344 87.084 5.98C87.42 6.616 87.588 7.3 87.588 8.032C87.588 8.164 87.582 8.296 87.57 8.428C87.57 8.56 87.57 8.71 87.57 8.878H80.46C80.496 9.562 80.652 10.132 80.928 10.588C81.216 11.032 81.57 11.368 81.99 11.596C82.422 11.824 82.878 11.938 83.358 11.938C83.982 11.938 84.504 11.794 84.924 11.506C85.344 11.218 85.65 10.828 85.842 10.336H87.336C87.096 11.164 86.634 11.854 85.95 12.406C85.278 12.946 84.414 13.216 83.358 13.216ZM83.358 5.134C82.638 5.134 81.996 5.356 81.432 5.8C80.88 6.232 80.562 6.868 80.478 7.708H86.094C86.058 6.904 85.782 6.274 85.266 5.818C84.75 5.362 84.114 5.134 83.358 5.134ZM91.1904 13L88.5804 4.072H90.0924L91.9824 11.074L94.0704 4.072H95.7804L97.8864 11.074L99.7584 4.072H101.288L98.6784 13H97.1304L94.9344 5.638L92.7384 13H91.1904ZM108.942 2.092C108.642 2.092 108.39 1.996 108.186 1.804C107.994 1.6 107.898 1.348 107.898 1.048C107.898 0.76 107.994 0.519999 108.186 0.327999C108.39 0.135999 108.642 0.0399995 108.942 0.0399995C109.23 0.0399995 109.476 0.135999 109.68 0.327999C109.884 0.519999 109.986 0.76 109.986 1.048C109.986 1.348 109.884 1.6 109.68 1.804C109.476 1.996 109.23 2.092 108.942 2.092ZM108.186 13V4.072H109.698V13H108.186ZM116.009 13C115.193 13 114.551 12.802 114.083 12.406C113.615 12.01 113.381 11.296 113.381 10.264V5.35H111.833V4.072H113.381L113.579 1.93H114.893V4.072H117.521V5.35H114.893V10.264C114.893 10.828 115.007 11.212 115.235 11.416C115.463 11.608 115.865 11.704 116.441 11.704H117.377V13H116.009ZM123.36 13.216C122.508 13.216 121.752 13.024 121.092 12.64C120.432 12.244 119.91 11.698 119.526 11.002C119.154 10.306 118.968 9.484 118.968 8.536C118.968 7.6 119.154 6.784 119.526 6.088C119.898 5.38 120.414 4.834 121.074 4.45C121.746 4.054 122.52 3.856 123.396 3.856C124.26 3.856 125.004 4.054 125.628 4.45C126.264 4.834 126.75 5.344 127.086 5.98C127.422 6.616 127.59 7.3 127.59 8.032C127.59 8.164 127.584 8.296 127.572 8.428C127.572 8.56 127.572 8.71 127.572 8.878H120.462C120.498 9.562 120.654 10.132 120.93 10.588C121.218 11.032 121.572 11.368 121.992 11.596C122.424 11.824 122.88 11.938 123.36 11.938C123.984 11.938 124.506 11.794 124.926 11.506C125.346 11.218 125.652 10.828 125.844 10.336H127.338C127.098 11.164 126.636 11.854 125.952 12.406C125.28 12.946 124.416 13.216 123.36 13.216ZM123.36 5.134C122.64 5.134 121.998 5.356 121.434 5.8C120.882 6.232 120.564 6.868 120.48 7.708H126.096C126.06 6.904 125.784 6.274 125.268 5.818C124.752 5.362 124.116 5.134 123.36 5.134ZM129.744 13V4.072H131.112L131.238 5.782C131.514 5.194 131.934 4.726 132.498 4.378C133.062 4.03 133.758 3.856 134.586 3.856V5.44H134.172C133.644 5.44 133.158 5.536 132.714 5.728C132.27 5.908 131.916 6.22 131.652 6.664C131.388 7.108 131.256 7.72 131.256 8.5V13H129.744ZM139.403 13.216C138.659 13.216 138.041 13.09 137.549 12.838C137.057 12.586 136.691 12.25 136.451 11.83C136.211 11.41 136.091 10.954 136.091 10.462C136.091 9.55 136.439 8.848 137.135 8.356C137.831 7.864 138.779 7.618 139.979 7.618H142.391V7.51C142.391 6.73 142.187 6.142 141.779 5.746C141.371 5.338 140.825 5.134 140.141 5.134C139.553 5.134 139.043 5.284 138.611 5.584C138.191 5.872 137.927 6.298 137.819 6.862H136.271C136.331 6.214 136.547 5.668 136.919 5.224C137.303 4.78 137.777 4.444 138.341 4.216C138.905 3.976 139.505 3.856 140.141 3.856C141.389 3.856 142.325 4.192 142.949 4.864C143.585 5.524 143.903 6.406 143.903 7.51V13H142.553L142.463 11.398C142.211 11.902 141.839 12.334 141.347 12.694C140.867 13.042 140.219 13.216 139.403 13.216ZM139.637 11.938C140.213 11.938 140.705 11.788 141.113 11.488C141.533 11.188 141.851 10.798 142.067 10.318C142.283 9.838 142.391 9.334 142.391 8.806V8.788H140.105C139.217 8.788 138.587 8.944 138.215 9.256C137.855 9.556 137.675 9.934 137.675 10.39C137.675 10.858 137.843 11.236 138.179 11.524C138.527 11.8 139.013 11.938 139.637 11.938ZM149.603 13C148.787 13 148.145 12.802 147.677 12.406C147.209 12.01 146.975 11.296 146.975 10.264V5.35H145.427V4.072H146.975L147.173 1.93H148.487V4.072H151.115V5.35H148.487V10.264C148.487 10.828 148.601 11.212 148.829 11.416C149.057 11.608 149.459 11.704 150.035 11.704H150.971V13H149.603ZM154.104 2.092C153.804 2.092 153.552 1.996 153.348 1.804C153.156 1.6 153.06 1.348 153.06 1.048C153.06 0.76 153.156 0.519999 153.348 0.327999C153.552 0.135999 153.804 0.0399995 154.104 0.0399995C154.392 0.0399995 154.638 0.135999 154.842 0.327999C155.046 0.519999 155.148 0.76 155.148 1.048C155.148 1.348 155.046 1.6 154.842 1.804C154.638 1.996 154.392 2.092 154.104 2.092ZM153.348 13V4.072H154.86V13H153.348ZM161.711 13.216C160.871 13.216 160.115 13.024 159.443 12.64C158.771 12.256 158.237 11.716 157.841 11.02C157.457 10.312 157.265 9.484 157.265 8.536C157.265 7.588 157.463 6.766 157.859 6.07C158.255 5.362 158.789 4.816 159.461 4.432C160.145 4.048 160.907 3.856 161.747 3.856C162.587 3.856 163.343 4.048 164.015 4.432C164.687 4.816 165.215 5.362 165.599 6.07C165.995 6.766 166.193 7.588 166.193 8.536C166.193 9.484 165.995 10.312 165.599 11.02C165.203 11.716 164.663 12.256 163.979 12.64C163.307 13.024 162.551 13.216 161.711 13.216ZM161.711 11.92C162.227 11.92 162.707 11.794 163.151 11.542C163.595 11.29 163.955 10.912 164.231 10.408C164.507 9.904 164.645 9.28 164.645 8.536C164.645 7.792 164.507 7.168 164.231 6.664C163.967 6.16 163.613 5.782 163.169 5.53C162.725 5.278 162.251 5.152 161.747 5.152C161.231 5.152 160.751 5.278 160.307 5.53C159.863 5.782 159.503 6.16 159.227 6.664C158.951 7.168 158.813 7.792 158.813 8.536C158.813 9.28 158.951 9.904 159.227 10.408C159.503 10.912 159.857 11.29 160.289 11.542C160.733 11.794 161.207 11.92 161.711 11.92ZM168.445 13V4.072H169.813L169.903 5.674C170.191 5.11 170.605 4.666 171.145 4.342C171.685 4.018 172.297 3.856 172.981 3.856C174.037 3.856 174.877 4.18 175.501 4.828C176.137 5.464 176.455 6.448 176.455 7.78V13H174.943V7.942C174.943 6.082 174.175 5.152 172.639 5.152C171.871 5.152 171.229 5.434 170.713 5.998C170.209 6.55 169.957 7.342 169.957 8.374V13H168.445ZM177.69 15.142L178.734 11.164H180.3L178.734 15.142H177.69ZM188.959 13L186.349 4.072H187.861L189.751 11.074L191.839 4.072H193.549L195.655 11.074L197.527 4.072H199.057L196.447 13H194.899L192.703 5.638L190.507 13H188.959ZM204.559 13.216C203.707 13.216 202.951 13.024 202.291 12.64C201.631 12.244 201.109 11.698 200.725 11.002C200.353 10.306 200.167 9.484 200.167 8.536C200.167 7.6 200.353 6.784 200.725 6.088C201.097 5.38 201.613 4.834 202.273 4.45C202.945 4.054 203.719 3.856 204.595 3.856C205.459 3.856 206.203 4.054 206.827 4.45C207.463 4.834 207.949 5.344 208.285 5.98C208.621 6.616 208.789 7.3 208.789 8.032C208.789 8.164 208.783 8.296 208.771 8.428C208.771 8.56 208.771 8.71 208.771 8.878H201.661C201.697 9.562 201.853 10.132 202.129 10.588C202.417 11.032 202.771 11.368 203.191 11.596C203.623 11.824 204.079 11.938 204.559 11.938C205.183 11.938 205.705 11.794 206.125 11.506C206.545 11.218 206.851 10.828 207.043 10.336H208.537C208.297 11.164 207.835 11.854 207.151 12.406C206.479 12.946 205.615 13.216 204.559 13.216ZM204.559 5.134C203.839 5.134 203.197 5.356 202.633 5.8C202.081 6.232 201.763 6.868 201.679 7.708H207.295C207.259 6.904 206.983 6.274 206.467 5.818C205.951 5.362 205.315 5.134 204.559 5.134ZM215.857 13V4.072H217.225L217.333 5.368C217.621 4.888 218.005 4.516 218.485 4.252C218.965 3.988 219.505 3.856 220.105 3.856C220.813 3.856 221.419 4 221.923 4.288C222.439 4.576 222.835 5.014 223.111 5.602C223.423 5.062 223.849 4.636 224.389 4.324C224.941 4.012 225.535 3.856 226.171 3.856C227.239 3.856 228.091 4.18 228.727 4.828C229.363 5.464 229.681 6.448 229.681 7.78V13H228.187V7.942C228.187 7.018 228.001 6.322 227.629 5.854C227.257 5.386 226.723 5.152 226.027 5.152C225.307 5.152 224.707 5.434 224.227 5.998C223.759 6.55 223.525 7.342 223.525 8.374V13H222.013V7.942C222.013 7.018 221.827 6.322 221.455 5.854C221.083 5.386 220.549 5.152 219.853 5.152C219.145 5.152 218.551 5.434 218.071 5.998C217.603 6.55 217.369 7.342 217.369 8.374V13H215.857ZM236.176 13.216C235.336 13.216 234.58 13.024 233.908 12.64C233.236 12.256 232.702 11.716 232.306 11.02C231.922 10.312 231.73 9.484 231.73 8.536C231.73 7.588 231.928 6.766 232.324 6.07C232.72 5.362 233.254 4.816 233.926 4.432C234.61 4.048 235.372 3.856 236.212 3.856C237.052 3.856 237.808 4.048 238.48 4.432C239.152 4.816 239.68 5.362 240.064 6.07C240.46 6.766 240.658 7.588 240.658 8.536C240.658 9.484 240.46 10.312 240.064 11.02C239.668 11.716 239.128 12.256 238.444 12.64C237.772 13.024 237.016 13.216 236.176 13.216ZM236.176 11.92C236.692 11.92 237.172 11.794 237.616 11.542C238.06 11.29 238.42 10.912 238.696 10.408C238.972 9.904 239.11 9.28 239.11 8.536C239.11 7.792 238.972 7.168 238.696 6.664C238.432 6.16 238.078 5.782 237.634 5.53C237.19 5.278 236.716 5.152 236.212 5.152C235.696 5.152 235.216 5.278 234.772 5.53C234.328 5.782 233.968 6.16 233.692 6.664C233.416 7.168 233.278 7.792 233.278 8.536C233.278 9.28 233.416 9.904 233.692 10.408C233.968 10.912 234.322 11.29 234.754 11.542C235.198 11.794 235.672 11.92 236.176 11.92ZM245.028 13L241.644 4.072H243.228L245.91 11.542L248.61 4.072H250.158L246.774 13H245.028ZM255.547 13.216C254.695 13.216 253.939 13.024 253.279 12.64C252.619 12.244 252.097 11.698 251.713 11.002C251.341 10.306 251.155 9.484 251.155 8.536C251.155 7.6 251.341 6.784 251.713 6.088C252.085 5.38 252.601 4.834 253.261 4.45C253.933 4.054 254.707 3.856 255.583 3.856C256.447 3.856 257.191 4.054 257.815 4.45C258.451 4.834 258.937 5.344 259.273 5.98C259.609 6.616 259.777 7.3 259.777 8.032C259.777 8.164 259.771 8.296 259.759 8.428C259.759 8.56 259.759 8.71 259.759 8.878H252.649C252.685 9.562 252.841 10.132 253.117 10.588C253.405 11.032 253.759 11.368 254.179 11.596C254.611 11.824 255.067 11.938 255.547 11.938C256.171 11.938 256.693 11.794 257.113 11.506C257.533 11.218 257.839 10.828 258.031 10.336H259.525C259.285 11.164 258.823 11.854 258.139 12.406C257.467 12.946 256.603 13.216 255.547 13.216ZM255.547 5.134C254.827 5.134 254.185 5.356 253.621 5.8C253.069 6.232 252.751 6.868 252.667 7.708H258.283C258.247 6.904 257.971 6.274 257.455 5.818C256.939 5.362 256.303 5.134 255.547 5.134ZM265.981 13.216C265.093 13.216 264.313 13.012 263.641 12.604C262.981 12.196 262.465 11.638 262.093 10.93C261.733 10.222 261.553 9.418 261.553 8.518C261.553 7.618 261.739 6.82 262.111 6.124C262.483 5.416 262.999 4.864 263.659 4.468C264.319 4.06 265.099 3.856 265.999 3.856C266.731 3.856 267.379 4.006 267.943 4.306C268.507 4.606 268.945 5.026 269.257 5.566V0.0399995H270.769V13H269.401L269.257 11.524C268.969 11.956 268.555 12.346 268.015 12.694C267.475 13.042 266.797 13.216 265.981 13.216ZM266.143 11.902C266.743 11.902 267.271 11.764 267.727 11.488C268.195 11.2 268.555 10.804 268.807 10.3C269.071 9.796 269.203 9.208 269.203 8.536C269.203 7.864 269.071 7.276 268.807 6.772C268.555 6.268 268.195 5.878 267.727 5.602C267.271 5.314 266.743 5.17 266.143 5.17C265.555 5.17 265.027 5.314 264.559 5.602C264.103 5.878 263.743 6.268 263.479 6.772C263.227 7.276 263.101 7.864 263.101 8.536C263.101 9.208 263.227 9.796 263.479 10.3C263.743 10.804 264.103 11.2 264.559 11.488C265.027 11.764 265.555 11.902 266.143 11.902ZM281.826 13C281.01 13 280.368 12.802 279.9 12.406C279.432 12.01 279.198 11.296 279.198 10.264V5.35H277.65V4.072H279.198L279.396 1.93H280.71V4.072H283.338V5.35H280.71V10.264C280.71 10.828 280.824 11.212 281.052 11.416C281.28 11.608 281.682 11.704 282.258 11.704H283.194V13H281.826ZM285.409 13V0.0399995H286.921V5.602C287.221 5.05 287.647 4.624 288.199 4.324C288.751 4.012 289.351 3.856 289.999 3.856C291.031 3.856 291.859 4.18 292.483 4.828C293.107 5.464 293.419 6.448 293.419 7.78V13H291.925V7.942C291.925 6.082 291.175 5.152 289.675 5.152C288.895 5.152 288.241 5.434 287.713 5.998C287.185 6.55 286.921 7.342 286.921 8.374V13H285.409ZM299.874 13.216C299.022 13.216 298.266 13.024 297.606 12.64C296.946 12.244 296.424 11.698 296.04 11.002C295.668 10.306 295.482 9.484 295.482 8.536C295.482 7.6 295.668 6.784 296.04 6.088C296.412 5.38 296.928 4.834 297.588 4.45C298.26 4.054 299.034 3.856 299.91 3.856C300.774 3.856 301.518 4.054 302.142 4.45C302.778 4.834 303.264 5.344 303.6 5.98C303.936 6.616 304.104 7.3 304.104 8.032C304.104 8.164 304.098 8.296 304.086 8.428C304.086 8.56 304.086 8.71 304.086 8.878H296.976C297.012 9.562 297.168 10.132 297.444 10.588C297.732 11.032 298.086 11.368 298.506 11.596C298.938 11.824 299.394 11.938 299.874 11.938C300.498 11.938 301.02 11.794 301.44 11.506C301.86 11.218 302.166 10.828 302.358 10.336H303.852C303.612 11.164 303.15 11.854 302.466 12.406C301.794 12.946 300.93 13.216 299.874 13.216ZM299.874 5.134C299.154 5.134 298.512 5.356 297.948 5.8C297.396 6.232 297.078 6.868 296.994 7.708H302.61C302.574 6.904 302.298 6.274 301.782 5.818C301.266 5.362 300.63 5.134 299.874 5.134ZM314.591 13.216C313.523 13.216 312.635 12.946 311.927 12.406C311.219 11.866 310.805 11.134 310.685 10.21H312.233C312.329 10.678 312.575 11.086 312.971 11.434C313.379 11.77 313.925 11.938 314.609 11.938C315.245 11.938 315.713 11.806 316.013 11.542C316.313 11.266 316.463 10.942 316.463 10.57C316.463 10.03 316.265 9.67 315.869 9.49C315.485 9.31 314.939 9.148 314.231 9.004C313.751 8.908 313.271 8.77 312.791 8.59C312.311 8.41 311.909 8.158 311.585 7.834C311.261 7.498 311.099 7.06 311.099 6.52C311.099 5.74 311.387 5.104 311.963 4.612C312.551 4.108 313.343 3.856 314.339 3.856C315.287 3.856 316.061 4.096 316.661 4.576C317.273 5.044 317.627 5.716 317.723 6.592H316.229C316.169 6.136 315.971 5.782 315.635 5.53C315.311 5.266 314.873 5.134 314.321 5.134C313.781 5.134 313.361 5.248 313.061 5.476C312.773 5.704 312.629 6.004 312.629 6.376C312.629 6.736 312.815 7.018 313.187 7.222C313.571 7.426 314.087 7.6 314.735 7.744C315.287 7.864 315.809 8.014 316.301 8.194C316.805 8.362 317.213 8.62 317.525 8.968C317.849 9.304 318.011 9.796 318.011 10.444C318.023 11.248 317.717 11.914 317.093 12.442C316.481 12.958 315.647 13.216 314.591 13.216ZM324.335 13.216C323.483 13.216 322.727 13.024 322.067 12.64C321.407 12.244 320.885 11.698 320.501 11.002C320.129 10.306 319.943 9.484 319.943 8.536C319.943 7.6 320.129 6.784 320.501 6.088C320.873 5.38 321.389 4.834 322.049 4.45C322.721 4.054 323.495 3.856 324.371 3.856C325.235 3.856 325.979 4.054 326.603 4.45C327.239 4.834 327.725 5.344 328.061 5.98C328.397 6.616 328.565 7.3 328.565 8.032C328.565 8.164 328.559 8.296 328.547 8.428C328.547 8.56 328.547 8.71 328.547 8.878H321.437C321.473 9.562 321.629 10.132 321.905 10.588C322.193 11.032 322.547 11.368 322.967 11.596C323.399 11.824 323.855 11.938 324.335 11.938C324.959 11.938 325.481 11.794 325.901 11.506C326.321 11.218 326.627 10.828 326.819 10.336H328.313C328.073 11.164 327.611 11.854 326.927 12.406C326.255 12.946 325.391 13.216 324.335 13.216ZM324.335 5.134C323.615 5.134 322.973 5.356 322.409 5.8C321.857 6.232 321.539 6.868 321.455 7.708H327.071C327.035 6.904 326.759 6.274 326.243 5.818C325.727 5.362 325.091 5.134 324.335 5.134ZM330.719 13V4.072H332.087L332.177 5.674C332.465 5.11 332.879 4.666 333.419 4.342C333.959 4.018 334.571 3.856 335.255 3.856C336.311 3.856 337.151 4.18 337.775 4.828C338.411 5.464 338.729 6.448 338.729 7.78V13H337.217V7.942C337.217 6.082 336.449 5.152 334.913 5.152C334.145 5.152 333.503 5.434 332.987 5.998C332.483 6.55 332.231 7.342 332.231 8.374V13H330.719ZM345.22 13.216C344.332 13.216 343.552 13.012 342.88 12.604C342.22 12.196 341.704 11.638 341.332 10.93C340.972 10.222 340.792 9.418 340.792 8.518C340.792 7.618 340.978 6.82 341.35 6.124C341.722 5.416 342.238 4.864 342.898 4.468C343.558 4.06 344.338 3.856 345.238 3.856C345.97 3.856 346.618 4.006 347.182 4.306C347.746 4.606 348.184 5.026 348.496 5.566V0.0399995H350.008V13H348.64L348.496 11.524C348.208 11.956 347.794 12.346 347.254 12.694C346.714 13.042 346.036 13.216 345.22 13.216ZM345.382 11.902C345.982 11.902 346.51 11.764 346.966 11.488C347.434 11.2 347.794 10.804 348.046 10.3C348.31 9.796 348.442 9.208 348.442 8.536C348.442 7.864 348.31 7.276 348.046 6.772C347.794 6.268 347.434 5.878 346.966 5.602C346.51 5.314 345.982 5.17 345.382 5.17C344.794 5.17 344.266 5.314 343.798 5.602C343.342 5.878 342.982 6.268 342.718 6.772C342.466 7.276 342.34 7.864 342.34 8.536C342.34 9.208 342.466 9.796 342.718 10.3C342.982 10.804 343.342 11.2 343.798 11.488C344.266 11.764 344.794 11.902 345.382 11.902ZM360.507 13.216C359.763 13.216 359.145 13.09 358.653 12.838C358.161 12.586 357.795 12.25 357.555 11.83C357.315 11.41 357.195 10.954 357.195 10.462C357.195 9.55 357.543 8.848 358.239 8.356C358.935 7.864 359.883 7.618 361.083 7.618H363.495V7.51C363.495 6.73 363.291 6.142 362.883 5.746C362.475 5.338 361.929 5.134 361.245 5.134C360.657 5.134 360.147 5.284 359.715 5.584C359.295 5.872 359.031 6.298 358.923 6.862H357.375C357.435 6.214 357.651 5.668 358.023 5.224C358.407 4.78 358.881 4.444 359.445 4.216C360.009 3.976 360.609 3.856 361.245 3.856C362.493 3.856 363.429 4.192 364.053 4.864C364.689 5.524 365.007 6.406 365.007 7.51V13H363.657L363.567 11.398C363.315 11.902 362.943 12.334 362.451 12.694C361.971 13.042 361.323 13.216 360.507 13.216ZM360.741 11.938C361.317 11.938 361.809 11.788 362.217 11.488C362.637 11.188 362.955 10.798 363.171 10.318C363.387 9.838 363.495 9.334 363.495 8.806V8.788H361.209C360.321 8.788 359.691 8.944 359.319 9.256C358.959 9.556 358.779 9.934 358.779 10.39C358.779 10.858 358.947 11.236 359.283 11.524C359.631 11.8 360.117 11.938 360.741 11.938ZM367.425 13V4.072H368.793L368.883 5.674C369.171 5.11 369.585 4.666 370.125 4.342C370.665 4.018 371.277 3.856 371.961 3.856C373.017 3.856 373.857 4.18 374.481 4.828C375.117 5.464 375.435 6.448 375.435 7.78V13H373.923V7.942C373.923 6.082 373.155 5.152 371.619 5.152C370.851 5.152 370.209 5.434 369.693 5.998C369.189 6.55 368.937 7.342 368.937 8.374V13H367.425ZM381.926 13.216C381.038 13.216 380.258 13.012 379.586 12.604C378.926 12.196 378.41 11.638 378.038 10.93C377.678 10.222 377.498 9.418 377.498 8.518C377.498 7.618 377.684 6.82 378.056 6.124C378.428 5.416 378.944 4.864 379.604 4.468C380.264 4.06 381.044 3.856 381.944 3.856C382.676 3.856 383.324 4.006 383.888 4.306C384.452 4.606 384.89 5.026 385.202 5.566V0.0399995H386.714V13H385.346L385.202 11.524C384.914 11.956 384.5 12.346 383.96 12.694C383.42 13.042 382.742 13.216 381.926 13.216ZM382.088 11.902C382.688 11.902 383.216 11.764 383.672 11.488C384.14 11.2 384.5 10.804 384.752 10.3C385.016 9.796 385.148 9.208 385.148 8.536C385.148 7.864 385.016 7.276 384.752 6.772C384.5 6.268 384.14 5.878 383.672 5.602C383.216 5.314 382.688 5.17 382.088 5.17C381.5 5.17 380.972 5.314 380.504 5.602C380.048 5.878 379.688 6.268 379.424 6.772C379.172 7.276 379.046 7.864 379.046 8.536C379.046 9.208 379.172 9.796 379.424 10.3C379.688 10.804 380.048 11.2 380.504 11.488C380.972 11.764 381.5 11.902 382.088 11.902ZM394.242 13V4.072H395.61L395.736 5.782C396.012 5.194 396.432 4.726 396.996 4.378C397.56 4.03 398.256 3.856 399.084 3.856V5.44H398.67C398.142 5.44 397.656 5.536 397.212 5.728C396.768 5.908 396.414 6.22 396.15 6.664C395.886 7.108 395.754 7.72 395.754 8.5V13H394.242ZM404.611 13.216C403.759 13.216 403.003 13.024 402.343 12.64C401.683 12.244 401.161 11.698 400.777 11.002C400.405 10.306 400.219 9.484 400.219 8.536C400.219 7.6 400.405 6.784 400.777 6.088C401.149 5.38 401.665 4.834 402.325 4.45C402.997 4.054 403.771 3.856 404.647 3.856C405.511 3.856 406.255 4.054 406.879 4.45C407.515 4.834 408.001 5.344 408.337 5.98C408.673 6.616 408.841 7.3 408.841 8.032C408.841 8.164 408.835 8.296 408.823 8.428C408.823 8.56 408.823 8.71 408.823 8.878H401.713C401.749 9.562 401.905 10.132 402.181 10.588C402.469 11.032 402.823 11.368 403.243 11.596C403.675 11.824 404.131 11.938 404.611 11.938C405.235 11.938 405.757 11.794 406.177 11.506C406.597 11.218 406.903 10.828 407.095 10.336H408.589C408.349 11.164 407.887 11.854 407.203 12.406C406.531 12.946 405.667 13.216 404.611 13.216ZM404.611 5.134C403.891 5.134 403.249 5.356 402.685 5.8C402.133 6.232 401.815 6.868 401.731 7.708H407.347C407.311 6.904 407.035 6.274 406.519 5.818C406.003 5.362 405.367 5.134 404.611 5.134ZM418.321 16.96V11.524C418.033 11.956 417.619 12.346 417.079 12.694C416.539 13.042 415.861 13.216 415.045 13.216C414.157 13.216 413.377 13.012 412.705 12.604C412.045 12.196 411.529 11.638 411.157 10.93C410.797 10.222 410.617 9.418 410.617 8.518C410.617 7.618 410.803 6.82 411.175 6.124C411.547 5.416 412.063 4.864 412.723 4.468C413.383 4.06 414.163 3.856 415.063 3.856C415.795 3.856 416.443 4.006 417.007 4.306C417.571 4.606 418.009 5.026 418.321 5.566L418.465 4.072H419.833V16.96H418.321ZM415.207 11.902C415.807 11.902 416.335 11.764 416.791 11.488C417.259 11.2 417.619 10.804 417.871 10.3C418.135 9.796 418.267 9.208 418.267 8.536C418.267 7.864 418.135 7.276 417.871 6.772C417.619 6.268 417.259 5.878 416.791 5.602C416.335 5.314 415.807 5.17 415.207 5.17C414.619 5.17 414.091 5.314 413.623 5.602C413.167 5.878 412.807 6.268 412.543 6.772C412.291 7.276 412.165 7.864 412.165 8.536C412.165 9.208 412.291 9.796 412.543 10.3C412.807 10.804 413.167 11.2 413.623 11.488C414.091 11.764 414.619 11.902 415.207 11.902ZM425.706 13.216C424.65 13.216 423.81 12.898 423.186 12.262C422.562 11.614 422.25 10.624 422.25 9.292V4.072H423.762V9.13C423.762 10.99 424.524 11.92 426.048 11.92C426.828 11.92 427.47 11.644 427.974 11.092C428.49 10.528 428.748 9.73 428.748 8.698V4.072H430.26V13H428.892L428.784 11.398C428.508 11.962 428.094 12.406 427.542 12.73C427.002 13.054 426.39 13.216 425.706 13.216ZM436.913 13.216C436.061 13.216 435.305 13.024 434.645 12.64C433.985 12.244 433.463 11.698 433.079 11.002C432.707 10.306 432.521 9.484 432.521 8.536C432.521 7.6 432.707 6.784 433.079 6.088C433.451 5.38 433.967 4.834 434.627 4.45C435.299 4.054 436.073 3.856 436.949 3.856C437.813 3.856 438.557 4.054 439.181 4.45C439.817 4.834 440.303 5.344 440.639 5.98C440.975 6.616 441.143 7.3 441.143 8.032C441.143 8.164 441.137 8.296 441.125 8.428C441.125 8.56 441.125 8.71 441.125 8.878H434.015C434.051 9.562 434.207 10.132 434.483 10.588C434.771 11.032 435.125 11.368 435.545 11.596C435.977 11.824 436.433 11.938 436.913 11.938C437.537 11.938 438.059 11.794 438.479 11.506C438.899 11.218 439.205 10.828 439.397 10.336H440.891C440.651 11.164 440.189 11.854 439.505 12.406C438.833 12.946 437.969 13.216 436.913 13.216ZM436.913 5.134C436.193 5.134 435.551 5.356 434.987 5.8C434.435 6.232 434.117 6.868 434.033 7.708H439.649C439.613 6.904 439.337 6.274 438.821 5.818C438.305 5.362 437.669 5.134 436.913 5.134ZM446.717 13.216C445.649 13.216 444.761 12.946 444.053 12.406C443.345 11.866 442.931 11.134 442.811 10.21H444.359C444.455 10.678 444.701 11.086 445.097 11.434C445.505 11.77 446.051 11.938 446.735 11.938C447.371 11.938 447.839 11.806 448.139 11.542C448.439 11.266 448.589 10.942 448.589 10.57C448.589 10.03 448.391 9.67 447.995 9.49C447.611 9.31 447.065 9.148 446.357 9.004C445.877 8.908 445.397 8.77 444.917 8.59C444.437 8.41 444.035 8.158 443.711 7.834C443.387 7.498 443.225 7.06 443.225 6.52C443.225 5.74 443.513 5.104 444.089 4.612C444.677 4.108 445.469 3.856 446.465 3.856C447.413 3.856 448.187 4.096 448.787 4.576C449.399 5.044 449.753 5.716 449.849 6.592H448.355C448.295 6.136 448.097 5.782 447.761 5.53C447.437 5.266 446.999 5.134 446.447 5.134C445.907 5.134 445.487 5.248 445.187 5.476C444.899 5.704 444.755 6.004 444.755 6.376C444.755 6.736 444.941 7.018 445.313 7.222C445.697 7.426 446.213 7.6 446.861 7.744C447.413 7.864 447.935 8.014 448.427 8.194C448.931 8.362 449.339 8.62 449.651 8.968C449.975 9.304 450.137 9.796 450.137 10.444C450.149 11.248 449.843 11.914 449.219 12.442C448.607 12.958 447.773 13.216 446.717 13.216ZM455.57 13C454.754 13 454.112 12.802 453.644 12.406C453.176 12.01 452.942 11.296 452.942 10.264V5.35H451.394V4.072H452.942L453.14 1.93H454.454V4.072H457.082V5.35H454.454V10.264C454.454 10.828 454.568 11.212 454.796 11.416C455.024 11.608 455.426 11.704 456.002 11.704H456.938V13H455.57ZM464.067 13V4.072H465.435L465.543 5.368C465.831 4.888 466.215 4.516 466.695 4.252C467.175 3.988 467.715 3.856 468.315 3.856C469.023 3.856 469.629 4 470.133 4.288C470.649 4.576 471.045 5.014 471.321 5.602C471.633 5.062 472.059 4.636 472.599 4.324C473.151 4.012 473.745 3.856 474.381 3.856C475.449 3.856 476.301 4.18 476.937 4.828C477.573 5.464 477.891 6.448 477.891 7.78V13H476.397V7.942C476.397 7.018 476.211 6.322 475.839 5.854C475.467 5.386 474.933 5.152 474.237 5.152C473.517 5.152 472.917 5.434 472.437 5.998C471.969 6.55 471.735 7.342 471.735 8.374V13H470.223V7.942C470.223 7.018 470.037 6.322 469.665 5.854C469.293 5.386 468.759 5.152 468.063 5.152C467.355 5.152 466.761 5.434 466.281 5.998C465.813 6.55 465.579 7.342 465.579 8.374V13H464.067ZM484.387 13.216C483.547 13.216 482.791 13.024 482.119 12.64C481.447 12.256 480.913 11.716 480.517 11.02C480.133 10.312 479.941 9.484 479.941 8.536C479.941 7.588 480.139 6.766 480.535 6.07C480.931 5.362 481.465 4.816 482.137 4.432C482.821 4.048 483.583 3.856 484.423 3.856C485.263 3.856 486.019 4.048 486.691 4.432C487.363 4.816 487.891 5.362 488.275 6.07C488.671 6.766 488.869 7.588 488.869 8.536C488.869 9.484 488.671 10.312 488.275 11.02C487.879 11.716 487.339 12.256 486.655 12.64C485.983 13.024 485.227 13.216 484.387 13.216ZM484.387 11.92C484.903 11.92 485.383 11.794 485.827 11.542C486.271 11.29 486.631 10.912 486.907 10.408C487.183 9.904 487.321 9.28 487.321 8.536C487.321 7.792 487.183 7.168 486.907 6.664C486.643 6.16 486.289 5.782 485.845 5.53C485.401 5.278 484.927 5.152 484.423 5.152C483.907 5.152 483.427 5.278 482.983 5.53C482.539 5.782 482.179 6.16 481.903 6.664C481.627 7.168 481.489 7.792 481.489 8.536C481.489 9.28 481.627 9.904 481.903 10.408C482.179 10.912 482.533 11.29 482.965 11.542C483.409 11.794 483.883 11.92 484.387 11.92ZM491.121 13V4.072H492.489L492.579 5.674C492.867 5.11 493.281 4.666 493.821 4.342C494.361 4.018 494.973 3.856 495.657 3.856C496.713 3.856 497.553 4.18 498.177 4.828C498.813 5.464 499.131 6.448 499.131 7.78V13H497.619V7.942C497.619 6.082 496.851 5.152 495.315 5.152C494.547 5.152 493.905 5.434 493.389 5.998C492.885 6.55 492.633 7.342 492.633 8.374V13H491.121ZM505.586 13.216C504.734 13.216 503.978 13.024 503.318 12.64C502.658 12.244 502.136 11.698 501.752 11.002C501.38 10.306 501.194 9.484 501.194 8.536C501.194 7.6 501.38 6.784 501.752 6.088C502.124 5.38 502.64 4.834 503.3 4.45C503.972 4.054 504.746 3.856 505.622 3.856C506.486 3.856 507.23 4.054 507.854 4.45C508.49 4.834 508.976 5.344 509.312 5.98C509.648 6.616 509.816 7.3 509.816 8.032C509.816 8.164 509.81 8.296 509.798 8.428C509.798 8.56 509.798 8.71 509.798 8.878H502.688C502.724 9.562 502.88 10.132 503.156 10.588C503.444 11.032 503.798 11.368 504.218 11.596C504.65 11.824 505.106 11.938 505.586 11.938C506.21 11.938 506.732 11.794 507.152 11.506C507.572 11.218 507.878 10.828 508.07 10.336H509.564C509.324 11.164 508.862 11.854 508.178 12.406C507.506 12.946 506.642 13.216 505.586 13.216ZM505.586 5.134C504.866 5.134 504.224 5.356 503.66 5.8C503.108 6.232 502.79 6.868 502.706 7.708H508.322C508.286 6.904 508.01 6.274 507.494 5.818C506.978 5.362 506.342 5.134 505.586 5.134ZM512.59 16.96L514.804 12.136H514.282L510.736 4.072H512.374L515.326 11.02L518.458 4.072H520.024L514.174 16.96H512.59ZM530.212 13C529.396 13 528.754 12.802 528.286 12.406C527.818 12.01 527.584 11.296 527.584 10.264V5.35H526.036V4.072H527.584L527.782 1.93H529.096V4.072H531.724V5.35H529.096V10.264C529.096 10.828 529.21 11.212 529.438 11.416C529.666 11.608 530.068 11.704 530.644 11.704H531.58V13H530.212ZM537.617 13.216C536.777 13.216 536.021 13.024 535.349 12.64C534.677 12.256 534.143 11.716 533.747 11.02C533.363 10.312 533.171 9.484 533.171 8.536C533.171 7.588 533.369 6.766 533.765 6.07C534.161 5.362 534.695 4.816 535.367 4.432C536.051 4.048 536.813 3.856 537.653 3.856C538.493 3.856 539.249 4.048 539.921 4.432C540.593 4.816 541.121 5.362 541.505 6.07C541.901 6.766 542.099 7.588 542.099 8.536C542.099 9.484 541.901 10.312 541.505 11.02C541.109 11.716 540.569 12.256 539.885 12.64C539.213 13.024 538.457 13.216 537.617 13.216ZM537.617 11.92C538.133 11.92 538.613 11.794 539.057 11.542C539.501 11.29 539.861 10.912 540.137 10.408C540.413 9.904 540.551 9.28 540.551 8.536C540.551 7.792 540.413 7.168 540.137 6.664C539.873 6.16 539.519 5.782 539.075 5.53C538.631 5.278 538.157 5.152 537.653 5.152C537.137 5.152 536.657 5.278 536.213 5.53C535.769 5.782 535.409 6.16 535.133 6.664C534.857 7.168 534.719 7.792 534.719 8.536C534.719 9.28 534.857 9.904 535.133 10.408C535.409 10.912 535.763 11.29 536.195 11.542C536.639 11.794 537.113 11.92 537.617 11.92ZM552.793 13C551.977 13 551.335 12.802 550.867 12.406C550.399 12.01 550.165 11.296 550.165 10.264V5.35H548.617V4.072H550.165L550.363 1.93H551.677V4.072H554.305V5.35H551.677V10.264C551.677 10.828 551.791 11.212 552.019 11.416C552.247 11.608 552.649 11.704 553.225 11.704H554.161V13H552.793ZM556.376 13V0.0399995H557.888V5.602C558.188 5.05 558.614 4.624 559.166 4.324C559.718 4.012 560.318 3.856 560.966 3.856C561.998 3.856 562.826 4.18 563.45 4.828C564.074 5.464 564.386 6.448 564.386 7.78V13H562.892V7.942C562.892 6.082 562.142 5.152 560.642 5.152C559.862 5.152 559.208 5.434 558.68 5.998C558.152 6.55 557.888 7.342 557.888 8.374V13H556.376ZM570.84 13.216C569.988 13.216 569.232 13.024 568.572 12.64C567.912 12.244 567.39 11.698 567.006 11.002C566.634 10.306 566.448 9.484 566.448 8.536C566.448 7.6 566.634 6.784 567.006 6.088C567.378 5.38 567.894 4.834 568.554 4.45C569.226 4.054 570 3.856 570.876 3.856C571.74 3.856 572.484 4.054 573.108 4.45C573.744 4.834 574.23 5.344 574.566 5.98C574.902 6.616 575.07 7.3 575.07 8.032C575.07 8.164 575.064 8.296 575.052 8.428C575.052 8.56 575.052 8.71 575.052 8.878H567.942C567.978 9.562 568.134 10.132 568.41 10.588C568.698 11.032 569.052 11.368 569.472 11.596C569.904 11.824 570.36 11.938 570.84 11.938C571.464 11.938 571.986 11.794 572.406 11.506C572.826 11.218 573.132 10.828 573.324 10.336H574.818C574.578 11.164 574.116 11.854 573.432 12.406C572.76 12.946 571.896 13.216 570.84 13.216ZM570.84 5.134C570.12 5.134 569.478 5.356 568.914 5.8C568.362 6.232 568.044 6.868 567.96 7.708H573.576C573.54 6.904 573.264 6.274 572.748 5.818C572.232 5.362 571.596 5.134 570.84 5.134ZM586.188 13.216C585.3 13.216 584.52 13.012 583.848 12.604C583.188 12.196 582.672 11.638 582.3 10.93C581.94 10.222 581.76 9.418 581.76 8.518C581.76 7.618 581.946 6.82 582.318 6.124C582.69 5.416 583.206 4.864 583.866 4.468C584.526 4.06 585.306 3.856 586.206 3.856C586.938 3.856 587.586 4.006 588.15 4.306C588.714 4.606 589.152 5.026 589.464 5.566V0.0399995H590.976V13H589.608L589.464 11.524C589.176 11.956 588.762 12.346 588.222 12.694C587.682 13.042 587.004 13.216 586.188 13.216ZM586.35 11.902C586.95 11.902 587.478 11.764 587.934 11.488C588.402 11.2 588.762 10.804 589.014 10.3C589.278 9.796 589.41 9.208 589.41 8.536C589.41 7.864 589.278 7.276 589.014 6.772C588.762 6.268 588.402 5.878 587.934 5.602C587.478 5.314 586.95 5.17 586.35 5.17C585.762 5.17 585.234 5.314 584.766 5.602C584.31 5.878 583.95 6.268 583.686 6.772C583.434 7.276 583.308 7.864 583.308 8.536C583.308 9.208 583.434 9.796 583.686 10.3C583.95 10.804 584.31 11.2 584.766 11.488C585.234 11.764 585.762 11.902 586.35 11.902ZM596.561 13.216C595.817 13.216 595.199 13.09 594.707 12.838C594.215 12.586 593.849 12.25 593.609 11.83C593.369 11.41 593.249 10.954 593.249 10.462C593.249 9.55 593.597 8.848 594.293 8.356C594.989 7.864 595.937 7.618 597.137 7.618H599.549V7.51C599.549 6.73 599.345 6.142 598.937 5.746C598.529 5.338 597.983 5.134 597.299 5.134C596.711 5.134 596.201 5.284 595.769 5.584C595.349 5.872 595.085 6.298 594.977 6.862H593.429C593.489 6.214 593.705 5.668 594.077 5.224C594.461 4.78 594.935 4.444 595.499 4.216C596.063 3.976 596.663 3.856 597.299 3.856C598.547 3.856 599.483 4.192 600.107 4.864C600.743 5.524 601.061 6.406 601.061 7.51V13H599.711L599.621 11.398C599.369 11.902 598.997 12.334 598.505 12.694C598.025 13.042 597.377 13.216 596.561 13.216ZM596.795 11.938C597.371 11.938 597.863 11.788 598.271 11.488C598.691 11.188 599.009 10.798 599.225 10.318C599.441 9.838 599.549 9.334 599.549 8.806V8.788H597.263C596.375 8.788 595.745 8.944 595.373 9.256C595.013 9.556 594.833 9.934 594.833 10.39C594.833 10.858 595.001 11.236 595.337 11.524C595.685 11.8 596.171 11.938 596.795 11.938ZM606.899 13.216C605.831 13.216 604.943 12.946 604.235 12.406C603.527 11.866 603.113 11.134 602.993 10.21H604.541C604.637 10.678 604.883 11.086 605.279 11.434C605.687 11.77 606.233 11.938 606.917 11.938C607.553 11.938 608.021 11.806 608.321 11.542C608.621 11.266 608.771 10.942 608.771 10.57C608.771 10.03 608.573 9.67 608.177 9.49C607.793 9.31 607.247 9.148 606.539 9.004C606.059 8.908 605.579 8.77 605.099 8.59C604.619 8.41 604.217 8.158 603.893 7.834C603.569 7.498 603.407 7.06 603.407 6.52C603.407 5.74 603.695 5.104 604.271 4.612C604.859 4.108 605.651 3.856 606.647 3.856C607.595 3.856 608.369 4.096 608.969 4.576C609.581 5.044 609.935 5.716 610.031 6.592H608.537C608.477 6.136 608.279 5.782 607.943 5.53C607.619 5.266 607.181 5.134 606.629 5.134C606.089 5.134 605.669 5.248 605.369 5.476C605.081 5.704 604.937 6.004 604.937 6.376C604.937 6.736 605.123 7.018 605.495 7.222C605.879 7.426 606.395 7.6 607.043 7.744C607.595 7.864 608.117 8.014 608.609 8.194C609.113 8.362 609.521 8.62 609.833 8.968C610.157 9.304 610.319 9.796 610.319 10.444C610.331 11.248 610.025 11.914 609.401 12.442C608.789 12.958 607.955 13.216 606.899 13.216ZM612.629 13V0.0399995H614.141V5.602C614.441 5.05 614.867 4.624 615.419 4.324C615.971 4.012 616.571 3.856 617.219 3.856C618.251 3.856 619.079 4.18 619.703 4.828C620.327 5.464 620.639 6.448 620.639 7.78V13H619.145V7.942C619.145 6.082 618.395 5.152 616.895 5.152C616.115 5.152 615.461 5.434 614.933 5.998C614.405 6.55 614.141 7.342 614.141 8.374V13H612.629ZM627.85 13.216C627.118 13.216 626.464 13.066 625.888 12.766C625.324 12.466 624.892 12.046 624.592 11.506L624.448 13H623.08V0.0399995H624.592V5.548C624.88 5.116 625.288 4.726 625.816 4.378C626.356 4.03 627.04 3.856 627.868 3.856C628.756 3.856 629.53 4.06 630.19 4.468C630.85 4.876 631.36 5.434 631.72 6.142C632.092 6.85 632.278 7.654 632.278 8.554C632.278 9.454 632.092 10.258 631.72 10.966C631.36 11.662 630.844 12.214 630.172 12.622C629.512 13.018 628.738 13.216 627.85 13.216ZM627.688 11.902C628.288 11.902 628.816 11.764 629.272 11.488C629.728 11.2 630.088 10.804 630.352 10.3C630.616 9.796 630.748 9.208 630.748 8.536C630.748 7.864 630.616 7.276 630.352 6.772C630.088 6.268 629.728 5.878 629.272 5.602C628.816 5.314 628.288 5.17 627.688 5.17C627.088 5.17 626.56 5.314 626.104 5.602C625.648 5.878 625.288 6.268 625.024 6.772C624.76 7.276 624.628 7.864 624.628 8.536C624.628 9.208 624.76 9.796 625.024 10.3C625.288 10.804 625.648 11.2 626.104 11.488C626.56 11.764 627.088 11.902 627.688 11.902ZM638.601 13.216C637.761 13.216 637.005 13.024 636.333 12.64C635.661 12.256 635.127 11.716 634.731 11.02C634.347 10.312 634.155 9.484 634.155 8.536C634.155 7.588 634.353 6.766 634.749 6.07C635.145 5.362 635.679 4.816 636.351 4.432C637.035 4.048 637.797 3.856 638.637 3.856C639.477 3.856 640.233 4.048 640.905 4.432C641.577 4.816 642.105 5.362 642.489 6.07C642.885 6.766 643.083 7.588 643.083 8.536C643.083 9.484 642.885 10.312 642.489 11.02C642.093 11.716 641.553 12.256 640.869 12.64C640.197 13.024 639.441 13.216 638.601 13.216ZM638.601 11.92C639.117 11.92 639.597 11.794 640.041 11.542C640.485 11.29 640.845 10.912 641.121 10.408C641.397 9.904 641.535 9.28 641.535 8.536C641.535 7.792 641.397 7.168 641.121 6.664C640.857 6.16 640.503 5.782 640.059 5.53C639.615 5.278 639.141 5.152 638.637 5.152C638.121 5.152 637.641 5.278 637.197 5.53C636.753 5.782 636.393 6.16 636.117 6.664C635.841 7.168 635.703 7.792 635.703 8.536C635.703 9.28 635.841 9.904 636.117 10.408C636.393 10.912 636.747 11.29 637.179 11.542C637.623 11.794 638.097 11.92 638.601 11.92ZM648.305 13.216C647.561 13.216 646.943 13.09 646.451 12.838C645.959 12.586 645.593 12.25 645.353 11.83C645.113 11.41 644.993 10.954 644.993 10.462C644.993 9.55 645.341 8.848 646.037 8.356C646.733 7.864 647.681 7.618 648.881 7.618H651.293V7.51C651.293 6.73 651.089 6.142 650.681 5.746C650.273 5.338 649.727 5.134 649.043 5.134C648.455 5.134 647.945 5.284 647.513 5.584C647.093 5.872 646.829 6.298 646.721 6.862H645.173C645.233 6.214 645.449 5.668 645.821 5.224C646.205 4.78 646.679 4.444 647.243 4.216C647.807 3.976 648.407 3.856 649.043 3.856C650.291 3.856 651.227 4.192 651.851 4.864C652.487 5.524 652.805 6.406 652.805 7.51V13H651.455L651.365 11.398C651.113 11.902 650.741 12.334 650.249 12.694C649.769 13.042 649.121 13.216 648.305 13.216ZM648.539 11.938C649.115 11.938 649.607 11.788 650.015 11.488C650.435 11.188 650.753 10.798 650.969 10.318C651.185 9.838 651.293 9.334 651.293 8.806V8.788H649.007C648.119 8.788 647.489 8.944 647.117 9.256C646.757 9.556 646.577 9.934 646.577 10.39C646.577 10.858 646.745 11.236 647.081 11.524C647.429 11.8 647.915 11.938 648.539 11.938ZM655.223 13V4.072H656.591L656.717 5.782C656.993 5.194 657.413 4.726 657.977 4.378C658.541 4.03 659.237 3.856 660.065 3.856V5.44H659.651C659.123 5.44 658.637 5.536 658.193 5.728C657.749 5.908 657.395 6.22 657.131 6.664C656.867 7.108 656.735 7.72 656.735 8.5V13H655.223ZM665.628 13.216C664.74 13.216 663.96 13.012 663.288 12.604C662.628 12.196 662.112 11.638 661.74 10.93C661.38 10.222 661.2 9.418 661.2 8.518C661.2 7.618 661.386 6.82 661.758 6.124C662.13 5.416 662.646 4.864 663.306 4.468C663.966 4.06 664.746 3.856 665.646 3.856C666.378 3.856 667.026 4.006 667.59 4.306C668.154 4.606 668.592 5.026 668.904 5.566V0.0399995H670.416V13H669.048L668.904 11.524C668.616 11.956 668.202 12.346 667.662 12.694C667.122 13.042 666.444 13.216 665.628 13.216ZM665.79 11.902C666.39 11.902 666.918 11.764 667.374 11.488C667.842 11.2 668.202 10.804 668.454 10.3C668.718 9.796 668.85 9.208 668.85 8.536C668.85 7.864 668.718 7.276 668.454 6.772C668.202 6.268 667.842 5.878 667.374 5.602C666.918 5.314 666.39 5.17 665.79 5.17C665.202 5.17 664.674 5.314 664.206 5.602C663.75 5.878 663.39 6.268 663.126 6.772C662.874 7.276 662.748 7.864 662.748 8.536C662.748 9.208 662.874 9.796 663.126 10.3C663.39 10.804 663.75 11.2 664.206 11.488C664.674 11.764 665.202 11.902 665.79 11.902ZM677.945 13V4.072H679.313L679.439 5.782C679.715 5.194 680.135 4.726 680.699 4.378C681.263 4.03 681.959 3.856 682.787 3.856V5.44H682.373C681.845 5.44 681.359 5.536 680.915 5.728C680.471 5.908 680.117 6.22 679.853 6.664C679.589 7.108 679.457 7.72 679.457 8.5V13H677.945ZM687.604 13.216C686.86 13.216 686.242 13.09 685.75 12.838C685.258 12.586 684.892 12.25 684.652 11.83C684.412 11.41 684.292 10.954 684.292 10.462C684.292 9.55 684.64 8.848 685.336 8.356C686.032 7.864 686.98 7.618 688.18 7.618H690.592V7.51C690.592 6.73 690.388 6.142 689.98 5.746C689.572 5.338 689.026 5.134 688.342 5.134C687.754 5.134 687.244 5.284 686.812 5.584C686.392 5.872 686.128 6.298 686.02 6.862H684.472C684.532 6.214 684.748 5.668 685.12 5.224C685.504 4.78 685.978 4.444 686.542 4.216C687.106 3.976 687.706 3.856 688.342 3.856C689.59 3.856 690.526 4.192 691.15 4.864C691.786 5.524 692.104 6.406 692.104 7.51V13H690.754L690.664 11.398C690.412 11.902 690.04 12.334 689.548 12.694C689.068 13.042 688.42 13.216 687.604 13.216ZM687.838 11.938C688.414 11.938 688.906 11.788 689.314 11.488C689.734 11.188 690.052 10.798 690.268 10.318C690.484 9.838 690.592 9.334 690.592 8.806V8.788H688.306C687.418 8.788 686.788 8.944 686.416 9.256C686.056 9.556 685.876 9.934 685.876 10.39C685.876 10.858 686.044 11.236 686.38 11.524C686.728 11.8 687.214 11.938 687.838 11.938ZM697.804 13C696.988 13 696.346 12.802 695.878 12.406C695.41 12.01 695.176 11.296 695.176 10.264V5.35H693.628V4.072H695.176L695.374 1.93H696.688V4.072H699.316V5.35H696.688V10.264C696.688 10.828 696.802 11.212 697.03 11.416C697.258 11.608 697.66 11.704 698.236 11.704H699.172V13H697.804ZM701.387 13V0.0399995H702.899V5.602C703.199 5.05 703.625 4.624 704.177 4.324C704.729 4.012 705.329 3.856 705.977 3.856C707.009 3.856 707.837 4.18 708.461 4.828C709.085 5.464 709.397 6.448 709.397 7.78V13H707.903V7.942C707.903 6.082 707.153 5.152 705.653 5.152C704.873 5.152 704.219 5.434 703.691 5.998C703.163 6.55 702.899 7.342 702.899 8.374V13H701.387ZM715.852 13.216C715 13.216 714.244 13.024 713.584 12.64C712.924 12.244 712.402 11.698 712.018 11.002C711.646 10.306 711.46 9.484 711.46 8.536C711.46 7.6 711.646 6.784 712.018 6.088C712.39 5.38 712.906 4.834 713.566 4.45C714.238 4.054 715.012 3.856 715.888 3.856C716.752 3.856 717.496 4.054 718.12 4.45C718.756 4.834 719.242 5.344 719.578 5.98C719.914 6.616 720.082 7.3 720.082 8.032C720.082 8.164 720.076 8.296 720.064 8.428C720.064 8.56 720.064 8.71 720.064 8.878H712.954C712.99 9.562 713.146 10.132 713.422 10.588C713.71 11.032 714.064 11.368 714.484 11.596C714.916 11.824 715.372 11.938 715.852 11.938C716.476 11.938 716.998 11.794 717.418 11.506C717.838 11.218 718.144 10.828 718.336 10.336H719.83C719.59 11.164 719.128 11.854 718.444 12.406C717.772 12.946 716.908 13.216 715.852 13.216ZM715.852 5.134C715.132 5.134 714.49 5.356 713.926 5.8C713.374 6.232 713.056 6.868 712.972 7.708H718.588C718.552 6.904 718.276 6.274 717.76 5.818C717.244 5.362 716.608 5.134 715.852 5.134ZM722.236 13V4.072H723.604L723.73 5.782C724.006 5.194 724.426 4.726 724.99 4.378C725.554 4.03 726.25 3.856 727.078 3.856V5.44H726.664C726.136 5.44 725.65 5.536 725.206 5.728C724.762 5.908 724.408 6.22 724.144 6.664C723.88 7.108 723.748 7.72 723.748 8.5V13H722.236ZM737.366 13C736.55 13 735.908 12.802 735.44 12.406C734.972 12.01 734.738 11.296 734.738 10.264V5.35H733.19V4.072H734.738L734.936 1.93H736.25V4.072H738.878V5.35H736.25V10.264C736.25 10.828 736.364 11.212 736.592 11.416C736.82 11.608 737.222 11.704 737.798 11.704H738.734V13H737.366ZM740.949 13V0.0399995H742.461V5.602C742.761 5.05 743.187 4.624 743.739 4.324C744.291 4.012 744.891 3.856 745.539 3.856C746.571 3.856 747.399 4.18 748.023 4.828C748.647 5.464 748.959 6.448 748.959 7.78V13H747.465V7.942C747.465 6.082 746.715 5.152 745.215 5.152C744.435 5.152 743.781 5.434 743.253 5.998C742.725 6.55 742.461 7.342 742.461 8.374V13H740.949ZM754.37 13.216C753.626 13.216 753.008 13.09 752.516 12.838C752.024 12.586 751.658 12.25 751.418 11.83C751.178 11.41 751.058 10.954 751.058 10.462C751.058 9.55 751.406 8.848 752.102 8.356C752.798 7.864 753.746 7.618 754.946 7.618H757.358V7.51C757.358 6.73 757.154 6.142 756.746 5.746C756.338 5.338 755.792 5.134 755.108 5.134C754.52 5.134 754.01 5.284 753.578 5.584C753.158 5.872 752.894 6.298 752.786 6.862H751.238C751.298 6.214 751.514 5.668 751.886 5.224C752.27 4.78 752.744 4.444 753.308 4.216C753.872 3.976 754.472 3.856 755.108 3.856C756.356 3.856 757.292 4.192 757.916 4.864C758.552 5.524 758.87 6.406 758.87 7.51V13H757.52L757.43 11.398C757.178 11.902 756.806 12.334 756.314 12.694C755.834 13.042 755.186 13.216 754.37 13.216ZM754.604 11.938C755.18 11.938 755.672 11.788 756.08 11.488C756.5 11.188 756.818 10.798 757.034 10.318C757.25 9.838 757.358 9.334 757.358 8.806V8.788H755.072C754.184 8.788 753.554 8.944 753.182 9.256C752.822 9.556 752.642 9.934 752.642 10.39C752.642 10.858 752.81 11.236 753.146 11.524C753.494 11.8 753.98 11.938 754.604 11.938ZM761.289 13V4.072H762.657L762.747 5.674C763.035 5.11 763.449 4.666 763.989 4.342C764.529 4.018 765.141 3.856 765.825 3.856C766.881 3.856 767.721 4.18 768.345 4.828C768.981 5.464 769.299 6.448 769.299 7.78V13H767.787V7.942C767.787 6.082 767.019 5.152 765.483 5.152C764.715 5.152 764.073 5.434 763.557 5.998C763.053 6.55 762.801 7.342 762.801 8.374V13H761.289ZM776.653 13V0.0399995H778.165V5.602C778.465 5.05 778.891 4.624 779.443 4.324C779.995 4.012 780.595 3.856 781.243 3.856C782.275 3.856 783.103 4.18 783.727 4.828C784.351 5.464 784.663 6.448 784.663 7.78V13H783.169V7.942C783.169 6.082 782.419 5.152 780.919 5.152C780.139 5.152 779.485 5.434 778.957 5.998C778.429 6.55 778.165 7.342 778.165 8.374V13H776.653ZM790.074 13.216C789.33 13.216 788.712 13.09 788.22 12.838C787.728 12.586 787.362 12.25 787.122 11.83C786.882 11.41 786.762 10.954 786.762 10.462C786.762 9.55 787.11 8.848 787.806 8.356C788.502 7.864 789.45 7.618 790.65 7.618H793.062V7.51C793.062 6.73 792.858 6.142 792.45 5.746C792.042 5.338 791.496 5.134 790.812 5.134C790.224 5.134 789.714 5.284 789.282 5.584C788.862 5.872 788.598 6.298 788.49 6.862H786.942C787.002 6.214 787.218 5.668 787.59 5.224C787.974 4.78 788.448 4.444 789.012 4.216C789.576 3.976 790.176 3.856 790.812 3.856C792.06 3.856 792.996 4.192 793.62 4.864C794.256 5.524 794.574 6.406 794.574 7.51V13H793.224L793.134 11.398C792.882 11.902 792.51 12.334 792.018 12.694C791.538 13.042 790.89 13.216 790.074 13.216ZM790.308 11.938C790.884 11.938 791.376 11.788 791.784 11.488C792.204 11.188 792.522 10.798 792.738 10.318C792.954 9.838 793.062 9.334 793.062 8.806V8.788H790.776C789.888 8.788 789.258 8.944 788.886 9.256C788.526 9.556 788.346 9.934 788.346 10.39C788.346 10.858 788.514 11.236 788.85 11.524C789.198 11.8 789.684 11.938 790.308 11.938ZM799.232 13L795.848 4.072H797.432L800.114 11.542L802.814 4.072H804.362L800.978 13H799.232ZM809.752 13.216C808.9 13.216 808.144 13.024 807.484 12.64C806.824 12.244 806.302 11.698 805.918 11.002C805.546 10.306 805.36 9.484 805.36 8.536C805.36 7.6 805.546 6.784 805.918 6.088C806.29 5.38 806.806 4.834 807.466 4.45C808.138 4.054 808.912 3.856 809.788 3.856C810.652 3.856 811.396 4.054 812.02 4.45C812.656 4.834 813.142 5.344 813.478 5.98C813.814 6.616 813.982 7.3 813.982 8.032C813.982 8.164 813.976 8.296 813.964 8.428C813.964 8.56 813.964 8.71 813.964 8.878H806.854C806.89 9.562 807.046 10.132 807.322 10.588C807.61 11.032 807.964 11.368 808.384 11.596C808.816 11.824 809.272 11.938 809.752 11.938C810.376 11.938 810.898 11.794 811.318 11.506C811.738 11.218 812.044 10.828 812.236 10.336H813.73C813.49 11.164 813.028 11.854 812.344 12.406C811.672 12.946 810.808 13.216 809.752 13.216ZM809.752 5.134C809.032 5.134 808.39 5.356 807.826 5.8C807.274 6.232 806.956 6.868 806.872 7.708H812.488C812.452 6.904 812.176 6.274 811.66 5.818C811.144 5.362 810.508 5.134 809.752 5.134ZM821.967 2.092C821.667 2.092 821.415 1.996 821.211 1.804C821.019 1.6 820.923 1.348 820.923 1.048C820.923 0.76 821.019 0.519999 821.211 0.327999C821.415 0.135999 821.667 0.0399995 821.967 0.0399995C822.255 0.0399995 822.501 0.135999 822.705 0.327999C822.909 0.519999 823.011 0.76 823.011 1.048C823.011 1.348 822.909 1.6 822.705 1.804C822.501 1.996 822.255 2.092 821.967 2.092ZM821.211 13V4.072H822.723V13H821.211ZM829.034 13C828.218 13 827.576 12.802 827.108 12.406C826.64 12.01 826.406 11.296 826.406 10.264V5.35H824.858V4.072H826.406L826.604 1.93H827.918V4.072H830.546V5.35H827.918V10.264C827.918 10.828 828.032 11.212 828.26 11.416C828.488 11.608 828.89 11.704 829.466 11.704H830.402V13H829.034ZM841.059 13C840.243 13 839.601 12.802 839.133 12.406C838.665 12.01 838.431 11.296 838.431 10.264V5.35H836.883V4.072H838.431L838.629 1.93H839.943V4.072H842.571V5.35H839.943V10.264C839.943 10.828 840.057 11.212 840.285 11.416C840.513 11.608 840.915 11.704 841.491 11.704H842.427V13H841.059ZM847.612 13.216C846.868 13.216 846.25 13.09 845.758 12.838C845.266 12.586 844.9 12.25 844.66 11.83C844.42 11.41 844.3 10.954 844.3 10.462C844.3 9.55 844.648 8.848 845.344 8.356C846.04 7.864 846.988 7.618 848.188 7.618H850.6V7.51C850.6 6.73 850.396 6.142 849.988 5.746C849.58 5.338 849.034 5.134 848.35 5.134C847.762 5.134 847.252 5.284 846.82 5.584C846.4 5.872 846.136 6.298 846.028 6.862H844.48C844.54 6.214 844.756 5.668 845.128 5.224C845.512 4.78 845.986 4.444 846.55 4.216C847.114 3.976 847.714 3.856 848.35 3.856C849.598 3.856 850.534 4.192 851.158 4.864C851.794 5.524 852.112 6.406 852.112 7.51V13H850.762L850.672 11.398C850.42 11.902 850.048 12.334 849.556 12.694C849.076 13.042 848.428 13.216 847.612 13.216ZM847.846 11.938C848.422 11.938 848.914 11.788 849.322 11.488C849.742 11.188 850.06 10.798 850.276 10.318C850.492 9.838 850.6 9.334 850.6 8.806V8.788H848.314C847.426 8.788 846.796 8.944 846.424 9.256C846.064 9.556 845.884 9.934 845.884 10.39C845.884 10.858 846.052 11.236 846.388 11.524C846.736 11.8 847.222 11.938 847.846 11.938ZM854.53 13V0.0399995H856.042V7.834L859.696 4.072H861.55L857.59 8.104L862.054 13H860.128L856.042 8.374V13H854.53ZM867.114 13.216C866.262 13.216 865.506 13.024 864.846 12.64C864.186 12.244 863.664 11.698 863.28 11.002C862.908 10.306 862.722 9.484 862.722 8.536C862.722 7.6 862.908 6.784 863.28 6.088C863.652 5.38 864.168 4.834 864.828 4.45C865.5 4.054 866.274 3.856 867.15 3.856C868.014 3.856 868.758 4.054 869.382 4.45C870.018 4.834 870.504 5.344 870.84 5.98C871.176 6.616 871.344 7.3 871.344 8.032C871.344 8.164 871.338 8.296 871.326 8.428C871.326 8.56 871.326 8.71 871.326 8.878H864.216C864.252 9.562 864.408 10.132 864.684 10.588C864.972 11.032 865.326 11.368 865.746 11.596C866.178 11.824 866.634 11.938 867.114 11.938C867.738 11.938 868.26 11.794 868.68 11.506C869.1 11.218 869.406 10.828 869.598 10.336H871.092C870.852 11.164 870.39 11.854 869.706 12.406C869.034 12.946 868.17 13.216 867.114 13.216ZM867.114 5.134C866.394 5.134 865.752 5.356 865.188 5.8C864.636 6.232 864.318 6.868 864.234 7.708H869.85C869.814 6.904 869.538 6.274 869.022 5.818C868.506 5.362 867.87 5.134 867.114 5.134ZM881.67 13.216C880.614 13.216 879.774 12.898 879.15 12.262C878.526 11.614 878.214 10.624 878.214 9.292V4.072H879.726V9.13C879.726 10.99 880.488 11.92 882.012 11.92C882.792 11.92 883.434 11.644 883.938 11.092C884.454 10.528 884.712 9.73 884.712 8.698V4.072H886.224V13H884.856L884.748 11.398C884.472 11.962 884.058 12.406 883.506 12.73C882.966 13.054 882.354 13.216 881.67 13.216ZM888.862 16.96V4.072H890.23L890.374 5.548C890.662 5.116 891.07 4.726 891.598 4.378C892.138 4.03 892.822 3.856 893.65 3.856C894.538 3.856 895.312 4.06 895.972 4.468C896.632 4.876 897.142 5.434 897.502 6.142C897.874 6.85 898.06 7.654 898.06 8.554C898.06 9.454 897.874 10.258 897.502 10.966C897.142 11.662 896.626 12.214 895.954 12.622C895.294 13.018 894.52 13.216 893.632 13.216C892.9 13.216 892.246 13.066 891.67 12.766C891.106 12.466 890.674 12.046 890.374 11.506V16.96H888.862ZM893.47 11.902C894.07 11.902 894.598 11.764 895.054 11.488C895.51 11.2 895.87 10.804 896.134 10.3C896.398 9.796 896.53 9.208 896.53 8.536C896.53 7.864 896.398 7.276 896.134 6.772C895.87 6.268 895.51 5.878 895.054 5.602C894.598 5.314 894.07 5.17 893.47 5.17C892.87 5.17 892.342 5.314 891.886 5.602C891.43 5.878 891.07 6.268 890.806 6.772C890.542 7.276 890.41 7.864 890.41 8.536C890.41 9.208 890.542 9.796 890.806 10.3C891.07 10.804 891.43 11.2 891.886 11.488C892.342 11.764 892.87 11.902 893.47 11.902ZM906.147 2.092C905.847 2.092 905.595 1.996 905.391 1.804C905.199 1.6 905.103 1.348 905.103 1.048C905.103 0.76 905.199 0.519999 905.391 0.327999C905.595 0.135999 905.847 0.0399995 906.147 0.0399995C906.435 0.0399995 906.681 0.135999 906.885 0.327999C907.089 0.519999 907.191 0.76 907.191 1.048C907.191 1.348 907.089 1.6 906.885 1.804C906.681 1.996 906.435 2.092 906.147 2.092ZM905.391 13V4.072H906.903V13H905.391ZM909.685 13V4.072H911.053L911.143 5.674C911.431 5.11 911.845 4.666 912.385 4.342C912.925 4.018 913.537 3.856 914.221 3.856C915.277 3.856 916.117 4.18 916.741 4.828C917.377 5.464 917.695 6.448 917.695 7.78V13H916.183V7.942C916.183 6.082 915.415 5.152 913.879 5.152C913.111 5.152 912.469 5.434 911.953 5.998C911.449 6.55 911.197 7.342 911.197 8.374V13H909.685ZM928.02 13.216C927.276 13.216 926.658 13.09 926.166 12.838C925.674 12.586 925.308 12.25 925.068 11.83C924.828 11.41 924.708 10.954 924.708 10.462C924.708 9.55 925.056 8.848 925.752 8.356C926.448 7.864 927.396 7.618 928.596 7.618H931.008V7.51C931.008 6.73 930.804 6.142 930.396 5.746C929.988 5.338 929.442 5.134 928.758 5.134C928.17 5.134 927.66 5.284 927.228 5.584C926.808 5.872 926.544 6.298 926.436 6.862H924.888C924.948 6.214 925.164 5.668 925.536 5.224C925.92 4.78 926.394 4.444 926.958 4.216C927.522 3.976 928.122 3.856 928.758 3.856C930.006 3.856 930.942 4.192 931.566 4.864C932.202 5.524 932.52 6.406 932.52 7.51V13H931.17L931.08 11.398C930.828 11.902 930.456 12.334 929.964 12.694C929.484 13.042 928.836 13.216 928.02 13.216ZM928.254 11.938C928.83 11.938 929.322 11.788 929.73 11.488C930.15 11.188 930.468 10.798 930.684 10.318C930.9 9.838 931.008 9.334 931.008 8.806V8.788H928.722C927.834 8.788 927.204 8.944 926.832 9.256C926.472 9.556 926.292 9.934 926.292 10.39C926.292 10.858 926.46 11.236 926.796 11.524C927.144 11.8 927.63 11.938 928.254 11.938ZM934.938 13V4.072H936.306L936.396 5.674C936.684 5.11 937.098 4.666 937.638 4.342C938.178 4.018 938.79 3.856 939.474 3.856C940.53 3.856 941.37 4.18 941.994 4.828C942.63 5.464 942.948 6.448 942.948 7.78V13H941.436V7.942C941.436 6.082 940.668 5.152 939.132 5.152C938.364 5.152 937.722 5.434 937.206 5.998C936.702 6.55 936.45 7.342 936.45 8.374V13H934.938ZM954.317 13.216C953.465 13.216 952.709 13.024 952.049 12.64C951.389 12.244 950.867 11.698 950.483 11.002C950.111 10.306 949.925 9.484 949.925 8.536C949.925 7.6 950.111 6.784 950.483 6.088C950.855 5.38 951.371 4.834 952.031 4.45C952.703 4.054 953.477 3.856 954.353 3.856C955.217 3.856 955.961 4.054 956.585 4.45C957.221 4.834 957.707 5.344 958.043 5.98C958.379 6.616 958.547 7.3 958.547 8.032C958.547 8.164 958.541 8.296 958.529 8.428C958.529 8.56 958.529 8.71 958.529 8.878H951.419C951.455 9.562 951.611 10.132 951.887 10.588C952.175 11.032 952.529 11.368 952.949 11.596C953.381 11.824 953.837 11.938 954.317 11.938C954.941 11.938 955.463 11.794 955.883 11.506C956.303 11.218 956.609 10.828 956.801 10.336H958.295C958.055 11.164 957.593 11.854 956.909 12.406C956.237 12.946 955.373 13.216 954.317 13.216ZM954.317 5.134C953.597 5.134 952.955 5.356 952.391 5.8C951.839 6.232 951.521 6.868 951.437 7.708H957.053C957.017 6.904 956.741 6.274 956.225 5.818C955.709 5.362 955.073 5.134 954.317 5.134ZM960.701 13V4.072H962.069L962.159 5.674C962.447 5.11 962.861 4.666 963.401 4.342C963.941 4.018 964.553 3.856 965.237 3.856C966.293 3.856 967.133 4.18 967.757 4.828C968.393 5.464 968.711 6.448 968.711 7.78V13H967.199V7.942C967.199 6.082 966.431 5.152 964.895 5.152C964.127 5.152 963.485 5.434 962.969 5.998C962.465 6.55 962.213 7.342 962.213 8.374V13H960.701ZM974.679 13C973.863 13 973.221 12.802 972.753 12.406C972.285 12.01 972.051 11.296 972.051 10.264V5.35H970.503V4.072H972.051L972.249 1.93H973.563V4.072H976.191V5.35H973.563V10.264C973.563 10.828 973.677 11.212 973.905 11.416C974.133 11.608 974.535 11.704 975.111 11.704H976.047V13H974.679ZM979.18 2.092C978.88 2.092 978.628 1.996 978.424 1.804C978.232 1.6 978.136 1.348 978.136 1.048C978.136 0.76 978.232 0.519999 978.424 0.327999C978.628 0.135999 978.88 0.0399995 979.18 0.0399995C979.468 0.0399995 979.714 0.135999 979.918 0.327999C980.122 0.519999 980.224 0.76 980.224 1.048C980.224 1.348 980.122 1.6 979.918 1.804C979.714 1.996 979.468 2.092 979.18 2.092ZM978.424 13V4.072H979.936V13H978.424ZM982.719 13V4.072H984.087L984.213 5.782C984.489 5.194 984.909 4.726 985.473 4.378C986.037 4.03 986.733 3.856 987.561 3.856V5.44H987.147C986.619 5.44 986.133 5.536 985.689 5.728C985.245 5.908 984.891 6.22 984.627 6.664C984.363 7.108 984.231 7.72 984.231 8.5V13H982.719ZM993.088 13.216C992.236 13.216 991.48 13.024 990.82 12.64C990.16 12.244 989.638 11.698 989.254 11.002C988.882 10.306 988.696 9.484 988.696 8.536C988.696 7.6 988.882 6.784 989.254 6.088C989.626 5.38 990.142 4.834 990.802 4.45C991.474 4.054 992.248 3.856 993.124 3.856C993.988 3.856 994.732 4.054 995.356 4.45C995.992 4.834 996.478 5.344 996.814 5.98C997.15 6.616 997.318 7.3 997.318 8.032C997.318 8.164 997.312 8.296 997.3 8.428C997.3 8.56 997.3 8.71 997.3 8.878H990.19C990.226 9.562 990.382 10.132 990.658 10.588C990.946 11.032 991.3 11.368 991.72 11.596C992.152 11.824 992.608 11.938 993.088 11.938C993.712 11.938 994.234 11.794 994.654 11.506C995.074 11.218 995.38 10.828 995.572 10.336H997.066C996.826 11.164 996.364 11.854 995.68 12.406C995.008 12.946 994.144 13.216 993.088 13.216ZM993.088 5.134C992.368 5.134 991.726 5.356 991.162 5.8C990.61 6.232 990.292 6.868 990.208 7.708H995.824C995.788 6.904 995.512 6.274 994.996 5.818C994.48 5.362 993.844 5.134 993.088 5.134ZM1007.81 13.216C1006.74 13.216 1005.85 12.946 1005.14 12.406C1004.43 11.866 1004.02 11.134 1003.9 10.21H1005.45C1005.54 10.678 1005.79 11.086 1006.19 11.434C1006.59 11.77 1007.14 11.938 1007.82 11.938C1008.46 11.938 1008.93 11.806 1009.23 11.542C1009.53 11.266 1009.68 10.942 1009.68 10.57C1009.68 10.03 1009.48 9.67 1009.08 9.49C1008.7 9.31 1008.15 9.148 1007.45 9.004C1006.97 8.908 1006.49 8.77 1006.01 8.59C1005.53 8.41 1005.12 8.158 1004.8 7.834C1004.48 7.498 1004.31 7.06 1004.31 6.52C1004.31 5.74 1004.6 5.104 1005.18 4.612C1005.77 4.108 1006.56 3.856 1007.55 3.856C1008.5 3.856 1009.28 4.096 1009.88 4.576C1010.49 5.044 1010.84 5.716 1010.94 6.592H1009.44C1009.38 6.136 1009.19 5.782 1008.85 5.53C1008.53 5.266 1008.09 5.134 1007.54 5.134C1007 5.134 1006.58 5.248 1006.28 5.476C1005.99 5.704 1005.84 6.004 1005.84 6.376C1005.84 6.736 1006.03 7.018 1006.4 7.222C1006.79 7.426 1007.3 7.6 1007.95 7.744C1008.5 7.864 1009.02 8.014 1009.52 8.194C1010.02 8.362 1010.43 8.62 1010.74 8.968C1011.06 9.304 1011.23 9.796 1011.23 10.444C1011.24 11.248 1010.93 11.914 1010.31 12.442C1009.7 12.958 1008.86 13.216 1007.81 13.216ZM1017.64 13.216C1016.79 13.216 1016.02 13.024 1015.34 12.64C1014.66 12.244 1014.13 11.698 1013.73 11.002C1013.35 10.294 1013.16 9.472 1013.16 8.536C1013.16 7.6 1013.35 6.784 1013.73 6.088C1014.13 5.38 1014.66 4.834 1015.34 4.45C1016.02 4.054 1016.79 3.856 1017.64 3.856C1018.7 3.856 1019.58 4.132 1020.3 4.684C1021.04 5.236 1021.5 5.974 1021.69 6.898H1020.14C1020.02 6.346 1019.73 5.92 1019.26 5.62C1018.79 5.308 1018.25 5.152 1017.62 5.152C1017.12 5.152 1016.64 5.278 1016.2 5.53C1015.76 5.782 1015.4 6.16 1015.12 6.664C1014.84 7.168 1014.71 7.792 1014.71 8.536C1014.71 9.28 1014.84 9.904 1015.12 10.408C1015.4 10.912 1015.76 11.296 1016.2 11.56C1016.64 11.812 1017.12 11.938 1017.62 11.938C1018.25 11.938 1018.79 11.788 1019.26 11.488C1019.73 11.176 1020.02 10.738 1020.14 10.174H1021.69C1021.51 11.074 1021.05 11.806 1020.32 12.37C1019.59 12.934 1018.7 13.216 1017.64 13.216ZM1023.95 13V4.072H1025.32L1025.45 5.782C1025.72 5.194 1026.14 4.726 1026.71 4.378C1027.27 4.03 1027.97 3.856 1028.79 3.856V5.44H1028.38C1027.85 5.44 1027.37 5.536 1026.92 5.728C1026.48 5.908 1026.12 6.22 1025.86 6.664C1025.6 7.108 1025.46 7.72 1025.46 8.5V13H1023.95ZM1034.32 13.216C1033.47 13.216 1032.71 13.024 1032.05 12.64C1031.39 12.244 1030.87 11.698 1030.49 11.002C1030.11 10.306 1029.93 9.484 1029.93 8.536C1029.93 7.6 1030.11 6.784 1030.49 6.088C1030.86 5.38 1031.37 4.834 1032.03 4.45C1032.71 4.054 1033.48 3.856 1034.36 3.856C1035.22 3.856 1035.96 4.054 1036.59 4.45C1037.22 4.834 1037.71 5.344 1038.05 5.98C1038.38 6.616 1038.55 7.3 1038.55 8.032C1038.55 8.164 1038.54 8.296 1038.53 8.428C1038.53 8.56 1038.53 8.71 1038.53 8.878H1031.42C1031.46 9.562 1031.61 10.132 1031.89 10.588C1032.18 11.032 1032.53 11.368 1032.95 11.596C1033.38 11.824 1033.84 11.938 1034.32 11.938C1034.94 11.938 1035.47 11.794 1035.89 11.506C1036.31 11.218 1036.61 10.828 1036.8 10.336H1038.3C1038.06 11.164 1037.6 11.854 1036.91 12.406C1036.24 12.946 1035.38 13.216 1034.32 13.216ZM1034.32 5.134C1033.6 5.134 1032.96 5.356 1032.39 5.8C1031.84 6.232 1031.52 6.868 1031.44 7.708H1037.06C1037.02 6.904 1036.74 6.274 1036.23 5.818C1035.71 5.362 1035.08 5.134 1034.32 5.134ZM1044.72 13.216C1043.87 13.216 1043.11 13.024 1042.45 12.64C1041.79 12.244 1041.27 11.698 1040.88 11.002C1040.51 10.306 1040.33 9.484 1040.33 8.536C1040.33 7.6 1040.51 6.784 1040.88 6.088C1041.26 5.38 1041.77 4.834 1042.43 4.45C1043.1 4.054 1043.88 3.856 1044.75 3.856C1045.62 3.856 1046.36 4.054 1046.99 4.45C1047.62 4.834 1048.11 5.344 1048.44 5.98C1048.78 6.616 1048.95 7.3 1048.95 8.032C1048.95 8.164 1048.94 8.296 1048.93 8.428C1048.93 8.56 1048.93 8.71 1048.93 8.878H1041.82C1041.86 9.562 1042.01 10.132 1042.29 10.588C1042.58 11.032 1042.93 11.368 1043.35 11.596C1043.78 11.824 1044.24 11.938 1044.72 11.938C1045.34 11.938 1045.86 11.794 1046.28 11.506C1046.7 11.218 1047.01 10.828 1047.2 10.336H1048.7C1048.46 11.164 1047.99 11.854 1047.31 12.406C1046.64 12.946 1045.77 13.216 1044.72 13.216ZM1044.72 5.134C1044 5.134 1043.36 5.356 1042.79 5.8C1042.24 6.232 1041.92 6.868 1041.84 7.708H1047.45C1047.42 6.904 1047.14 6.274 1046.63 5.818C1046.11 5.362 1045.47 5.134 1044.72 5.134ZM1051.1 13V4.072H1052.47L1052.56 5.674C1052.85 5.11 1053.26 4.666 1053.8 4.342C1054.34 4.018 1054.95 3.856 1055.64 3.856C1056.69 3.856 1057.53 4.18 1058.16 4.828C1058.79 5.464 1059.11 6.448 1059.11 7.78V13H1057.6V7.942C1057.6 6.082 1056.83 5.152 1055.3 5.152C1054.53 5.152 1053.89 5.434 1053.37 5.998C1052.87 6.55 1052.61 7.342 1052.61 8.374V13H1051.1ZM1067.38 2.092C1067.08 2.092 1066.83 1.996 1066.63 1.804C1066.44 1.6 1066.34 1.348 1066.34 1.048C1066.34 0.76 1066.44 0.519999 1066.63 0.327999C1066.83 0.135999 1067.08 0.0399995 1067.38 0.0399995C1067.67 0.0399995 1067.92 0.135999 1068.12 0.327999C1068.33 0.519999 1068.43 0.76 1068.43 1.048C1068.43 1.348 1068.33 1.6 1068.12 1.804C1067.92 1.996 1067.67 2.092 1067.38 2.092ZM1066.63 13V4.072H1068.14V13H1066.63ZM1070.92 13V4.072H1072.29L1072.38 5.674C1072.67 5.11 1073.08 4.666 1073.62 4.342C1074.16 4.018 1074.78 3.856 1075.46 3.856C1076.52 3.856 1077.36 4.18 1077.98 4.828C1078.62 5.464 1078.93 6.448 1078.93 7.78V13H1077.42V7.942C1077.42 6.082 1076.65 5.152 1075.12 5.152C1074.35 5.152 1073.71 5.434 1073.19 5.998C1072.69 6.55 1072.44 7.342 1072.44 8.374V13H1070.92ZM1089.82 13C1089 13 1088.36 12.802 1087.89 12.406C1087.42 12.01 1087.19 11.296 1087.19 10.264V5.35H1085.64V4.072H1087.19L1087.39 1.93H1088.7V4.072H1091.33V5.35H1088.7V10.264C1088.7 10.828 1088.81 11.212 1089.04 11.416C1089.27 11.608 1089.67 11.704 1090.25 11.704H1091.18V13H1089.82ZM1093.4 13V0.0399995H1094.91V5.602C1095.21 5.05 1095.64 4.624 1096.19 4.324C1096.74 4.012 1097.34 3.856 1097.99 3.856C1099.02 3.856 1099.85 4.18 1100.47 4.828C1101.1 5.464 1101.41 6.448 1101.41 7.78V13H1099.91V7.942C1099.91 6.082 1099.16 5.152 1097.66 5.152C1096.88 5.152 1096.23 5.434 1095.7 5.998C1095.17 6.55 1094.91 7.342 1094.91 8.374V13H1093.4ZM1107.86 13.216C1107.01 13.216 1106.26 13.024 1105.6 12.64C1104.94 12.244 1104.41 11.698 1104.03 11.002C1103.66 10.306 1103.47 9.484 1103.47 8.536C1103.47 7.6 1103.66 6.784 1104.03 6.088C1104.4 5.38 1104.92 4.834 1105.58 4.45C1106.25 4.054 1107.02 3.856 1107.9 3.856C1108.76 3.856 1109.51 4.054 1110.13 4.45C1110.77 4.834 1111.25 5.344 1111.59 5.98C1111.93 6.616 1112.09 7.3 1112.09 8.032C1112.09 8.164 1112.09 8.296 1112.08 8.428C1112.08 8.56 1112.08 8.71 1112.08 8.878H1104.97C1105 9.562 1105.16 10.132 1105.43 10.588C1105.72 11.032 1106.08 11.368 1106.5 11.596C1106.93 11.824 1107.38 11.938 1107.86 11.938C1108.49 11.938 1109.01 11.794 1109.43 11.506C1109.85 11.218 1110.16 10.828 1110.35 10.336H1111.84C1111.6 11.164 1111.14 11.854 1110.46 12.406C1109.78 12.946 1108.92 13.216 1107.86 13.216ZM1107.86 5.134C1107.14 5.134 1106.5 5.356 1105.94 5.8C1105.39 6.232 1105.07 6.868 1104.98 7.708H1110.6C1110.56 6.904 1110.29 6.274 1109.77 5.818C1109.26 5.362 1108.62 5.134 1107.86 5.134ZM347.836 49V41.35H346.486V40.072H347.836V38.524C347.836 37.66 348.052 37.03 348.484 36.634C348.916 36.238 349.546 36.04 350.374 36.04H351.274V37.336H350.608C350.152 37.336 349.828 37.432 349.636 37.624C349.444 37.804 349.348 38.116 349.348 38.56V40.072H351.544V41.35H349.348V49H347.836ZM353.494 49V36.04H355.006V49H353.494ZM361.702 49.216C360.862 49.216 360.106 49.024 359.434 48.64C358.762 48.256 358.228 47.716 357.832 47.02C357.448 46.312 357.256 45.484 357.256 44.536C357.256 43.588 357.454 42.766 357.85 42.07C358.246 41.362 358.78 40.816 359.452 40.432C360.136 40.048 360.898 39.856 361.738 39.856C362.578 39.856 363.334 40.048 364.006 40.432C364.678 40.816 365.206 41.362 365.59 42.07C365.986 42.766 366.184 43.588 366.184 44.536C366.184 45.484 365.986 46.312 365.59 47.02C365.194 47.716 364.654 48.256 363.97 48.64C363.298 49.024 362.542 49.216 361.702 49.216ZM361.702 47.92C362.218 47.92 362.698 47.794 363.142 47.542C363.586 47.29 363.946 46.912 364.222 46.408C364.498 45.904 364.636 45.28 364.636 44.536C364.636 43.792 364.498 43.168 364.222 42.664C363.958 42.16 363.604 41.782 363.16 41.53C362.716 41.278 362.242 41.152 361.738 41.152C361.222 41.152 360.742 41.278 360.298 41.53C359.854 41.782 359.494 42.16 359.218 42.664C358.942 43.168 358.804 43.792 358.804 44.536C358.804 45.28 358.942 45.904 359.218 46.408C359.494 46.912 359.848 47.29 360.28 47.542C360.724 47.794 361.198 47.92 361.702 47.92ZM369.903 49L367.293 40.072H368.805L370.695 47.074L372.783 40.072H374.493L376.599 47.074L378.471 40.072H380.001L377.391 49H375.843L373.647 41.638L371.451 49H369.903ZM390.265 49C389.449 49 388.807 48.802 388.339 48.406C387.871 48.01 387.637 47.296 387.637 46.264V41.35H386.089V40.072H387.637L387.835 37.93H389.149V40.072H391.777V41.35H389.149V46.264C389.149 46.828 389.263 47.212 389.491 47.416C389.719 47.608 390.121 47.704 390.697 47.704H391.633V49H390.265ZM397.67 49.216C396.83 49.216 396.074 49.024 395.402 48.64C394.73 48.256 394.196 47.716 393.8 47.02C393.416 46.312 393.224 45.484 393.224 44.536C393.224 43.588 393.422 42.766 393.818 42.07C394.214 41.362 394.748 40.816 395.42 40.432C396.104 40.048 396.866 39.856 397.706 39.856C398.546 39.856 399.302 40.048 399.974 40.432C400.646 40.816 401.174 41.362 401.558 42.07C401.954 42.766 402.152 43.588 402.152 44.536C402.152 45.484 401.954 46.312 401.558 47.02C401.162 47.716 400.622 48.256 399.938 48.64C399.266 49.024 398.51 49.216 397.67 49.216ZM397.67 47.92C398.186 47.92 398.666 47.794 399.11 47.542C399.554 47.29 399.914 46.912 400.19 46.408C400.466 45.904 400.604 45.28 400.604 44.536C400.604 43.792 400.466 43.168 400.19 42.664C399.926 42.16 399.572 41.782 399.128 41.53C398.684 41.278 398.21 41.152 397.706 41.152C397.19 41.152 396.71 41.278 396.266 41.53C395.822 41.782 395.462 42.16 395.186 42.664C394.91 43.168 394.772 43.792 394.772 44.536C394.772 45.28 394.91 45.904 395.186 46.408C395.462 46.912 395.816 47.29 396.248 47.542C396.692 47.794 397.166 47.92 397.67 47.92ZM412.738 49.216C411.67 49.216 410.782 48.946 410.074 48.406C409.366 47.866 408.952 47.134 408.832 46.21H410.38C410.476 46.678 410.722 47.086 411.118 47.434C411.526 47.77 412.072 47.938 412.756 47.938C413.392 47.938 413.86 47.806 414.16 47.542C414.46 47.266 414.61 46.942 414.61 46.57C414.61 46.03 414.412 45.67 414.016 45.49C413.632 45.31 413.086 45.148 412.378 45.004C411.898 44.908 411.418 44.77 410.938 44.59C410.458 44.41 410.056 44.158 409.732 43.834C409.408 43.498 409.246 43.06 409.246 42.52C409.246 41.74 409.534 41.104 410.11 40.612C410.698 40.108 411.49 39.856 412.486 39.856C413.434 39.856 414.208 40.096 414.808 40.576C415.42 41.044 415.774 41.716 415.87 42.592H414.376C414.316 42.136 414.118 41.782 413.782 41.53C413.458 41.266 413.02 41.134 412.468 41.134C411.928 41.134 411.508 41.248 411.208 41.476C410.92 41.704 410.776 42.004 410.776 42.376C410.776 42.736 410.962 43.018 411.334 43.222C411.718 43.426 412.234 43.6 412.882 43.744C413.434 43.864 413.956 44.014 414.448 44.194C414.952 44.362 415.36 44.62 415.672 44.968C415.996 45.304 416.158 45.796 416.158 46.444C416.17 47.248 415.864 47.914 415.24 48.442C414.628 48.958 413.794 49.216 412.738 49.216ZM419.386 38.092C419.086 38.092 418.834 37.996 418.63 37.804C418.438 37.6 418.342 37.348 418.342 37.048C418.342 36.76 418.438 36.52 418.63 36.328C418.834 36.136 419.086 36.04 419.386 36.04C419.674 36.04 419.92 36.136 420.124 36.328C420.328 36.52 420.43 36.76 420.43 37.048C420.43 37.348 420.328 37.6 420.124 37.804C419.92 37.996 419.674 38.092 419.386 38.092ZM418.63 49V40.072H420.142V49H418.63ZM422.924 49V40.072H424.292L424.4 41.368C424.688 40.888 425.072 40.516 425.552 40.252C426.032 39.988 426.572 39.856 427.172 39.856C427.88 39.856 428.486 40 428.99 40.288C429.506 40.576 429.902 41.014 430.178 41.602C430.49 41.062 430.916 40.636 431.456 40.324C432.008 40.012 432.602 39.856 433.238 39.856C434.306 39.856 435.158 40.18 435.794 40.828C436.43 41.464 436.748 42.448 436.748 43.78V49H435.254V43.942C435.254 43.018 435.068 42.322 434.696 41.854C434.324 41.386 433.79 41.152 433.094 41.152C432.374 41.152 431.774 41.434 431.294 41.998C430.826 42.55 430.592 43.342 430.592 44.374V49H429.08V43.942C429.08 43.018 428.894 42.322 428.522 41.854C428.15 41.386 427.616 41.152 426.92 41.152C426.212 41.152 425.618 41.434 425.138 41.998C424.67 42.55 424.436 43.342 424.436 44.374V49H422.924ZM439.176 52.96V40.072H440.544L440.688 41.548C440.976 41.116 441.384 40.726 441.912 40.378C442.452 40.03 443.136 39.856 443.964 39.856C444.852 39.856 445.626 40.06 446.286 40.468C446.946 40.876 447.456 41.434 447.816 42.142C448.188 42.85 448.374 43.654 448.374 44.554C448.374 45.454 448.188 46.258 447.816 46.966C447.456 47.662 446.94 48.214 446.268 48.622C445.608 49.018 444.834 49.216 443.946 49.216C443.214 49.216 442.56 49.066 441.984 48.766C441.42 48.466 440.988 48.046 440.688 47.506V52.96H439.176ZM443.784 47.902C444.384 47.902 444.912 47.764 445.368 47.488C445.824 47.2 446.184 46.804 446.448 46.3C446.712 45.796 446.844 45.208 446.844 44.536C446.844 43.864 446.712 43.276 446.448 42.772C446.184 42.268 445.824 41.878 445.368 41.602C444.912 41.314 444.384 41.17 443.784 41.17C443.184 41.17 442.656 41.314 442.2 41.602C441.744 41.878 441.384 42.268 441.12 42.772C440.856 43.276 440.724 43.864 440.724 44.536C440.724 45.208 440.856 45.796 441.12 46.3C441.384 46.804 441.744 47.2 442.2 47.488C442.656 47.764 443.184 47.902 443.784 47.902ZM450.629 49V36.04H452.141V49H450.629ZM455.687 38.092C455.387 38.092 455.135 37.996 454.931 37.804C454.739 37.6 454.643 37.348 454.643 37.048C454.643 36.76 454.739 36.52 454.931 36.328C455.135 36.136 455.387 36.04 455.687 36.04C455.975 36.04 456.221 36.136 456.425 36.328C456.629 36.52 456.731 36.76 456.731 37.048C456.731 37.348 456.629 37.6 456.425 37.804C456.221 37.996 455.975 38.092 455.687 38.092ZM454.931 49V40.072H456.443V49H454.931ZM459.711 49V41.35H458.361V40.072H459.711V38.524C459.711 37.66 459.927 37.03 460.359 36.634C460.791 36.238 461.421 36.04 462.249 36.04H463.149V37.336H462.483C462.027 37.336 461.703 37.432 461.511 37.624C461.319 37.804 461.223 38.116 461.223 38.56V40.072H463.419V41.35H461.223V49H459.711ZM466.342 52.96L468.556 48.136H468.034L464.488 40.072H466.126L469.078 47.02L472.21 40.072H473.776L467.926 52.96H466.342ZM483.963 49C483.147 49 482.505 48.802 482.037 48.406C481.569 48.01 481.335 47.296 481.335 46.264V41.35H479.787V40.072H481.335L481.533 37.93H482.847V40.072H485.475V41.35H482.847V46.264C482.847 46.828 482.961 47.212 483.189 47.416C483.417 47.608 483.819 47.704 484.395 47.704H485.331V49H483.963ZM487.546 49V36.04H489.058V41.602C489.358 41.05 489.784 40.624 490.336 40.324C490.888 40.012 491.488 39.856 492.136 39.856C493.168 39.856 493.996 40.18 494.62 40.828C495.244 41.464 495.556 42.448 495.556 43.78V49H494.062V43.942C494.062 42.082 493.312 41.152 491.812 41.152C491.032 41.152 490.378 41.434 489.85 41.998C489.322 42.55 489.058 43.342 489.058 44.374V49H487.546ZM502.011 49.216C501.159 49.216 500.403 49.024 499.743 48.64C499.083 48.244 498.561 47.698 498.177 47.002C497.805 46.306 497.619 45.484 497.619 44.536C497.619 43.6 497.805 42.784 498.177 42.088C498.549 41.38 499.065 40.834 499.725 40.45C500.397 40.054 501.171 39.856 502.047 39.856C502.911 39.856 503.655 40.054 504.279 40.45C504.915 40.834 505.401 41.344 505.737 41.98C506.073 42.616 506.241 43.3 506.241 44.032C506.241 44.164 506.235 44.296 506.223 44.428C506.223 44.56 506.223 44.71 506.223 44.878H499.113C499.149 45.562 499.305 46.132 499.581 46.588C499.869 47.032 500.223 47.368 500.643 47.596C501.075 47.824 501.531 47.938 502.011 47.938C502.635 47.938 503.157 47.794 503.577 47.506C503.997 47.218 504.303 46.828 504.495 46.336H505.989C505.749 47.164 505.287 47.854 504.603 48.406C503.931 48.946 503.067 49.216 502.011 49.216ZM502.011 41.134C501.291 41.134 500.649 41.356 500.085 41.8C499.533 42.232 499.215 42.868 499.131 43.708H504.747C504.711 42.904 504.435 42.274 503.919 41.818C503.403 41.362 502.767 41.134 502.011 41.134ZM517.413 49.216C516.561 49.216 515.793 49.024 515.109 48.64C514.437 48.244 513.903 47.698 513.507 47.002C513.123 46.294 512.931 45.472 512.931 44.536C512.931 43.6 513.123 42.784 513.507 42.088C513.903 41.38 514.437 40.834 515.109 40.45C515.793 40.054 516.561 39.856 517.413 39.856C518.469 39.856 519.357 40.132 520.077 40.684C520.809 41.236 521.271 41.974 521.463 42.898H519.915C519.795 42.346 519.501 41.92 519.033 41.62C518.565 41.308 518.019 41.152 517.395 41.152C516.891 41.152 516.417 41.278 515.973 41.53C515.529 41.782 515.169 42.16 514.893 42.664C514.617 43.168 514.479 43.792 514.479 44.536C514.479 45.28 514.617 45.904 514.893 46.408C515.169 46.912 515.529 47.296 515.973 47.56C516.417 47.812 516.891 47.938 517.395 47.938C518.019 47.938 518.565 47.788 519.033 47.488C519.501 47.176 519.795 46.738 519.915 46.174H521.463C521.283 47.074 520.827 47.806 520.095 48.37C519.363 48.934 518.469 49.216 517.413 49.216ZM526.982 49.216C525.926 49.216 525.086 48.898 524.462 48.262C523.838 47.614 523.526 46.624 523.526 45.292V40.072H525.038V45.13C525.038 46.99 525.8 47.92 527.324 47.92C528.104 47.92 528.746 47.644 529.25 47.092C529.766 46.528 530.024 45.73 530.024 44.698V40.072H531.536V49H530.168L530.06 47.398C529.784 47.962 529.37 48.406 528.818 48.73C528.278 49.054 527.666 49.216 526.982 49.216ZM537.595 49.216C536.527 49.216 535.639 48.946 534.931 48.406C534.223 47.866 533.809 47.134 533.689 46.21H535.237C535.333 46.678 535.579 47.086 535.975 47.434C536.383 47.77 536.929 47.938 537.613 47.938C538.249 47.938 538.717 47.806 539.017 47.542C539.317 47.266 539.467 46.942 539.467 46.57C539.467 46.03 539.269 45.67 538.873 45.49C538.489 45.31 537.943 45.148 537.235 45.004C536.755 44.908 536.275 44.77 535.795 44.59C535.315 44.41 534.913 44.158 534.589 43.834C534.265 43.498 534.103 43.06 534.103 42.52C534.103 41.74 534.391 41.104 534.967 40.612C535.555 40.108 536.347 39.856 537.343 39.856C538.291 39.856 539.065 40.096 539.665 40.576C540.277 41.044 540.631 41.716 540.727 42.592H539.233C539.173 42.136 538.975 41.782 538.639 41.53C538.315 41.266 537.877 41.134 537.325 41.134C536.785 41.134 536.365 41.248 536.065 41.476C535.777 41.704 535.633 42.004 535.633 42.376C535.633 42.736 535.819 43.018 536.191 43.222C536.575 43.426 537.091 43.6 537.739 43.744C538.291 43.864 538.813 44.014 539.305 44.194C539.809 44.362 540.217 44.62 540.529 44.968C540.853 45.304 541.015 45.796 541.015 46.444C541.027 47.248 540.721 47.914 540.097 48.442C539.485 48.958 538.651 49.216 537.595 49.216ZM546.449 49C545.633 49 544.991 48.802 544.523 48.406C544.055 48.01 543.821 47.296 543.821 46.264V41.35H542.273V40.072H543.821L544.019 37.93H545.333V40.072H547.961V41.35H545.333V46.264C545.333 46.828 545.447 47.212 545.675 47.416C545.903 47.608 546.305 47.704 546.881 47.704H547.817V49H546.449ZM553.854 49.216C553.014 49.216 552.258 49.024 551.586 48.64C550.914 48.256 550.38 47.716 549.984 47.02C549.6 46.312 549.408 45.484 549.408 44.536C549.408 43.588 549.606 42.766 550.002 42.07C550.398 41.362 550.932 40.816 551.604 40.432C552.288 40.048 553.05 39.856 553.89 39.856C554.73 39.856 555.486 40.048 556.158 40.432C556.83 40.816 557.358 41.362 557.742 42.07C558.138 42.766 558.336 43.588 558.336 44.536C558.336 45.484 558.138 46.312 557.742 47.02C557.346 47.716 556.806 48.256 556.122 48.64C555.45 49.024 554.694 49.216 553.854 49.216ZM553.854 47.92C554.37 47.92 554.85 47.794 555.294 47.542C555.738 47.29 556.098 46.912 556.374 46.408C556.65 45.904 556.788 45.28 556.788 44.536C556.788 43.792 556.65 43.168 556.374 42.664C556.11 42.16 555.756 41.782 555.312 41.53C554.868 41.278 554.394 41.152 553.89 41.152C553.374 41.152 552.894 41.278 552.45 41.53C552.006 41.782 551.646 42.16 551.37 42.664C551.094 43.168 550.956 43.792 550.956 44.536C550.956 45.28 551.094 45.904 551.37 46.408C551.646 46.912 552 47.29 552.432 47.542C552.876 47.794 553.35 47.92 553.854 47.92ZM560.588 49V40.072H561.956L562.064 41.368C562.352 40.888 562.736 40.516 563.216 40.252C563.696 39.988 564.236 39.856 564.836 39.856C565.544 39.856 566.15 40 566.654 40.288C567.17 40.576 567.566 41.014 567.842 41.602C568.154 41.062 568.58 40.636 569.12 40.324C569.672 40.012 570.266 39.856 570.902 39.856C571.97 39.856 572.822 40.18 573.458 40.828C574.094 41.464 574.412 42.448 574.412 43.78V49H572.918V43.942C572.918 43.018 572.732 42.322 572.36 41.854C571.988 41.386 571.454 41.152 570.758 41.152C570.038 41.152 569.438 41.434 568.958 41.998C568.49 42.55 568.256 43.342 568.256 44.374V49H566.744V43.942C566.744 43.018 566.558 42.322 566.186 41.854C565.814 41.386 565.28 41.152 564.584 41.152C563.876 41.152 563.282 41.434 562.802 41.998C562.334 42.55 562.1 43.342 562.1 44.374V49H560.588ZM580.853 49.216C580.001 49.216 579.245 49.024 578.585 48.64C577.925 48.244 577.403 47.698 577.019 47.002C576.647 46.306 576.461 45.484 576.461 44.536C576.461 43.6 576.647 42.784 577.019 42.088C577.391 41.38 577.907 40.834 578.567 40.45C579.239 40.054 580.013 39.856 580.889 39.856C581.753 39.856 582.497 40.054 583.121 40.45C583.757 40.834 584.243 41.344 584.579 41.98C584.915 42.616 585.083 43.3 585.083 44.032C585.083 44.164 585.077 44.296 585.065 44.428C585.065 44.56 585.065 44.71 585.065 44.878H577.955C577.991 45.562 578.147 46.132 578.423 46.588C578.711 47.032 579.065 47.368 579.485 47.596C579.917 47.824 580.373 47.938 580.853 47.938C581.477 47.938 581.999 47.794 582.419 47.506C582.839 47.218 583.145 46.828 583.337 46.336H584.831C584.591 47.164 584.129 47.854 583.445 48.406C582.773 48.946 581.909 49.216 580.853 49.216ZM580.853 41.134C580.133 41.134 579.491 41.356 578.927 41.8C578.375 42.232 578.057 42.868 577.973 43.708H583.589C583.553 42.904 583.277 42.274 582.761 41.818C582.245 41.362 581.609 41.134 580.853 41.134ZM587.237 49V40.072H588.605L588.731 41.782C589.007 41.194 589.427 40.726 589.991 40.378C590.555 40.03 591.251 39.856 592.079 39.856V41.44H591.665C591.137 41.44 590.651 41.536 590.207 41.728C589.763 41.908 589.409 42.22 589.145 42.664C588.881 43.108 588.749 43.72 588.749 44.5V49H587.237ZM599.83 38.092C599.542 38.092 599.296 37.996 599.092 37.804C598.888 37.6 598.786 37.348 598.786 37.048C598.786 36.76 598.888 36.52 599.092 36.328C599.296 36.136 599.542 36.04 599.83 36.04C600.118 36.04 600.358 36.136 600.55 36.328C600.754 36.52 600.856 36.76 600.856 37.048C600.856 37.348 600.754 37.6 600.55 37.804C600.358 37.996 600.118 38.092 599.83 38.092ZM597.094 52.96V51.664H597.796C598.24 51.664 598.558 51.568 598.75 51.376C598.954 51.196 599.056 50.884 599.056 50.44V40.072H600.568V50.476C600.568 51.34 600.352 51.97 599.92 52.366C599.488 52.762 598.858 52.96 598.03 52.96H597.094ZM607.418 49.216C606.578 49.216 605.822 49.024 605.15 48.64C604.478 48.256 603.944 47.716 603.548 47.02C603.164 46.312 602.972 45.484 602.972 44.536C602.972 43.588 603.17 42.766 603.566 42.07C603.962 41.362 604.496 40.816 605.168 40.432C605.852 40.048 606.614 39.856 607.454 39.856C608.294 39.856 609.05 40.048 609.722 40.432C610.394 40.816 610.922 41.362 611.306 42.07C611.702 42.766 611.9 43.588 611.9 44.536C611.9 45.484 611.702 46.312 611.306 47.02C610.91 47.716 610.37 48.256 609.686 48.64C609.014 49.024 608.258 49.216 607.418 49.216ZM607.418 47.92C607.934 47.92 608.414 47.794 608.858 47.542C609.302 47.29 609.662 46.912 609.938 46.408C610.214 45.904 610.352 45.28 610.352 44.536C610.352 43.792 610.214 43.168 609.938 42.664C609.674 42.16 609.32 41.782 608.876 41.53C608.432 41.278 607.958 41.152 607.454 41.152C606.938 41.152 606.458 41.278 606.014 41.53C605.57 41.782 605.21 42.16 604.934 42.664C604.658 43.168 604.52 43.792 604.52 44.536C604.52 45.28 604.658 45.904 604.934 46.408C605.21 46.912 605.564 47.29 605.996 47.542C606.44 47.794 606.914 47.92 607.418 47.92ZM617.41 49.216C616.354 49.216 615.514 48.898 614.89 48.262C614.266 47.614 613.954 46.624 613.954 45.292V40.072H615.466V45.13C615.466 46.99 616.228 47.92 617.752 47.92C618.532 47.92 619.174 47.644 619.678 47.092C620.194 46.528 620.452 45.73 620.452 44.698V40.072H621.964V49H620.596L620.488 47.398C620.212 47.962 619.798 48.406 619.246 48.73C618.706 49.054 618.094 49.216 617.41 49.216ZM624.603 49V40.072H625.971L626.097 41.782C626.373 41.194 626.793 40.726 627.357 40.378C627.921 40.03 628.617 39.856 629.445 39.856V41.44H629.031C628.503 41.44 628.017 41.536 627.573 41.728C627.129 41.908 626.775 42.22 626.511 42.664C626.247 43.108 626.115 43.72 626.115 44.5V49H624.603ZM631.292 49V40.072H632.66L632.75 41.674C633.038 41.11 633.452 40.666 633.992 40.342C634.532 40.018 635.144 39.856 635.828 39.856C636.884 39.856 637.724 40.18 638.348 40.828C638.984 41.464 639.302 42.448 639.302 43.78V49H637.79V43.942C637.79 42.082 637.022 41.152 635.486 41.152C634.718 41.152 634.076 41.434 633.56 41.998C633.056 42.55 632.804 43.342 632.804 44.374V49H631.292ZM645.757 49.216C644.905 49.216 644.149 49.024 643.489 48.64C642.829 48.244 642.307 47.698 641.923 47.002C641.551 46.306 641.365 45.484 641.365 44.536C641.365 43.6 641.551 42.784 641.923 42.088C642.295 41.38 642.811 40.834 643.471 40.45C644.143 40.054 644.917 39.856 645.793 39.856C646.657 39.856 647.401 40.054 648.025 40.45C648.661 40.834 649.147 41.344 649.483 41.98C649.819 42.616 649.987 43.3 649.987 44.032C649.987 44.164 649.981 44.296 649.969 44.428C649.969 44.56 649.969 44.71 649.969 44.878H642.859C642.895 45.562 643.051 46.132 643.327 46.588C643.615 47.032 643.969 47.368 644.389 47.596C644.821 47.824 645.277 47.938 645.757 47.938C646.381 47.938 646.903 47.794 647.323 47.506C647.743 47.218 648.049 46.828 648.241 46.336H649.735C649.495 47.164 649.033 47.854 648.349 48.406C647.677 48.946 646.813 49.216 645.757 49.216ZM645.757 41.134C645.037 41.134 644.395 41.356 643.831 41.8C643.279 42.232 642.961 42.868 642.877 43.708H648.493C648.457 42.904 648.181 42.274 647.665 41.818C647.149 41.362 646.513 41.134 645.757 41.134ZM652.761 52.96L654.975 48.136H654.453L650.907 40.072H652.545L655.497 47.02L658.629 40.072H660.195L654.345 52.96H652.761ZM669.825 49.216C669.081 49.216 668.463 49.09 667.971 48.838C667.479 48.586 667.113 48.25 666.873 47.83C666.633 47.41 666.513 46.954 666.513 46.462C666.513 45.55 666.861 44.848 667.557 44.356C668.253 43.864 669.201 43.618 670.401 43.618H672.813V43.51C672.813 42.73 672.609 42.142 672.201 41.746C671.793 41.338 671.247 41.134 670.563 41.134C669.975 41.134 669.465 41.284 669.033 41.584C668.613 41.872 668.349 42.298 668.241 42.862H666.693C666.753 42.214 666.969 41.668 667.341 41.224C667.725 40.78 668.199 40.444 668.763 40.216C669.327 39.976 669.927 39.856 670.563 39.856C671.811 39.856 672.747 40.192 673.371 40.864C674.007 41.524 674.325 42.406 674.325 43.51V49H672.975L672.885 47.398C672.633 47.902 672.261 48.334 671.769 48.694C671.289 49.042 670.641 49.216 669.825 49.216ZM670.059 47.938C670.635 47.938 671.127 47.788 671.535 47.488C671.955 47.188 672.273 46.798 672.489 46.318C672.705 45.838 672.813 45.334 672.813 44.806V44.788H670.527C669.639 44.788 669.009 44.944 668.637 45.256C668.277 45.556 668.097 45.934 668.097 46.39C668.097 46.858 668.265 47.236 668.601 47.524C668.949 47.8 669.435 47.938 670.059 47.938ZM676.743 49V40.072H678.111L678.201 41.674C678.489 41.11 678.903 40.666 679.443 40.342C679.983 40.018 680.595 39.856 681.279 39.856C682.335 39.856 683.175 40.18 683.799 40.828C684.435 41.464 684.753 42.448 684.753 43.78V49H683.241V43.942C683.241 42.082 682.473 41.152 680.937 41.152C680.169 41.152 679.527 41.434 679.011 41.998C678.507 42.55 678.255 43.342 678.255 44.374V49H676.743ZM691.244 49.216C690.356 49.216 689.576 49.012 688.904 48.604C688.244 48.196 687.728 47.638 687.356 46.93C686.996 46.222 686.816 45.418 686.816 44.518C686.816 43.618 687.002 42.82 687.374 42.124C687.746 41.416 688.262 40.864 688.922 40.468C689.582 40.06 690.362 39.856 691.262 39.856C691.994 39.856 692.642 40.006 693.206 40.306C693.77 40.606 694.208 41.026 694.52 41.566V36.04H696.032V49H694.664L694.52 47.524C694.232 47.956 693.818 48.346 693.278 48.694C692.738 49.042 692.06 49.216 691.244 49.216ZM691.406 47.902C692.006 47.902 692.534 47.764 692.99 47.488C693.458 47.2 693.818 46.804 694.07 46.3C694.334 45.796 694.466 45.208 694.466 44.536C694.466 43.864 694.334 43.276 694.07 42.772C693.818 42.268 693.458 41.878 692.99 41.602C692.534 41.314 692.006 41.17 691.406 41.17C690.818 41.17 690.29 41.314 689.822 41.602C689.366 41.878 689.006 42.268 688.742 42.772C688.49 43.276 688.364 43.864 688.364 44.536C688.364 45.208 688.49 45.796 688.742 46.3C689.006 46.804 689.366 47.2 689.822 47.488C690.29 47.764 690.818 47.902 691.406 47.902ZM703.56 52.96V40.072H704.928L705.072 41.548C705.36 41.116 705.768 40.726 706.296 40.378C706.836 40.03 707.52 39.856 708.348 39.856C709.236 39.856 710.01 40.06 710.67 40.468C711.33 40.876 711.84 41.434 712.2 42.142C712.572 42.85 712.758 43.654 712.758 44.554C712.758 45.454 712.572 46.258 712.2 46.966C711.84 47.662 711.324 48.214 710.652 48.622C709.992 49.018 709.218 49.216 708.33 49.216C707.598 49.216 706.944 49.066 706.368 48.766C705.804 48.466 705.372 48.046 705.072 47.506V52.96H703.56ZM708.168 47.902C708.768 47.902 709.296 47.764 709.752 47.488C710.208 47.2 710.568 46.804 710.832 46.3C711.096 45.796 711.228 45.208 711.228 44.536C711.228 43.864 711.096 43.276 710.832 42.772C710.568 42.268 710.208 41.878 709.752 41.602C709.296 41.314 708.768 41.17 708.168 41.17C707.568 41.17 707.04 41.314 706.584 41.602C706.128 41.878 705.768 42.268 705.504 42.772C705.24 43.276 705.108 43.864 705.108 44.536C705.108 45.208 705.24 45.796 705.504 46.3C705.768 46.804 706.128 47.2 706.584 47.488C707.04 47.764 707.568 47.902 708.168 47.902ZM715.013 49V40.072H716.381L716.507 41.782C716.783 41.194 717.203 40.726 717.767 40.378C718.331 40.03 719.027 39.856 719.855 39.856V41.44H719.441C718.913 41.44 718.427 41.536 717.983 41.728C717.539 41.908 717.185 42.22 716.921 42.664C716.657 43.108 716.525 43.72 716.525 44.5V49H715.013ZM725.436 49.216C724.596 49.216 723.84 49.024 723.168 48.64C722.496 48.256 721.962 47.716 721.566 47.02C721.182 46.312 720.99 45.484 720.99 44.536C720.99 43.588 721.188 42.766 721.584 42.07C721.98 41.362 722.514 40.816 723.186 40.432C723.87 40.048 724.632 39.856 725.472 39.856C726.312 39.856 727.068 40.048 727.74 40.432C728.412 40.816 728.94 41.362 729.324 42.07C729.72 42.766 729.918 43.588 729.918 44.536C729.918 45.484 729.72 46.312 729.324 47.02C728.928 47.716 728.388 48.256 727.704 48.64C727.032 49.024 726.276 49.216 725.436 49.216ZM725.436 47.92C725.952 47.92 726.432 47.794 726.876 47.542C727.32 47.29 727.68 46.912 727.956 46.408C728.232 45.904 728.37 45.28 728.37 44.536C728.37 43.792 728.232 43.168 727.956 42.664C727.692 42.16 727.338 41.782 726.894 41.53C726.45 41.278 725.976 41.152 725.472 41.152C724.956 41.152 724.476 41.278 724.032 41.53C723.588 41.782 723.228 42.16 722.952 42.664C722.676 43.168 722.538 43.792 722.538 44.536C722.538 45.28 722.676 45.904 722.952 46.408C723.228 46.912 723.582 47.29 724.014 47.542C724.458 47.794 724.932 47.92 725.436 47.92ZM736.274 49.216C735.422 49.216 734.654 49.024 733.97 48.64C733.298 48.244 732.764 47.698 732.368 47.002C731.984 46.294 731.792 45.472 731.792 44.536C731.792 43.6 731.984 42.784 732.368 42.088C732.764 41.38 733.298 40.834 733.97 40.45C734.654 40.054 735.422 39.856 736.274 39.856C737.33 39.856 738.218 40.132 738.938 40.684C739.67 41.236 740.132 41.974 740.324 42.898H738.776C738.656 42.346 738.362 41.92 737.894 41.62C737.426 41.308 736.88 41.152 736.256 41.152C735.752 41.152 735.278 41.278 734.834 41.53C734.39 41.782 734.03 42.16 733.754 42.664C733.478 43.168 733.34 43.792 733.34 44.536C733.34 45.28 733.478 45.904 733.754 46.408C734.03 46.912 734.39 47.296 734.834 47.56C735.278 47.812 735.752 47.938 736.256 47.938C736.88 47.938 737.426 47.788 737.894 47.488C738.362 47.176 738.656 46.738 738.776 46.174H740.324C740.144 47.074 739.688 47.806 738.956 48.37C738.224 48.934 737.33 49.216 736.274 49.216ZM746.6 49.216C745.748 49.216 744.992 49.024 744.332 48.64C743.672 48.244 743.15 47.698 742.766 47.002C742.394 46.306 742.208 45.484 742.208 44.536C742.208 43.6 742.394 42.784 742.766 42.088C743.138 41.38 743.654 40.834 744.314 40.45C744.986 40.054 745.76 39.856 746.636 39.856C747.5 39.856 748.244 40.054 748.868 40.45C749.504 40.834 749.99 41.344 750.326 41.98C750.662 42.616 750.83 43.3 750.83 44.032C750.83 44.164 750.824 44.296 750.812 44.428C750.812 44.56 750.812 44.71 750.812 44.878H743.702C743.738 45.562 743.894 46.132 744.17 46.588C744.458 47.032 744.812 47.368 745.232 47.596C745.664 47.824 746.12 47.938 746.6 47.938C747.224 47.938 747.746 47.794 748.166 47.506C748.586 47.218 748.892 46.828 749.084 46.336H750.578C750.338 47.164 749.876 47.854 749.192 48.406C748.52 48.946 747.656 49.216 746.6 49.216ZM746.6 41.134C745.88 41.134 745.238 41.356 744.674 41.8C744.122 42.232 743.804 42.868 743.72 43.708H749.336C749.3 42.904 749.024 42.274 748.508 41.818C747.992 41.362 747.356 41.134 746.6 41.134ZM756.404 49.216C755.336 49.216 754.448 48.946 753.74 48.406C753.032 47.866 752.618 47.134 752.498 46.21H754.046C754.142 46.678 754.388 47.086 754.784 47.434C755.192 47.77 755.738 47.938 756.422 47.938C757.058 47.938 757.526 47.806 757.826 47.542C758.126 47.266 758.276 46.942 758.276 46.57C758.276 46.03 758.078 45.67 757.682 45.49C757.298 45.31 756.752 45.148 756.044 45.004C755.564 44.908 755.084 44.77 754.604 44.59C754.124 44.41 753.722 44.158 753.398 43.834C753.074 43.498 752.912 43.06 752.912 42.52C752.912 41.74 753.2 41.104 753.776 40.612C754.364 40.108 755.156 39.856 756.152 39.856C757.1 39.856 757.874 40.096 758.474 40.576C759.086 41.044 759.44 41.716 759.536 42.592H758.042C757.982 42.136 757.784 41.782 757.448 41.53C757.124 41.266 756.686 41.134 756.134 41.134C755.594 41.134 755.174 41.248 754.874 41.476C754.586 41.704 754.442 42.004 754.442 42.376C754.442 42.736 754.628 43.018 755 43.222C755.384 43.426 755.9 43.6 756.548 43.744C757.1 43.864 757.622 44.014 758.114 44.194C758.618 44.362 759.026 44.62 759.338 44.968C759.662 45.304 759.824 45.796 759.824 46.444C759.836 47.248 759.53 47.914 758.906 48.442C758.294 48.958 757.46 49.216 756.404 49.216ZM765.554 49.216C764.486 49.216 763.598 48.946 762.89 48.406C762.182 47.866 761.768 47.134 761.648 46.21H763.196C763.292 46.678 763.538 47.086 763.934 47.434C764.342 47.77 764.888 47.938 765.572 47.938C766.208 47.938 766.676 47.806 766.976 47.542C767.276 47.266 767.426 46.942 767.426 46.57C767.426 46.03 767.228 45.67 766.832 45.49C766.448 45.31 765.902 45.148 765.194 45.004C764.714 44.908 764.234 44.77 763.754 44.59C763.274 44.41 762.872 44.158 762.548 43.834C762.224 43.498 762.062 43.06 762.062 42.52C762.062 41.74 762.35 41.104 762.926 40.612C763.514 40.108 764.306 39.856 765.302 39.856C766.25 39.856 767.024 40.096 767.624 40.576C768.236 41.044 768.59 41.716 768.686 42.592H767.192C767.132 42.136 766.934 41.782 766.598 41.53C766.274 41.266 765.836 41.134 765.284 41.134C764.744 41.134 764.324 41.248 764.024 41.476C763.736 41.704 763.592 42.004 763.592 42.376C763.592 42.736 763.778 43.018 764.15 43.222C764.534 43.426 765.05 43.6 765.698 43.744C766.25 43.864 766.772 44.014 767.264 44.194C767.768 44.362 768.176 44.62 768.488 44.968C768.812 45.304 768.974 45.796 768.974 46.444C768.986 47.248 768.68 47.914 768.056 48.442C767.444 48.958 766.61 49.216 765.554 49.216Z" fill="black"/>
</g>
<defs>
<filter id="filter0_d_102_2302" x="0.326172" y="0.0400391" width="1115.77" height="60.9199" filterUnits="userSpaceOnUse" color-interpolation-filters="sRGB">
<feFlood flood-opacity="0" result="BackgroundImageFix"/>
<feColorMatrix in="SourceAlpha" type="matrix" values="0 0 0 0 0 0 0 0 0 0 0 0 0 0 0 0 0 0 127 0" result="hardAlpha"/>
<feOffset dy="4"/>
<feGaussianBlur stdDeviation="2"/>
<feComposite in2="hardAlpha" operator="out"/>
<feColorMatrix type="matrix" values="0 0 0 0 0 0 0 0 0 0 0 0 0 0 0 0 0 0 0.25 0"/>
<feBlend mode="normal" in2="BackgroundImageFix" result="effect1_dropShadow_102_2302"/>
<feBlend mode="normal" in="SourceGraphic" in2="effect1_dropShadow_102_2302" result="shape"/>
</filter>
</defs>
</svg>
