<svg width="499" height="60" viewBox="0 0 499 60" fill="none" xmlns="http://www.w3.org/2000/svg">
<path d="M8.456 18.288C6.792 18.288 5.336 17.92 4.088 17.184C2.84 16.448 1.864 15.432 1.16 14.136C0.456 12.824 0.104 11.312 0.104 9.6C0.104 7.888 0.456 6.384 1.16 5.088C1.864 3.776 2.84 2.752 4.088 2.016C5.336 1.28 6.792 0.912 8.456 0.912C10.12 0.912 11.576 1.28 12.824 2.016C14.072 2.752 15.04 3.776 15.728 5.088C16.432 6.384 16.784 7.888 16.784 9.6C16.784 11.312 16.432 12.824 15.728 14.136C15.04 15.432 14.072 16.448 12.824 17.184C11.576 17.92 10.12 18.288 8.456 18.288ZM8.456 16.008C9.608 16.008 10.608 15.752 11.456 15.24C12.32 14.728 12.992 13.992 13.472 13.032C13.952 12.072 14.192 10.928 14.192 9.6C14.192 8.272 13.952 7.128 13.472 6.168C12.992 5.208 12.32 4.472 11.456 3.96C10.608 3.448 9.608 3.192 8.456 3.192C7.304 3.192 6.296 3.448 5.432 3.96C4.568 4.472 3.896 5.208 3.416 6.168C2.952 7.128 2.72 8.272 2.72 9.6C2.72 10.928 2.952 12.072 3.416 13.032C3.896 13.992 4.568 14.728 5.432 15.24C6.296 15.752 7.304 16.008 8.456 16.008ZM24.0641 18.288C22.6241 18.288 21.4881 17.84 20.6561 16.944C19.8401 16.048 19.4321 14.712 19.4321 12.936V6.096H21.9761V12.672C21.9761 14.976 22.9201 16.128 24.8081 16.128C25.7521 16.128 26.5281 15.792 27.1361 15.12C27.7441 14.448 28.0481 13.488 28.0481 12.24V6.096H30.5921V18H28.3361L28.1441 15.912C27.7761 16.648 27.2321 17.232 26.5121 17.664C25.8081 18.08 24.9921 18.288 24.0641 18.288ZM33.9783 18V6.096H36.2583L36.4743 8.352C36.8903 7.568 37.4663 6.952 38.2023 6.504C38.9543 6.04 39.8583 5.808 40.9143 5.808V8.472H40.2183C39.5143 8.472 38.8823 8.592 38.3223 8.832C37.7783 9.056 37.3383 9.448 37.0023 10.008C36.6823 10.552 36.5223 11.312 36.5223 12.288V18H33.9783ZM49.4424 18V0.719999H51.9864V18H49.4424ZM59.39 18.288C58.382 18.288 57.55 18.12 56.894 17.784C56.238 17.448 55.75 17.008 55.43 16.464C55.11 15.904 54.95 15.296 54.95 14.64C54.95 13.488 55.398 12.576 56.294 11.904C57.19 11.232 58.47 10.896 60.134 10.896H63.254V10.68C63.254 9.752 62.998 9.056 62.486 8.592C61.99 8.128 61.342 7.896 60.542 7.896C59.838 7.896 59.222 8.072 58.694 8.424C58.182 8.76 57.87 9.264 57.758 9.936H55.214C55.294 9.072 55.582 8.336 56.078 7.728C56.59 7.104 57.23 6.632 57.998 6.312C58.782 5.976 59.638 5.808 60.566 5.808C62.23 5.808 63.518 6.248 64.43 7.128C65.342 7.992 65.798 9.176 65.798 10.68V18H63.59L63.374 15.96C63.038 16.616 62.55 17.168 61.91 17.616C61.27 18.064 60.43 18.288 59.39 18.288ZM59.894 16.224C60.582 16.224 61.158 16.064 61.622 15.744C62.102 15.408 62.47 14.968 62.726 14.424C62.998 13.88 63.166 13.28 63.23 12.624H60.398C59.39 12.624 58.67 12.8 58.238 13.152C57.822 13.504 57.614 13.944 57.614 14.472C57.614 15.016 57.814 15.448 58.214 15.768C58.63 16.072 59.19 16.224 59.894 16.224ZM68.9143 18V6.096H71.1703L71.3623 8.184C71.7303 7.448 72.2663 6.872 72.9703 6.456C73.6903 6.024 74.5143 5.808 75.4423 5.808C76.8823 5.808 78.0103 6.256 78.8263 7.152C79.6583 8.048 80.0743 9.384 80.0743 11.16V18H77.5543V11.424C77.5543 9.12 76.6103 7.968 74.7223 7.968C73.7783 7.968 72.9943 8.304 72.3703 8.976C71.7623 9.648 71.4583 10.608 71.4583 11.856V18H68.9143ZM88.6445 18.288C87.4925 18.288 86.4765 18.016 85.5965 17.472C84.7165 16.928 84.0285 16.184 83.5325 15.24C83.0365 14.296 82.7885 13.224 82.7885 12.024C82.7885 10.824 83.0365 9.76 83.5325 8.832C84.0285 7.888 84.7165 7.152 85.5965 6.624C86.4925 6.08 87.5165 5.808 88.6685 5.808C89.6125 5.808 90.4365 5.992 91.1405 6.36C91.8605 6.728 92.4205 7.248 92.8205 7.92V0.719999H95.3645V18H93.0845L92.8205 16.152C92.4365 16.712 91.9085 17.208 91.2365 17.64C90.5645 18.072 89.7005 18.288 88.6445 18.288ZM89.1005 16.08C90.1885 16.08 91.0765 15.704 91.7645 14.952C92.4685 14.2 92.8205 13.232 92.8205 12.048C92.8205 10.848 92.4685 9.88 91.7645 9.144C91.0765 8.392 90.1885 8.016 89.1005 8.016C88.0125 8.016 87.1165 8.392 86.4125 9.144C85.7085 9.88 85.3565 10.848 85.3565 12.048C85.3565 12.832 85.5165 13.528 85.8365 14.136C86.1565 14.744 86.5965 15.224 87.1565 15.576C87.7325 15.912 88.3805 16.08 89.1005 16.08ZM100.162 3.84C99.6821 3.84 99.2821 3.696 98.9621 3.408C98.6581 3.104 98.5061 2.728 98.5061 2.28C98.5061 1.832 98.6581 1.464 98.9621 1.176C99.2821 0.871999 99.6821 0.719999 100.162 0.719999C100.642 0.719999 101.034 0.871999 101.338 1.176C101.658 1.464 101.818 1.832 101.818 2.28C101.818 2.728 101.658 3.104 101.338 3.408C101.034 3.696 100.642 3.84 100.162 3.84ZM98.8901 18V6.096H101.434V18H98.8901ZM104.942 18V6.096H107.198L107.39 8.184C107.758 7.448 108.294 6.872 108.998 6.456C109.718 6.024 110.542 5.808 111.47 5.808C112.91 5.808 114.038 6.256 114.854 7.152C115.686 8.048 116.102 9.384 116.102 11.16V18H113.582V11.424C113.582 9.12 112.638 7.968 110.75 7.968C109.806 7.968 109.022 8.304 108.398 8.976C107.79 9.648 107.486 10.608 107.486 11.856V18H104.942ZM124.121 14.352C123.497 14.352 122.921 14.28 122.393 14.136L121.361 15.144C121.537 15.256 121.753 15.352 122.009 15.432C122.265 15.512 122.625 15.584 123.089 15.648C123.553 15.712 124.185 15.776 124.985 15.84C126.569 15.984 127.713 16.368 128.417 16.992C129.121 17.6 129.473 18.416 129.473 19.44C129.473 20.144 129.281 20.808 128.897 21.432C128.529 22.072 127.945 22.584 127.145 22.968C126.361 23.368 125.353 23.568 124.121 23.568C122.457 23.568 121.105 23.248 120.065 22.608C119.041 21.984 118.529 21.032 118.529 19.752C118.529 19.256 118.657 18.76 118.913 18.264C119.185 17.784 119.609 17.328 120.185 16.896C119.849 16.752 119.553 16.6 119.297 16.44C119.057 16.264 118.841 16.088 118.649 15.912V15.336L120.713 13.224C119.785 12.424 119.321 11.376 119.321 10.08C119.321 9.296 119.505 8.584 119.873 7.944C120.257 7.288 120.809 6.768 121.529 6.384C122.249 6 123.113 5.808 124.121 5.808C124.793 5.808 125.417 5.904 125.993 6.096H130.433V7.776L128.321 7.896C128.705 8.552 128.897 9.28 128.897 10.08C128.897 10.88 128.705 11.6 128.321 12.24C127.953 12.88 127.409 13.392 126.689 13.776C125.985 14.16 125.129 14.352 124.121 14.352ZM124.121 12.36C124.857 12.36 125.449 12.168 125.897 11.784C126.361 11.384 126.593 10.824 126.593 10.104C126.593 9.368 126.361 8.808 125.897 8.424C125.449 8.04 124.857 7.848 124.121 7.848C123.369 7.848 122.761 8.04 122.297 8.424C121.849 8.808 121.625 9.368 121.625 10.104C121.625 10.824 121.849 11.384 122.297 11.784C122.761 12.168 123.369 12.36 124.121 12.36ZM120.929 19.512C120.929 20.2 121.233 20.712 121.841 21.048C122.449 21.4 123.209 21.576 124.121 21.576C125.001 21.576 125.713 21.384 126.257 21C126.801 20.632 127.073 20.136 127.073 19.512C127.073 19.048 126.889 18.648 126.521 18.312C126.153 17.992 125.457 17.792 124.433 17.712C123.665 17.664 122.985 17.592 122.393 17.496C121.833 17.8 121.449 18.128 121.241 18.48C121.033 18.832 120.929 19.176 120.929 19.512ZM139.049 23.28V6.096H141.329L141.593 7.944C141.977 7.384 142.505 6.888 143.177 6.456C143.849 6.024 144.713 5.808 145.769 5.808C146.921 5.808 147.937 6.08 148.817 6.624C149.697 7.168 150.385 7.912 150.881 8.856C151.393 9.8 151.649 10.872 151.649 12.072C151.649 13.272 151.393 14.344 150.881 15.288C150.385 16.216 149.697 16.952 148.817 17.496C147.937 18.024 146.913 18.288 145.745 18.288C144.817 18.288 143.993 18.104 143.273 17.736C142.569 17.368 142.009 16.848 141.593 16.176V23.28H139.049ZM145.313 16.08C146.401 16.08 147.297 15.712 148.001 14.976C148.705 14.224 149.057 13.248 149.057 12.048C149.057 11.264 148.897 10.568 148.577 9.96C148.257 9.352 147.817 8.88 147.257 8.544C146.697 8.192 146.049 8.016 145.313 8.016C144.225 8.016 143.329 8.392 142.625 9.144C141.937 9.896 141.593 10.864 141.593 12.048C141.593 13.248 141.937 14.224 142.625 14.976C143.329 15.712 144.225 16.08 145.313 16.08ZM158.582 18.288C157.574 18.288 156.742 18.12 156.086 17.784C155.43 17.448 154.942 17.008 154.622 16.464C154.302 15.904 154.142 15.296 154.142 14.64C154.142 13.488 154.59 12.576 155.486 11.904C156.382 11.232 157.662 10.896 159.326 10.896H162.446V10.68C162.446 9.752 162.19 9.056 161.678 8.592C161.182 8.128 160.534 7.896 159.734 7.896C159.03 7.896 158.414 8.072 157.886 8.424C157.374 8.76 157.062 9.264 156.95 9.936H154.406C154.486 9.072 154.774 8.336 155.27 7.728C155.782 7.104 156.422 6.632 157.19 6.312C157.974 5.976 158.83 5.808 159.758 5.808C161.422 5.808 162.71 6.248 163.622 7.128C164.534 7.992 164.99 9.176 164.99 10.68V18H162.782L162.566 15.96C162.23 16.616 161.742 17.168 161.102 17.616C160.462 18.064 159.622 18.288 158.582 18.288ZM159.086 16.224C159.774 16.224 160.35 16.064 160.814 15.744C161.294 15.408 161.662 14.968 161.918 14.424C162.19 13.88 162.358 13.28 162.422 12.624H159.59C158.582 12.624 157.862 12.8 157.43 13.152C157.014 13.504 156.806 13.944 156.806 14.472C156.806 15.016 157.006 15.448 157.406 15.768C157.822 16.072 158.382 16.224 159.086 16.224ZM172.978 14.352C172.354 14.352 171.778 14.28 171.25 14.136L170.218 15.144C170.394 15.256 170.61 15.352 170.866 15.432C171.122 15.512 171.482 15.584 171.946 15.648C172.41 15.712 173.042 15.776 173.842 15.84C175.426 15.984 176.57 16.368 177.274 16.992C177.978 17.6 178.33 18.416 178.33 19.44C178.33 20.144 178.138 20.808 177.754 21.432C177.386 22.072 176.802 22.584 176.002 22.968C175.218 23.368 174.21 23.568 172.978 23.568C171.314 23.568 169.962 23.248 168.922 22.608C167.898 21.984 167.386 21.032 167.386 19.752C167.386 19.256 167.514 18.76 167.77 18.264C168.042 17.784 168.466 17.328 169.042 16.896C168.706 16.752 168.41 16.6 168.154 16.44C167.914 16.264 167.698 16.088 167.506 15.912V15.336L169.57 13.224C168.642 12.424 168.178 11.376 168.178 10.08C168.178 9.296 168.362 8.584 168.73 7.944C169.114 7.288 169.666 6.768 170.386 6.384C171.106 6 171.97 5.808 172.978 5.808C173.65 5.808 174.274 5.904 174.85 6.096H179.29V7.776L177.178 7.896C177.562 8.552 177.754 9.28 177.754 10.08C177.754 10.88 177.562 11.6 177.178 12.24C176.81 12.88 176.266 13.392 175.546 13.776C174.842 14.16 173.986 14.352 172.978 14.352ZM172.978 12.36C173.714 12.36 174.306 12.168 174.754 11.784C175.218 11.384 175.45 10.824 175.45 10.104C175.45 9.368 175.218 8.808 174.754 8.424C174.306 8.04 173.714 7.848 172.978 7.848C172.226 7.848 171.618 8.04 171.154 8.424C170.706 8.808 170.482 9.368 170.482 10.104C170.482 10.824 170.706 11.384 171.154 11.784C171.618 12.168 172.226 12.36 172.978 12.36ZM169.786 19.512C169.786 20.2 170.09 20.712 170.698 21.048C171.306 21.4 172.066 21.576 172.978 21.576C173.858 21.576 174.57 21.384 175.114 21C175.658 20.632 175.93 20.136 175.93 19.512C175.93 19.048 175.746 18.648 175.378 18.312C175.01 17.992 174.314 17.792 173.29 17.712C172.522 17.664 171.842 17.592 171.25 17.496C170.69 17.8 170.306 18.128 170.098 18.48C169.89 18.832 169.786 19.176 169.786 19.512ZM186.809 18.288C185.641 18.288 184.601 18.032 183.689 17.52C182.793 16.992 182.089 16.264 181.577 15.336C181.065 14.408 180.809 13.328 180.809 12.096C180.809 10.848 181.057 9.752 181.553 8.808C182.065 7.864 182.769 7.128 183.665 6.6C184.577 6.072 185.633 5.808 186.833 5.808C188.001 5.808 189.017 6.072 189.881 6.6C190.745 7.112 191.417 7.8 191.897 8.664C192.377 9.528 192.617 10.48 192.617 11.52C192.617 11.68 192.609 11.856 192.593 12.048C192.593 12.224 192.585 12.424 192.569 12.648H183.305C183.385 13.8 183.761 14.68 184.433 15.288C185.121 15.88 185.913 16.176 186.809 16.176C187.529 16.176 188.129 16.016 188.609 15.696C189.105 15.36 189.473 14.912 189.713 14.352H192.257C191.937 15.472 191.297 16.408 190.337 17.16C189.393 17.912 188.217 18.288 186.809 18.288ZM186.809 7.896C185.961 7.896 185.209 8.152 184.553 8.664C183.897 9.16 183.497 9.912 183.353 10.92H190.073C190.025 9.992 189.697 9.256 189.089 8.712C188.481 8.168 187.721 7.896 186.809 7.896ZM202.203 18V8.232H200.499V6.096H202.203V4.368C202.203 3.072 202.523 2.144 203.163 1.584C203.819 1.008 204.739 0.719999 205.923 0.719999H207.171V2.88H206.307C205.747 2.88 205.347 3 205.107 3.24C204.867 3.464 204.747 3.848 204.747 4.392V6.096H207.483V8.232H204.747V18H202.203ZM215.149 18.288C213.981 18.288 212.941 18.032 212.029 17.52C211.133 16.992 210.429 16.264 209.917 15.336C209.405 14.408 209.149 13.328 209.149 12.096C209.149 10.848 209.397 9.752 209.893 8.808C210.405 7.864 211.109 7.128 212.005 6.6C212.917 6.072 213.973 5.808 215.173 5.808C216.341 5.808 217.357 6.072 218.221 6.6C219.085 7.112 219.757 7.8 220.237 8.664C220.717 9.528 220.957 10.48 220.957 11.52C220.957 11.68 220.949 11.856 220.933 12.048C220.933 12.224 220.925 12.424 220.909 12.648H211.645C211.725 13.8 212.101 14.68 212.773 15.288C213.461 15.88 214.253 16.176 215.149 16.176C215.869 16.176 216.469 16.016 216.949 15.696C217.445 15.36 217.813 14.912 218.053 14.352H220.597C220.277 15.472 219.637 16.408 218.677 17.16C217.733 17.912 216.557 18.288 215.149 18.288ZM215.149 7.896C214.301 7.896 213.549 8.152 212.893 8.664C212.237 9.16 211.837 9.912 211.693 10.92H218.413C218.365 9.992 218.037 9.256 217.429 8.712C216.821 8.168 216.061 7.896 215.149 7.896ZM227.779 18.288C226.771 18.288 225.939 18.12 225.283 17.784C224.627 17.448 224.139 17.008 223.819 16.464C223.499 15.904 223.339 15.296 223.339 14.64C223.339 13.488 223.787 12.576 224.683 11.904C225.579 11.232 226.859 10.896 228.523 10.896H231.643V10.68C231.643 9.752 231.387 9.056 230.875 8.592C230.379 8.128 229.731 7.896 228.931 7.896C228.227 7.896 227.611 8.072 227.083 8.424C226.571 8.76 226.259 9.264 226.147 9.936H223.603C223.683 9.072 223.971 8.336 224.467 7.728C224.979 7.104 225.619 6.632 226.387 6.312C227.171 5.976 228.027 5.808 228.955 5.808C230.619 5.808 231.907 6.248 232.819 7.128C233.731 7.992 234.187 9.176 234.187 10.68V18H231.979L231.763 15.96C231.427 16.616 230.939 17.168 230.299 17.616C229.659 18.064 228.819 18.288 227.779 18.288ZM228.283 16.224C228.971 16.224 229.547 16.064 230.011 15.744C230.491 15.408 230.859 14.968 231.115 14.424C231.387 13.88 231.555 13.28 231.619 12.624H228.787C227.779 12.624 227.059 12.8 226.627 13.152C226.211 13.504 226.003 13.944 226.003 14.472C226.003 15.016 226.203 15.448 226.603 15.768C227.019 16.072 227.579 16.224 228.283 16.224ZM242.061 18C240.893 18 239.965 17.72 239.277 17.16C238.589 16.584 238.245 15.568 238.245 14.112V8.232H236.205V6.096H238.245L238.557 3.072H240.789V6.096H244.149V8.232H240.789V14.112C240.789 14.768 240.925 15.224 241.197 15.48C241.485 15.72 241.973 15.84 242.661 15.84H244.029V18H242.061ZM251.314 18.288C249.874 18.288 248.738 17.84 247.906 16.944C247.09 16.048 246.682 14.712 246.682 12.936V6.096H249.226V12.672C249.226 14.976 250.17 16.128 252.058 16.128C253.002 16.128 253.778 15.792 254.386 15.12C254.994 14.448 255.298 13.488 255.298 12.24V6.096H257.842V18H255.586L255.394 15.912C255.026 16.648 254.482 17.232 253.762 17.664C253.058 18.08 252.242 18.288 251.314 18.288ZM261.228 18V6.096H263.508L263.724 8.352C264.14 7.568 264.716 6.952 265.452 6.504C266.204 6.04 267.108 5.808 268.164 5.808V8.472H267.468C266.764 8.472 266.132 8.592 265.572 8.832C265.028 9.056 264.588 9.448 264.252 10.008C263.932 10.552 263.772 11.312 263.772 12.288V18H261.228ZM275.735 18.288C274.567 18.288 273.527 18.032 272.615 17.52C271.719 16.992 271.015 16.264 270.503 15.336C269.991 14.408 269.735 13.328 269.735 12.096C269.735 10.848 269.983 9.752 270.479 8.808C270.991 7.864 271.695 7.128 272.591 6.6C273.503 6.072 274.559 5.808 275.759 5.808C276.927 5.808 277.943 6.072 278.807 6.6C279.671 7.112 280.343 7.8 280.823 8.664C281.303 9.528 281.543 10.48 281.543 11.52C281.543 11.68 281.535 11.856 281.519 12.048C281.519 12.224 281.511 12.424 281.495 12.648H272.231C272.311 13.8 272.687 14.68 273.359 15.288C274.047 15.88 274.839 16.176 275.735 16.176C276.455 16.176 277.055 16.016 277.535 15.696C278.031 15.36 278.399 14.912 278.639 14.352H281.183C280.863 15.472 280.223 16.408 279.263 17.16C278.319 17.912 277.143 18.288 275.735 18.288ZM275.735 7.896C274.887 7.896 274.135 8.152 273.479 8.664C272.823 9.16 272.423 9.912 272.279 10.92H278.999C278.951 9.992 278.623 9.256 278.015 8.712C277.407 8.168 276.647 7.896 275.735 7.896ZM289.085 18.288C287.581 18.288 286.341 17.92 285.365 17.184C284.389 16.448 283.829 15.472 283.685 14.256H286.253C286.381 14.8 286.685 15.272 287.165 15.672C287.645 16.056 288.277 16.248 289.061 16.248C289.829 16.248 290.389 16.088 290.741 15.768C291.093 15.448 291.269 15.08 291.269 14.664C291.269 14.056 291.021 13.648 290.525 13.44C290.045 13.216 289.373 13.016 288.509 12.84C287.837 12.696 287.165 12.504 286.493 12.264C285.837 12.024 285.285 11.688 284.837 11.256C284.405 10.808 284.189 10.208 284.189 9.456C284.189 8.416 284.589 7.552 285.389 6.864C286.189 6.16 287.309 5.808 288.749 5.808C290.077 5.808 291.149 6.128 291.965 6.768C292.797 7.408 293.285 8.312 293.429 9.48H290.981C290.901 8.968 290.661 8.568 290.261 8.28C289.877 7.992 289.357 7.848 288.701 7.848C288.061 7.848 287.565 7.984 287.213 8.256C286.861 8.512 286.685 8.848 286.685 9.264C286.685 9.68 286.925 10.008 287.405 10.248C287.901 10.488 288.549 10.704 289.349 10.896C290.149 11.072 290.885 11.28 291.557 11.52C292.245 11.744 292.797 12.08 293.213 12.528C293.629 12.976 293.837 13.632 293.837 14.496C293.853 15.584 293.429 16.488 292.565 17.208C291.717 17.928 290.557 18.288 289.085 18.288ZM308.529 18.288C307.393 18.288 306.369 18.032 305.457 17.52C304.561 16.992 303.849 16.264 303.321 15.336C302.793 14.392 302.529 13.296 302.529 12.048C302.529 10.8 302.793 9.712 303.321 8.784C303.865 7.84 304.593 7.112 305.505 6.6C306.417 6.072 307.433 5.808 308.553 5.808C309.689 5.808 310.705 6.072 311.601 6.6C312.513 7.112 313.233 7.84 313.761 8.784C314.305 9.712 314.577 10.8 314.577 12.048C314.577 13.296 314.305 14.392 313.761 15.336C313.233 16.264 312.513 16.992 311.601 17.52C310.689 18.032 309.665 18.288 308.529 18.288ZM308.529 16.104C309.137 16.104 309.697 15.952 310.209 15.648C310.737 15.344 311.161 14.896 311.481 14.304C311.801 13.696 311.961 12.944 311.961 12.048C311.961 11.152 311.801 10.408 311.481 9.816C311.177 9.208 310.761 8.752 310.233 8.448C309.721 8.144 309.161 7.992 308.553 7.992C307.945 7.992 307.377 8.144 306.849 8.448C306.337 8.752 305.921 9.208 305.601 9.816C305.281 10.408 305.121 11.152 305.121 12.048C305.121 12.944 305.281 13.696 305.601 14.304C305.921 14.896 306.337 15.344 306.849 15.648C307.361 15.952 307.921 16.104 308.529 16.104ZM321.87 18.288C320.43 18.288 319.294 17.84 318.462 16.944C317.646 16.048 317.238 14.712 317.238 12.936V6.096H319.782V12.672C319.782 14.976 320.726 16.128 322.614 16.128C323.558 16.128 324.334 15.792 324.942 15.12C325.55 14.448 325.854 13.488 325.854 12.24V6.096H328.398V18H326.142L325.95 15.912C325.582 16.648 325.038 17.232 324.318 17.664C323.614 18.08 322.798 18.288 321.87 18.288ZM331.785 18V6.096H334.065L334.281 8.352C334.697 7.568 335.273 6.952 336.009 6.504C336.761 6.04 337.665 5.808 338.721 5.808V8.472H338.025C337.321 8.472 336.689 8.592 336.129 8.832C335.585 9.056 335.145 9.448 334.809 10.008C334.489 10.552 334.329 11.312 334.329 12.288V18H331.785ZM352.241 18C351.073 18 350.145 17.72 349.457 17.16C348.769 16.584 348.425 15.568 348.425 14.112V8.232H346.385V6.096H348.425L348.737 3.072H350.969V6.096H354.329V8.232H350.969V14.112C350.969 14.768 351.105 15.224 351.377 15.48C351.665 15.72 352.153 15.84 352.841 15.84H354.209V18H352.241ZM359.478 18L355.974 6.096H358.518L360.822 15.072L363.414 6.096H366.246L368.838 15.072L371.142 6.096H373.686L370.182 18H367.566L364.83 8.64L362.094 18H359.478ZM381.054 18.288C379.918 18.288 378.894 18.032 377.982 17.52C377.086 16.992 376.374 16.264 375.846 15.336C375.318 14.392 375.054 13.296 375.054 12.048C375.054 10.8 375.318 9.712 375.846 8.784C376.39 7.84 377.118 7.112 378.03 6.6C378.942 6.072 379.958 5.808 381.078 5.808C382.214 5.808 383.23 6.072 384.126 6.6C385.038 7.112 385.758 7.84 386.286 8.784C386.83 9.712 387.102 10.8 387.102 12.048C387.102 13.296 386.83 14.392 386.286 15.336C385.758 16.264 385.038 16.992 384.126 17.52C383.214 18.032 382.19 18.288 381.054 18.288ZM381.054 16.104C381.662 16.104 382.222 15.952 382.734 15.648C383.262 15.344 383.686 14.896 384.006 14.304C384.326 13.696 384.486 12.944 384.486 12.048C384.486 11.152 384.326 10.408 384.006 9.816C383.702 9.208 383.286 8.752 382.758 8.448C382.246 8.144 381.686 7.992 381.078 7.992C380.47 7.992 379.902 8.144 379.374 8.448C378.862 8.752 378.446 9.208 378.126 9.816C377.806 10.408 377.646 11.152 377.646 12.048C377.646 12.944 377.806 13.696 378.126 14.304C378.446 14.896 378.862 15.344 379.374 15.648C379.886 15.952 380.446 16.104 381.054 16.104ZM396.2 23.28V6.096H398.48L398.744 7.944C399.128 7.384 399.656 6.888 400.328 6.456C401 6.024 401.864 5.808 402.92 5.808C404.072 5.808 405.088 6.08 405.968 6.624C406.848 7.168 407.536 7.912 408.032 8.856C408.544 9.8 408.8 10.872 408.8 12.072C408.8 13.272 408.544 14.344 408.032 15.288C407.536 16.216 406.848 16.952 405.968 17.496C405.088 18.024 404.064 18.288 402.896 18.288C401.968 18.288 401.144 18.104 400.424 17.736C399.72 17.368 399.16 16.848 398.744 16.176V23.28H396.2ZM402.464 16.08C403.552 16.08 404.448 15.712 405.152 14.976C405.856 14.224 406.208 13.248 406.208 12.048C406.208 11.264 406.048 10.568 405.728 9.96C405.408 9.352 404.968 8.88 404.408 8.544C403.848 8.192 403.2 8.016 402.464 8.016C401.376 8.016 400.48 8.392 399.776 9.144C399.088 9.896 398.744 10.864 398.744 12.048C398.744 13.248 399.088 14.224 399.776 14.976C400.48 15.712 401.376 16.08 402.464 16.08ZM411.702 18V6.096H413.982L414.198 8.352C414.614 7.568 415.19 6.952 415.926 6.504C416.678 6.04 417.582 5.808 418.638 5.808V8.472H417.942C417.238 8.472 416.606 8.592 416.046 8.832C415.502 9.056 415.062 9.448 414.726 10.008C414.406 10.552 414.246 11.312 414.246 12.288V18H411.702ZM426.209 18.288C425.073 18.288 424.049 18.032 423.137 17.52C422.241 16.992 421.529 16.264 421.001 15.336C420.473 14.392 420.209 13.296 420.209 12.048C420.209 10.8 420.473 9.712 421.001 8.784C421.545 7.84 422.273 7.112 423.185 6.6C424.097 6.072 425.113 5.808 426.233 5.808C427.369 5.808 428.385 6.072 429.281 6.6C430.193 7.112 430.913 7.84 431.441 8.784C431.985 9.712 432.257 10.8 432.257 12.048C432.257 13.296 431.985 14.392 431.441 15.336C430.913 16.264 430.193 16.992 429.281 17.52C428.369 18.032 427.345 18.288 426.209 18.288ZM426.209 16.104C426.817 16.104 427.377 15.952 427.889 15.648C428.417 15.344 428.841 14.896 429.161 14.304C429.481 13.696 429.641 12.944 429.641 12.048C429.641 11.152 429.481 10.408 429.161 9.816C428.857 9.208 428.441 8.752 427.913 8.448C427.401 8.144 426.841 7.992 426.233 7.992C425.625 7.992 425.057 8.144 424.529 8.448C424.017 8.752 423.601 9.208 423.281 9.816C422.961 10.408 422.801 11.152 422.801 12.048C422.801 12.944 422.961 13.696 423.281 14.304C423.601 14.896 424.017 15.344 424.529 15.648C425.041 15.952 425.601 16.104 426.209 16.104ZM440.582 18.288C439.43 18.288 438.414 18.016 437.534 17.472C436.654 16.928 435.966 16.184 435.47 15.24C434.974 14.296 434.726 13.224 434.726 12.024C434.726 10.824 434.974 9.76 435.47 8.832C435.966 7.888 436.654 7.152 437.534 6.624C438.43 6.08 439.454 5.808 440.606 5.808C441.55 5.808 442.374 5.992 443.078 6.36C443.798 6.728 444.358 7.248 444.758 7.92V0.719999H447.302V18H445.022L444.758 16.152C444.374 16.712 443.846 17.208 443.174 17.64C442.502 18.072 441.638 18.288 440.582 18.288ZM441.038 16.08C442.126 16.08 443.014 15.704 443.702 14.952C444.406 14.2 444.758 13.232 444.758 12.048C444.758 10.848 444.406 9.88 443.702 9.144C443.014 8.392 442.126 8.016 441.038 8.016C439.95 8.016 439.054 8.392 438.35 9.144C437.646 9.88 437.294 10.848 437.294 12.048C437.294 12.832 437.454 13.528 437.774 14.136C438.094 14.744 438.534 15.224 439.094 15.576C439.67 15.912 440.318 16.08 441.038 16.08ZM455.052 18.288C453.612 18.288 452.476 17.84 451.644 16.944C450.828 16.048 450.42 14.712 450.42 12.936V6.096H452.964V12.672C452.964 14.976 453.908 16.128 455.796 16.128C456.74 16.128 457.516 15.792 458.124 15.12C458.732 14.448 459.036 13.488 459.036 12.24V6.096H461.58V18H459.324L459.132 15.912C458.764 16.648 458.22 17.232 457.5 17.664C456.796 18.08 455.98 18.288 455.052 18.288ZM470.606 18.288C469.438 18.288 468.39 18.024 467.462 17.496C466.55 16.968 465.83 16.24 465.302 15.312C464.79 14.368 464.534 13.28 464.534 12.048C464.534 10.816 464.79 9.736 465.302 8.808C465.83 7.864 466.55 7.128 467.462 6.6C468.39 6.072 469.438 5.808 470.606 5.808C472.078 5.808 473.31 6.192 474.302 6.96C475.31 7.728 475.958 8.768 476.246 10.08H473.582C473.422 9.424 473.07 8.912 472.526 8.544C471.982 8.176 471.342 7.992 470.606 7.992C469.982 7.992 469.406 8.152 468.878 8.472C468.35 8.776 467.926 9.232 467.606 9.84C467.286 10.432 467.126 11.168 467.126 12.048C467.126 12.928 467.286 13.672 467.606 14.28C467.926 14.872 468.35 15.328 468.878 15.648C469.406 15.968 469.982 16.128 470.606 16.128C471.342 16.128 471.982 15.944 472.526 15.576C473.07 15.208 473.422 14.688 473.582 14.016H476.246C475.974 15.296 475.334 16.328 474.326 17.112C473.318 17.896 472.078 18.288 470.606 18.288ZM483.913 18C482.745 18 481.817 17.72 481.129 17.16C480.441 16.584 480.097 15.568 480.097 14.112V8.232H478.057V6.096H480.097L480.409 3.072H482.641V6.096H486.001V8.232H482.641V14.112C482.641 14.768 482.777 15.224 483.049 15.48C483.337 15.72 483.825 15.84 484.513 15.84H485.881V18H483.913ZM493.526 18.288C492.022 18.288 490.782 17.92 489.806 17.184C488.83 16.448 488.27 15.472 488.126 14.256H490.694C490.822 14.8 491.126 15.272 491.606 15.672C492.086 16.056 492.718 16.248 493.502 16.248C494.27 16.248 494.83 16.088 495.182 15.768C495.534 15.448 495.71 15.08 495.71 14.664C495.71 14.056 495.462 13.648 494.966 13.44C494.486 13.216 493.814 13.016 492.95 12.84C492.278 12.696 491.606 12.504 490.934 12.264C490.278 12.024 489.726 11.688 489.278 11.256C488.846 10.808 488.63 10.208 488.63 9.456C488.63 8.416 489.03 7.552 489.83 6.864C490.63 6.16 491.75 5.808 493.19 5.808C494.518 5.808 495.59 6.128 496.406 6.768C497.238 7.408 497.726 8.312 497.87 9.48H495.422C495.342 8.968 495.102 8.568 494.702 8.28C494.318 7.992 493.798 7.848 493.142 7.848C492.502 7.848 492.006 7.984 491.654 8.256C491.302 8.512 491.126 8.848 491.126 9.264C491.126 9.68 491.366 10.008 491.846 10.248C492.342 10.488 492.99 10.704 493.79 10.896C494.59 11.072 495.326 11.28 495.998 11.52C496.686 11.744 497.238 12.08 497.654 12.528C498.07 12.976 498.278 13.632 498.278 14.496C498.294 15.584 497.87 16.488 497.006 17.208C496.158 17.928 494.998 18.288 493.526 18.288ZM8.192 54.288C6.528 54.288 5.088 53.928 3.872 53.208C2.672 52.472 1.744 51.456 1.088 50.16C0.432 48.848 0.104 47.336 0.104 45.624C0.104 43.896 0.432 42.384 1.088 41.088C1.744 39.776 2.672 38.752 3.872 38.016C5.088 37.28 6.528 36.912 8.192 36.912C10.16 36.912 11.768 37.392 13.016 38.352C14.264 39.312 15.056 40.656 15.392 42.384H12.56C12.336 41.408 11.856 40.632 11.12 40.056C10.384 39.48 9.4 39.192 8.168 39.192C6.488 39.192 5.16 39.768 4.184 40.92C3.208 42.056 2.72 43.624 2.72 45.624C2.72 47.608 3.208 49.168 4.184 50.304C5.16 51.44 6.488 52.008 8.168 52.008C9.4 52.008 10.384 51.736 11.12 51.192C11.856 50.648 12.336 49.904 12.56 48.96H15.392C15.056 50.624 14.264 51.928 13.016 52.872C11.768 53.816 10.16 54.288 8.192 54.288ZM18.2424 54V36.72H20.7864V44.016C21.1864 43.328 21.7384 42.792 22.4424 42.408C23.1624 42.008 23.9544 41.808 24.8184 41.808C26.2424 41.808 27.3624 42.256 28.1784 43.152C28.9944 44.048 29.4024 45.384 29.4024 47.16V54H26.8824V47.424C26.8824 45.12 25.9624 43.968 24.1224 43.968C23.1624 43.968 22.3624 44.304 21.7224 44.976C21.0984 45.648 20.7864 46.608 20.7864 47.856V54H18.2424ZM36.5806 54.288C35.5726 54.288 34.7406 54.12 34.0846 53.784C33.4286 53.448 32.9406 53.008 32.6206 52.464C32.3006 51.904 32.1406 51.296 32.1406 50.64C32.1406 49.488 32.5886 48.576 33.4846 47.904C34.3806 47.232 35.6606 46.896 37.3246 46.896H40.4446V46.68C40.4446 45.752 40.1886 45.056 39.6766 44.592C39.1806 44.128 38.5326 43.896 37.7326 43.896C37.0286 43.896 36.4126 44.072 35.8846 44.424C35.3726 44.76 35.0606 45.264 34.9486 45.936H32.4046C32.4846 45.072 32.7726 44.336 33.2686 43.728C33.7806 43.104 34.4206 42.632 35.1886 42.312C35.9726 41.976 36.8286 41.808 37.7566 41.808C39.4206 41.808 40.7086 42.248 41.6206 43.128C42.5326 43.992 42.9886 45.176 42.9886 46.68V54H40.7806L40.5646 51.96C40.2286 52.616 39.7406 53.168 39.1006 53.616C38.4606 54.064 37.6206 54.288 36.5806 54.288ZM37.0846 52.224C37.7726 52.224 38.3486 52.064 38.8126 51.744C39.2926 51.408 39.6606 50.968 39.9166 50.424C40.1886 49.88 40.3566 49.28 40.4206 48.624H37.5886C36.5806 48.624 35.8606 48.8 35.4286 49.152C35.0126 49.504 34.8046 49.944 34.8046 50.472C34.8046 51.016 35.0046 51.448 35.4046 51.768C35.8206 52.072 36.3806 52.224 37.0846 52.224ZM46.1049 54V36.72H48.6489V47.016L53.2089 42.096H56.2569L51.1929 47.496L57.0009 54H53.7849L48.6489 47.904V54H46.1049ZM59.1221 54V42.096H61.4021L61.6181 44.352C62.0341 43.568 62.6101 42.952 63.3461 42.504C64.0981 42.04 65.0021 41.808 66.0581 41.808V44.472H65.3621C64.6581 44.472 64.0261 44.592 63.4661 44.832C62.9221 45.056 62.4821 45.448 62.1461 46.008C61.8261 46.552 61.6661 47.312 61.6661 48.288V54H59.1221ZM72.4213 54.288C71.4133 54.288 70.5813 54.12 69.9253 53.784C69.2693 53.448 68.7813 53.008 68.4613 52.464C68.1413 51.904 67.9813 51.296 67.9813 50.64C67.9813 49.488 68.4293 48.576 69.3253 47.904C70.2213 47.232 71.5013 46.896 73.1653 46.896H76.2853V46.68C76.2853 45.752 76.0293 45.056 75.5173 44.592C75.0213 44.128 74.3733 43.896 73.5733 43.896C72.8693 43.896 72.2533 44.072 71.7253 44.424C71.2133 44.76 70.9013 45.264 70.7893 45.936H68.2453C68.3253 45.072 68.6133 44.336 69.1093 43.728C69.6213 43.104 70.2613 42.632 71.0293 42.312C71.8133 41.976 72.6693 41.808 73.5973 41.808C75.2613 41.808 76.5493 42.248 77.4613 43.128C78.3733 43.992 78.8293 45.176 78.8293 46.68V54H76.6213L76.4053 51.96C76.0693 52.616 75.5813 53.168 74.9413 53.616C74.3013 54.064 73.4613 54.288 72.4213 54.288ZM72.9253 52.224C73.6133 52.224 74.1893 52.064 74.6533 51.744C75.1333 51.408 75.5013 50.968 75.7573 50.424C76.0293 49.88 76.1973 49.28 76.2613 48.624H73.4293C72.4213 48.624 71.7013 48.8 71.2693 49.152C70.8533 49.504 70.6453 49.944 70.6453 50.472C70.6453 51.016 70.8453 51.448 71.2453 51.768C71.6613 52.072 72.2213 52.224 72.9253 52.224ZM85.9775 54V39.264H81.0095V37.2H93.4655V39.264H88.5215V54H85.9775ZM94.6346 54V42.096H96.9146L97.1306 44.352C97.5466 43.568 98.1226 42.952 98.8586 42.504C99.6106 42.04 100.515 41.808 101.571 41.808V44.472H100.875C100.171 44.472 99.5386 44.592 98.9786 44.832C98.4346 45.056 97.9946 45.448 97.6586 46.008C97.3386 46.552 97.1786 47.312 97.1786 48.288V54H94.6346ZM107.934 54.288C106.926 54.288 106.094 54.12 105.438 53.784C104.782 53.448 104.294 53.008 103.974 52.464C103.654 51.904 103.494 51.296 103.494 50.64C103.494 49.488 103.942 48.576 104.838 47.904C105.734 47.232 107.014 46.896 108.678 46.896H111.798V46.68C111.798 45.752 111.542 45.056 111.03 44.592C110.534 44.128 109.886 43.896 109.086 43.896C108.382 43.896 107.766 44.072 107.238 44.424C106.726 44.76 106.414 45.264 106.302 45.936H103.758C103.838 45.072 104.126 44.336 104.622 43.728C105.134 43.104 105.774 42.632 106.542 42.312C107.326 41.976 108.182 41.808 109.11 41.808C110.774 41.808 112.062 42.248 112.974 43.128C113.886 43.992 114.342 45.176 114.342 46.68V54H112.134L111.918 51.96C111.582 52.616 111.094 53.168 110.454 53.616C109.814 54.064 108.974 54.288 107.934 54.288ZM108.438 52.224C109.126 52.224 109.702 52.064 110.166 51.744C110.646 51.408 111.014 50.968 111.27 50.424C111.542 49.88 111.71 49.28 111.774 48.624H108.942C107.934 48.624 107.214 48.8 106.782 49.152C106.366 49.504 106.158 49.944 106.158 50.472C106.158 51.016 106.358 51.448 106.758 51.768C107.174 52.072 107.734 52.224 108.438 52.224ZM117.458 54V42.096H119.714L119.906 44.184C120.274 43.448 120.81 42.872 121.514 42.456C122.234 42.024 123.058 41.808 123.986 41.808C125.426 41.808 126.554 42.256 127.37 43.152C128.202 44.048 128.618 45.384 128.618 47.16V54H126.098V47.424C126.098 45.12 125.154 43.968 123.266 43.968C122.322 43.968 121.538 44.304 120.914 44.976C120.306 45.648 120.002 46.608 120.002 47.856V54H117.458ZM136.516 54.288C135.012 54.288 133.772 53.92 132.796 53.184C131.82 52.448 131.26 51.472 131.116 50.256H133.684C133.812 50.8 134.116 51.272 134.596 51.672C135.076 52.056 135.708 52.248 136.492 52.248C137.26 52.248 137.82 52.088 138.172 51.768C138.524 51.448 138.7 51.08 138.7 50.664C138.7 50.056 138.452 49.648 137.956 49.44C137.476 49.216 136.804 49.016 135.94 48.84C135.268 48.696 134.596 48.504 133.924 48.264C133.268 48.024 132.716 47.688 132.268 47.256C131.836 46.808 131.62 46.208 131.62 45.456C131.62 44.416 132.02 43.552 132.82 42.864C133.62 42.16 134.74 41.808 136.18 41.808C137.508 41.808 138.58 42.128 139.396 42.768C140.228 43.408 140.716 44.312 140.86 45.48H138.412C138.332 44.968 138.092 44.568 137.692 44.28C137.308 43.992 136.788 43.848 136.132 43.848C135.492 43.848 134.996 43.984 134.644 44.256C134.292 44.512 134.116 44.848 134.116 45.264C134.116 45.68 134.356 46.008 134.836 46.248C135.332 46.488 135.98 46.704 136.78 46.896C137.58 47.072 138.316 47.28 138.988 47.52C139.676 47.744 140.228 48.08 140.644 48.528C141.06 48.976 141.268 49.632 141.268 50.496C141.284 51.584 140.86 52.488 139.996 53.208C139.148 53.928 137.988 54.288 136.516 54.288ZM144.795 54V44.232H143.091V42.096H144.795V40.368C144.795 39.072 145.115 38.144 145.755 37.584C146.411 37.008 147.331 36.72 148.515 36.72H149.763V38.88H148.899C148.339 38.88 147.939 39 147.699 39.24C147.459 39.464 147.339 39.848 147.339 40.392V42.096H150.075V44.232H147.339V54H144.795ZM157.742 54.288C156.574 54.288 155.534 54.032 154.622 53.52C153.726 52.992 153.022 52.264 152.51 51.336C151.998 50.408 151.742 49.328 151.742 48.096C151.742 46.848 151.99 45.752 152.486 44.808C152.998 43.864 153.702 43.128 154.598 42.6C155.51 42.072 156.566 41.808 157.766 41.808C158.934 41.808 159.95 42.072 160.814 42.6C161.678 43.112 162.35 43.8 162.83 44.664C163.31 45.528 163.55 46.48 163.55 47.52C163.55 47.68 163.542 47.856 163.526 48.048C163.526 48.224 163.518 48.424 163.502 48.648H154.238C154.318 49.8 154.694 50.68 155.366 51.288C156.054 51.88 156.846 52.176 157.742 52.176C158.462 52.176 159.062 52.016 159.542 51.696C160.038 51.36 160.406 50.912 160.646 50.352H163.19C162.87 51.472 162.23 52.408 161.27 53.16C160.326 53.912 159.15 54.288 157.742 54.288ZM157.742 43.896C156.894 43.896 156.142 44.152 155.486 44.664C154.83 45.16 154.43 45.912 154.286 46.92H161.006C160.958 45.992 160.63 45.256 160.022 44.712C159.414 44.168 158.654 43.896 157.742 43.896ZM166.339 54V42.096H168.619L168.835 44.352C169.251 43.568 169.827 42.952 170.563 42.504C171.315 42.04 172.219 41.808 173.275 41.808V44.472H172.579C171.875 44.472 171.243 44.592 170.683 44.832C170.139 45.056 169.699 45.448 169.363 46.008C169.043 46.552 168.883 47.312 168.883 48.288V54H166.339ZM185.835 54.288C184.827 54.288 183.995 54.12 183.339 53.784C182.683 53.448 182.195 53.008 181.875 52.464C181.555 51.904 181.395 51.296 181.395 50.64C181.395 49.488 181.843 48.576 182.739 47.904C183.635 47.232 184.915 46.896 186.579 46.896H189.699V46.68C189.699 45.752 189.443 45.056 188.931 44.592C188.435 44.128 187.787 43.896 186.987 43.896C186.283 43.896 185.667 44.072 185.139 44.424C184.627 44.76 184.315 45.264 184.203 45.936H181.659C181.739 45.072 182.027 44.336 182.523 43.728C183.035 43.104 183.675 42.632 184.443 42.312C185.227 41.976 186.083 41.808 187.011 41.808C188.675 41.808 189.963 42.248 190.875 43.128C191.787 43.992 192.243 45.176 192.243 46.68V54H190.035L189.819 51.96C189.483 52.616 188.995 53.168 188.355 53.616C187.715 54.064 186.875 54.288 185.835 54.288ZM186.339 52.224C187.027 52.224 187.603 52.064 188.067 51.744C188.547 51.408 188.915 50.968 189.171 50.424C189.443 49.88 189.611 49.28 189.675 48.624H186.843C185.835 48.624 185.115 48.8 184.683 49.152C184.267 49.504 184.059 49.944 184.059 50.472C184.059 51.016 184.259 51.448 184.659 51.768C185.075 52.072 185.635 52.224 186.339 52.224ZM195.36 54V42.096H197.616L197.808 44.184C198.176 43.448 198.712 42.872 199.416 42.456C200.136 42.024 200.96 41.808 201.888 41.808C203.328 41.808 204.456 42.256 205.272 43.152C206.104 44.048 206.52 45.384 206.52 47.16V54H204V47.424C204 45.12 203.056 43.968 201.168 43.968C200.224 43.968 199.44 44.304 198.816 44.976C198.208 45.648 197.904 46.608 197.904 47.856V54H195.36ZM215.09 54.288C213.938 54.288 212.922 54.016 212.042 53.472C211.162 52.928 210.474 52.184 209.978 51.24C209.482 50.296 209.234 49.224 209.234 48.024C209.234 46.824 209.482 45.76 209.978 44.832C210.474 43.888 211.162 43.152 212.042 42.624C212.938 42.08 213.962 41.808 215.114 41.808C216.058 41.808 216.882 41.992 217.586 42.36C218.306 42.728 218.866 43.248 219.266 43.92V36.72H221.81V54H219.53L219.266 52.152C218.882 52.712 218.354 53.208 217.682 53.64C217.01 54.072 216.146 54.288 215.09 54.288ZM215.546 52.08C216.634 52.08 217.522 51.704 218.21 50.952C218.914 50.2 219.266 49.232 219.266 48.048C219.266 46.848 218.914 45.88 218.21 45.144C217.522 44.392 216.634 44.016 215.546 44.016C214.458 44.016 213.562 44.392 212.858 45.144C212.154 45.88 211.802 46.848 211.802 48.048C211.802 48.832 211.962 49.528 212.282 50.136C212.602 50.744 213.042 51.224 213.602 51.576C214.178 51.912 214.826 52.08 215.546 52.08ZM238.948 54.288C237.284 54.288 235.844 53.928 234.628 53.208C233.428 52.472 232.5 51.456 231.844 50.16C231.188 48.848 230.86 47.336 230.86 45.624C230.86 43.896 231.188 42.384 231.844 41.088C232.5 39.776 233.428 38.752 234.628 38.016C235.844 37.28 237.284 36.912 238.948 36.912C240.916 36.912 242.524 37.392 243.772 38.352C245.02 39.312 245.812 40.656 246.148 42.384H243.316C243.092 41.408 242.612 40.632 241.876 40.056C241.14 39.48 240.156 39.192 238.924 39.192C237.244 39.192 235.916 39.768 234.94 40.92C233.964 42.056 233.476 43.624 233.476 45.624C233.476 47.608 233.964 49.168 234.94 50.304C235.916 51.44 237.244 52.008 238.924 52.008C240.156 52.008 241.14 51.736 241.876 51.192C242.612 50.648 243.092 49.904 243.316 48.96H246.148C245.812 50.624 245.02 51.928 243.772 52.872C242.524 53.816 240.916 54.288 238.948 54.288ZM248.999 54V36.72H251.543V44.016C251.943 43.328 252.495 42.792 253.199 42.408C253.919 42.008 254.711 41.808 255.575 41.808C256.999 41.808 258.119 42.256 258.935 43.152C259.751 44.048 260.159 45.384 260.159 47.16V54H257.639V47.424C257.639 45.12 256.719 43.968 254.879 43.968C253.919 43.968 253.119 44.304 252.479 44.976C251.855 45.648 251.543 46.608 251.543 47.856V54H248.999ZM267.337 54.288C266.329 54.288 265.497 54.12 264.841 53.784C264.185 53.448 263.697 53.008 263.377 52.464C263.057 51.904 262.897 51.296 262.897 50.64C262.897 49.488 263.345 48.576 264.241 47.904C265.137 47.232 266.417 46.896 268.081 46.896H271.201V46.68C271.201 45.752 270.945 45.056 270.433 44.592C269.937 44.128 269.289 43.896 268.489 43.896C267.785 43.896 267.169 44.072 266.641 44.424C266.129 44.76 265.817 45.264 265.705 45.936H263.161C263.241 45.072 263.529 44.336 264.025 43.728C264.537 43.104 265.177 42.632 265.945 42.312C266.729 41.976 267.585 41.808 268.513 41.808C270.177 41.808 271.465 42.248 272.377 43.128C273.289 43.992 273.745 45.176 273.745 46.68V54H271.537L271.321 51.96C270.985 52.616 270.497 53.168 269.857 53.616C269.217 54.064 268.377 54.288 267.337 54.288ZM267.841 52.224C268.529 52.224 269.105 52.064 269.569 51.744C270.049 51.408 270.417 50.968 270.673 50.424C270.945 49.88 271.113 49.28 271.177 48.624H268.345C267.337 48.624 266.617 48.8 266.185 49.152C265.769 49.504 265.561 49.944 265.561 50.472C265.561 51.016 265.761 51.448 266.161 51.768C266.577 52.072 267.137 52.224 267.841 52.224ZM276.861 54V36.72H279.405V47.016L283.965 42.096H287.013L281.949 47.496L287.757 54H284.541L279.405 47.904V54H276.861ZM289.878 54V42.096H292.158L292.374 44.352C292.79 43.568 293.366 42.952 294.102 42.504C294.854 42.04 295.758 41.808 296.814 41.808V44.472H296.118C295.414 44.472 294.782 44.592 294.222 44.832C293.678 45.056 293.238 45.448 292.902 46.008C292.582 46.552 292.422 47.312 292.422 48.288V54H289.878ZM303.178 54.288C302.17 54.288 301.338 54.12 300.682 53.784C300.026 53.448 299.538 53.008 299.218 52.464C298.898 51.904 298.738 51.296 298.738 50.64C298.738 49.488 299.186 48.576 300.082 47.904C300.978 47.232 302.258 46.896 303.922 46.896H307.042V46.68C307.042 45.752 306.786 45.056 306.274 44.592C305.778 44.128 305.13 43.896 304.33 43.896C303.626 43.896 303.01 44.072 302.482 44.424C301.97 44.76 301.658 45.264 301.546 45.936H299.002C299.082 45.072 299.37 44.336 299.866 43.728C300.378 43.104 301.018 42.632 301.786 42.312C302.57 41.976 303.426 41.808 304.354 41.808C306.018 41.808 307.306 42.248 308.218 43.128C309.13 43.992 309.586 45.176 309.586 46.68V54H307.378L307.162 51.96C306.826 52.616 306.338 53.168 305.698 53.616C305.058 54.064 304.218 54.288 303.178 54.288ZM303.682 52.224C304.37 52.224 304.946 52.064 305.41 51.744C305.89 51.408 306.258 50.968 306.514 50.424C306.786 49.88 306.954 49.28 307.018 48.624H304.186C303.178 48.624 302.458 48.8 302.026 49.152C301.61 49.504 301.402 49.944 301.402 50.472C301.402 51.016 301.602 51.448 302.002 51.768C302.418 52.072 302.978 52.224 303.682 52.224ZM312.798 54V37.2H318.678C319.99 37.2 321.078 37.424 321.942 37.872C322.806 38.304 323.446 38.904 323.862 39.672C324.294 40.424 324.51 41.28 324.51 42.24C324.51 43.152 324.302 43.992 323.886 44.76C323.486 45.512 322.854 46.112 321.99 46.56C321.126 47.008 320.022 47.232 318.678 47.232H315.342V54H312.798ZM315.342 45.144H318.558C319.758 45.144 320.614 44.888 321.126 44.376C321.654 43.848 321.918 43.136 321.918 42.24C321.918 41.312 321.654 40.592 321.126 40.08C320.614 39.552 319.758 39.288 318.558 39.288H315.342V45.144ZM330.454 54.288C329.446 54.288 328.614 54.12 327.958 53.784C327.302 53.448 326.814 53.008 326.494 52.464C326.174 51.904 326.014 51.296 326.014 50.64C326.014 49.488 326.462 48.576 327.358 47.904C328.254 47.232 329.534 46.896 331.198 46.896H334.318V46.68C334.318 45.752 334.062 45.056 333.55 44.592C333.054 44.128 332.406 43.896 331.606 43.896C330.902 43.896 330.286 44.072 329.758 44.424C329.246 44.76 328.934 45.264 328.822 45.936H326.278C326.358 45.072 326.646 44.336 327.142 43.728C327.654 43.104 328.294 42.632 329.062 42.312C329.846 41.976 330.702 41.808 331.63 41.808C333.294 41.808 334.582 42.248 335.494 43.128C336.406 43.992 336.862 45.176 336.862 46.68V54H334.654L334.438 51.96C334.102 52.616 333.614 53.168 332.974 53.616C332.334 54.064 331.494 54.288 330.454 54.288ZM330.958 52.224C331.646 52.224 332.222 52.064 332.686 51.744C333.166 51.408 333.534 50.968 333.79 50.424C334.062 49.88 334.23 49.28 334.294 48.624H331.462C330.454 48.624 329.734 48.8 329.302 49.152C328.886 49.504 328.678 49.944 328.678 50.472C328.678 51.016 328.878 51.448 329.278 51.768C329.694 52.072 330.254 52.224 330.958 52.224ZM340.995 59.28L343.851 53.016H343.155L338.451 42.096H341.211L344.859 50.904L348.675 42.096H351.363L343.683 59.28H340.995ZM353.605 54V42.096H355.885L356.101 44.352C356.517 43.568 357.093 42.952 357.829 42.504C358.581 42.04 359.485 41.808 360.541 41.808V44.472H359.845C359.141 44.472 358.509 44.592 357.949 44.832C357.405 45.056 356.965 45.448 356.629 46.008C356.309 46.552 356.149 47.312 356.149 48.288V54H353.605ZM368.112 54.288C366.976 54.288 365.952 54.032 365.04 53.52C364.144 52.992 363.432 52.264 362.904 51.336C362.376 50.392 362.112 49.296 362.112 48.048C362.112 46.8 362.376 45.712 362.904 44.784C363.448 43.84 364.176 43.112 365.088 42.6C366 42.072 367.016 41.808 368.136 41.808C369.272 41.808 370.288 42.072 371.184 42.6C372.096 43.112 372.816 43.84 373.344 44.784C373.888 45.712 374.16 46.8 374.16 48.048C374.16 49.296 373.888 50.392 373.344 51.336C372.816 52.264 372.096 52.992 371.184 53.52C370.272 54.032 369.248 54.288 368.112 54.288ZM368.112 52.104C368.72 52.104 369.28 51.952 369.792 51.648C370.32 51.344 370.744 50.896 371.064 50.304C371.384 49.696 371.544 48.944 371.544 48.048C371.544 47.152 371.384 46.408 371.064 45.816C370.76 45.208 370.344 44.752 369.816 44.448C369.304 44.144 368.744 43.992 368.136 43.992C367.528 43.992 366.96 44.144 366.432 44.448C365.92 44.752 365.504 45.208 365.184 45.816C364.864 46.408 364.704 47.152 364.704 48.048C364.704 48.944 364.864 49.696 365.184 50.304C365.504 50.896 365.92 51.344 366.432 51.648C366.944 51.952 367.504 52.104 368.112 52.104ZM377.061 54V36.72H379.605V54H377.061ZM382.977 54V36.72H385.521V54H382.977ZM389.9 54.144C389.42 54.144 389.02 53.992 388.7 53.688C388.396 53.368 388.244 52.992 388.244 52.56C388.244 52.112 388.396 51.736 388.7 51.432C389.02 51.112 389.42 50.952 389.9 50.952C390.38 50.952 390.772 51.112 391.076 51.432C391.38 51.736 391.532 52.112 391.532 52.56C391.532 52.992 391.38 53.368 391.076 53.688C390.772 53.992 390.38 54.144 389.9 54.144Z" fill="white"/>
</svg>
