<svg width="381" height="96" viewBox="0 0 381 96" fill="none" xmlns="http://www.w3.org/2000/svg">
<path d="M11.5056 18V1.2H17.3856C18.6976 1.2 19.7856 1.424 20.6496 1.872C21.5136 2.304 22.1536 2.904 22.5696 3.672C23.0016 4.424 23.2176 5.28 23.2176 6.24C23.2176 7.152 23.0096 7.992 22.5936 8.76C22.1936 9.512 21.5616 10.112 20.6976 10.56C19.8336 11.008 18.7296 11.232 17.3856 11.232H14.0496V18H11.5056ZM14.0496 9.144H17.2656C18.4656 9.144 19.3216 8.888 19.8336 8.376C20.3616 7.848 20.6256 7.136 20.6256 6.24C20.6256 5.312 20.3616 4.592 19.8336 4.08C19.3216 3.552 18.4656 3.288 17.2656 3.288H14.0496V9.144ZM30.6979 18.288C29.5299 18.288 28.4899 18.032 27.5779 17.52C26.6819 16.992 25.9779 16.264 25.4659 15.336C24.9539 14.408 24.6979 13.328 24.6979 12.096C24.6979 10.848 24.9459 9.752 25.4419 8.808C25.9539 7.864 26.6579 7.128 27.5539 6.6C28.4659 6.072 29.5219 5.808 30.7219 5.808C31.8899 5.808 32.9059 6.072 33.7699 6.6C34.6339 7.112 35.3059 7.8 35.7859 8.664C36.2659 9.528 36.5059 10.48 36.5059 11.52C36.5059 11.68 36.4979 11.856 36.4819 12.048C36.4819 12.224 36.4739 12.424 36.4579 12.648H27.1939C27.2739 13.8 27.6499 14.68 28.3219 15.288C29.0099 15.88 29.8019 16.176 30.6979 16.176C31.4179 16.176 32.0179 16.016 32.4979 15.696C32.9939 15.36 33.3619 14.912 33.6019 14.352H36.1459C35.8259 15.472 35.1859 16.408 34.2259 17.16C33.2819 17.912 32.1059 18.288 30.6979 18.288ZM30.6979 7.896C29.8499 7.896 29.0979 8.152 28.4419 8.664C27.7859 9.16 27.3859 9.912 27.2419 10.92H33.9619C33.9139 9.992 33.5859 9.256 32.9779 8.712C32.3699 8.168 31.6099 7.896 30.6979 7.896ZM44.8635 18.288C43.7275 18.288 42.7035 18.032 41.7915 17.52C40.8955 16.992 40.1835 16.264 39.6555 15.336C39.1275 14.392 38.8635 13.296 38.8635 12.048C38.8635 10.8 39.1275 9.712 39.6555 8.784C40.1995 7.84 40.9275 7.112 41.8395 6.6C42.7515 6.072 43.7675 5.808 44.8875 5.808C46.0235 5.808 47.0395 6.072 47.9355 6.6C48.8475 7.112 49.5675 7.84 50.0955 8.784C50.6395 9.712 50.9115 10.8 50.9115 12.048C50.9115 13.296 50.6395 14.392 50.0955 15.336C49.5675 16.264 48.8475 16.992 47.9355 17.52C47.0235 18.032 45.9995 18.288 44.8635 18.288ZM44.8635 16.104C45.4715 16.104 46.0315 15.952 46.5435 15.648C47.0715 15.344 47.4955 14.896 47.8155 14.304C48.1355 13.696 48.2955 12.944 48.2955 12.048C48.2955 11.152 48.1355 10.408 47.8155 9.816C47.5115 9.208 47.0955 8.752 46.5675 8.448C46.0555 8.144 45.4955 7.992 44.8875 7.992C44.2795 7.992 43.7115 8.144 43.1835 8.448C42.6715 8.752 42.2555 9.208 41.9355 9.816C41.6155 10.408 41.4555 11.152 41.4555 12.048C41.4555 12.944 41.6155 13.696 41.9355 14.304C42.2555 14.896 42.6715 15.344 43.1835 15.648C43.6955 15.952 44.2555 16.104 44.8635 16.104ZM53.8127 23.28V6.096H56.0927L56.3567 7.944C56.7407 7.384 57.2687 6.888 57.9407 6.456C58.6127 6.024 59.4767 5.808 60.5327 5.808C61.6847 5.808 62.7007 6.08 63.5807 6.624C64.4607 7.168 65.1487 7.912 65.6447 8.856C66.1567 9.8 66.4127 10.872 66.4127 12.072C66.4127 13.272 66.1567 14.344 65.6447 15.288C65.1487 16.216 64.4607 16.952 63.5807 17.496C62.7007 18.024 61.6767 18.288 60.5087 18.288C59.5807 18.288 58.7567 18.104 58.0367 17.736C57.3327 17.368 56.7727 16.848 56.3567 16.176V23.28H53.8127ZM60.0767 16.08C61.1647 16.08 62.0607 15.712 62.7647 14.976C63.4687 14.224 63.8207 13.248 63.8207 12.048C63.8207 11.264 63.6607 10.568 63.3407 9.96C63.0207 9.352 62.5807 8.88 62.0207 8.544C61.4607 8.192 60.8127 8.016 60.0767 8.016C58.9887 8.016 58.0927 8.392 57.3887 9.144C56.7007 9.896 56.3567 10.864 56.3567 12.048C56.3567 13.248 56.7007 14.224 57.3887 14.976C58.0927 15.712 58.9887 16.08 60.0767 16.08ZM69.3143 18V0.719999H71.8583V18H69.3143ZM80.7979 18.288C79.6299 18.288 78.5899 18.032 77.6779 17.52C76.7819 16.992 76.0779 16.264 75.5659 15.336C75.0539 14.408 74.7979 13.328 74.7979 12.096C74.7979 10.848 75.0459 9.752 75.5419 8.808C76.0539 7.864 76.7579 7.128 77.6539 6.6C78.5659 6.072 79.6219 5.808 80.8219 5.808C81.9899 5.808 83.0059 6.072 83.8699 6.6C84.7339 7.112 85.4059 7.8 85.8859 8.664C86.3659 9.528 86.6059 10.48 86.6059 11.52C86.6059 11.68 86.5979 11.856 86.5819 12.048C86.5819 12.224 86.5739 12.424 86.5579 12.648H77.2939C77.3739 13.8 77.7499 14.68 78.4219 15.288C79.1099 15.88 79.9019 16.176 80.7979 16.176C81.5179 16.176 82.1179 16.016 82.5979 15.696C83.0939 15.36 83.4619 14.912 83.7019 14.352H86.2459C85.9259 15.472 85.2859 16.408 84.3259 17.16C83.3819 17.912 82.2059 18.288 80.7979 18.288ZM80.7979 7.896C79.9499 7.896 79.1979 8.152 78.5419 8.664C77.8859 9.16 77.4859 9.912 77.3419 10.92H84.0619C84.0139 9.992 83.6859 9.256 83.0779 8.712C82.4699 8.168 81.7099 7.896 80.7979 7.896ZM101.232 18.288C100.064 18.288 99.0164 18.024 98.0884 17.496C97.1764 16.968 96.4564 16.24 95.9284 15.312C95.4164 14.368 95.1604 13.28 95.1604 12.048C95.1604 10.816 95.4164 9.736 95.9284 8.808C96.4564 7.864 97.1764 7.128 98.0884 6.6C99.0164 6.072 100.064 5.808 101.232 5.808C102.704 5.808 103.936 6.192 104.928 6.96C105.936 7.728 106.584 8.768 106.872 10.08H104.208C104.048 9.424 103.696 8.912 103.152 8.544C102.608 8.176 101.968 7.992 101.232 7.992C100.608 7.992 100.032 8.152 99.5044 8.472C98.9764 8.776 98.5524 9.232 98.2324 9.84C97.9124 10.432 97.7524 11.168 97.7524 12.048C97.7524 12.928 97.9124 13.672 98.2324 14.28C98.5524 14.872 98.9764 15.328 99.5044 15.648C100.032 15.968 100.608 16.128 101.232 16.128C101.968 16.128 102.608 15.944 103.152 15.576C103.696 15.208 104.048 14.688 104.208 14.016H106.872C106.6 15.296 105.96 16.328 104.952 17.112C103.944 17.896 102.704 18.288 101.232 18.288ZM113.813 18.288C112.805 18.288 111.973 18.12 111.317 17.784C110.661 17.448 110.173 17.008 109.853 16.464C109.533 15.904 109.373 15.296 109.373 14.64C109.373 13.488 109.821 12.576 110.717 11.904C111.613 11.232 112.893 10.896 114.557 10.896H117.677V10.68C117.677 9.752 117.421 9.056 116.909 8.592C116.413 8.128 115.765 7.896 114.965 7.896C114.261 7.896 113.645 8.072 113.117 8.424C112.605 8.76 112.293 9.264 112.181 9.936H109.637C109.717 9.072 110.005 8.336 110.501 7.728C111.013 7.104 111.653 6.632 112.421 6.312C113.205 5.976 114.061 5.808 114.989 5.808C116.653 5.808 117.941 6.248 118.853 7.128C119.765 7.992 120.221 9.176 120.221 10.68V18H118.013L117.797 15.96C117.461 16.616 116.973 17.168 116.333 17.616C115.693 18.064 114.853 18.288 113.813 18.288ZM114.317 16.224C115.005 16.224 115.581 16.064 116.045 15.744C116.525 15.408 116.893 14.968 117.149 14.424C117.421 13.88 117.589 13.28 117.653 12.624H114.821C113.813 12.624 113.093 12.8 112.661 13.152C112.245 13.504 112.037 13.944 112.037 14.472C112.037 15.016 112.237 15.448 112.637 15.768C113.053 16.072 113.613 16.224 114.317 16.224ZM123.338 18V6.096H125.594L125.786 8.184C126.154 7.448 126.69 6.872 127.394 6.456C128.114 6.024 128.938 5.808 129.866 5.808C131.306 5.808 132.434 6.256 133.25 7.152C134.082 8.048 134.498 9.384 134.498 11.16V18H131.978V11.424C131.978 9.12 131.034 7.968 129.146 7.968C128.202 7.968 127.418 8.304 126.794 8.976C126.186 9.648 125.882 10.608 125.882 11.856V18H123.338ZM143.841 18V6.096H146.121L146.337 8.352C146.753 7.568 147.329 6.952 148.065 6.504C148.817 6.04 149.721 5.808 150.777 5.808V8.472H150.081C149.377 8.472 148.745 8.592 148.185 8.832C147.641 9.056 147.201 9.448 146.865 10.008C146.545 10.552 146.385 11.312 146.385 12.288V18H143.841ZM158.348 18.288C157.18 18.288 156.14 18.032 155.228 17.52C154.332 16.992 153.628 16.264 153.116 15.336C152.604 14.408 152.348 13.328 152.348 12.096C152.348 10.848 152.596 9.752 153.092 8.808C153.604 7.864 154.308 7.128 155.204 6.6C156.116 6.072 157.172 5.808 158.372 5.808C159.54 5.808 160.556 6.072 161.42 6.6C162.284 7.112 162.956 7.8 163.436 8.664C163.916 9.528 164.156 10.48 164.156 11.52C164.156 11.68 164.148 11.856 164.132 12.048C164.132 12.224 164.124 12.424 164.108 12.648H154.844C154.924 13.8 155.3 14.68 155.972 15.288C156.66 15.88 157.452 16.176 158.348 16.176C159.068 16.176 159.668 16.016 160.148 15.696C160.644 15.36 161.012 14.912 161.252 14.352H163.796C163.476 15.472 162.836 16.408 161.876 17.16C160.932 17.912 159.756 18.288 158.348 18.288ZM158.348 7.896C157.5 7.896 156.748 8.152 156.092 8.664C155.436 9.16 155.036 9.912 154.892 10.92H161.612C161.564 9.992 161.236 9.256 160.628 8.712C160.02 8.168 159.26 7.896 158.348 7.896ZM170.978 18.288C169.97 18.288 169.138 18.12 168.482 17.784C167.826 17.448 167.338 17.008 167.018 16.464C166.698 15.904 166.538 15.296 166.538 14.64C166.538 13.488 166.986 12.576 167.882 11.904C168.778 11.232 170.058 10.896 171.722 10.896H174.842V10.68C174.842 9.752 174.586 9.056 174.074 8.592C173.578 8.128 172.93 7.896 172.13 7.896C171.426 7.896 170.81 8.072 170.282 8.424C169.77 8.76 169.458 9.264 169.346 9.936H166.802C166.882 9.072 167.17 8.336 167.666 7.728C168.178 7.104 168.818 6.632 169.586 6.312C170.37 5.976 171.226 5.808 172.154 5.808C173.818 5.808 175.106 6.248 176.018 7.128C176.93 7.992 177.386 9.176 177.386 10.68V18H175.178L174.962 15.96C174.626 16.616 174.138 17.168 173.498 17.616C172.858 18.064 172.018 18.288 170.978 18.288ZM171.482 16.224C172.17 16.224 172.746 16.064 173.21 15.744C173.69 15.408 174.058 14.968 174.314 14.424C174.586 13.88 174.754 13.28 174.818 12.624H171.986C170.978 12.624 170.258 12.8 169.826 13.152C169.41 13.504 169.202 13.944 169.202 14.472C169.202 15.016 169.402 15.448 169.802 15.768C170.218 16.072 170.778 16.224 171.482 16.224ZM186.142 18.288C184.974 18.288 183.926 18.024 182.998 17.496C182.086 16.968 181.366 16.24 180.838 15.312C180.326 14.368 180.07 13.28 180.07 12.048C180.07 10.816 180.326 9.736 180.838 8.808C181.366 7.864 182.086 7.128 182.998 6.6C183.926 6.072 184.974 5.808 186.142 5.808C187.614 5.808 188.846 6.192 189.838 6.96C190.846 7.728 191.494 8.768 191.782 10.08H189.118C188.958 9.424 188.606 8.912 188.062 8.544C187.518 8.176 186.878 7.992 186.142 7.992C185.518 7.992 184.942 8.152 184.414 8.472C183.886 8.776 183.462 9.232 183.142 9.84C182.822 10.432 182.662 11.168 182.662 12.048C182.662 12.928 182.822 13.672 183.142 14.28C183.462 14.872 183.886 15.328 184.414 15.648C184.942 15.968 185.518 16.128 186.142 16.128C186.878 16.128 187.518 15.944 188.062 15.576C188.606 15.208 188.958 14.688 189.118 14.016H191.782C191.51 15.296 190.87 16.328 189.862 17.112C188.854 17.896 187.614 18.288 186.142 18.288ZM194.691 18V0.719999H197.235V8.016C197.635 7.328 198.187 6.792 198.891 6.408C199.611 6.008 200.403 5.808 201.267 5.808C202.691 5.808 203.811 6.256 204.627 7.152C205.443 8.048 205.851 9.384 205.851 11.16V18H203.331V11.424C203.331 9.12 202.411 7.968 200.571 7.968C199.611 7.968 198.811 8.304 198.171 8.976C197.547 9.648 197.235 10.608 197.235 11.856V18H194.691ZM220.762 18.288C219.626 18.288 218.602 18.032 217.69 17.52C216.794 16.992 216.082 16.264 215.554 15.336C215.026 14.392 214.762 13.296 214.762 12.048C214.762 10.8 215.026 9.712 215.554 8.784C216.098 7.84 216.826 7.112 217.738 6.6C218.65 6.072 219.666 5.808 220.786 5.808C221.922 5.808 222.938 6.072 223.834 6.6C224.746 7.112 225.466 7.84 225.994 8.784C226.538 9.712 226.81 10.8 226.81 12.048C226.81 13.296 226.538 14.392 225.994 15.336C225.466 16.264 224.746 16.992 223.834 17.52C222.922 18.032 221.898 18.288 220.762 18.288ZM220.762 16.104C221.37 16.104 221.93 15.952 222.442 15.648C222.97 15.344 223.394 14.896 223.714 14.304C224.034 13.696 224.194 12.944 224.194 12.048C224.194 11.152 224.034 10.408 223.714 9.816C223.41 9.208 222.994 8.752 222.466 8.448C221.954 8.144 221.394 7.992 220.786 7.992C220.178 7.992 219.61 8.144 219.082 8.448C218.57 8.752 218.154 9.208 217.834 9.816C217.514 10.408 217.354 11.152 217.354 12.048C217.354 12.944 217.514 13.696 217.834 14.304C218.154 14.896 218.57 15.344 219.082 15.648C219.594 15.952 220.154 16.104 220.762 16.104ZM234.103 18.288C232.663 18.288 231.527 17.84 230.695 16.944C229.879 16.048 229.471 14.712 229.471 12.936V6.096H232.015V12.672C232.015 14.976 232.959 16.128 234.847 16.128C235.791 16.128 236.567 15.792 237.175 15.12C237.783 14.448 238.087 13.488 238.087 12.24V6.096H240.631V18H238.375L238.183 15.912C237.815 16.648 237.271 17.232 236.551 17.664C235.847 18.08 235.031 18.288 234.103 18.288ZM249.009 18C247.841 18 246.913 17.72 246.225 17.16C245.537 16.584 245.193 15.568 245.193 14.112V8.232H243.153V6.096H245.193L245.505 3.072H247.737V6.096H251.097V8.232H247.737V14.112C247.737 14.768 247.873 15.224 248.145 15.48C248.433 15.72 248.921 15.84 249.609 15.84H250.977V18H249.009ZM260.667 18V8.232H258.963V6.096H260.667V4.368C260.667 3.072 260.987 2.144 261.627 1.584C262.283 1.008 263.203 0.719999 264.387 0.719999H265.635V2.88H264.771C264.211 2.88 263.811 3 263.571 3.24C263.331 3.464 263.211 3.848 263.211 4.392V6.096H265.947V8.232H263.211V18H260.667ZM273.614 18.288C272.478 18.288 271.454 18.032 270.542 17.52C269.646 16.992 268.934 16.264 268.406 15.336C267.878 14.392 267.614 13.296 267.614 12.048C267.614 10.8 267.878 9.712 268.406 8.784C268.95 7.84 269.678 7.112 270.59 6.6C271.502 6.072 272.518 5.808 273.638 5.808C274.774 5.808 275.79 6.072 276.686 6.6C277.598 7.112 278.318 7.84 278.846 8.784C279.39 9.712 279.661 10.8 279.661 12.048C279.661 13.296 279.39 14.392 278.846 15.336C278.318 16.264 277.598 16.992 276.686 17.52C275.774 18.032 274.75 18.288 273.614 18.288ZM273.614 16.104C274.222 16.104 274.782 15.952 275.294 15.648C275.822 15.344 276.246 14.896 276.566 14.304C276.886 13.696 277.046 12.944 277.046 12.048C277.046 11.152 276.886 10.408 276.566 9.816C276.262 9.208 275.846 8.752 275.318 8.448C274.806 8.144 274.246 7.992 273.638 7.992C273.03 7.992 272.462 8.144 271.934 8.448C271.422 8.752 271.006 9.208 270.686 9.816C270.366 10.408 270.206 11.152 270.206 12.048C270.206 12.944 270.366 13.696 270.686 14.304C271.006 14.896 271.422 15.344 271.934 15.648C272.446 15.952 273.006 16.104 273.614 16.104ZM282.563 18V6.096H284.843L285.059 8.352C285.475 7.568 286.051 6.952 286.787 6.504C287.539 6.04 288.443 5.808 289.499 5.808V8.472H288.803C288.099 8.472 287.467 8.592 286.907 8.832C286.363 9.056 285.923 9.448 285.587 10.008C285.267 10.552 285.107 11.312 285.107 12.288V18H282.563ZM298.027 18V0.719999H300.571V8.016C300.971 7.328 301.523 6.792 302.227 6.408C302.947 6.008 303.739 5.808 304.603 5.808C306.027 5.808 307.147 6.256 307.963 7.152C308.779 8.048 309.187 9.384 309.187 11.16V18H306.667V11.424C306.667 9.12 305.747 7.968 303.907 7.968C302.947 7.968 302.147 8.304 301.507 8.976C300.883 9.648 300.571 10.608 300.571 11.856V18H298.027ZM317.901 18.288C316.733 18.288 315.693 18.032 314.781 17.52C313.885 16.992 313.181 16.264 312.669 15.336C312.157 14.408 311.901 13.328 311.901 12.096C311.901 10.848 312.149 9.752 312.645 8.808C313.157 7.864 313.861 7.128 314.757 6.6C315.669 6.072 316.725 5.808 317.925 5.808C319.093 5.808 320.109 6.072 320.973 6.6C321.837 7.112 322.509 7.8 322.989 8.664C323.469 9.528 323.709 10.48 323.709 11.52C323.709 11.68 323.701 11.856 323.685 12.048C323.685 12.224 323.677 12.424 323.661 12.648H314.397C314.477 13.8 314.853 14.68 315.525 15.288C316.213 15.88 317.005 16.176 317.901 16.176C318.621 16.176 319.221 16.016 319.701 15.696C320.197 15.36 320.565 14.912 320.805 14.352H323.349C323.029 15.472 322.389 16.408 321.429 17.16C320.485 17.912 319.309 18.288 317.901 18.288ZM317.901 7.896C317.053 7.896 316.301 8.152 315.645 8.664C314.989 9.16 314.589 9.912 314.445 10.92H321.165C321.117 9.992 320.789 9.256 320.181 8.712C319.573 8.168 318.813 7.896 317.901 7.896ZM326.499 18V0.719999H329.043V18H326.499ZM332.414 23.28V6.096H334.694L334.958 7.944C335.342 7.384 335.87 6.888 336.542 6.456C337.214 6.024 338.078 5.808 339.134 5.808C340.286 5.808 341.302 6.08 342.182 6.624C343.062 7.168 343.75 7.912 344.246 8.856C344.758 9.8 345.014 10.872 345.014 12.072C345.014 13.272 344.758 14.344 344.246 15.288C343.75 16.216 343.062 16.952 342.182 17.496C341.302 18.024 340.278 18.288 339.11 18.288C338.182 18.288 337.358 18.104 336.638 17.736C335.934 17.368 335.374 16.848 334.958 16.176V23.28H332.414ZM338.678 16.08C339.766 16.08 340.662 15.712 341.366 14.976C342.07 14.224 342.422 13.248 342.422 12.048C342.422 11.264 342.262 10.568 341.942 9.96C341.622 9.352 341.182 8.88 340.622 8.544C340.062 8.192 339.414 8.016 338.678 8.016C337.59 8.016 336.694 8.392 335.99 9.144C335.302 9.896 334.958 10.864 334.958 12.048C334.958 13.248 335.302 14.224 335.99 14.976C336.694 15.712 337.59 16.08 338.678 16.08ZM360.809 18.288C359.881 18.288 359.057 18.104 358.337 17.736C357.633 17.368 357.073 16.848 356.657 16.176L356.393 18H354.113V0.719999H356.657V7.944C357.041 7.384 357.569 6.888 358.241 6.456C358.913 6.024 359.777 5.808 360.833 5.808C361.985 5.808 363.001 6.08 363.881 6.624C364.761 7.168 365.449 7.912 365.945 8.856C366.457 9.8 366.713 10.872 366.713 12.072C366.713 13.272 366.457 14.344 365.945 15.288C365.449 16.216 364.761 16.952 363.881 17.496C363.001 18.024 361.977 18.288 360.809 18.288ZM360.377 16.08C361.465 16.08 362.361 15.712 363.065 14.976C363.769 14.224 364.121 13.248 364.121 12.048C364.121 11.264 363.961 10.568 363.641 9.96C363.321 9.352 362.881 8.88 362.321 8.544C361.761 8.192 361.113 8.016 360.377 8.016C359.289 8.016 358.393 8.392 357.689 9.144C357.001 9.896 356.657 10.864 356.657 12.048C356.657 13.248 357.001 14.224 357.689 14.976C358.393 15.712 359.289 16.08 360.377 16.08ZM369.998 23.28L372.854 17.016H372.158L367.454 6.096H370.214L373.862 14.904L377.678 6.096H380.366L372.686 23.28H369.998ZM6.86363 54.288C5.69563 54.288 4.64763 54.024 3.71963 53.496C2.80763 52.968 2.08763 52.24 1.55963 51.312C1.04763 50.368 0.791631 49.28 0.791631 48.048C0.791631 46.816 1.04763 45.736 1.55963 44.808C2.08763 43.864 2.80763 43.128 3.71963 42.6C4.64763 42.072 5.69563 41.808 6.86363 41.808C8.33563 41.808 9.56763 42.192 10.5596 42.96C11.5676 43.728 12.2156 44.768 12.5036 46.08H9.83963C9.67963 45.424 9.32763 44.912 8.78363 44.544C8.23963 44.176 7.59963 43.992 6.86363 43.992C6.23963 43.992 5.66363 44.152 5.13563 44.472C4.60763 44.776 4.18363 45.232 3.86363 45.84C3.54363 46.432 3.38363 47.168 3.38363 48.048C3.38363 48.928 3.54363 49.672 3.86363 50.28C4.18363 50.872 4.60763 51.328 5.13563 51.648C5.66363 51.968 6.23963 52.128 6.86363 52.128C7.59963 52.128 8.23963 51.944 8.78363 51.576C9.32763 51.208 9.67963 50.688 9.83963 50.016H12.5036C12.2316 51.296 11.5916 52.328 10.5836 53.112C9.57563 53.896 8.33563 54.288 6.86363 54.288ZM20.9807 54.288C19.8447 54.288 18.8207 54.032 17.9087 53.52C17.0127 52.992 16.3007 52.264 15.7727 51.336C15.2447 50.392 14.9807 49.296 14.9807 48.048C14.9807 46.8 15.2447 45.712 15.7727 44.784C16.3167 43.84 17.0447 43.112 17.9567 42.6C18.8687 42.072 19.8847 41.808 21.0047 41.808C22.1407 41.808 23.1567 42.072 24.0527 42.6C24.9647 43.112 25.6847 43.84 26.2127 44.784C26.7567 45.712 27.0287 46.8 27.0287 48.048C27.0287 49.296 26.7567 50.392 26.2127 51.336C25.6847 52.264 24.9647 52.992 24.0527 53.52C23.1407 54.032 22.1167 54.288 20.9807 54.288ZM20.9807 52.104C21.5887 52.104 22.1487 51.952 22.6607 51.648C23.1887 51.344 23.6127 50.896 23.9327 50.304C24.2527 49.696 24.4127 48.944 24.4127 48.048C24.4127 47.152 24.2527 46.408 23.9327 45.816C23.6287 45.208 23.2127 44.752 22.6847 44.448C22.1727 44.144 21.6127 43.992 21.0047 43.992C20.3967 43.992 19.8287 44.144 19.3007 44.448C18.7887 44.752 18.3727 45.208 18.0527 45.816C17.7327 46.408 17.5727 47.152 17.5727 48.048C17.5727 48.944 17.7327 49.696 18.0527 50.304C18.3727 50.896 18.7887 51.344 19.3007 51.648C19.8127 51.952 20.3727 52.104 20.9807 52.104ZM29.9299 54V42.096H32.1859L32.3779 44.184C32.7459 43.448 33.2819 42.872 33.9859 42.456C34.7059 42.024 35.5299 41.808 36.4579 41.808C37.8979 41.808 39.0259 42.256 39.8419 43.152C40.6739 44.048 41.0899 45.384 41.0899 47.16V54H38.5699V47.424C38.5699 45.12 37.6259 43.968 35.7379 43.968C34.7939 43.968 34.0099 44.304 33.3859 44.976C32.7779 45.648 32.4739 46.608 32.4739 47.856V54H29.9299ZM49.2281 54C48.0601 54 47.1321 53.72 46.4441 53.16C45.7561 52.584 45.4121 51.568 45.4121 50.112V44.232H43.3721V42.096H45.4121L45.7241 39.072H47.9561V42.096H51.3161V44.232H47.9561V50.112C47.9561 50.768 48.0921 51.224 48.3641 51.48C48.6521 51.72 49.1401 51.84 49.8281 51.84H51.1961V54H49.2281ZM58.1213 54.288C57.1133 54.288 56.2813 54.12 55.6253 53.784C54.9693 53.448 54.4813 53.008 54.1613 52.464C53.8413 51.904 53.6813 51.296 53.6813 50.64C53.6813 49.488 54.1293 48.576 55.0253 47.904C55.9213 47.232 57.2013 46.896 58.8653 46.896H61.9853V46.68C61.9853 45.752 61.7293 45.056 61.2173 44.592C60.7213 44.128 60.0733 43.896 59.2733 43.896C58.5693 43.896 57.9533 44.072 57.4253 44.424C56.9133 44.76 56.6013 45.264 56.4893 45.936H53.9453C54.0253 45.072 54.3133 44.336 54.8093 43.728C55.3213 43.104 55.9613 42.632 56.7293 42.312C57.5133 41.976 58.3693 41.808 59.2973 41.808C60.9613 41.808 62.2493 42.248 63.1613 43.128C64.0733 43.992 64.5293 45.176 64.5293 46.68V54H62.3213L62.1053 51.96C61.7693 52.616 61.2813 53.168 60.6413 53.616C60.0013 54.064 59.1613 54.288 58.1213 54.288ZM58.6253 52.224C59.3133 52.224 59.8893 52.064 60.3533 51.744C60.8333 51.408 61.2013 50.968 61.4573 50.424C61.7293 49.88 61.8973 49.28 61.9613 48.624H59.1293C58.1213 48.624 57.4013 48.8 56.9693 49.152C56.5533 49.504 56.3453 49.944 56.3453 50.472C56.3453 51.016 56.5453 51.448 56.9453 51.768C57.3613 52.072 57.9213 52.224 58.6253 52.224ZM73.2855 54.288C72.1175 54.288 71.0695 54.024 70.1415 53.496C69.2295 52.968 68.5095 52.24 67.9815 51.312C67.4695 50.368 67.2135 49.28 67.2135 48.048C67.2135 46.816 67.4695 45.736 67.9815 44.808C68.5095 43.864 69.2295 43.128 70.1415 42.6C71.0695 42.072 72.1175 41.808 73.2855 41.808C74.7575 41.808 75.9895 42.192 76.9815 42.96C77.9895 43.728 78.6375 44.768 78.9255 46.08H76.2615C76.1015 45.424 75.7495 44.912 75.2055 44.544C74.6615 44.176 74.0215 43.992 73.2855 43.992C72.6615 43.992 72.0855 44.152 71.5575 44.472C71.0295 44.776 70.6055 45.232 70.2855 45.84C69.9655 46.432 69.8055 47.168 69.8055 48.048C69.8055 48.928 69.9655 49.672 70.2855 50.28C70.6055 50.872 71.0295 51.328 71.5575 51.648C72.0855 51.968 72.6615 52.128 73.2855 52.128C74.0215 52.128 74.6615 51.944 75.2055 51.576C75.7495 51.208 76.1015 50.688 76.2615 50.016H78.9255C78.6535 51.296 78.0135 52.328 77.0055 53.112C75.9975 53.896 74.7575 54.288 73.2855 54.288ZM86.5922 54C85.4242 54 84.4962 53.72 83.8082 53.16C83.1202 52.584 82.7762 51.568 82.7762 50.112V44.232H80.7362V42.096H82.7762L83.0882 39.072H85.3202V42.096H88.6802V44.232H85.3202V50.112C85.3202 50.768 85.4562 51.224 85.7282 51.48C86.0162 51.72 86.5042 51.84 87.1922 51.84H88.5602V54H86.5922ZM92.8933 39.84C92.4133 39.84 92.0133 39.696 91.6933 39.408C91.3893 39.104 91.2373 38.728 91.2373 38.28C91.2373 37.832 91.3893 37.464 91.6933 37.176C92.0133 36.872 92.4133 36.72 92.8933 36.72C93.3733 36.72 93.7653 36.872 94.0693 37.176C94.3893 37.464 94.5493 37.832 94.5493 38.28C94.5493 38.728 94.3893 39.104 94.0693 39.408C93.7653 39.696 93.3733 39.84 92.8933 39.84ZM91.6213 54V42.096H94.1653V54H91.6213ZM97.6736 54V42.096H99.9296L100.122 44.184C100.49 43.448 101.026 42.872 101.73 42.456C102.45 42.024 103.274 41.808 104.202 41.808C105.642 41.808 106.77 42.256 107.586 43.152C108.418 44.048 108.834 45.384 108.834 47.16V54H106.314V47.424C106.314 45.12 105.37 43.968 103.482 43.968C102.538 43.968 101.754 44.304 101.13 44.976C100.522 45.648 100.218 46.608 100.218 47.856V54H97.6736ZM116.852 50.352C116.228 50.352 115.652 50.28 115.124 50.136L114.092 51.144C114.268 51.256 114.484 51.352 114.74 51.432C114.996 51.512 115.356 51.584 115.82 51.648C116.284 51.712 116.916 51.776 117.716 51.84C119.3 51.984 120.444 52.368 121.148 52.992C121.852 53.6 122.204 54.416 122.204 55.44C122.204 56.144 122.012 56.808 121.628 57.432C121.26 58.072 120.676 58.584 119.876 58.968C119.092 59.368 118.084 59.568 116.852 59.568C115.188 59.568 113.836 59.248 112.796 58.608C111.772 57.984 111.26 57.032 111.26 55.752C111.26 55.256 111.388 54.76 111.644 54.264C111.916 53.784 112.34 53.328 112.916 52.896C112.58 52.752 112.284 52.6 112.028 52.44C111.788 52.264 111.572 52.088 111.38 51.912V51.336L113.444 49.224C112.516 48.424 112.052 47.376 112.052 46.08C112.052 45.296 112.236 44.584 112.604 43.944C112.988 43.288 113.54 42.768 114.26 42.384C114.98 42 115.844 41.808 116.852 41.808C117.524 41.808 118.148 41.904 118.724 42.096H123.164V43.776L121.052 43.896C121.436 44.552 121.628 45.28 121.628 46.08C121.628 46.88 121.436 47.6 121.052 48.24C120.684 48.88 120.14 49.392 119.42 49.776C118.716 50.16 117.86 50.352 116.852 50.352ZM116.852 48.36C117.588 48.36 118.18 48.168 118.628 47.784C119.092 47.384 119.324 46.824 119.324 46.104C119.324 45.368 119.092 44.808 118.628 44.424C118.18 44.04 117.588 43.848 116.852 43.848C116.1 43.848 115.492 44.04 115.028 44.424C114.58 44.808 114.356 45.368 114.356 46.104C114.356 46.824 114.58 47.384 115.028 47.784C115.492 48.168 116.1 48.36 116.852 48.36ZM113.66 55.512C113.66 56.2 113.964 56.712 114.572 57.048C115.18 57.4 115.94 57.576 116.852 57.576C117.732 57.576 118.444 57.384 118.988 57C119.532 56.632 119.804 56.136 119.804 55.512C119.804 55.048 119.62 54.648 119.252 54.312C118.884 53.992 118.188 53.792 117.164 53.712C116.396 53.664 115.716 53.592 115.124 53.496C114.564 53.8 114.18 54.128 113.972 54.48C113.764 54.832 113.66 55.176 113.66 55.512ZM137.348 54.288C136.212 54.288 135.188 54.032 134.276 53.52C133.38 52.992 132.668 52.264 132.14 51.336C131.612 50.392 131.348 49.296 131.348 48.048C131.348 46.8 131.612 45.712 132.14 44.784C132.684 43.84 133.412 43.112 134.324 42.6C135.236 42.072 136.252 41.808 137.372 41.808C138.508 41.808 139.524 42.072 140.42 42.6C141.332 43.112 142.052 43.84 142.58 44.784C143.124 45.712 143.396 46.8 143.396 48.048C143.396 49.296 143.124 50.392 142.58 51.336C142.052 52.264 141.332 52.992 140.42 53.52C139.508 54.032 138.484 54.288 137.348 54.288ZM137.348 52.104C137.956 52.104 138.516 51.952 139.028 51.648C139.556 51.344 139.98 50.896 140.3 50.304C140.62 49.696 140.78 48.944 140.78 48.048C140.78 47.152 140.62 46.408 140.3 45.816C139.996 45.208 139.58 44.752 139.052 44.448C138.54 44.144 137.98 43.992 137.372 43.992C136.764 43.992 136.196 44.144 135.668 44.448C135.156 44.752 134.74 45.208 134.42 45.816C134.1 46.408 133.94 47.152 133.94 48.048C133.94 48.944 134.1 49.696 134.42 50.304C134.74 50.896 135.156 51.344 135.668 51.648C136.18 51.952 136.74 52.104 137.348 52.104ZM150.689 54.288C149.249 54.288 148.113 53.84 147.281 52.944C146.465 52.048 146.057 50.712 146.057 48.936V42.096H148.601V48.672C148.601 50.976 149.545 52.128 151.433 52.128C152.377 52.128 153.153 51.792 153.761 51.12C154.369 50.448 154.673 49.488 154.673 48.24V42.096H157.217V54H154.961L154.769 51.912C154.401 52.648 153.857 53.232 153.137 53.664C152.433 54.08 151.617 54.288 150.689 54.288ZM160.603 54V42.096H162.883L163.099 44.352C163.515 43.568 164.091 42.952 164.827 42.504C165.579 42.04 166.483 41.808 167.539 41.808V44.472H166.843C166.139 44.472 165.507 44.592 164.947 44.832C164.403 45.056 163.963 45.448 163.627 46.008C163.307 46.552 163.147 47.312 163.147 48.288V54H160.603ZM180.819 54.288C179.315 54.288 178.075 53.92 177.099 53.184C176.123 52.448 175.563 51.472 175.419 50.256H177.987C178.115 50.8 178.419 51.272 178.899 51.672C179.379 52.056 180.011 52.248 180.795 52.248C181.563 52.248 182.123 52.088 182.475 51.768C182.827 51.448 183.003 51.08 183.003 50.664C183.003 50.056 182.755 49.648 182.259 49.44C181.779 49.216 181.107 49.016 180.243 48.84C179.571 48.696 178.899 48.504 178.227 48.264C177.571 48.024 177.019 47.688 176.571 47.256C176.139 46.808 175.923 46.208 175.923 45.456C175.923 44.416 176.323 43.552 177.123 42.864C177.923 42.16 179.043 41.808 180.483 41.808C181.811 41.808 182.883 42.128 183.699 42.768C184.531 43.408 185.019 44.312 185.163 45.48H182.715C182.635 44.968 182.395 44.568 181.995 44.28C181.611 43.992 181.091 43.848 180.435 43.848C179.795 43.848 179.299 43.984 178.947 44.256C178.595 44.512 178.419 44.848 178.419 45.264C178.419 45.68 178.659 46.008 179.139 46.248C179.635 46.488 180.283 46.704 181.083 46.896C181.883 47.072 182.619 47.28 183.291 47.52C183.979 47.744 184.531 48.08 184.947 48.528C185.363 48.976 185.571 49.632 185.571 50.496C185.587 51.584 185.163 52.488 184.299 53.208C183.451 53.928 182.291 54.288 180.819 54.288ZM192.891 54.288C191.451 54.288 190.315 53.84 189.483 52.944C188.667 52.048 188.259 50.712 188.259 48.936V42.096H190.803V48.672C190.803 50.976 191.747 52.128 193.635 52.128C194.579 52.128 195.355 51.792 195.963 51.12C196.571 50.448 196.875 49.488 196.875 48.24V42.096H199.419V54H197.163L196.971 51.912C196.603 52.648 196.059 53.232 195.339 53.664C194.635 54.08 193.819 54.288 192.891 54.288ZM202.805 59.28V42.096H205.085L205.349 43.944C205.733 43.384 206.261 42.888 206.933 42.456C207.605 42.024 208.469 41.808 209.525 41.808C210.677 41.808 211.693 42.08 212.573 42.624C213.453 43.168 214.141 43.912 214.637 44.856C215.149 45.8 215.405 46.872 215.405 48.072C215.405 49.272 215.149 50.344 214.637 51.288C214.141 52.216 213.453 52.952 212.573 53.496C211.693 54.024 210.669 54.288 209.501 54.288C208.573 54.288 207.749 54.104 207.029 53.736C206.325 53.368 205.765 52.848 205.349 52.176V59.28H202.805ZM209.069 52.08C210.157 52.08 211.053 51.712 211.757 50.976C212.461 50.224 212.813 49.248 212.813 48.048C212.813 47.264 212.653 46.568 212.333 45.96C212.013 45.352 211.573 44.88 211.013 44.544C210.453 44.192 209.805 44.016 209.069 44.016C207.981 44.016 207.085 44.392 206.381 45.144C205.693 45.896 205.349 46.864 205.349 48.048C205.349 49.248 205.693 50.224 206.381 50.976C207.085 51.712 207.981 52.08 209.069 52.08ZM218.306 59.28V42.096H220.586L220.85 43.944C221.234 43.384 221.762 42.888 222.434 42.456C223.106 42.024 223.97 41.808 225.026 41.808C226.178 41.808 227.194 42.08 228.074 42.624C228.954 43.168 229.642 43.912 230.138 44.856C230.65 45.8 230.906 46.872 230.906 48.072C230.906 49.272 230.65 50.344 230.138 51.288C229.642 52.216 228.954 52.952 228.074 53.496C227.194 54.024 226.17 54.288 225.002 54.288C224.074 54.288 223.25 54.104 222.53 53.736C221.826 53.368 221.266 52.848 220.85 52.176V59.28H218.306ZM224.57 52.08C225.658 52.08 226.554 51.712 227.258 50.976C227.962 50.224 228.314 49.248 228.314 48.048C228.314 47.264 228.154 46.568 227.834 45.96C227.514 45.352 227.074 44.88 226.514 44.544C225.954 44.192 225.306 44.016 224.57 44.016C223.482 44.016 222.586 44.392 221.882 45.144C221.194 45.896 220.85 46.864 220.85 48.048C220.85 49.248 221.194 50.224 221.882 50.976C222.586 51.712 223.482 52.08 224.57 52.08ZM239.376 54.288C238.24 54.288 237.216 54.032 236.304 53.52C235.408 52.992 234.696 52.264 234.168 51.336C233.64 50.392 233.376 49.296 233.376 48.048C233.376 46.8 233.64 45.712 234.168 44.784C234.712 43.84 235.44 43.112 236.352 42.6C237.264 42.072 238.28 41.808 239.4 41.808C240.536 41.808 241.552 42.072 242.448 42.6C243.36 43.112 244.08 43.84 244.608 44.784C245.152 45.712 245.424 46.8 245.424 48.048C245.424 49.296 245.152 50.392 244.608 51.336C244.08 52.264 243.36 52.992 242.448 53.52C241.536 54.032 240.512 54.288 239.376 54.288ZM239.376 52.104C239.984 52.104 240.544 51.952 241.056 51.648C241.584 51.344 242.008 50.896 242.328 50.304C242.648 49.696 242.808 48.944 242.808 48.048C242.808 47.152 242.648 46.408 242.328 45.816C242.024 45.208 241.608 44.752 241.08 44.448C240.568 44.144 240.008 43.992 239.4 43.992C238.792 43.992 238.224 44.144 237.696 44.448C237.184 44.752 236.768 45.208 236.448 45.816C236.128 46.408 235.968 47.152 235.968 48.048C235.968 48.944 236.128 49.696 236.448 50.304C236.768 50.896 237.184 51.344 237.696 51.648C238.208 51.952 238.768 52.104 239.376 52.104ZM248.325 54V42.096H250.605L250.821 44.352C251.237 43.568 251.813 42.952 252.549 42.504C253.301 42.04 254.205 41.808 255.261 41.808V44.472H254.565C253.861 44.472 253.229 44.592 252.669 44.832C252.125 45.056 251.685 45.448 251.349 46.008C251.029 46.552 250.869 47.312 250.869 48.288V54H248.325ZM262.584 54C261.416 54 260.488 53.72 259.8 53.16C259.112 52.584 258.768 51.568 258.768 50.112V44.232H256.728V42.096H258.768L259.08 39.072H261.312V42.096H264.672V44.232H261.312V50.112C261.312 50.768 261.448 51.224 261.72 51.48C262.008 51.72 262.496 51.84 263.184 51.84H264.552V54H262.584ZM278.634 54C277.466 54 276.538 53.72 275.85 53.16C275.162 52.584 274.818 51.568 274.818 50.112V44.232H272.778V42.096H274.818L275.13 39.072H277.362V42.096H280.722V44.232H277.362V50.112C277.362 50.768 277.498 51.224 277.77 51.48C278.058 51.72 278.546 51.84 279.234 51.84H280.602V54H278.634ZM288.759 54.288C287.591 54.288 286.551 54.032 285.639 53.52C284.743 52.992 284.039 52.264 283.527 51.336C283.015 50.408 282.759 49.328 282.759 48.096C282.759 46.848 283.007 45.752 283.503 44.808C284.015 43.864 284.719 43.128 285.615 42.6C286.527 42.072 287.583 41.808 288.783 41.808C289.951 41.808 290.967 42.072 291.831 42.6C292.695 43.112 293.367 43.8 293.847 44.664C294.327 45.528 294.567 46.48 294.567 47.52C294.567 47.68 294.559 47.856 294.543 48.048C294.543 48.224 294.535 48.424 294.519 48.648H285.255C285.335 49.8 285.711 50.68 286.383 51.288C287.071 51.88 287.863 52.176 288.759 52.176C289.479 52.176 290.079 52.016 290.559 51.696C291.055 51.36 291.423 50.912 291.663 50.352H294.207C293.887 51.472 293.247 52.408 292.287 53.16C291.343 53.912 290.167 54.288 288.759 54.288ZM288.759 43.896C287.911 43.896 287.159 44.152 286.503 44.664C285.847 45.16 285.447 45.912 285.303 46.92H292.023C291.975 45.992 291.647 45.256 291.039 44.712C290.431 44.168 289.671 43.896 288.759 43.896ZM301.388 54.288C300.38 54.288 299.548 54.12 298.892 53.784C298.236 53.448 297.748 53.008 297.428 52.464C297.108 51.904 296.948 51.296 296.948 50.64C296.948 49.488 297.396 48.576 298.292 47.904C299.188 47.232 300.468 46.896 302.132 46.896H305.252V46.68C305.252 45.752 304.996 45.056 304.484 44.592C303.988 44.128 303.34 43.896 302.54 43.896C301.836 43.896 301.22 44.072 300.692 44.424C300.18 44.76 299.868 45.264 299.756 45.936H297.212C297.292 45.072 297.58 44.336 298.076 43.728C298.588 43.104 299.228 42.632 299.996 42.312C300.78 41.976 301.636 41.808 302.564 41.808C304.228 41.808 305.516 42.248 306.428 43.128C307.34 43.992 307.796 45.176 307.796 46.68V54H305.588L305.372 51.96C305.036 52.616 304.548 53.168 303.908 53.616C303.268 54.064 302.428 54.288 301.388 54.288ZM301.892 52.224C302.58 52.224 303.156 52.064 303.62 51.744C304.1 51.408 304.468 50.968 304.724 50.424C304.996 49.88 305.164 49.28 305.228 48.624H302.396C301.388 48.624 300.668 48.8 300.236 49.152C299.82 49.504 299.612 49.944 299.612 50.472C299.612 51.016 299.812 51.448 300.212 51.768C300.628 52.072 301.188 52.224 301.892 52.224ZM310.913 54V42.096H313.169L313.385 43.776C313.769 43.168 314.273 42.688 314.897 42.336C315.537 41.984 316.273 41.808 317.105 41.808C318.993 41.808 320.305 42.552 321.041 44.04C321.473 43.352 322.049 42.808 322.769 42.408C323.505 42.008 324.297 41.808 325.145 41.808C326.633 41.808 327.801 42.256 328.649 43.152C329.497 44.048 329.921 45.384 329.921 47.16V54H327.377V47.424C327.377 45.12 326.497 43.968 324.737 43.968C323.841 43.968 323.105 44.304 322.529 44.976C321.969 45.648 321.689 46.608 321.689 47.856V54H319.145V47.424C319.145 45.12 318.257 43.968 316.481 43.968C315.601 43.968 314.873 44.304 314.297 44.976C313.737 45.648 313.457 46.608 313.457 47.856V54H310.913ZM343.276 54.288C342.268 54.288 341.436 54.12 340.78 53.784C340.124 53.448 339.636 53.008 339.316 52.464C338.996 51.904 338.836 51.296 338.836 50.64C338.836 49.488 339.284 48.576 340.18 47.904C341.076 47.232 342.356 46.896 344.02 46.896H347.14V46.68C347.14 45.752 346.884 45.056 346.372 44.592C345.876 44.128 345.228 43.896 344.428 43.896C343.724 43.896 343.108 44.072 342.58 44.424C342.068 44.76 341.756 45.264 341.644 45.936H339.1C339.18 45.072 339.468 44.336 339.964 43.728C340.476 43.104 341.116 42.632 341.884 42.312C342.668 41.976 343.524 41.808 344.452 41.808C346.116 41.808 347.404 42.248 348.316 43.128C349.228 43.992 349.684 45.176 349.684 46.68V54H347.476L347.26 51.96C346.924 52.616 346.436 53.168 345.796 53.616C345.156 54.064 344.316 54.288 343.276 54.288ZM343.78 52.224C344.468 52.224 345.044 52.064 345.508 51.744C345.988 51.408 346.356 50.968 346.612 50.424C346.884 49.88 347.052 49.28 347.116 48.624H344.284C343.276 48.624 342.556 48.8 342.124 49.152C341.708 49.504 341.5 49.944 341.5 50.472C341.5 51.016 341.7 51.448 342.1 51.768C342.516 52.072 343.076 52.224 343.78 52.224ZM352.8 54V42.096H355.056L355.248 44.184C355.616 43.448 356.152 42.872 356.856 42.456C357.576 42.024 358.4 41.808 359.328 41.808C360.768 41.808 361.896 42.256 362.712 43.152C363.544 44.048 363.96 45.384 363.96 47.16V54H361.44V47.424C361.44 45.12 360.496 43.968 358.608 43.968C357.664 43.968 356.88 44.304 356.256 44.976C355.648 45.648 355.344 46.608 355.344 47.856V54H352.8ZM372.53 54.288C371.378 54.288 370.362 54.016 369.482 53.472C368.602 52.928 367.914 52.184 367.418 51.24C366.922 50.296 366.674 49.224 366.674 48.024C366.674 46.824 366.922 45.76 367.418 44.832C367.914 43.888 368.602 43.152 369.482 42.624C370.378 42.08 371.402 41.808 372.554 41.808C373.498 41.808 374.322 41.992 375.026 42.36C375.746 42.728 376.306 43.248 376.706 43.92V36.72H379.25V54H376.97L376.706 52.152C376.322 52.712 375.794 53.208 375.122 53.64C374.45 54.072 373.586 54.288 372.53 54.288ZM372.986 52.08C374.074 52.08 374.962 51.704 375.65 50.952C376.354 50.2 376.706 49.232 376.706 48.048C376.706 46.848 376.354 45.88 375.65 45.144C374.962 44.392 374.074 44.016 372.986 44.016C371.898 44.016 371.002 44.392 370.298 45.144C369.594 45.88 369.242 46.848 369.242 48.048C369.242 48.832 369.402 49.528 369.722 50.136C370.042 50.744 370.482 51.224 371.042 51.576C371.618 51.912 372.266 52.08 372.986 52.08ZM66.5353 90.288C65.5273 90.288 64.6953 90.12 64.0393 89.784C63.3833 89.448 62.8953 89.008 62.5753 88.464C62.2553 87.904 62.0953 87.296 62.0953 86.64C62.0953 85.488 62.5433 84.576 63.4393 83.904C64.3353 83.232 65.6153 82.896 67.2793 82.896H70.3993V82.68C70.3993 81.752 70.1433 81.056 69.6313 80.592C69.1353 80.128 68.4873 79.896 67.6873 79.896C66.9833 79.896 66.3673 80.072 65.8393 80.424C65.3273 80.76 65.0153 81.264 64.9033 81.936H62.3593C62.4393 81.072 62.7273 80.336 63.2233 79.728C63.7353 79.104 64.3753 78.632 65.1433 78.312C65.9273 77.976 66.7833 77.808 67.7113 77.808C69.3753 77.808 70.6633 78.248 71.5753 79.128C72.4873 79.992 72.9433 81.176 72.9433 82.68V90H70.7353L70.5193 87.96C70.1833 88.616 69.6953 89.168 69.0553 89.616C68.4153 90.064 67.5753 90.288 66.5353 90.288ZM67.0393 88.224C67.7273 88.224 68.3033 88.064 68.7673 87.744C69.2473 87.408 69.6153 86.968 69.8713 86.424C70.1433 85.88 70.3113 85.28 70.3753 84.624H67.5433C66.5353 84.624 65.8153 84.8 65.3833 85.152C64.9673 85.504 64.7593 85.944 64.7593 86.472C64.7593 87.016 64.9593 87.448 65.3593 87.768C65.7753 88.072 66.3353 88.224 67.0393 88.224ZM82.3525 90V73.2H92.8885V75.264H84.8965V80.568H91.5205V82.608H84.8965V90H82.3525ZM92.6724 90L98.8644 73.2H101.648L107.792 90H105.104L103.664 85.896H96.8004L95.3604 90H92.6724ZM97.5204 83.88H102.944L100.232 76.224L97.5204 83.88ZM117.076 90.288C115.412 90.288 113.956 89.92 112.708 89.184C111.46 88.448 110.484 87.432 109.78 86.136C109.076 84.824 108.724 83.312 108.724 81.6C108.724 79.888 109.076 78.384 109.78 77.088C110.484 75.776 111.46 74.752 112.708 74.016C113.956 73.28 115.412 72.912 117.076 72.912C118.74 72.912 120.196 73.28 121.444 74.016C122.692 74.752 123.66 75.776 124.348 77.088C125.052 78.384 125.404 79.888 125.404 81.6C125.404 83.248 125.076 84.712 124.42 85.992C123.78 87.272 122.884 88.28 121.732 89.016L125.788 93.144H122.572L119.572 89.976C118.788 90.184 117.956 90.288 117.076 90.288ZM117.076 88.008C118.228 88.008 119.228 87.752 120.076 87.24C120.94 86.728 121.612 85.992 122.092 85.032C122.572 84.072 122.812 82.928 122.812 81.6C122.812 80.272 122.572 79.128 122.092 78.168C121.612 77.208 120.94 76.472 120.076 75.96C119.228 75.448 118.228 75.192 117.076 75.192C115.924 75.192 114.916 75.448 114.052 75.96C113.188 76.472 112.516 77.208 112.036 78.168C111.572 79.128 111.34 80.272 111.34 81.6C111.34 82.928 111.572 84.072 112.036 85.032C112.516 85.992 113.188 86.728 114.052 87.24C114.916 87.752 115.924 88.008 117.076 88.008ZM139.265 90.288C137.761 90.288 136.521 89.92 135.545 89.184C134.569 88.448 134.009 87.472 133.865 86.256H136.433C136.561 86.8 136.865 87.272 137.345 87.672C137.825 88.056 138.457 88.248 139.241 88.248C140.009 88.248 140.569 88.088 140.921 87.768C141.273 87.448 141.449 87.08 141.449 86.664C141.449 86.056 141.201 85.648 140.705 85.44C140.225 85.216 139.553 85.016 138.689 84.84C138.017 84.696 137.345 84.504 136.673 84.264C136.017 84.024 135.465 83.688 135.017 83.256C134.585 82.808 134.369 82.208 134.369 81.456C134.369 80.416 134.769 79.552 135.569 78.864C136.369 78.16 137.489 77.808 138.929 77.808C140.257 77.808 141.329 78.128 142.145 78.768C142.977 79.408 143.465 80.312 143.609 81.48H141.161C141.081 80.968 140.841 80.568 140.441 80.28C140.057 79.992 139.537 79.848 138.881 79.848C138.241 79.848 137.745 79.984 137.393 80.256C137.041 80.512 136.865 80.848 136.865 81.264C136.865 81.68 137.105 82.008 137.585 82.248C138.081 82.488 138.729 82.704 139.529 82.896C140.329 83.072 141.065 83.28 141.737 83.52C142.425 83.744 142.977 84.08 143.393 84.528C143.809 84.976 144.017 85.632 144.017 86.496C144.033 87.584 143.609 88.488 142.745 89.208C141.897 89.928 140.737 90.288 139.265 90.288ZM152.512 90.288C151.344 90.288 150.304 90.032 149.392 89.52C148.496 88.992 147.792 88.264 147.28 87.336C146.768 86.408 146.512 85.328 146.512 84.096C146.512 82.848 146.76 81.752 147.256 80.808C147.768 79.864 148.472 79.128 149.368 78.6C150.28 78.072 151.336 77.808 152.536 77.808C153.704 77.808 154.72 78.072 155.584 78.6C156.448 79.112 157.12 79.8 157.6 80.664C158.08 81.528 158.32 82.48 158.32 83.52C158.32 83.68 158.312 83.856 158.296 84.048C158.296 84.224 158.288 84.424 158.272 84.648H149.008C149.088 85.8 149.464 86.68 150.136 87.288C150.824 87.88 151.616 88.176 152.512 88.176C153.232 88.176 153.832 88.016 154.312 87.696C154.808 87.36 155.176 86.912 155.416 86.352H157.96C157.64 87.472 157 88.408 156.04 89.16C155.096 89.912 153.92 90.288 152.512 90.288ZM152.512 79.896C151.664 79.896 150.912 80.152 150.256 80.664C149.6 81.16 149.2 81.912 149.056 82.92H155.776C155.728 81.992 155.4 81.256 154.792 80.712C154.184 80.168 153.424 79.896 152.512 79.896ZM166.75 90.288C165.582 90.288 164.534 90.024 163.606 89.496C162.694 88.968 161.974 88.24 161.446 87.312C160.934 86.368 160.678 85.28 160.678 84.048C160.678 82.816 160.934 81.736 161.446 80.808C161.974 79.864 162.694 79.128 163.606 78.6C164.534 78.072 165.582 77.808 166.75 77.808C168.222 77.808 169.454 78.192 170.446 78.96C171.454 79.728 172.102 80.768 172.39 82.08H169.726C169.566 81.424 169.214 80.912 168.67 80.544C168.126 80.176 167.486 79.992 166.75 79.992C166.126 79.992 165.55 80.152 165.022 80.472C164.494 80.776 164.07 81.232 163.75 81.84C163.43 82.432 163.27 83.168 163.27 84.048C163.27 84.928 163.43 85.672 163.75 86.28C164.07 86.872 164.494 87.328 165.022 87.648C165.55 87.968 166.126 88.128 166.75 88.128C167.486 88.128 168.126 87.944 168.67 87.576C169.214 87.208 169.566 86.688 169.726 86.016H172.39C172.118 87.296 171.478 88.328 170.47 89.112C169.462 89.896 168.222 90.288 166.75 90.288ZM180.056 90C178.888 90 177.96 89.72 177.272 89.16C176.584 88.584 176.24 87.568 176.24 86.112V80.232H174.2V78.096H176.24L176.552 75.072H178.784V78.096H182.144V80.232H178.784V86.112C178.784 86.768 178.92 87.224 179.192 87.48C179.48 87.72 179.968 87.84 180.656 87.84H182.024V90H180.056ZM186.357 75.84C185.877 75.84 185.477 75.696 185.157 75.408C184.853 75.104 184.701 74.728 184.701 74.28C184.701 73.832 184.853 73.464 185.157 73.176C185.477 72.872 185.877 72.72 186.357 72.72C186.837 72.72 187.229 72.872 187.533 73.176C187.853 73.464 188.013 73.832 188.013 74.28C188.013 74.728 187.853 75.104 187.533 75.408C187.229 75.696 186.837 75.84 186.357 75.84ZM185.085 90V78.096H187.629V90H185.085ZM196.706 90.288C195.57 90.288 194.546 90.032 193.634 89.52C192.738 88.992 192.026 88.264 191.498 87.336C190.97 86.392 190.706 85.296 190.706 84.048C190.706 82.8 190.97 81.712 191.498 80.784C192.042 79.84 192.77 79.112 193.682 78.6C194.594 78.072 195.61 77.808 196.73 77.808C197.866 77.808 198.882 78.072 199.778 78.6C200.69 79.112 201.41 79.84 201.938 80.784C202.482 81.712 202.754 82.8 202.754 84.048C202.754 85.296 202.482 86.392 201.938 87.336C201.41 88.264 200.69 88.992 199.778 89.52C198.866 90.032 197.842 90.288 196.706 90.288ZM196.706 88.104C197.314 88.104 197.874 87.952 198.386 87.648C198.914 87.344 199.338 86.896 199.658 86.304C199.978 85.696 200.138 84.944 200.138 84.048C200.138 83.152 199.978 82.408 199.658 81.816C199.354 81.208 198.938 80.752 198.41 80.448C197.898 80.144 197.338 79.992 196.73 79.992C196.122 79.992 195.554 80.144 195.026 80.448C194.514 80.752 194.098 81.208 193.778 81.816C193.458 82.408 193.298 83.152 193.298 84.048C193.298 84.944 193.458 85.696 193.778 86.304C194.098 86.896 194.514 87.344 195.026 87.648C195.538 87.952 196.098 88.104 196.706 88.104ZM205.655 90V78.096H207.911L208.103 80.184C208.471 79.448 209.007 78.872 209.711 78.456C210.431 78.024 211.255 77.808 212.183 77.808C213.623 77.808 214.751 78.256 215.567 79.152C216.399 80.048 216.815 81.384 216.815 83.16V90H214.295V83.424C214.295 81.12 213.351 79.968 211.463 79.968C210.519 79.968 209.735 80.304 209.111 80.976C208.503 81.648 208.199 82.608 208.199 83.856V90H205.655ZM226.758 90V80.232H225.054V78.096H226.758V76.368C226.758 75.072 227.078 74.144 227.718 73.584C228.374 73.008 229.294 72.72 230.478 72.72H231.726V74.88H230.862C230.302 74.88 229.902 75 229.662 75.24C229.422 75.464 229.302 75.848 229.302 76.392V78.096H232.038V80.232H229.302V90H226.758ZM239.704 90.288C238.568 90.288 237.544 90.032 236.632 89.52C235.736 88.992 235.024 88.264 234.496 87.336C233.968 86.392 233.704 85.296 233.704 84.048C233.704 82.8 233.968 81.712 234.496 80.784C235.04 79.84 235.768 79.112 236.68 78.6C237.592 78.072 238.608 77.808 239.728 77.808C240.864 77.808 241.88 78.072 242.776 78.6C243.688 79.112 244.408 79.84 244.936 80.784C245.48 81.712 245.752 82.8 245.752 84.048C245.752 85.296 245.48 86.392 244.936 87.336C244.408 88.264 243.688 88.992 242.776 89.52C241.864 90.032 240.84 90.288 239.704 90.288ZM239.704 88.104C240.312 88.104 240.872 87.952 241.384 87.648C241.912 87.344 242.336 86.896 242.656 86.304C242.976 85.696 243.136 84.944 243.136 84.048C243.136 83.152 242.976 82.408 242.656 81.816C242.352 81.208 241.936 80.752 241.408 80.448C240.896 80.144 240.336 79.992 239.728 79.992C239.12 79.992 238.552 80.144 238.024 80.448C237.512 80.752 237.096 81.208 236.776 81.816C236.456 82.408 236.296 83.152 236.296 84.048C236.296 84.944 236.456 85.696 236.776 86.304C237.096 86.896 237.512 87.344 238.024 87.648C238.536 87.952 239.096 88.104 239.704 88.104ZM248.653 90V78.096H250.933L251.149 80.352C251.565 79.568 252.141 78.952 252.877 78.504C253.629 78.04 254.533 77.808 255.589 77.808V80.472H254.893C254.189 80.472 253.557 80.592 252.997 80.832C252.453 81.056 252.013 81.448 251.677 82.008C251.357 82.552 251.197 83.312 251.197 84.288V90H248.653ZM273.717 95.28V88.152C273.333 88.712 272.805 89.208 272.133 89.64C271.461 90.072 270.597 90.288 269.541 90.288C268.389 90.288 267.373 90.016 266.493 89.472C265.613 88.928 264.925 88.184 264.429 87.24C263.933 86.296 263.685 85.224 263.685 84.024C263.685 82.824 263.933 81.76 264.429 80.832C264.925 79.888 265.613 79.152 266.493 78.624C267.389 78.08 268.413 77.808 269.565 77.808C270.509 77.808 271.333 77.992 272.037 78.36C272.757 78.728 273.317 79.248 273.717 79.92L273.981 78.096H276.261V95.28H273.717ZM269.997 88.08C271.085 88.08 271.973 87.704 272.661 86.952C273.365 86.2 273.717 85.232 273.717 84.048C273.717 82.848 273.365 81.88 272.661 81.144C271.973 80.392 271.085 80.016 269.997 80.016C268.909 80.016 268.013 80.392 267.309 81.144C266.605 81.88 266.253 82.848 266.253 84.048C266.253 84.832 266.413 85.528 266.733 86.136C267.053 86.744 267.493 87.224 268.053 87.576C268.629 87.912 269.277 88.08 269.997 88.08ZM284.011 90.288C282.571 90.288 281.435 89.84 280.603 88.944C279.787 88.048 279.379 86.712 279.379 84.936V78.096H281.923V84.672C281.923 86.976 282.867 88.128 284.755 88.128C285.699 88.128 286.475 87.792 287.083 87.12C287.691 86.448 287.995 85.488 287.995 84.24V78.096H290.539V90H288.283L288.091 87.912C287.723 88.648 287.179 89.232 286.459 89.664C285.755 90.08 284.939 90.288 284.011 90.288ZM299.493 90.288C298.325 90.288 297.285 90.032 296.373 89.52C295.477 88.992 294.773 88.264 294.261 87.336C293.749 86.408 293.493 85.328 293.493 84.096C293.493 82.848 293.741 81.752 294.237 80.808C294.749 79.864 295.453 79.128 296.349 78.6C297.261 78.072 298.317 77.808 299.517 77.808C300.685 77.808 301.701 78.072 302.565 78.6C303.429 79.112 304.101 79.8 304.581 80.664C305.061 81.528 305.301 82.48 305.301 83.52C305.301 83.68 305.293 83.856 305.277 84.048C305.277 84.224 305.269 84.424 305.253 84.648H295.989C296.069 85.8 296.445 86.68 297.117 87.288C297.805 87.88 298.597 88.176 299.493 88.176C300.213 88.176 300.813 88.016 301.293 87.696C301.789 87.36 302.157 86.912 302.397 86.352H304.941C304.621 87.472 303.981 88.408 303.021 89.16C302.077 89.912 300.901 90.288 299.493 90.288ZM299.493 79.896C298.645 79.896 297.893 80.152 297.237 80.664C296.581 81.16 296.181 81.912 296.037 82.92H302.757C302.709 81.992 302.381 81.256 301.773 80.712C301.165 80.168 300.405 79.896 299.493 79.896ZM312.843 90.288C311.339 90.288 310.099 89.92 309.123 89.184C308.147 88.448 307.587 87.472 307.443 86.256H310.011C310.139 86.8 310.443 87.272 310.923 87.672C311.403 88.056 312.035 88.248 312.819 88.248C313.587 88.248 314.147 88.088 314.499 87.768C314.851 87.448 315.027 87.08 315.027 86.664C315.027 86.056 314.779 85.648 314.283 85.44C313.803 85.216 313.131 85.016 312.267 84.84C311.595 84.696 310.923 84.504 310.251 84.264C309.595 84.024 309.043 83.688 308.595 83.256C308.163 82.808 307.947 82.208 307.947 81.456C307.947 80.416 308.347 79.552 309.147 78.864C309.947 78.16 311.067 77.808 312.507 77.808C313.835 77.808 314.907 78.128 315.723 78.768C316.555 79.408 317.043 80.312 317.187 81.48H314.739C314.659 80.968 314.419 80.568 314.019 80.28C313.635 79.992 313.115 79.848 312.459 79.848C311.819 79.848 311.323 79.984 310.971 80.256C310.619 80.512 310.443 80.848 310.443 81.264C310.443 81.68 310.683 82.008 311.163 82.248C311.659 82.488 312.307 82.704 313.107 82.896C313.907 83.072 314.643 83.28 315.315 83.52C316.003 83.744 316.555 84.08 316.971 84.528C317.387 84.976 317.595 85.632 317.595 86.496C317.611 87.584 317.187 88.488 316.323 89.208C315.475 89.928 314.315 90.288 312.843 90.288ZM325.069 90C323.901 90 322.973 89.72 322.285 89.16C321.597 88.584 321.253 87.568 321.253 86.112V80.232H319.213V78.096H321.253L321.565 75.072H323.797V78.096H327.157V80.232H323.797V86.112C323.797 86.768 323.933 87.224 324.205 87.48C324.493 87.72 324.981 87.84 325.669 87.84H327.037V90H325.069ZM331.37 75.84C330.89 75.84 330.49 75.696 330.17 75.408C329.866 75.104 329.714 74.728 329.714 74.28C329.714 73.832 329.866 73.464 330.17 73.176C330.49 72.872 330.89 72.72 331.37 72.72C331.85 72.72 332.242 72.872 332.546 73.176C332.866 73.464 333.026 73.832 333.026 74.28C333.026 74.728 332.866 75.104 332.546 75.408C332.242 75.696 331.85 75.84 331.37 75.84ZM330.098 90V78.096H332.642V90H330.098ZM341.718 90.288C340.582 90.288 339.558 90.032 338.646 89.52C337.75 88.992 337.038 88.264 336.51 87.336C335.982 86.392 335.718 85.296 335.718 84.048C335.718 82.8 335.982 81.712 336.51 80.784C337.054 79.84 337.782 79.112 338.694 78.6C339.606 78.072 340.622 77.808 341.742 77.808C342.878 77.808 343.894 78.072 344.79 78.6C345.702 79.112 346.422 79.84 346.95 80.784C347.494 81.712 347.766 82.8 347.766 84.048C347.766 85.296 347.494 86.392 346.95 87.336C346.422 88.264 345.702 88.992 344.79 89.52C343.878 90.032 342.854 90.288 341.718 90.288ZM341.718 88.104C342.326 88.104 342.886 87.952 343.398 87.648C343.926 87.344 344.35 86.896 344.67 86.304C344.99 85.696 345.15 84.944 345.15 84.048C345.15 83.152 344.99 82.408 344.67 81.816C344.366 81.208 343.95 80.752 343.422 80.448C342.91 80.144 342.35 79.992 341.742 79.992C341.134 79.992 340.566 80.144 340.038 80.448C339.526 80.752 339.11 81.208 338.79 81.816C338.47 82.408 338.31 83.152 338.31 84.048C338.31 84.944 338.47 85.696 338.79 86.304C339.11 86.896 339.526 87.344 340.038 87.648C340.55 87.952 341.11 88.104 341.718 88.104ZM350.667 90V78.096H352.923L353.115 80.184C353.483 79.448 354.019 78.872 354.723 78.456C355.443 78.024 356.267 77.808 357.195 77.808C358.635 77.808 359.763 78.256 360.579 79.152C361.411 80.048 361.827 81.384 361.827 83.16V90H359.307V83.424C359.307 81.12 358.363 79.968 356.475 79.968C355.531 79.968 354.747 80.304 354.123 80.976C353.515 81.648 353.211 82.608 353.211 83.856V90H350.667ZM369.726 90.288C368.222 90.288 366.982 89.92 366.006 89.184C365.03 88.448 364.47 87.472 364.326 86.256H366.894C367.022 86.8 367.326 87.272 367.806 87.672C368.286 88.056 368.918 88.248 369.702 88.248C370.47 88.248 371.03 88.088 371.382 87.768C371.734 87.448 371.91 87.08 371.91 86.664C371.91 86.056 371.662 85.648 371.166 85.44C370.686 85.216 370.014 85.016 369.15 84.84C368.478 84.696 367.806 84.504 367.134 84.264C366.478 84.024 365.926 83.688 365.478 83.256C365.046 82.808 364.83 82.208 364.83 81.456C364.83 80.416 365.23 79.552 366.03 78.864C366.83 78.16 367.95 77.808 369.39 77.808C370.718 77.808 371.79 78.128 372.606 78.768C373.438 79.408 373.926 80.312 374.07 81.48H371.622C371.542 80.968 371.302 80.568 370.902 80.28C370.518 79.992 369.998 79.848 369.342 79.848C368.702 79.848 368.206 79.984 367.854 80.256C367.502 80.512 367.326 80.848 367.326 81.264C367.326 81.68 367.566 82.008 368.046 82.248C368.542 82.488 369.19 82.704 369.99 82.896C370.79 83.072 371.526 83.28 372.198 83.52C372.886 83.744 373.438 84.08 373.854 84.528C374.27 84.976 374.478 85.632 374.478 86.496C374.494 87.584 374.07 88.488 373.206 89.208C372.358 89.928 371.198 90.288 369.726 90.288ZM378.413 90.144C377.933 90.144 377.533 89.992 377.213 89.688C376.909 89.368 376.757 88.992 376.757 88.56C376.757 88.112 376.909 87.736 377.213 87.432C377.533 87.112 377.933 86.952 378.413 86.952C378.893 86.952 379.285 87.112 379.589 87.432C379.893 87.736 380.045 88.112 380.045 88.56C380.045 88.992 379.893 89.368 379.589 89.688C379.285 89.992 378.893 90.144 378.413 90.144Z" fill="white"/>
</svg>
