<svg width="390" height="844" viewBox="0 0 390 844" fill="none" xmlns="http://www.w3.org/2000/svg">
<rect width="390" height="844" rx="30" fill="white"/>
<path d="M167.891 50L163.453 34H165.992L169.109 46.3906H169.258L172.5 34H175.016L178.258 46.3984H178.406L181.516 34H184.063L179.617 50H177.188L173.82 38.0156H173.695L170.328 50H167.891ZM188.387 50.2656C187.626 50.2656 186.939 50.125 186.324 49.8437C185.71 49.5573 185.223 49.1432 184.863 48.6016C184.509 48.0599 184.332 47.3958 184.332 46.6094C184.332 45.9323 184.462 45.375 184.723 44.9375C184.983 44.5 185.335 44.1536 185.777 43.8984C186.22 43.6432 186.715 43.4505 187.262 43.3203C187.809 43.1901 188.366 43.0911 188.934 43.0234C189.652 42.9401 190.236 42.8724 190.684 42.8203C191.132 42.763 191.457 42.6719 191.66 42.5469C191.863 42.4219 191.965 42.2187 191.965 41.9375V41.8828C191.965 41.2005 191.772 40.6719 191.387 40.2969C191.007 39.9219 190.439 39.7344 189.684 39.7344C188.897 39.7344 188.277 39.9089 187.824 40.2578C187.376 40.6016 187.066 40.9844 186.895 41.4062L184.699 40.9062C184.96 40.1771 185.34 39.5885 185.84 39.1406C186.345 38.6875 186.926 38.3594 187.582 38.1562C188.238 37.9479 188.928 37.8438 189.652 37.8438C190.132 37.8438 190.639 37.901 191.176 38.0156C191.717 38.125 192.223 38.3281 192.691 38.625C193.165 38.9219 193.553 39.3464 193.855 39.8984C194.158 40.4453 194.309 41.1563 194.309 42.0313V50H192.027V48.3594H191.934C191.783 48.6615 191.556 48.9583 191.254 49.25C190.952 49.5417 190.564 49.7839 190.09 49.9766C189.616 50.1693 189.048 50.2656 188.387 50.2656ZM188.895 48.3906C189.54 48.3906 190.092 48.263 190.551 48.0078C191.014 47.7526 191.366 47.4193 191.605 47.0078C191.85 46.5911 191.973 46.1458 191.973 45.6719V44.125C191.889 44.2083 191.728 44.2865 191.488 44.3594C191.254 44.4271 190.986 44.487 190.684 44.5391C190.382 44.5859 190.087 44.6302 189.801 44.6719C189.514 44.7083 189.275 44.7396 189.082 44.7656C188.629 44.8229 188.215 44.9193 187.84 45.0547C187.47 45.1901 187.173 45.3854 186.949 45.6406C186.73 45.8906 186.621 46.224 186.621 46.6406C186.621 47.2187 186.835 47.6562 187.262 47.9531C187.689 48.2448 188.233 48.3906 188.895 48.3906ZM199.756 34V50H197.42V34H199.756ZM205.234 34V50H202.898V34H205.234ZM213.549 50.2422C212.367 50.2422 211.348 49.9896 210.494 49.4844C209.645 48.974 208.989 48.2578 208.525 47.3359C208.067 46.4089 207.838 45.3229 207.838 44.0781C207.838 42.849 208.067 41.7656 208.525 40.8281C208.989 39.8906 209.635 39.1589 210.463 38.6328C211.296 38.1068 212.27 37.8438 213.385 37.8438C214.062 37.8438 214.718 37.9557 215.354 38.1797C215.989 38.4036 216.559 38.7552 217.064 39.2344C217.57 39.7135 217.968 40.3359 218.26 41.1016C218.551 41.862 218.697 42.7865 218.697 43.875V44.7031H209.158V42.9531H216.408C216.408 42.3385 216.283 41.7943 216.033 41.3203C215.783 40.8411 215.432 40.4635 214.979 40.1875C214.531 39.9115 214.005 39.7734 213.4 39.7734C212.744 39.7734 212.171 39.9349 211.682 40.2578C211.197 40.5755 210.822 40.9922 210.557 41.5078C210.296 42.0182 210.166 42.5729 210.166 43.1719V44.5391C210.166 45.3411 210.307 46.0234 210.588 46.5859C210.874 47.1484 211.273 47.5781 211.783 47.875C212.294 48.1667 212.89 48.3125 213.572 48.3125C214.015 48.3125 214.419 48.25 214.783 48.125C215.148 47.9948 215.463 47.8021 215.729 47.5469C215.994 47.2917 216.197 46.9766 216.338 46.6016L218.549 47C218.372 47.651 218.054 48.2214 217.596 48.7109C217.143 49.1953 216.572 49.5729 215.885 49.8437C215.202 50.1094 214.424 50.2422 213.549 50.2422ZM226.891 38V39.875H220.336V38H226.891ZM222.094 35.125H224.43V46.4766C224.43 46.9297 224.497 47.2708 224.633 47.5C224.768 47.724 224.943 47.8776 225.156 47.9609C225.375 48.0391 225.612 48.0781 225.867 48.0781C226.055 48.0781 226.219 48.0651 226.359 48.0391C226.5 48.013 226.609 47.9922 226.688 47.9766L227.109 49.9062C226.974 49.9583 226.781 50.0104 226.531 50.0625C226.281 50.1198 225.969 50.151 225.594 50.1563C224.979 50.1667 224.406 50.0573 223.875 49.8281C223.344 49.599 222.914 49.2448 222.586 48.7656C222.258 48.2865 222.094 47.6849 222.094 46.9609V35.125Z" fill="black"/>
<rect x="20" y="82" width="350" height="194" rx="20" fill="#5089A5"/>
<g filter="url(#filter0_d_102_2693)">
<rect x="20" y="303" width="350" height="58" rx="20" fill="white"/>
</g>
<g filter="url(#filter1_d_102_2693)">
<rect x="20" y="770" width="350" height="58" rx="20" fill="white"/>
</g>
<path d="M47.9375 340V324H49.875V338.281H57.3125V340H47.9375ZM63.5938 340.281C62.8333 340.281 62.1432 340.138 61.5234 339.852C60.9036 339.56 60.4115 339.141 60.0469 338.594C59.6823 338.042 59.5 337.375 59.5 336.594C59.5 335.906 59.6354 335.349 59.9063 334.922C60.1771 334.49 60.5391 334.151 60.9922 333.906C61.4453 333.661 61.9453 333.479 62.4922 333.359C63.0443 333.234 63.599 333.135 64.1563 333.063C64.8854 332.969 65.4766 332.898 65.9297 332.852C66.388 332.799 66.7214 332.714 66.9297 332.594C67.1432 332.474 67.25 332.266 67.25 331.969V331.906C67.25 331.135 67.0391 330.536 66.6172 330.109C66.2005 329.682 65.5677 329.469 64.7188 329.469C63.8385 329.469 63.1484 329.661 62.6484 330.047C62.1484 330.432 61.7969 330.844 61.5938 331.281L59.8438 330.656C60.1563 329.927 60.5729 329.359 61.0938 328.953C61.6198 328.542 62.1927 328.255 62.8125 328.094C63.4375 327.927 64.0521 327.844 64.6563 327.844C65.0417 327.844 65.4844 327.891 65.9844 327.984C66.4896 328.073 66.9766 328.258 67.4453 328.539C67.9193 328.82 68.3125 329.245 68.625 329.812C68.9375 330.38 69.0938 331.141 69.0938 332.094V340H67.25V338.375H67.1563C67.0313 338.635 66.8229 338.914 66.5313 339.211C66.2396 339.508 65.8516 339.76 65.3672 339.969C64.8828 340.177 64.2917 340.281 63.5938 340.281ZM63.875 338.625C64.6042 338.625 65.2188 338.482 65.7188 338.195C66.224 337.909 66.6042 337.539 66.8594 337.086C67.1198 336.633 67.25 336.156 67.25 335.656V333.969C67.1719 334.062 67 334.148 66.7344 334.227C66.474 334.299 66.1719 334.365 65.8281 334.422C65.4896 334.474 65.1589 334.521 64.8359 334.562C64.5182 334.599 64.2604 334.63 64.0625 334.656C63.5833 334.719 63.1354 334.82 62.7188 334.961C62.3073 335.096 61.974 335.302 61.7188 335.578C61.4688 335.849 61.3438 336.219 61.3438 336.687C61.3438 337.328 61.5807 337.812 62.0547 338.141C62.5339 338.464 63.1406 338.625 63.875 338.625ZM77.6777 328V329.562H71.459V328H77.6777ZM73.2715 325.125H75.1152V336.562C75.1152 337.083 75.1908 337.474 75.3418 337.734C75.498 337.99 75.696 338.161 75.9355 338.25C76.1803 338.333 76.4382 338.375 76.709 338.375C76.9121 338.375 77.0788 338.365 77.209 338.344C77.3392 338.318 77.4434 338.297 77.5215 338.281L77.8965 339.937C77.7715 339.984 77.597 340.031 77.373 340.078C77.1491 340.13 76.8652 340.156 76.5215 340.156C76.0007 340.156 75.4902 340.044 74.9902 339.82C74.4954 339.596 74.084 339.255 73.7559 338.797C73.4329 338.339 73.2715 337.76 73.2715 337.062V325.125ZM85.3535 340.25C84.1973 340.25 83.1999 339.995 82.3613 339.484C81.528 338.969 80.8848 338.25 80.4316 337.328C79.9837 336.401 79.7598 335.323 79.7598 334.094C79.7598 332.865 79.9837 331.781 80.4316 330.844C80.8848 329.901 81.515 329.167 82.3223 328.641C83.1348 328.109 84.0827 327.844 85.166 327.844C85.791 327.844 86.4082 327.948 87.0176 328.156C87.627 328.365 88.1816 328.703 88.6816 329.172C89.1816 329.635 89.5801 330.25 89.877 331.016C90.1738 331.781 90.3223 332.724 90.3223 333.844V334.625H81.0723V333.031H88.4473C88.4473 332.354 88.3118 331.75 88.041 331.219C87.7754 330.687 87.3952 330.268 86.9004 329.961C86.4108 329.654 85.8327 329.5 85.166 329.5C84.4316 329.5 83.7962 329.682 83.2598 330.047C82.7285 330.406 82.3197 330.875 82.0332 331.453C81.7467 332.031 81.6035 332.651 81.6035 333.312V334.375C81.6035 335.281 81.7598 336.049 82.0723 336.68C82.39 337.305 82.8301 337.781 83.3926 338.109C83.9551 338.432 84.6087 338.594 85.3535 338.594C85.8379 338.594 86.2754 338.526 86.666 338.391C87.0618 338.25 87.403 338.042 87.6895 337.766C87.9759 337.484 88.1973 337.135 88.3535 336.719L90.1348 337.219C89.9473 337.823 89.6322 338.354 89.1895 338.812C88.7467 339.266 88.1999 339.62 87.5488 339.875C86.8978 340.125 86.166 340.25 85.3535 340.25ZM101.627 330.687L99.9707 331.156C99.8665 330.88 99.7129 330.612 99.5098 330.352C99.3118 330.086 99.041 329.867 98.6973 329.695C98.3535 329.523 97.9134 329.437 97.377 329.437C96.6426 329.437 96.0306 329.607 95.541 329.945C95.0566 330.279 94.8145 330.703 94.8145 331.219C94.8145 331.677 94.9811 332.039 95.3145 332.305C95.6478 332.57 96.1686 332.792 96.877 332.969L98.6582 333.406C99.7311 333.667 100.531 334.065 101.057 334.602C101.583 335.133 101.846 335.818 101.846 336.656C101.846 337.344 101.648 337.958 101.252 338.5C100.861 339.042 100.314 339.469 99.6113 339.781C98.9082 340.094 98.0905 340.25 97.1582 340.25C95.9342 340.25 94.9212 339.984 94.1191 339.453C93.3171 338.922 92.8092 338.146 92.5957 337.125L94.3457 336.687C94.5124 337.333 94.8275 337.818 95.291 338.141C95.7598 338.464 96.3717 338.625 97.127 338.625C97.9863 338.625 98.6686 338.443 99.1738 338.078C99.6842 337.708 99.9395 337.266 99.9395 336.75C99.9395 336.333 99.7936 335.984 99.502 335.703C99.2103 335.417 98.7624 335.203 98.1582 335.062L96.1582 334.594C95.0592 334.333 94.252 333.93 93.7363 333.383C93.2259 332.831 92.9707 332.141 92.9707 331.312C92.9707 330.635 93.1608 330.036 93.541 329.516C93.9264 328.995 94.4499 328.586 95.1113 328.289C95.778 327.992 96.5332 327.844 97.377 327.844C98.5645 327.844 99.4967 328.104 100.174 328.625C100.856 329.146 101.34 329.833 101.627 330.687ZM109.84 328V329.562H103.621V328H109.84ZM105.434 325.125H107.277V336.562C107.277 337.083 107.353 337.474 107.504 337.734C107.66 337.99 107.858 338.161 108.098 338.25C108.342 338.333 108.6 338.375 108.871 338.375C109.074 338.375 109.241 338.365 109.371 338.344C109.501 338.318 109.605 338.297 109.684 338.281L110.059 339.937C109.934 339.984 109.759 340.031 109.535 340.078C109.311 340.13 109.027 340.156 108.684 340.156C108.163 340.156 107.652 340.044 107.152 339.82C106.658 339.596 106.246 339.255 105.918 338.797C105.595 338.339 105.434 337.76 105.434 337.062V325.125ZM124.02 328V329.562H117.801V328H124.02ZM119.613 325.125H121.457V336.562C121.457 337.083 121.533 337.474 121.684 337.734C121.84 337.99 122.038 338.161 122.277 338.25C122.522 338.333 122.78 338.375 123.051 338.375C123.254 338.375 123.421 338.365 123.551 338.344C123.681 338.318 123.785 338.297 123.863 338.281L124.238 339.937C124.113 339.984 123.939 340.031 123.715 340.078C123.491 340.13 123.207 340.156 122.863 340.156C122.342 340.156 121.832 340.044 121.332 339.82C120.837 339.596 120.426 339.255 120.098 338.797C119.775 338.339 119.613 337.76 119.613 337.062V325.125ZM126.793 340V328H128.574V329.812H128.699C128.918 329.219 129.314 328.737 129.887 328.367C130.46 327.997 131.105 327.812 131.824 327.812C131.96 327.812 132.129 327.815 132.332 327.82C132.535 327.826 132.689 327.833 132.793 327.844V329.719C132.73 329.703 132.587 329.68 132.363 329.648C132.145 329.612 131.913 329.594 131.668 329.594C131.085 329.594 130.564 329.716 130.105 329.961C129.652 330.201 129.293 330.534 129.027 330.961C128.767 331.383 128.637 331.865 128.637 332.406V340H126.793ZM138.51 340.281C137.749 340.281 137.059 340.138 136.439 339.852C135.82 339.56 135.327 339.141 134.963 338.594C134.598 338.042 134.416 337.375 134.416 336.594C134.416 335.906 134.551 335.349 134.822 334.922C135.093 334.49 135.455 334.151 135.908 333.906C136.361 333.661 136.861 333.479 137.408 333.359C137.96 333.234 138.515 333.135 139.072 333.063C139.801 332.969 140.393 332.898 140.846 332.852C141.304 332.799 141.637 332.714 141.846 332.594C142.059 332.474 142.166 332.266 142.166 331.969V331.906C142.166 331.135 141.955 330.536 141.533 330.109C141.117 329.682 140.484 329.469 139.635 329.469C138.755 329.469 138.064 329.661 137.564 330.047C137.064 330.432 136.713 330.844 136.51 331.281L134.76 330.656C135.072 329.927 135.489 329.359 136.01 328.953C136.536 328.542 137.109 328.255 137.729 328.094C138.354 327.927 138.968 327.844 139.572 327.844C139.958 327.844 140.4 327.891 140.9 327.984C141.406 328.073 141.893 328.258 142.361 328.539C142.835 328.82 143.229 329.245 143.541 329.812C143.854 330.38 144.01 331.141 144.01 332.094V340H142.166V338.375H142.072C141.947 338.635 141.739 338.914 141.447 339.211C141.156 339.508 140.768 339.76 140.283 339.969C139.799 340.177 139.208 340.281 138.51 340.281ZM138.791 338.625C139.52 338.625 140.135 338.482 140.635 338.195C141.14 337.909 141.52 337.539 141.775 337.086C142.036 336.633 142.166 336.156 142.166 335.656V333.969C142.088 334.062 141.916 334.148 141.65 334.227C141.39 334.299 141.088 334.365 140.744 334.422C140.406 334.474 140.075 334.521 139.752 334.562C139.434 334.599 139.176 334.63 138.979 334.656C138.499 334.719 138.051 334.82 137.635 334.961C137.223 335.096 136.89 335.302 136.635 335.578C136.385 335.849 136.26 336.219 136.26 336.687C136.26 337.328 136.497 337.812 136.971 338.141C137.45 338.464 138.057 338.625 138.791 338.625ZM149.219 332.781V340H147.375V328H149.156V329.875H149.313C149.594 329.266 150.021 328.776 150.594 328.406C151.167 328.031 151.906 327.844 152.813 327.844C153.625 327.844 154.336 328.01 154.945 328.344C155.555 328.672 156.029 329.172 156.367 329.844C156.706 330.51 156.875 331.354 156.875 332.375V340H155.031V332.5C155.031 331.557 154.786 330.823 154.297 330.297C153.807 329.766 153.135 329.5 152.281 329.5C151.693 329.5 151.167 329.628 150.703 329.883C150.245 330.138 149.883 330.51 149.617 331C149.352 331.49 149.219 332.083 149.219 332.781ZM168.744 330.687L167.088 331.156C166.984 330.88 166.83 330.612 166.627 330.352C166.429 330.086 166.158 329.867 165.814 329.695C165.471 329.523 165.031 329.437 164.494 329.437C163.76 329.437 163.148 329.607 162.658 329.945C162.174 330.279 161.932 330.703 161.932 331.219C161.932 331.677 162.098 332.039 162.432 332.305C162.765 332.57 163.286 332.792 163.994 332.969L165.775 333.406C166.848 333.667 167.648 334.065 168.174 334.602C168.7 335.133 168.963 335.818 168.963 336.656C168.963 337.344 168.765 337.958 168.369 338.5C167.979 339.042 167.432 339.469 166.729 339.781C166.025 340.094 165.208 340.25 164.275 340.25C163.051 340.25 162.038 339.984 161.236 339.453C160.434 338.922 159.926 338.146 159.713 337.125L161.463 336.687C161.63 337.333 161.945 337.818 162.408 338.141C162.877 338.464 163.489 338.625 164.244 338.625C165.104 338.625 165.786 338.443 166.291 338.078C166.801 337.708 167.057 337.266 167.057 336.75C167.057 336.333 166.911 335.984 166.619 335.703C166.327 335.417 165.88 335.203 165.275 335.062L163.275 334.594C162.176 334.333 161.369 333.93 160.854 333.383C160.343 332.831 160.088 332.141 160.088 331.312C160.088 330.635 160.278 330.036 160.658 329.516C161.044 328.995 161.567 328.586 162.229 328.289C162.895 327.992 163.65 327.844 164.494 327.844C165.682 327.844 166.614 328.104 167.291 328.625C167.973 329.146 168.458 329.833 168.744 330.687ZM175.27 340.281C174.509 340.281 173.819 340.138 173.199 339.852C172.579 339.56 172.087 339.141 171.723 338.594C171.358 338.042 171.176 337.375 171.176 336.594C171.176 335.906 171.311 335.349 171.582 334.922C171.853 334.49 172.215 334.151 172.668 333.906C173.121 333.661 173.621 333.479 174.168 333.359C174.72 333.234 175.275 333.135 175.832 333.063C176.561 332.969 177.152 332.898 177.605 332.852C178.064 332.799 178.397 332.714 178.605 332.594C178.819 332.474 178.926 332.266 178.926 331.969V331.906C178.926 331.135 178.715 330.536 178.293 330.109C177.876 329.682 177.243 329.469 176.395 329.469C175.514 329.469 174.824 329.661 174.324 330.047C173.824 330.432 173.473 330.844 173.27 331.281L171.52 330.656C171.832 329.927 172.249 329.359 172.77 328.953C173.296 328.542 173.868 328.255 174.488 328.094C175.113 327.927 175.728 327.844 176.332 327.844C176.717 327.844 177.16 327.891 177.66 327.984C178.165 328.073 178.652 328.258 179.121 328.539C179.595 328.82 179.988 329.245 180.301 329.812C180.613 330.38 180.77 331.141 180.77 332.094V340H178.926V338.375H178.832C178.707 338.635 178.499 338.914 178.207 339.211C177.915 339.508 177.527 339.76 177.043 339.969C176.559 340.177 175.967 340.281 175.27 340.281ZM175.551 338.625C176.28 338.625 176.895 338.482 177.395 338.195C177.9 337.909 178.28 337.539 178.535 337.086C178.796 336.633 178.926 336.156 178.926 335.656V333.969C178.848 334.062 178.676 334.148 178.41 334.227C178.15 334.299 177.848 334.365 177.504 334.422C177.165 334.474 176.835 334.521 176.512 334.562C176.194 334.599 175.936 334.63 175.738 334.656C175.259 334.719 174.811 334.82 174.395 334.961C173.983 335.096 173.65 335.302 173.395 335.578C173.145 335.849 173.02 336.219 173.02 336.687C173.02 337.328 173.257 337.812 173.73 338.141C174.21 338.464 174.816 338.625 175.551 338.625ZM189.01 340.25C187.885 340.25 186.916 339.984 186.104 339.453C185.291 338.922 184.666 338.19 184.229 337.258C183.791 336.326 183.572 335.26 183.572 334.062C183.572 332.844 183.796 331.768 184.244 330.836C184.697 329.898 185.327 329.167 186.135 328.641C186.947 328.109 187.895 327.844 188.979 327.844C189.822 327.844 190.583 328 191.26 328.312C191.937 328.625 192.492 329.062 192.924 329.625C193.356 330.187 193.624 330.844 193.729 331.594H191.885C191.744 331.047 191.432 330.562 190.947 330.141C190.468 329.714 189.822 329.5 189.01 329.5C188.291 329.5 187.661 329.687 187.119 330.062C186.583 330.432 186.163 330.956 185.861 331.633C185.564 332.305 185.416 333.094 185.416 334C185.416 334.927 185.562 335.734 185.854 336.422C186.15 337.109 186.567 337.643 187.104 338.023C187.645 338.404 188.281 338.594 189.01 338.594C189.489 338.594 189.924 338.51 190.314 338.344C190.705 338.177 191.036 337.938 191.307 337.625C191.577 337.312 191.77 336.937 191.885 336.5H193.729C193.624 337.208 193.367 337.846 192.955 338.414C192.549 338.977 192.01 339.424 191.338 339.758C190.671 340.086 189.895 340.25 189.01 340.25ZM201.643 328V329.562H195.424V328H201.643ZM197.236 325.125H199.08V336.562C199.08 337.083 199.156 337.474 199.307 337.734C199.463 337.99 199.661 338.161 199.9 338.25C200.145 338.333 200.403 338.375 200.674 338.375C200.877 338.375 201.044 338.365 201.174 338.344C201.304 338.318 201.408 338.297 201.486 338.281L201.861 339.937C201.736 339.984 201.562 340.031 201.338 340.078C201.114 340.13 200.83 340.156 200.486 340.156C199.965 340.156 199.455 340.044 198.955 339.82C198.46 339.596 198.049 339.255 197.721 338.797C197.398 338.339 197.236 337.76 197.236 337.062V325.125ZM204.416 340V328H206.26V340H204.416ZM205.354 326C204.994 326 204.684 325.878 204.424 325.633C204.169 325.388 204.041 325.094 204.041 324.75C204.041 324.406 204.169 324.112 204.424 323.867C204.684 323.622 204.994 323.5 205.354 323.5C205.713 323.5 206.02 323.622 206.275 323.867C206.536 324.112 206.666 324.406 206.666 324.75C206.666 325.094 206.536 325.388 206.275 325.633C206.02 325.878 205.713 326 205.354 326ZM214.512 340.25C213.428 340.25 212.478 339.992 211.66 339.477C210.848 338.961 210.212 338.24 209.754 337.312C209.301 336.385 209.074 335.302 209.074 334.062C209.074 332.812 209.301 331.721 209.754 330.789C210.212 329.857 210.848 329.133 211.66 328.617C212.478 328.102 213.428 327.844 214.512 327.844C215.595 327.844 216.543 328.102 217.355 328.617C218.173 329.133 218.809 329.857 219.262 330.789C219.72 331.721 219.949 332.812 219.949 334.062C219.949 335.302 219.72 336.385 219.262 337.312C218.809 338.24 218.173 338.961 217.355 339.477C216.543 339.992 215.595 340.25 214.512 340.25ZM214.512 338.594C215.335 338.594 216.012 338.383 216.543 337.961C217.074 337.539 217.467 336.984 217.723 336.297C217.978 335.609 218.105 334.865 218.105 334.062C218.105 333.26 217.978 332.513 217.723 331.82C217.467 331.128 217.074 330.568 216.543 330.141C216.012 329.714 215.335 329.5 214.512 329.5C213.689 329.5 213.012 329.714 212.48 330.141C211.949 330.568 211.556 331.128 211.301 331.82C211.046 332.513 210.918 333.26 210.918 334.062C210.918 334.865 211.046 335.609 211.301 336.297C211.556 336.984 211.949 337.539 212.48 337.961C213.012 338.383 213.689 338.594 214.512 338.594ZM224.607 332.781V340H222.764V328H224.545V329.875H224.701C224.982 329.266 225.41 328.776 225.982 328.406C226.555 328.031 227.295 327.844 228.201 327.844C229.014 327.844 229.725 328.01 230.334 328.344C230.943 328.672 231.417 329.172 231.756 329.844C232.094 330.51 232.264 331.354 232.264 332.375V340H230.42V332.5C230.42 331.557 230.175 330.823 229.686 330.297C229.196 329.766 228.524 329.5 227.67 329.5C227.081 329.5 226.555 329.628 226.092 329.883C225.633 330.138 225.271 330.51 225.006 331C224.74 331.49 224.607 332.083 224.607 332.781ZM244.133 330.687L242.477 331.156C242.372 330.88 242.219 330.612 242.016 330.352C241.818 330.086 241.547 329.867 241.203 329.695C240.859 329.523 240.419 329.437 239.883 329.437C239.148 329.437 238.536 329.607 238.047 329.945C237.563 330.279 237.32 330.703 237.32 331.219C237.32 331.677 237.487 332.039 237.82 332.305C238.154 332.57 238.674 332.792 239.383 332.969L241.164 333.406C242.237 333.667 243.036 334.065 243.563 334.602C244.089 335.133 244.352 335.818 244.352 336.656C244.352 337.344 244.154 337.958 243.758 338.5C243.367 339.042 242.82 339.469 242.117 339.781C241.414 340.094 240.596 340.25 239.664 340.25C238.44 340.25 237.427 339.984 236.625 339.453C235.823 338.922 235.315 338.146 235.102 337.125L236.852 336.687C237.018 337.333 237.333 337.818 237.797 338.141C238.266 338.464 238.878 338.625 239.633 338.625C240.492 338.625 241.174 338.443 241.68 338.078C242.19 337.708 242.445 337.266 242.445 336.75C242.445 336.333 242.299 335.984 242.008 335.703C241.716 335.417 241.268 335.203 240.664 335.062L238.664 334.594C237.565 334.333 236.758 333.93 236.242 333.383C235.732 332.831 235.477 332.141 235.477 331.312C235.477 330.635 235.667 330.036 236.047 329.516C236.432 328.995 236.956 328.586 237.617 328.289C238.284 327.992 239.039 327.844 239.883 327.844C241.07 327.844 242.003 328.104 242.68 328.625C243.362 329.146 243.846 329.833 244.133 330.687Z" fill="black"/>
<path d="M114.211 165.219C113.044 165.219 112.005 165.018 111.094 164.617C110.188 164.211 109.471 163.654 108.945 162.945C108.424 162.232 108.156 161.409 108.141 160.477H111.547C111.568 160.867 111.695 161.211 111.93 161.508C112.169 161.799 112.487 162.026 112.883 162.188C113.279 162.349 113.724 162.43 114.219 162.43C114.734 162.43 115.19 162.339 115.586 162.156C115.982 161.974 116.292 161.721 116.516 161.398C116.74 161.076 116.852 160.703 116.852 160.281C116.852 159.854 116.732 159.477 116.492 159.148C116.258 158.815 115.919 158.555 115.477 158.367C115.039 158.18 114.518 158.086 113.914 158.086H112.422V155.602H113.914C114.424 155.602 114.875 155.513 115.266 155.336C115.661 155.159 115.969 154.914 116.188 154.602C116.406 154.284 116.516 153.914 116.516 153.492C116.516 153.091 116.419 152.74 116.227 152.437C116.039 152.13 115.773 151.891 115.43 151.719C115.091 151.547 114.695 151.461 114.242 151.461C113.784 151.461 113.365 151.544 112.984 151.711C112.604 151.872 112.299 152.104 112.07 152.406C111.841 152.708 111.719 153.062 111.703 153.469H108.461C108.477 152.547 108.74 151.734 109.25 151.031C109.76 150.328 110.448 149.779 111.313 149.383C112.182 148.982 113.164 148.781 114.258 148.781C115.362 148.781 116.328 148.982 117.156 149.383C117.984 149.784 118.628 150.326 119.086 151.008C119.549 151.685 119.779 152.445 119.773 153.289C119.779 154.185 119.5 154.932 118.937 155.531C118.38 156.13 117.654 156.51 116.758 156.672V156.797C117.935 156.948 118.831 157.357 119.445 158.023C120.065 158.685 120.372 159.513 120.367 160.508C120.372 161.419 120.109 162.229 119.578 162.938C119.052 163.646 118.326 164.203 117.398 164.609C116.471 165.016 115.409 165.219 114.211 165.219ZM125.996 162.812L125.91 163.672C125.842 164.359 125.712 165.044 125.52 165.727C125.332 166.414 125.134 167.036 124.926 167.594C124.723 168.151 124.559 168.589 124.434 168.906H122.277C122.355 168.599 122.462 168.169 122.598 167.617C122.733 167.07 122.861 166.456 122.98 165.773C123.1 165.091 123.176 164.396 123.207 163.687L123.246 162.812H125.996ZM134.504 165.219C133.681 165.214 132.887 165.076 132.121 164.805C131.361 164.534 130.678 164.094 130.074 163.484C129.47 162.875 128.991 162.068 128.637 161.062C128.288 160.057 128.113 158.823 128.113 157.359C128.118 156.016 128.272 154.815 128.574 153.758C128.882 152.695 129.319 151.794 129.887 151.055C130.46 150.315 131.145 149.753 131.941 149.367C132.738 148.977 133.632 148.781 134.621 148.781C135.689 148.781 136.632 148.99 137.449 149.406C138.267 149.818 138.923 150.378 139.418 151.086C139.918 151.794 140.22 152.589 140.324 153.469H136.988C136.858 152.911 136.585 152.474 136.168 152.156C135.751 151.839 135.236 151.68 134.621 151.68C133.579 151.68 132.788 152.133 132.246 153.039C131.71 153.945 131.436 155.177 131.426 156.734H131.535C131.775 156.26 132.098 155.857 132.504 155.523C132.915 155.185 133.382 154.927 133.902 154.75C134.428 154.568 134.983 154.477 135.566 154.477C136.514 154.477 137.358 154.701 138.098 155.148C138.837 155.591 139.421 156.201 139.848 156.977C140.275 157.753 140.488 158.641 140.488 159.641C140.488 160.724 140.236 161.687 139.73 162.531C139.23 163.375 138.53 164.036 137.629 164.516C136.733 164.99 135.691 165.224 134.504 165.219ZM134.488 162.562C135.009 162.562 135.475 162.437 135.887 162.188C136.298 161.937 136.621 161.599 136.855 161.172C137.09 160.745 137.207 160.266 137.207 159.734C137.207 159.203 137.09 158.727 136.855 158.305C136.626 157.883 136.309 157.547 135.902 157.297C135.496 157.047 135.033 156.922 134.512 156.922C134.121 156.922 133.759 156.995 133.426 157.141C133.098 157.286 132.809 157.49 132.559 157.75C132.314 158.01 132.121 158.312 131.98 158.656C131.84 158.995 131.77 159.357 131.77 159.742C131.77 160.258 131.887 160.729 132.121 161.156C132.361 161.583 132.684 161.924 133.09 162.18C133.501 162.435 133.967 162.562 134.488 162.562ZM148.676 148.781C149.499 148.781 150.29 148.919 151.051 149.195C151.816 149.471 152.499 149.911 153.098 150.516C153.702 151.12 154.178 151.922 154.527 152.922C154.882 153.917 155.061 155.138 155.066 156.586C155.066 157.945 154.913 159.159 154.605 160.227C154.303 161.289 153.868 162.193 153.301 162.938C152.733 163.682 152.048 164.25 151.246 164.641C150.444 165.026 149.548 165.219 148.559 165.219C147.491 165.219 146.548 165.013 145.73 164.602C144.913 164.185 144.254 163.62 143.754 162.906C143.259 162.187 142.96 161.38 142.855 160.484H146.191C146.322 161.068 146.595 161.521 147.012 161.844C147.428 162.161 147.944 162.32 148.559 162.32C149.6 162.32 150.392 161.867 150.934 160.961C151.475 160.049 151.749 158.802 151.754 157.219H151.645C151.405 157.687 151.082 158.091 150.676 158.43C150.27 158.763 149.803 159.021 149.277 159.203C148.757 159.385 148.202 159.477 147.613 159.477C146.671 159.477 145.829 159.255 145.09 158.812C144.35 158.37 143.767 157.76 143.34 156.984C142.913 156.208 142.699 155.323 142.699 154.328C142.694 153.255 142.941 152.299 143.441 151.461C143.941 150.622 144.639 149.966 145.535 149.492C146.436 149.013 147.483 148.776 148.676 148.781ZM148.699 151.437C148.173 151.437 147.704 151.562 147.293 151.813C146.887 152.062 146.564 152.398 146.324 152.82C146.09 153.242 145.975 153.714 145.98 154.234C145.98 154.76 146.095 155.234 146.324 155.656C146.559 156.073 146.876 156.406 147.277 156.656C147.684 156.901 148.147 157.023 148.668 157.023C149.059 157.023 149.421 156.951 149.754 156.805C150.087 156.659 150.376 156.458 150.621 156.203C150.871 155.943 151.066 155.643 151.207 155.305C151.348 154.966 151.418 154.607 151.418 154.227C151.413 153.721 151.293 153.258 151.059 152.836C150.824 152.414 150.501 152.076 150.09 151.82C149.678 151.565 149.215 151.437 148.699 151.437ZM163.551 165.219C162.728 165.214 161.934 165.076 161.168 164.805C160.408 164.534 159.725 164.094 159.121 163.484C158.517 162.875 158.038 162.068 157.684 161.062C157.335 160.057 157.16 158.823 157.16 157.359C157.165 156.016 157.319 154.815 157.621 153.758C157.928 152.695 158.366 151.794 158.934 151.055C159.507 150.315 160.191 149.753 160.988 149.367C161.785 148.977 162.678 148.781 163.668 148.781C164.736 148.781 165.678 148.99 166.496 149.406C167.314 149.818 167.97 150.378 168.465 151.086C168.965 151.794 169.267 152.589 169.371 153.469H166.035C165.905 152.911 165.632 152.474 165.215 152.156C164.798 151.839 164.283 151.68 163.668 151.68C162.626 151.68 161.835 152.133 161.293 153.039C160.757 153.945 160.483 155.177 160.473 156.734H160.582C160.822 156.26 161.145 155.857 161.551 155.523C161.962 155.185 162.428 154.927 162.949 154.75C163.475 154.568 164.03 154.477 164.613 154.477C165.561 154.477 166.405 154.701 167.145 155.148C167.884 155.591 168.467 156.201 168.895 156.977C169.322 157.753 169.535 158.641 169.535 159.641C169.535 160.724 169.283 161.687 168.777 162.531C168.277 163.375 167.577 164.036 166.676 164.516C165.78 164.99 164.738 165.224 163.551 165.219ZM163.535 162.562C164.056 162.562 164.522 162.437 164.934 162.188C165.345 161.937 165.668 161.599 165.902 161.172C166.137 160.745 166.254 160.266 166.254 159.734C166.254 159.203 166.137 158.727 165.902 158.305C165.673 157.883 165.355 157.547 164.949 157.297C164.543 157.047 164.079 156.922 163.559 156.922C163.168 156.922 162.806 156.995 162.473 157.141C162.145 157.286 161.855 157.49 161.605 157.75C161.361 158.01 161.168 158.312 161.027 158.656C160.887 158.995 160.816 159.357 160.816 159.742C160.816 160.258 160.934 160.729 161.168 161.156C161.408 161.583 161.73 161.924 162.137 162.18C162.548 162.435 163.014 162.562 163.535 162.562ZM173.244 165.203C172.729 165.203 172.286 165.021 171.916 164.656C171.551 164.286 171.369 163.844 171.369 163.328C171.369 162.818 171.551 162.38 171.916 162.016C172.286 161.651 172.729 161.469 173.244 161.469C173.744 161.469 174.182 161.651 174.557 162.016C174.932 162.38 175.119 162.818 175.119 163.328C175.119 163.672 175.031 163.987 174.854 164.273C174.682 164.555 174.455 164.781 174.174 164.953C173.893 165.12 173.583 165.203 173.244 165.203ZM183.219 165.219C182.052 165.219 181.013 165.018 180.102 164.617C179.195 164.211 178.479 163.654 177.953 162.945C177.432 162.232 177.164 161.409 177.148 160.477H180.555C180.576 160.867 180.703 161.211 180.938 161.508C181.177 161.799 181.495 162.026 181.891 162.188C182.286 162.349 182.732 162.43 183.227 162.43C183.742 162.43 184.198 162.339 184.594 162.156C184.99 161.974 185.299 161.721 185.523 161.398C185.747 161.076 185.859 160.703 185.859 160.281C185.859 159.854 185.74 159.477 185.5 159.148C185.266 158.815 184.927 158.555 184.484 158.367C184.047 158.18 183.526 158.086 182.922 158.086H181.43V155.602H182.922C183.432 155.602 183.883 155.513 184.273 155.336C184.669 155.159 184.977 154.914 185.195 154.602C185.414 154.284 185.523 153.914 185.523 153.492C185.523 153.091 185.427 152.74 185.234 152.437C185.047 152.13 184.781 151.891 184.438 151.719C184.099 151.547 183.703 151.461 183.25 151.461C182.792 151.461 182.372 151.544 181.992 151.711C181.612 151.872 181.307 152.104 181.078 152.406C180.849 152.708 180.727 153.062 180.711 153.469H177.469C177.484 152.547 177.747 151.734 178.258 151.031C178.768 150.328 179.456 149.779 180.32 149.383C181.19 148.982 182.172 148.781 183.266 148.781C184.37 148.781 185.336 148.982 186.164 149.383C186.992 149.784 187.635 150.326 188.094 151.008C188.557 151.685 188.786 152.445 188.781 153.289C188.786 154.185 188.508 154.932 187.945 155.531C187.388 156.13 186.661 156.51 185.766 156.672V156.797C186.943 156.948 187.839 157.357 188.453 158.023C189.073 158.685 189.38 159.513 189.375 160.508C189.38 161.419 189.117 162.229 188.586 162.938C188.06 163.646 187.333 164.203 186.406 164.609C185.479 165.016 184.417 165.219 183.219 165.219ZM191.564 162.188V159.523L198.244 149H200.541V152.687H199.182L194.971 159.352V159.477H204.463V162.188H191.564ZM199.244 165V161.375L199.307 160.195V149H202.479V165H199.244ZM220.582 153.602C220.52 152.971 220.251 152.482 219.777 152.133C219.303 151.784 218.66 151.609 217.848 151.609C217.296 151.609 216.829 151.687 216.449 151.844C216.069 151.995 215.777 152.206 215.574 152.477C215.376 152.747 215.277 153.055 215.277 153.398C215.267 153.685 215.327 153.935 215.457 154.148C215.592 154.362 215.777 154.547 216.012 154.703C216.246 154.854 216.517 154.987 216.824 155.102C217.132 155.211 217.46 155.305 217.809 155.383L219.246 155.727C219.944 155.883 220.585 156.091 221.168 156.352C221.751 156.612 222.257 156.932 222.684 157.312C223.111 157.693 223.441 158.141 223.676 158.656C223.915 159.172 224.038 159.763 224.043 160.43C224.038 161.409 223.788 162.258 223.293 162.977C222.803 163.69 222.095 164.245 221.168 164.641C220.246 165.031 219.134 165.227 217.832 165.227C216.54 165.227 215.415 165.029 214.457 164.633C213.504 164.237 212.759 163.651 212.223 162.875C211.691 162.094 211.413 161.128 211.387 159.977H214.66C214.697 160.513 214.85 160.961 215.121 161.32C215.397 161.674 215.764 161.943 216.223 162.125C216.686 162.302 217.21 162.391 217.793 162.391C218.366 162.391 218.863 162.307 219.285 162.141C219.712 161.974 220.043 161.742 220.277 161.445C220.512 161.148 220.629 160.807 220.629 160.422C220.629 160.062 220.522 159.76 220.309 159.516C220.1 159.271 219.793 159.062 219.387 158.891C218.986 158.719 218.493 158.562 217.91 158.422L216.168 157.984C214.819 157.656 213.754 157.143 212.973 156.445C212.191 155.747 211.803 154.807 211.809 153.625C211.803 152.656 212.061 151.81 212.582 151.086C213.108 150.362 213.829 149.797 214.746 149.391C215.663 148.984 216.704 148.781 217.871 148.781C219.059 148.781 220.095 148.984 220.98 149.391C221.871 149.797 222.564 150.362 223.059 151.086C223.553 151.81 223.809 152.648 223.824 153.602H220.582ZM226.318 165V149H237.1V151.789H229.701V155.602H236.545V158.391H229.701V162.211H237.131V165H226.318ZM239.789 165V149H250.57V151.789H243.172V155.602H250.016V158.391H243.172V162.211H250.602V165H239.789ZM258.932 165H253.26V149H258.979C260.588 149 261.973 149.32 263.135 149.961C264.296 150.596 265.189 151.51 265.814 152.703C266.445 153.896 266.76 155.323 266.76 156.984C266.76 158.651 266.445 160.083 265.814 161.281C265.189 162.479 264.291 163.398 263.119 164.039C261.952 164.68 260.557 165 258.932 165ZM256.643 162.102H258.791C259.791 162.102 260.632 161.924 261.314 161.57C262.002 161.211 262.518 160.656 262.861 159.906C263.21 159.151 263.385 158.177 263.385 156.984C263.385 155.802 263.21 154.836 262.861 154.086C262.518 153.336 262.005 152.784 261.322 152.43C260.64 152.076 259.799 151.898 258.799 151.898H256.643V162.102ZM277.945 153.602C277.883 152.971 277.615 152.482 277.141 152.133C276.667 151.784 276.023 151.609 275.211 151.609C274.659 151.609 274.193 151.687 273.813 151.844C273.432 151.995 273.141 152.206 272.938 152.477C272.74 152.747 272.641 153.055 272.641 153.398C272.63 153.685 272.69 153.935 272.82 154.148C272.956 154.362 273.141 154.547 273.375 154.703C273.609 154.854 273.88 154.987 274.187 155.102C274.495 155.211 274.823 155.305 275.172 155.383L276.609 155.727C277.307 155.883 277.948 156.091 278.531 156.352C279.115 156.612 279.62 156.932 280.047 157.312C280.474 157.693 280.805 158.141 281.039 158.656C281.279 159.172 281.401 159.763 281.406 160.43C281.401 161.409 281.151 162.258 280.656 162.977C280.167 163.69 279.458 164.245 278.531 164.641C277.609 165.031 276.497 165.227 275.195 165.227C273.904 165.227 272.779 165.029 271.82 164.633C270.867 164.237 270.122 163.651 269.586 162.875C269.055 162.094 268.776 161.128 268.75 159.977H272.023C272.06 160.513 272.214 160.961 272.484 161.32C272.76 161.674 273.128 161.943 273.586 162.125C274.049 162.302 274.573 162.391 275.156 162.391C275.729 162.391 276.227 162.307 276.648 162.141C277.076 161.974 277.406 161.742 277.641 161.445C277.875 161.148 277.992 160.807 277.992 160.422C277.992 160.062 277.885 159.76 277.672 159.516C277.464 159.271 277.156 159.062 276.75 158.891C276.349 158.719 275.857 158.562 275.273 158.422L273.531 157.984C272.182 157.656 271.117 157.143 270.336 156.445C269.555 155.747 269.167 154.807 269.172 153.625C269.167 152.656 269.424 151.81 269.945 151.086C270.471 150.362 271.193 149.797 272.109 149.391C273.026 148.984 274.068 148.781 275.234 148.781C276.422 148.781 277.458 148.984 278.344 149.391C279.234 149.797 279.927 150.362 280.422 151.086C280.917 151.81 281.172 152.648 281.187 153.602H277.945Z" fill="white"/>
<path d="M98.2393 224.674C98.1882 224.158 97.9688 223.758 97.581 223.472C97.1932 223.187 96.6669 223.044 96.0021 223.044C95.5504 223.044 95.169 223.108 94.858 223.236C94.5469 223.359 94.3082 223.532 94.142 223.754C93.9801 223.975 93.8991 224.227 93.8991 224.508C93.8906 224.742 93.9396 224.947 94.0462 225.121C94.157 225.296 94.3082 225.447 94.5 225.575C94.6918 225.699 94.9134 225.808 95.1648 225.901C95.4162 225.991 95.6847 226.067 95.9702 226.131L97.1463 226.413C97.7173 226.54 98.2415 226.711 98.7188 226.924C99.196 227.137 99.6094 227.399 99.9588 227.71C100.308 228.021 100.579 228.388 100.771 228.81C100.967 229.232 101.067 229.715 101.071 230.261C101.067 231.062 100.862 231.756 100.457 232.344C100.057 232.928 99.4773 233.382 98.7188 233.706C97.9645 234.026 97.0547 234.185 95.9893 234.185C94.9325 234.185 94.0121 234.023 93.228 233.7C92.4482 233.376 91.8388 232.896 91.3999 232.261C90.9652 231.622 90.7372 230.832 90.7159 229.89H93.3942C93.424 230.329 93.5497 230.695 93.7713 230.989C93.9972 231.279 94.2976 231.499 94.6726 231.648C95.0518 231.793 95.4801 231.865 95.9574 231.865C96.4261 231.865 96.8331 231.797 97.1783 231.661C97.5277 231.524 97.7983 231.335 97.9901 231.092C98.1818 230.849 98.2777 230.57 98.2777 230.254C98.2777 229.96 98.1903 229.713 98.0156 229.513C97.8452 229.312 97.5938 229.142 97.2614 229.001C96.9332 228.861 96.5305 228.733 96.0533 228.618L94.6278 228.26C93.5241 227.991 92.6527 227.572 92.0135 227.001C91.3743 226.43 91.0568 225.661 91.0611 224.693C91.0568 223.901 91.2678 223.208 91.6939 222.616C92.1243 222.023 92.7145 221.561 93.4645 221.229C94.2145 220.896 95.0668 220.73 96.0213 220.73C96.9929 220.73 97.8409 220.896 98.5653 221.229C99.294 221.561 99.8608 222.023 100.266 222.616C100.67 223.208 100.879 223.894 100.892 224.674H98.2393ZM107.356 234.192C106.346 234.192 105.477 233.987 104.748 233.578C104.024 233.165 103.465 232.581 103.073 231.827C102.681 231.068 102.485 230.171 102.485 229.136C102.485 228.126 102.681 227.239 103.073 226.477C103.465 225.714 104.017 225.119 104.729 224.693C105.445 224.267 106.284 224.054 107.247 224.054C107.895 224.054 108.498 224.158 109.056 224.367C109.619 224.572 110.109 224.881 110.526 225.294C110.948 225.707 111.276 226.227 111.511 226.854C111.745 227.476 111.862 228.205 111.862 229.04V229.788H103.572V228.1H109.299C109.299 227.708 109.214 227.361 109.044 227.058C108.873 226.756 108.637 226.519 108.334 226.349C108.036 226.174 107.688 226.087 107.292 226.087C106.879 226.087 106.512 226.183 106.193 226.374C105.877 226.562 105.63 226.815 105.451 227.135C105.272 227.45 105.181 227.802 105.176 228.19V229.794C105.176 230.28 105.266 230.7 105.445 231.053C105.628 231.407 105.886 231.68 106.218 231.871C106.551 232.063 106.945 232.159 107.401 232.159C107.703 232.159 107.98 232.116 108.232 232.031C108.483 231.946 108.698 231.818 108.877 231.648C109.056 231.477 109.193 231.268 109.286 231.021L111.805 231.188C111.677 231.793 111.415 232.321 111.019 232.773C110.627 233.22 110.119 233.57 109.497 233.821C108.879 234.068 108.166 234.192 107.356 234.192ZM116.362 228.324V234H113.639V224.182H116.235V225.914H116.35C116.567 225.343 116.931 224.891 117.443 224.559C117.954 224.222 118.574 224.054 119.303 224.054C119.985 224.054 120.579 224.203 121.086 224.501C121.593 224.8 121.987 225.226 122.269 225.78C122.55 226.33 122.691 226.986 122.691 227.749V234H119.968V228.234C119.972 227.634 119.818 227.165 119.507 226.828C119.196 226.487 118.768 226.317 118.222 226.317C117.856 226.317 117.532 226.396 117.251 226.553C116.974 226.711 116.757 226.941 116.599 227.244C116.445 227.542 116.367 227.902 116.362 228.324ZM128.455 234.16C127.709 234.16 127.033 233.968 126.428 233.585C125.827 233.197 125.35 232.628 124.996 231.878C124.647 231.124 124.472 230.199 124.472 229.104C124.472 227.979 124.653 227.043 125.016 226.298C125.378 225.548 125.859 224.987 126.46 224.616C127.065 224.241 127.728 224.054 128.448 224.054C128.998 224.054 129.456 224.148 129.822 224.335C130.193 224.518 130.491 224.749 130.717 225.026C130.947 225.298 131.122 225.567 131.241 225.831H131.325V220.909H134.041V234H131.357V232.428H131.241C131.114 232.7 130.933 232.971 130.698 233.239C130.468 233.504 130.168 233.723 129.797 233.898C129.43 234.072 128.983 234.16 128.455 234.16ZM129.317 231.993C129.756 231.993 130.127 231.874 130.43 231.635C130.737 231.392 130.971 231.053 131.133 230.619C131.299 230.184 131.382 229.675 131.382 229.091C131.382 228.507 131.301 228 131.139 227.57C130.977 227.139 130.743 226.807 130.436 226.572C130.129 226.338 129.756 226.221 129.317 226.221C128.87 226.221 128.493 226.342 128.186 226.585C127.879 226.828 127.647 227.165 127.489 227.595C127.332 228.026 127.253 228.524 127.253 229.091C127.253 229.662 127.332 230.167 127.489 230.606C127.651 231.04 127.884 231.381 128.186 231.629C128.493 231.871 128.87 231.993 129.317 231.993Z" fill="white"/>
<path d="M243.138 234V220.909H248.303C249.291 220.909 250.135 221.086 250.834 221.44C251.537 221.789 252.072 222.286 252.438 222.929C252.809 223.568 252.994 224.32 252.994 225.185C252.994 226.055 252.807 226.803 252.432 227.429C252.057 228.051 251.513 228.528 250.802 228.861C250.094 229.193 249.238 229.359 248.232 229.359H244.774V227.135H247.785C248.313 227.135 248.752 227.062 249.102 226.918C249.451 226.773 249.711 226.555 249.881 226.266C250.056 225.976 250.143 225.616 250.143 225.185C250.143 224.751 250.056 224.384 249.881 224.086C249.711 223.788 249.449 223.562 249.095 223.408C248.746 223.251 248.305 223.172 247.772 223.172H245.906V234H243.138ZM250.207 228.043L253.461 234H250.406L247.222 228.043H250.207ZM259.215 234.192C258.205 234.192 257.336 233.987 256.607 233.578C255.883 233.165 255.325 232.581 254.933 231.827C254.541 231.068 254.345 230.171 254.345 229.136C254.345 228.126 254.541 227.239 254.933 226.477C255.325 225.714 255.877 225.119 256.588 224.693C257.304 224.267 258.144 224.054 259.107 224.054C259.754 224.054 260.357 224.158 260.916 224.367C261.478 224.572 261.968 224.881 262.386 225.294C262.808 225.707 263.136 226.227 263.37 226.854C263.605 227.476 263.722 228.205 263.722 229.04V229.788H255.431V228.1H261.159C261.159 227.708 261.073 227.361 260.903 227.058C260.732 226.756 260.496 226.519 260.193 226.349C259.895 226.174 259.548 226.087 259.151 226.087C258.738 226.087 258.372 226.183 258.052 226.374C257.737 226.562 257.49 226.815 257.311 227.135C257.132 227.45 257.04 227.802 257.036 228.19V229.794C257.036 230.28 257.125 230.7 257.304 231.053C257.487 231.407 257.745 231.68 258.078 231.871C258.41 232.063 258.804 232.159 259.26 232.159C259.563 232.159 259.84 232.116 260.091 232.031C260.343 231.946 260.558 231.818 260.737 231.648C260.916 231.477 261.052 231.268 261.146 231.021L263.664 231.188C263.536 231.793 263.274 232.321 262.878 232.773C262.486 233.22 261.979 233.57 261.357 233.821C260.739 234.068 260.025 234.192 259.215 234.192ZM269.935 234.192C268.929 234.192 268.064 233.979 267.34 233.553C266.619 233.122 266.066 232.526 265.678 231.763C265.294 231 265.102 230.122 265.102 229.129C265.102 228.124 265.296 227.241 265.684 226.483C266.076 225.72 266.632 225.126 267.352 224.7C268.073 224.269 268.929 224.054 269.922 224.054C270.779 224.054 271.529 224.21 272.172 224.521C272.816 224.832 273.325 225.268 273.7 225.831C274.075 226.393 274.281 227.054 274.32 227.812H271.75C271.678 227.322 271.486 226.928 271.175 226.63C270.868 226.327 270.465 226.176 269.967 226.176C269.545 226.176 269.176 226.291 268.861 226.521C268.55 226.747 268.307 227.077 268.132 227.512C267.958 227.947 267.87 228.473 267.87 229.091C267.87 229.717 267.955 230.25 268.126 230.689C268.301 231.128 268.546 231.462 268.861 231.692C269.176 231.923 269.545 232.038 269.967 232.038C270.278 232.038 270.557 231.974 270.804 231.846C271.056 231.718 271.262 231.533 271.424 231.29C271.59 231.043 271.699 230.746 271.75 230.401H274.32C274.277 231.151 274.073 231.812 273.706 232.383C273.344 232.95 272.843 233.393 272.204 233.712C271.565 234.032 270.808 234.192 269.935 234.192ZM280.538 234.192C279.528 234.192 278.658 233.987 277.93 233.578C277.205 233.165 276.647 232.581 276.255 231.827C275.863 231.068 275.667 230.171 275.667 229.136C275.667 228.126 275.863 227.239 276.255 226.477C276.647 225.714 277.199 225.119 277.911 224.693C278.626 224.267 279.466 224.054 280.429 224.054C281.077 224.054 281.68 224.158 282.238 224.367C282.8 224.572 283.29 224.881 283.708 225.294C284.13 225.707 284.458 226.227 284.692 226.854C284.927 227.476 285.044 228.205 285.044 229.04V229.788H276.754V228.1H282.481C282.481 227.708 282.396 227.361 282.225 227.058C282.055 226.756 281.818 226.519 281.516 226.349C281.217 226.174 280.87 226.087 280.474 226.087C280.06 226.087 279.694 226.183 279.374 226.374C279.059 226.562 278.812 226.815 278.633 227.135C278.454 227.45 278.362 227.802 278.358 228.19V229.794C278.358 230.28 278.447 230.7 278.626 231.053C278.81 231.407 279.067 231.68 279.4 231.871C279.732 232.063 280.126 232.159 280.582 232.159C280.885 232.159 281.162 232.116 281.413 232.031C281.665 231.946 281.88 231.818 282.059 231.648C282.238 231.477 282.374 231.268 282.468 231.021L284.987 231.188C284.859 231.793 284.597 232.321 284.2 232.773C283.808 233.22 283.301 233.57 282.679 233.821C282.061 234.068 281.347 234.192 280.538 234.192ZM286.821 234V224.182H289.544V234H286.821ZM288.189 222.916C287.784 222.916 287.437 222.782 287.147 222.513C286.862 222.241 286.719 221.915 286.719 221.536C286.719 221.161 286.862 220.839 287.147 220.57C287.437 220.298 287.784 220.161 288.189 220.161C288.594 220.161 288.939 220.298 289.224 220.57C289.514 220.839 289.659 221.161 289.659 221.536C289.659 221.915 289.514 222.241 289.224 222.513C288.939 222.782 288.594 222.916 288.189 222.916ZM300.879 224.182L297.446 234H294.378L290.945 224.182H293.822L295.861 231.207H295.963L297.996 224.182H300.879ZM306.43 234.192C305.42 234.192 304.551 233.987 303.822 233.578C303.098 233.165 302.54 232.581 302.148 231.827C301.756 231.068 301.559 230.171 301.559 229.136C301.559 228.126 301.756 227.239 302.148 226.477C302.54 225.714 303.091 225.119 303.803 224.693C304.519 224.267 305.358 224.054 306.322 224.054C306.969 224.054 307.572 224.158 308.131 224.367C308.693 224.572 309.183 224.881 309.601 225.294C310.023 225.707 310.351 226.227 310.585 226.854C310.819 227.476 310.937 228.205 310.937 229.04V229.788H302.646V228.1H308.373C308.373 227.708 308.288 227.361 308.118 227.058C307.947 226.756 307.711 226.519 307.408 226.349C307.11 226.174 306.763 226.087 306.366 226.087C305.953 226.087 305.586 226.183 305.267 226.374C304.952 226.562 304.704 226.815 304.525 227.135C304.346 227.45 304.255 227.802 304.251 228.19V229.794C304.251 230.28 304.34 230.7 304.519 231.053C304.702 231.407 304.96 231.68 305.292 231.871C305.625 232.063 306.019 232.159 306.475 232.159C306.778 232.159 307.055 232.116 307.306 232.031C307.557 231.946 307.773 231.818 307.952 231.648C308.131 231.477 308.267 231.268 308.361 231.021L310.879 231.188C310.751 231.793 310.489 232.321 310.093 232.773C309.701 233.22 309.194 233.57 308.572 233.821C307.954 234.068 307.24 234.192 306.43 234.192Z" fill="white"/>
<path d="M131.886 121H130.409L134.682 109.364H136.136L140.409 121H138.932L135.455 111.205H135.364L131.886 121ZM132.432 116.455H138.386V117.705H132.432V116.455ZM148.082 112.273L144.855 121H143.491L140.264 112.273H141.719L144.128 119.227H144.219L146.628 112.273H148.082ZM152.155 121.205C151.602 121.205 151.1 121.1 150.649 120.892C150.198 120.68 149.84 120.375 149.575 119.977C149.31 119.576 149.178 119.091 149.178 118.523C149.178 118.023 149.276 117.617 149.473 117.307C149.67 116.992 149.933 116.746 150.263 116.568C150.592 116.39 150.956 116.258 151.354 116.17C151.755 116.08 152.159 116.008 152.564 115.955C153.094 115.886 153.524 115.835 153.854 115.801C154.187 115.763 154.429 115.701 154.581 115.614C154.736 115.527 154.814 115.375 154.814 115.159V115.114C154.814 114.553 154.661 114.117 154.354 113.807C154.051 113.496 153.59 113.341 152.973 113.341C152.333 113.341 151.831 113.481 151.467 113.761C151.104 114.042 150.848 114.341 150.7 114.659L149.428 114.205C149.655 113.674 149.958 113.261 150.337 112.966C150.719 112.667 151.136 112.458 151.587 112.341C152.041 112.22 152.488 112.159 152.928 112.159C153.208 112.159 153.53 112.193 153.893 112.261C154.261 112.326 154.615 112.46 154.956 112.665C155.301 112.869 155.587 113.178 155.814 113.591C156.041 114.004 156.155 114.557 156.155 115.25V121H154.814V119.818H154.746C154.655 120.008 154.503 120.21 154.291 120.426C154.079 120.642 153.797 120.826 153.445 120.977C153.092 121.129 152.662 121.205 152.155 121.205ZM152.359 120C152.89 120 153.337 119.896 153.7 119.688C154.068 119.479 154.344 119.21 154.53 118.881C154.719 118.551 154.814 118.205 154.814 117.841V116.614C154.757 116.682 154.632 116.744 154.439 116.801C154.25 116.854 154.03 116.902 153.78 116.943C153.534 116.981 153.293 117.015 153.058 117.045C152.827 117.072 152.64 117.095 152.496 117.114C152.147 117.159 151.821 117.233 151.518 117.335C151.219 117.434 150.977 117.583 150.791 117.784C150.609 117.981 150.518 118.25 150.518 118.591C150.518 119.057 150.691 119.409 151.036 119.648C151.384 119.883 151.825 120 152.359 120ZM158.602 121V112.273H159.943V121H158.602ZM159.284 110.818C159.023 110.818 158.797 110.729 158.608 110.551C158.422 110.373 158.33 110.159 158.33 109.909C158.33 109.659 158.422 109.445 158.608 109.267C158.797 109.089 159.023 109 159.284 109C159.545 109 159.769 109.089 159.955 109.267C160.144 109.445 160.239 109.659 160.239 109.909C160.239 110.159 160.144 110.373 159.955 110.551C159.769 110.729 159.545 110.818 159.284 110.818ZM163.74 109.364V121H162.399V109.364H163.74ZM168.764 121.205C168.211 121.205 167.709 121.1 167.259 120.892C166.808 120.68 166.45 120.375 166.185 119.977C165.92 119.576 165.787 119.091 165.787 118.523C165.787 118.023 165.885 117.617 166.082 117.307C166.279 116.992 166.543 116.746 166.872 116.568C167.202 116.39 167.565 116.258 167.963 116.17C168.365 116.08 168.768 116.008 169.173 115.955C169.704 115.886 170.134 115.835 170.463 115.801C170.796 115.763 171.039 115.701 171.19 115.614C171.346 115.527 171.423 115.375 171.423 115.159V115.114C171.423 114.553 171.27 114.117 170.963 113.807C170.66 113.496 170.2 113.341 169.582 113.341C168.942 113.341 168.44 113.481 168.077 113.761C167.713 114.042 167.457 114.341 167.31 114.659L166.037 114.205C166.264 113.674 166.567 113.261 166.946 112.966C167.329 112.667 167.745 112.458 168.196 112.341C168.651 112.22 169.098 112.159 169.537 112.159C169.817 112.159 170.139 112.193 170.503 112.261C170.87 112.326 171.224 112.46 171.565 112.665C171.91 112.869 172.196 113.178 172.423 113.591C172.651 114.004 172.764 114.557 172.764 115.25V121H171.423V119.818H171.355C171.264 120.008 171.113 120.21 170.901 120.426C170.688 120.642 170.406 120.826 170.054 120.977C169.702 121.129 169.272 121.205 168.764 121.205ZM168.969 120C169.499 120 169.946 119.896 170.31 119.688C170.677 119.479 170.954 119.21 171.139 118.881C171.329 118.551 171.423 118.205 171.423 117.841V116.614C171.366 116.682 171.241 116.744 171.048 116.801C170.859 116.854 170.639 116.902 170.389 116.943C170.143 116.981 169.902 117.015 169.668 117.045C169.437 117.072 169.249 117.095 169.105 117.114C168.757 117.159 168.431 117.233 168.128 117.335C167.829 117.434 167.586 117.583 167.401 117.784C167.219 117.981 167.128 118.25 167.128 118.591C167.128 119.057 167.3 119.409 167.645 119.648C167.993 119.883 168.435 120 168.969 120ZM175.393 121V109.364H176.734V113.659H176.848C176.946 113.508 177.083 113.314 177.257 113.08C177.435 112.841 177.689 112.629 178.018 112.443C178.352 112.254 178.803 112.159 179.371 112.159C180.106 112.159 180.753 112.343 181.314 112.71C181.875 113.078 182.312 113.598 182.626 114.273C182.941 114.947 183.098 115.742 183.098 116.659C183.098 117.583 182.941 118.384 182.626 119.062C182.312 119.737 181.876 120.259 181.32 120.631C180.763 120.998 180.121 121.182 179.393 121.182C178.833 121.182 178.384 121.089 178.047 120.903C177.71 120.714 177.45 120.5 177.268 120.261C177.087 120.019 176.946 119.818 176.848 119.659H176.689V121H175.393ZM176.712 116.636C176.712 117.295 176.808 117.877 177.001 118.381C177.195 118.881 177.477 119.273 177.848 119.557C178.219 119.837 178.674 119.977 179.212 119.977C179.772 119.977 180.24 119.83 180.615 119.534C180.994 119.235 181.278 118.833 181.467 118.33C181.661 117.822 181.757 117.258 181.757 116.636C181.757 116.023 181.662 115.47 181.473 114.977C181.287 114.481 181.005 114.089 180.626 113.801C180.251 113.509 179.78 113.364 179.212 113.364C178.666 113.364 178.208 113.502 177.837 113.778C177.465 114.051 177.185 114.434 176.996 114.926C176.806 115.415 176.712 115.985 176.712 116.636ZM186.49 109.364V121H185.149V109.364H186.49ZM192.605 121.182C191.764 121.182 191.039 120.996 190.429 120.625C189.823 120.25 189.355 119.727 189.026 119.057C188.7 118.383 188.537 117.598 188.537 116.705C188.537 115.811 188.7 115.023 189.026 114.341C189.355 113.655 189.813 113.121 190.401 112.739C190.991 112.352 191.681 112.159 192.469 112.159C192.923 112.159 193.372 112.235 193.815 112.386C194.259 112.538 194.662 112.784 195.026 113.125C195.389 113.462 195.679 113.909 195.895 114.466C196.111 115.023 196.219 115.708 196.219 116.523V117.091H189.491V115.932H194.855C194.855 115.439 194.757 115 194.56 114.614C194.366 114.227 194.09 113.922 193.73 113.699C193.374 113.475 192.954 113.364 192.469 113.364C191.935 113.364 191.473 113.496 191.082 113.761C190.696 114.023 190.399 114.364 190.19 114.784C189.982 115.205 189.878 115.655 189.878 116.136V116.909C189.878 117.568 189.991 118.127 190.219 118.585C190.45 119.04 190.77 119.386 191.179 119.625C191.588 119.86 192.063 119.977 192.605 119.977C192.957 119.977 193.276 119.928 193.56 119.83C193.848 119.727 194.096 119.576 194.304 119.375C194.512 119.17 194.673 118.917 194.787 118.614L196.082 118.977C195.946 119.417 195.717 119.803 195.395 120.136C195.073 120.466 194.675 120.723 194.202 120.909C193.728 121.091 193.196 121.182 192.605 121.182ZM202.94 121V109.364H204.281V113.659H204.395C204.493 113.508 204.63 113.314 204.804 113.08C204.982 112.841 205.236 112.629 205.565 112.443C205.899 112.254 206.349 112.159 206.918 112.159C207.652 112.159 208.3 112.343 208.861 112.71C209.421 113.078 209.859 113.598 210.173 114.273C210.488 114.947 210.645 115.742 210.645 116.659C210.645 117.583 210.488 118.384 210.173 119.062C209.859 119.737 209.423 120.259 208.866 120.631C208.31 120.998 207.668 121.182 206.94 121.182C206.38 121.182 205.931 121.089 205.594 120.903C205.257 120.714 204.997 120.5 204.815 120.261C204.634 120.019 204.493 119.818 204.395 119.659H204.236V121H202.94ZM204.259 116.636C204.259 117.295 204.355 117.877 204.548 118.381C204.741 118.881 205.024 119.273 205.395 119.557C205.766 119.837 206.221 119.977 206.759 119.977C207.319 119.977 207.787 119.83 208.162 119.534C208.541 119.235 208.825 118.833 209.014 118.33C209.207 117.822 209.304 117.258 209.304 116.636C209.304 116.023 209.209 115.47 209.02 114.977C208.834 114.481 208.552 114.089 208.173 113.801C207.798 113.509 207.327 113.364 206.759 113.364C206.213 113.364 205.755 113.502 205.384 113.778C205.012 114.051 204.732 114.434 204.543 114.926C204.353 115.415 204.259 115.985 204.259 116.636ZM215.264 121.205C214.711 121.205 214.209 121.1 213.759 120.892C213.308 120.68 212.95 120.375 212.685 119.977C212.42 119.576 212.287 119.091 212.287 118.523C212.287 118.023 212.385 117.617 212.582 117.307C212.779 116.992 213.043 116.746 213.372 116.568C213.702 116.39 214.065 116.258 214.463 116.17C214.865 116.08 215.268 116.008 215.673 115.955C216.204 115.886 216.634 115.835 216.963 115.801C217.296 115.763 217.539 115.701 217.69 115.614C217.846 115.527 217.923 115.375 217.923 115.159V115.114C217.923 114.553 217.77 114.117 217.463 113.807C217.16 113.496 216.7 113.341 216.082 113.341C215.442 113.341 214.94 113.481 214.577 113.761C214.213 114.042 213.957 114.341 213.81 114.659L212.537 114.205C212.764 113.674 213.067 113.261 213.446 112.966C213.829 112.667 214.245 112.458 214.696 112.341C215.151 112.22 215.598 112.159 216.037 112.159C216.317 112.159 216.639 112.193 217.003 112.261C217.37 112.326 217.724 112.46 218.065 112.665C218.41 112.869 218.696 113.178 218.923 113.591C219.151 114.004 219.264 114.557 219.264 115.25V121H217.923V119.818H217.855C217.764 120.008 217.613 120.21 217.401 120.426C217.188 120.642 216.906 120.826 216.554 120.977C216.202 121.129 215.772 121.205 215.264 121.205ZM215.469 120C215.999 120 216.446 119.896 216.81 119.688C217.177 119.479 217.454 119.21 217.639 118.881C217.829 118.551 217.923 118.205 217.923 117.841V116.614C217.866 116.682 217.741 116.744 217.548 116.801C217.359 116.854 217.139 116.902 216.889 116.943C216.643 116.981 216.402 117.015 216.168 117.045C215.937 117.072 215.749 117.095 215.605 117.114C215.257 117.159 214.931 117.233 214.628 117.335C214.329 117.434 214.086 117.583 213.901 117.784C213.719 117.981 213.628 118.25 213.628 118.591C213.628 119.057 213.8 119.409 214.145 119.648C214.493 119.883 214.935 120 215.469 120ZM223.053 109.364V121H221.712V109.364H223.053ZM228.077 121.205C227.524 121.205 227.022 121.1 226.571 120.892C226.12 120.68 225.762 120.375 225.497 119.977C225.232 119.576 225.099 119.091 225.099 118.523C225.099 118.023 225.198 117.617 225.395 117.307C225.592 116.992 225.855 116.746 226.185 116.568C226.514 116.39 226.878 116.258 227.276 116.17C227.677 116.08 228.08 116.008 228.486 115.955C229.016 115.886 229.446 115.835 229.776 115.801C230.109 115.763 230.351 115.701 230.503 115.614C230.658 115.527 230.736 115.375 230.736 115.159V115.114C230.736 114.553 230.582 114.117 230.276 113.807C229.973 113.496 229.512 113.341 228.895 113.341C228.255 113.341 227.753 113.481 227.389 113.761C227.026 114.042 226.77 114.341 226.622 114.659L225.349 114.205C225.577 113.674 225.88 113.261 226.259 112.966C226.641 112.667 227.058 112.458 227.509 112.341C227.963 112.22 228.41 112.159 228.849 112.159C229.13 112.159 229.452 112.193 229.815 112.261C230.183 112.326 230.537 112.46 230.878 112.665C231.223 112.869 231.509 113.178 231.736 113.591C231.963 114.004 232.077 114.557 232.077 115.25V121H230.736V119.818H230.668C230.577 120.008 230.425 120.21 230.213 120.426C230.001 120.642 229.719 120.826 229.366 120.977C229.014 121.129 228.584 121.205 228.077 121.205ZM228.281 120C228.812 120 229.259 119.896 229.622 119.688C229.99 119.479 230.266 119.21 230.452 118.881C230.641 118.551 230.736 118.205 230.736 117.841V116.614C230.679 116.682 230.554 116.744 230.361 116.801C230.171 116.854 229.952 116.902 229.702 116.943C229.455 116.981 229.215 117.015 228.98 117.045C228.749 117.072 228.562 117.095 228.418 117.114C228.069 117.159 227.743 117.233 227.44 117.335C227.141 117.434 226.899 117.583 226.713 117.784C226.531 117.981 226.44 118.25 226.44 118.591C226.44 119.057 226.613 119.409 226.957 119.648C227.306 119.883 227.747 120 228.281 120ZM235.865 115.75V121H234.524V112.273H235.82V113.636H235.933C236.138 113.193 236.448 112.837 236.865 112.568C237.282 112.295 237.82 112.159 238.479 112.159C239.07 112.159 239.587 112.28 240.03 112.523C240.473 112.761 240.818 113.125 241.064 113.614C241.31 114.098 241.433 114.712 241.433 115.455V121H240.092V115.545C240.092 114.86 239.914 114.326 239.558 113.943C239.202 113.557 238.714 113.364 238.092 113.364C237.664 113.364 237.282 113.456 236.945 113.642C236.611 113.828 236.348 114.098 236.155 114.455C235.962 114.811 235.865 115.242 235.865 115.75ZM247.429 121.182C246.611 121.182 245.906 120.989 245.315 120.602C244.724 120.216 244.27 119.684 243.952 119.006C243.634 118.328 243.474 117.553 243.474 116.682C243.474 115.795 243.637 115.013 243.963 114.335C244.293 113.653 244.751 113.121 245.338 112.739C245.929 112.352 246.618 112.159 247.406 112.159C248.02 112.159 248.573 112.273 249.065 112.5C249.558 112.727 249.961 113.045 250.276 113.455C250.59 113.864 250.785 114.341 250.861 114.886H249.52C249.418 114.489 249.19 114.136 248.838 113.83C248.49 113.519 248.02 113.364 247.429 113.364C246.906 113.364 246.448 113.5 246.054 113.773C245.664 114.042 245.359 114.422 245.139 114.915C244.923 115.403 244.815 115.977 244.815 116.636C244.815 117.311 244.921 117.898 245.134 118.398C245.349 118.898 245.652 119.286 246.043 119.562C246.437 119.839 246.899 119.977 247.429 119.977C247.777 119.977 248.094 119.917 248.378 119.795C248.662 119.674 248.902 119.5 249.099 119.273C249.296 119.045 249.437 118.773 249.52 118.455H250.861C250.785 118.97 250.598 119.434 250.298 119.847C250.003 120.256 249.611 120.581 249.122 120.824C248.637 121.062 248.073 121.182 247.429 121.182ZM256.48 121.182C255.639 121.182 254.914 120.996 254.304 120.625C253.698 120.25 253.23 119.727 252.901 119.057C252.575 118.383 252.412 117.598 252.412 116.705C252.412 115.811 252.575 115.023 252.901 114.341C253.23 113.655 253.688 113.121 254.276 112.739C254.866 112.352 255.556 112.159 256.344 112.159C256.798 112.159 257.247 112.235 257.69 112.386C258.134 112.538 258.537 112.784 258.901 113.125C259.264 113.462 259.554 113.909 259.77 114.466C259.986 115.023 260.094 115.708 260.094 116.523V117.091H253.366V115.932H258.73C258.73 115.439 258.632 115 258.435 114.614C258.241 114.227 257.965 113.922 257.605 113.699C257.249 113.475 256.829 113.364 256.344 113.364C255.81 113.364 255.348 113.496 254.957 113.761C254.571 114.023 254.274 114.364 254.065 114.784C253.857 115.205 253.753 115.655 253.753 116.136V116.909C253.753 117.568 253.866 118.127 254.094 118.585C254.325 119.04 254.645 119.386 255.054 119.625C255.463 119.86 255.938 119.977 256.48 119.977C256.832 119.977 257.151 119.928 257.435 119.83C257.723 119.727 257.971 119.576 258.179 119.375C258.387 119.17 258.548 118.917 258.662 118.614L259.957 118.977C259.821 119.417 259.592 119.803 259.27 120.136C258.948 120.466 258.55 120.723 258.077 120.909C257.603 121.091 257.071 121.182 256.48 121.182Z" fill="white"/>
<path d="M157.295 178.364V190H155.886V179.841H155.818L152.977 181.727V180.295L155.886 178.364H157.295ZM164.369 190.159C163.589 190.159 162.9 190.021 162.301 189.744C161.706 189.464 161.242 189.08 160.909 188.591C160.576 188.098 160.411 187.538 160.415 186.909C160.411 186.417 160.508 185.962 160.705 185.545C160.902 185.125 161.17 184.775 161.511 184.494C161.856 184.21 162.241 184.03 162.665 183.955V183.886C162.108 183.742 161.665 183.43 161.335 182.949C161.006 182.464 160.843 181.913 160.847 181.295C160.843 180.705 160.992 180.176 161.295 179.71C161.598 179.244 162.015 178.877 162.545 178.608C163.08 178.339 163.688 178.205 164.369 178.205C165.044 178.205 165.646 178.339 166.176 178.608C166.706 178.877 167.123 179.244 167.426 179.71C167.733 180.176 167.888 180.705 167.892 181.295C167.888 181.913 167.72 182.464 167.386 182.949C167.057 183.43 166.619 183.742 166.074 183.886V183.955C166.494 184.03 166.873 184.21 167.21 184.494C167.547 184.775 167.816 185.125 168.017 185.545C168.218 185.962 168.32 186.417 168.324 186.909C168.32 187.538 168.15 188.098 167.812 188.591C167.479 189.08 167.015 189.464 166.42 189.744C165.83 190.021 165.146 190.159 164.369 190.159ZM164.369 188.909C164.896 188.909 165.35 188.824 165.733 188.653C166.116 188.483 166.411 188.242 166.619 187.932C166.828 187.621 166.934 187.258 166.938 186.841C166.934 186.402 166.82 186.013 166.597 185.676C166.373 185.339 166.068 185.074 165.682 184.881C165.299 184.687 164.862 184.591 164.369 184.591C163.873 184.591 163.43 184.687 163.04 184.881C162.653 185.074 162.348 185.339 162.125 185.676C161.905 186.013 161.797 186.402 161.801 186.841C161.797 187.258 161.898 187.621 162.102 187.932C162.311 188.242 162.608 188.483 162.994 188.653C163.381 188.824 163.839 188.909 164.369 188.909ZM164.369 183.386C164.786 183.386 165.155 183.303 165.477 183.136C165.803 182.97 166.059 182.737 166.244 182.438C166.43 182.138 166.525 181.788 166.528 181.386C166.525 180.992 166.432 180.65 166.25 180.358C166.068 180.062 165.816 179.835 165.494 179.676C165.172 179.513 164.797 179.432 164.369 179.432C163.934 179.432 163.553 179.513 163.227 179.676C162.902 179.835 162.65 180.062 162.472 180.358C162.294 180.65 162.206 180.992 162.21 181.386C162.206 181.788 162.295 182.138 162.477 182.438C162.663 182.737 162.919 182.97 163.244 183.136C163.57 183.303 163.945 183.386 164.369 183.386ZM174.592 178.364V190H173.183V179.841H173.115L170.274 181.727V180.295L173.183 178.364H174.592ZM178.251 190.091C177.971 190.091 177.731 189.991 177.53 189.79C177.329 189.589 177.229 189.348 177.229 189.068C177.229 188.788 177.329 188.547 177.53 188.347C177.731 188.146 177.971 188.045 178.251 188.045C178.532 188.045 178.772 188.146 178.973 188.347C179.174 188.547 179.274 188.788 179.274 189.068C179.274 189.254 179.227 189.424 179.132 189.58C179.041 189.735 178.918 189.86 178.763 189.955C178.611 190.045 178.441 190.091 178.251 190.091ZM185.047 190.159C184.191 190.159 183.462 189.926 182.859 189.46C182.257 188.991 181.797 188.311 181.479 187.42C181.161 186.527 181.001 185.447 181.001 184.182C181.001 182.924 181.161 181.85 181.479 180.96C181.801 180.066 182.263 179.384 182.865 178.915C183.471 178.441 184.198 178.205 185.047 178.205C185.895 178.205 186.621 178.441 187.223 178.915C187.829 179.384 188.291 180.066 188.609 180.96C188.931 181.85 189.092 182.924 189.092 184.182C189.092 185.447 188.933 186.527 188.615 187.42C188.297 188.311 187.837 188.991 187.234 189.46C186.632 189.926 185.903 190.159 185.047 190.159ZM185.047 188.909C185.895 188.909 186.554 188.5 187.024 187.682C187.494 186.864 187.729 185.697 187.729 184.182C187.729 183.174 187.621 182.316 187.405 181.608C187.193 180.9 186.886 180.36 186.484 179.989C186.087 179.617 185.607 179.432 185.047 179.432C184.206 179.432 183.549 179.847 183.075 180.676C182.602 181.502 182.365 182.67 182.365 184.182C182.365 185.189 182.471 186.045 182.683 186.75C182.895 187.455 183.2 187.991 183.598 188.358C184 188.725 184.482 188.909 185.047 188.909ZM190.979 187.614V186.455L196.092 178.364H196.933V180.159H196.365L192.501 186.273V186.364H199.388V187.614H190.979ZM196.456 190V187.261V186.722V178.364H197.797V190H196.456ZM213.858 178.364H215.267V186.068C215.267 186.864 215.08 187.574 214.705 188.199C214.333 188.82 213.809 189.311 213.131 189.67C212.453 190.027 211.657 190.205 210.744 190.205C209.831 190.205 209.036 190.027 208.358 189.67C207.68 189.311 207.153 188.82 206.778 188.199C206.407 187.574 206.222 186.864 206.222 186.068V178.364H207.631V185.955C207.631 186.523 207.756 187.028 208.006 187.472C208.256 187.911 208.612 188.258 209.074 188.511C209.54 188.761 210.097 188.886 210.744 188.886C211.392 188.886 211.949 188.761 212.415 188.511C212.881 188.258 213.237 187.911 213.483 187.472C213.733 187.028 213.858 186.523 213.858 185.955V178.364ZM224.445 181.273C224.376 180.697 224.1 180.25 223.615 179.932C223.13 179.614 222.536 179.455 221.831 179.455C221.316 179.455 220.865 179.538 220.479 179.705C220.096 179.871 219.797 180.1 219.581 180.392C219.369 180.684 219.263 181.015 219.263 181.386C219.263 181.697 219.337 181.964 219.484 182.188C219.636 182.407 219.829 182.591 220.064 182.739C220.299 182.883 220.545 183.002 220.803 183.097C221.06 183.187 221.297 183.261 221.513 183.318L222.695 183.636C222.998 183.716 223.335 183.826 223.706 183.966C224.081 184.106 224.439 184.297 224.78 184.54C225.125 184.778 225.409 185.085 225.632 185.46C225.856 185.835 225.967 186.295 225.967 186.841C225.967 187.47 225.803 188.038 225.473 188.545C225.147 189.053 224.67 189.456 224.041 189.756C223.416 190.055 222.657 190.205 221.763 190.205C220.929 190.205 220.208 190.07 219.598 189.801C218.992 189.532 218.515 189.157 218.166 188.676C217.821 188.195 217.626 187.636 217.581 187H219.036C219.073 187.439 219.221 187.803 219.479 188.091C219.74 188.375 220.07 188.587 220.467 188.727C220.869 188.864 221.301 188.932 221.763 188.932C222.301 188.932 222.784 188.845 223.212 188.67C223.64 188.492 223.979 188.246 224.229 187.932C224.479 187.614 224.604 187.242 224.604 186.818C224.604 186.432 224.496 186.117 224.28 185.875C224.064 185.633 223.78 185.436 223.428 185.284C223.075 185.133 222.695 185 222.286 184.886L220.854 184.477C219.945 184.216 219.225 183.843 218.695 183.358C218.164 182.873 217.899 182.239 217.899 181.455C217.899 180.803 218.075 180.235 218.428 179.75C218.784 179.261 219.261 178.883 219.859 178.614C220.462 178.341 221.134 178.205 221.876 178.205C222.626 178.205 223.293 178.339 223.876 178.608C224.46 178.873 224.922 179.237 225.263 179.699C225.607 180.161 225.789 180.686 225.808 181.273H224.445ZM231.875 190H228.284V178.364H232.034C233.163 178.364 234.129 178.597 234.932 179.062C235.735 179.525 236.35 180.189 236.778 181.057C237.206 181.92 237.42 182.955 237.42 184.159C237.42 185.371 237.205 186.415 236.773 187.29C236.341 188.161 235.712 188.831 234.886 189.301C234.061 189.767 233.057 190 231.875 190ZM229.693 188.75H231.784C232.746 188.75 233.544 188.564 234.176 188.193C234.809 187.822 235.28 187.294 235.591 186.608C235.902 185.922 236.057 185.106 236.057 184.159C236.057 183.22 235.903 182.411 235.597 181.733C235.29 181.051 234.831 180.528 234.222 180.165C233.612 179.797 232.852 179.614 231.943 179.614H229.693V188.75Z" fill="white" fill-opacity="0.5"/>
<path d="M40.4091 804V792.364H47.4318V793.614H41.8182V797.545H47.0682V798.795H41.8182V802.75H47.5227V804H40.4091ZM50.7898 795.273L52.8807 798.841L54.9716 795.273H56.517L53.6989 799.636L56.517 804H54.9716L52.8807 800.614L50.7898 804H49.2443L52.017 799.636L49.2443 795.273H50.7898ZM58.4304 807.273V795.273H59.7259V796.659H59.8849C59.9834 796.508 60.1198 796.314 60.294 796.08C60.4721 795.841 60.7259 795.629 61.0554 795.443C61.3887 795.254 61.8395 795.159 62.4077 795.159C63.1425 795.159 63.7902 795.343 64.3509 795.71C64.9115 796.078 65.349 796.598 65.6634 797.273C65.9777 797.947 66.1349 798.742 66.1349 799.659C66.1349 800.583 65.9777 801.384 65.6634 802.062C65.349 802.737 64.9134 803.259 64.3565 803.631C63.7997 803.998 63.1577 804.182 62.4304 804.182C61.8698 804.182 61.4209 804.089 61.0838 803.903C60.7467 803.714 60.4872 803.5 60.3054 803.261C60.1236 803.019 59.9834 802.818 59.8849 802.659H59.7713V807.273H58.4304ZM59.7486 799.636C59.7486 800.295 59.8452 800.877 60.0384 801.381C60.2315 801.881 60.5137 802.273 60.8849 802.557C61.2562 802.837 61.7107 802.977 62.2486 802.977C62.8092 802.977 63.277 802.83 63.652 802.534C64.0308 802.235 64.3149 801.833 64.5043 801.33C64.6974 800.822 64.794 800.258 64.794 799.636C64.794 799.023 64.6993 798.47 64.5099 797.977C64.3243 797.481 64.0421 797.089 63.6634 796.801C63.2884 796.509 62.8168 796.364 62.2486 796.364C61.7031 796.364 61.2448 796.502 60.8736 796.778C60.5024 797.051 60.2221 797.434 60.0327 797.926C59.8433 798.415 59.7486 798.985 59.7486 799.636ZM69.5213 792.364V804H68.1804V792.364H69.5213ZM75.5227 804.182C74.7348 804.182 74.0436 803.994 73.4489 803.619C72.858 803.244 72.3958 802.72 72.0625 802.045C71.733 801.371 71.5682 800.583 71.5682 799.682C71.5682 798.773 71.733 797.979 72.0625 797.301C72.3958 796.623 72.858 796.097 73.4489 795.722C74.0436 795.347 74.7348 795.159 75.5227 795.159C76.3106 795.159 77 795.347 77.5909 795.722C78.1856 796.097 78.6477 796.623 78.9773 797.301C79.3106 797.979 79.4773 798.773 79.4773 799.682C79.4773 800.583 79.3106 801.371 78.9773 802.045C78.6477 802.72 78.1856 803.244 77.5909 803.619C77 803.994 76.3106 804.182 75.5227 804.182ZM75.5227 802.977C76.1212 802.977 76.6136 802.824 77 802.517C77.3864 802.21 77.6723 801.807 77.858 801.307C78.0436 800.807 78.1364 800.265 78.1364 799.682C78.1364 799.098 78.0436 798.555 77.858 798.051C77.6723 797.547 77.3864 797.14 77 796.83C76.6136 796.519 76.1212 796.364 75.5227 796.364C74.9242 796.364 74.4318 796.519 74.0455 796.83C73.6591 797.14 73.3731 797.547 73.1875 798.051C73.0019 798.555 72.9091 799.098 72.9091 799.682C72.9091 800.265 73.0019 800.807 73.1875 801.307C73.3731 801.807 73.6591 802.21 74.0455 802.517C74.4318 802.824 74.9242 802.977 75.5227 802.977ZM81.5241 804V795.273H82.8196V796.591H82.9105C83.0696 796.159 83.3575 795.809 83.7741 795.54C84.1908 795.271 84.6605 795.136 85.1832 795.136C85.2817 795.136 85.4048 795.138 85.5526 795.142C85.7003 795.146 85.812 795.152 85.8878 795.159V796.523C85.8423 796.511 85.7382 796.494 85.5753 796.472C85.4162 796.445 85.2476 796.432 85.0696 796.432C84.6454 796.432 84.2666 796.521 83.9332 796.699C83.6037 796.873 83.3423 797.116 83.1491 797.426C82.9598 797.733 82.8651 798.083 82.8651 798.477V804H81.5241ZM90.8707 804.182C90.0298 804.182 89.3045 803.996 88.6946 803.625C88.0885 803.25 87.6207 802.727 87.2912 802.057C86.9654 801.383 86.8026 800.598 86.8026 799.705C86.8026 798.811 86.9654 798.023 87.2912 797.341C87.6207 796.655 88.0791 796.121 88.6662 795.739C89.2571 795.352 89.9465 795.159 90.7344 795.159C91.1889 795.159 91.6378 795.235 92.081 795.386C92.5241 795.538 92.9276 795.784 93.2912 796.125C93.6548 796.462 93.9446 796.909 94.1605 797.466C94.3764 798.023 94.4844 798.708 94.4844 799.523V800.091H87.7571V798.932H93.1207C93.1207 798.439 93.0223 798 92.8253 797.614C92.6321 797.227 92.3556 796.922 91.9957 796.699C91.6397 796.475 91.2192 796.364 90.7344 796.364C90.2003 796.364 89.7382 796.496 89.348 796.761C88.9616 797.023 88.6643 797.364 88.456 797.784C88.2476 798.205 88.1435 798.655 88.1435 799.136V799.909C88.1435 800.568 88.2571 801.127 88.4844 801.585C88.7154 802.04 89.0355 802.386 89.4446 802.625C89.8537 802.86 90.3291 802.977 90.8707 802.977C91.223 802.977 91.5412 802.928 91.8253 802.83C92.1132 802.727 92.3613 802.576 92.5696 802.375C92.7779 802.17 92.9389 801.917 93.0526 801.614L94.348 801.977C94.2116 802.417 93.9825 802.803 93.6605 803.136C93.3385 803.466 92.9408 803.723 92.4673 803.909C91.9938 804.091 91.4616 804.182 90.8707 804.182Z" fill="black"/>
<path d="M171.631 804L168.301 792.364H170.989L172.915 800.449H173.011L175.136 792.364H177.438L179.557 800.466H179.659L181.585 792.364H184.273L180.943 804H178.545L176.33 796.392H176.239L174.028 804H171.631ZM187.095 804.165C186.538 804.165 186.042 804.068 185.607 803.875C185.171 803.678 184.826 803.388 184.572 803.006C184.322 802.619 184.197 802.138 184.197 801.562C184.197 801.078 184.286 800.67 184.464 800.341C184.643 800.011 184.885 799.746 185.192 799.545C185.499 799.345 185.847 799.193 186.237 799.091C186.631 798.989 187.044 798.917 187.476 798.875C187.983 798.822 188.393 798.773 188.703 798.727C189.014 798.678 189.239 798.606 189.379 798.511C189.519 798.417 189.589 798.277 189.589 798.091V798.057C189.589 797.697 189.476 797.419 189.249 797.222C189.025 797.025 188.707 796.926 188.294 796.926C187.858 796.926 187.512 797.023 187.254 797.216C186.997 797.405 186.826 797.644 186.743 797.932L184.504 797.75C184.618 797.22 184.841 796.761 185.175 796.375C185.508 795.985 185.938 795.686 186.464 795.477C186.995 795.265 187.608 795.159 188.305 795.159C188.79 795.159 189.254 795.216 189.697 795.33C190.144 795.443 190.54 795.619 190.885 795.858C191.233 796.097 191.508 796.403 191.709 796.778C191.91 797.15 192.01 797.595 192.01 798.114V804H189.714V802.79H189.646C189.506 803.062 189.319 803.303 189.084 803.511C188.849 803.716 188.567 803.877 188.237 803.994C187.908 804.108 187.527 804.165 187.095 804.165ZM187.788 802.494C188.144 802.494 188.459 802.424 188.732 802.284C189.004 802.14 189.218 801.947 189.374 801.705C189.529 801.462 189.607 801.187 189.607 800.881V799.955C189.531 800.004 189.427 800.049 189.294 800.091C189.165 800.129 189.019 800.165 188.857 800.199C188.694 800.229 188.531 800.258 188.368 800.284C188.205 800.307 188.057 800.328 187.925 800.347C187.641 800.388 187.393 800.455 187.18 800.545C186.968 800.636 186.804 800.759 186.686 800.915C186.569 801.066 186.51 801.256 186.51 801.483C186.51 801.812 186.629 802.064 186.868 802.239C187.11 802.409 187.417 802.494 187.788 802.494ZM196.308 792.364V804H193.888V792.364H196.308ZM200.668 792.364V804H198.247V792.364H200.668ZM206.584 804.17C205.686 804.17 204.913 803.989 204.266 803.625C203.622 803.258 203.125 802.739 202.777 802.068C202.429 801.394 202.254 800.597 202.254 799.676C202.254 798.778 202.429 797.991 202.777 797.312C203.125 796.634 203.616 796.106 204.249 795.727C204.885 795.348 205.631 795.159 206.487 795.159C207.063 795.159 207.599 795.252 208.095 795.438C208.595 795.619 209.031 795.894 209.402 796.261C209.777 796.629 210.069 797.091 210.277 797.648C210.485 798.201 210.589 798.848 210.589 799.591V800.256H203.22V798.756H208.311C208.311 798.407 208.235 798.098 208.084 797.83C207.932 797.561 207.722 797.35 207.453 797.199C207.188 797.044 206.879 796.966 206.527 796.966C206.16 796.966 205.834 797.051 205.55 797.222C205.269 797.388 205.05 797.614 204.891 797.898C204.732 798.178 204.65 798.491 204.646 798.835V800.261C204.646 800.693 204.726 801.066 204.885 801.381C205.048 801.695 205.277 801.938 205.572 802.108C205.868 802.278 206.218 802.364 206.624 802.364C206.893 802.364 207.139 802.326 207.362 802.25C207.586 802.174 207.777 802.061 207.936 801.909C208.095 801.758 208.216 801.572 208.3 801.352L210.538 801.5C210.425 802.038 210.192 802.508 209.839 802.909C209.491 803.307 209.04 803.617 208.487 803.841C207.938 804.061 207.304 804.17 206.584 804.17ZM216.811 795.273V797.091H211.555V795.273H216.811ZM212.749 793.182H215.169V801.318C215.169 801.542 215.203 801.716 215.271 801.841C215.339 801.962 215.434 802.047 215.555 802.097C215.68 802.146 215.824 802.17 215.987 802.17C216.101 802.17 216.214 802.161 216.328 802.142C216.442 802.119 216.529 802.102 216.589 802.091L216.97 803.892C216.849 803.93 216.679 803.973 216.459 804.023C216.239 804.076 215.972 804.108 215.658 804.119C215.074 804.142 214.563 804.064 214.124 803.886C213.688 803.708 213.349 803.432 213.107 803.057C212.864 802.682 212.745 802.208 212.749 801.636V793.182Z" fill="#5089A5"/>
<path d="M291.409 804V792.364H295.341C296.254 792.364 297 792.528 297.58 792.858C298.163 793.184 298.595 793.625 298.875 794.182C299.155 794.739 299.295 795.36 299.295 796.045C299.295 796.731 299.155 797.354 298.875 797.915C298.598 798.475 298.17 798.922 297.591 799.256C297.011 799.585 296.269 799.75 295.364 799.75H292.545V798.5H295.318C295.943 798.5 296.445 798.392 296.824 798.176C297.203 797.96 297.477 797.669 297.648 797.301C297.822 796.93 297.909 796.511 297.909 796.045C297.909 795.58 297.822 795.163 297.648 794.795C297.477 794.428 297.201 794.14 296.818 793.932C296.436 793.72 295.928 793.614 295.295 793.614H292.818V804H291.409ZM301.384 804V795.273H302.679V796.591H302.77C302.929 796.159 303.217 795.809 303.634 795.54C304.05 795.271 304.52 795.136 305.043 795.136C305.141 795.136 305.264 795.138 305.412 795.142C305.56 795.146 305.671 795.152 305.747 795.159V796.523C305.702 796.511 305.598 796.494 305.435 796.472C305.276 796.445 305.107 796.432 304.929 796.432C304.505 796.432 304.126 796.521 303.793 796.699C303.463 796.873 303.202 797.116 303.009 797.426C302.819 797.733 302.724 798.083 302.724 798.477V804H301.384ZM310.616 804.182C309.829 804.182 309.137 803.994 308.543 803.619C307.952 803.244 307.49 802.72 307.156 802.045C306.827 801.371 306.662 800.583 306.662 799.682C306.662 798.773 306.827 797.979 307.156 797.301C307.49 796.623 307.952 796.097 308.543 795.722C309.137 795.347 309.829 795.159 310.616 795.159C311.404 795.159 312.094 795.347 312.685 795.722C313.279 796.097 313.741 796.623 314.071 797.301C314.404 797.979 314.571 798.773 314.571 799.682C314.571 800.583 314.404 801.371 314.071 802.045C313.741 802.72 313.279 803.244 312.685 803.619C312.094 803.994 311.404 804.182 310.616 804.182ZM310.616 802.977C311.215 802.977 311.707 802.824 312.094 802.517C312.48 802.21 312.766 801.807 312.952 801.307C313.137 800.807 313.23 800.265 313.23 799.682C313.23 799.098 313.137 798.555 312.952 798.051C312.766 797.547 312.48 797.14 312.094 796.83C311.707 796.519 311.215 796.364 310.616 796.364C310.018 796.364 309.526 796.519 309.139 796.83C308.753 797.14 308.467 797.547 308.281 798.051C308.096 798.555 308.003 799.098 308.003 799.682C308.003 800.265 308.096 800.807 308.281 801.307C308.467 801.807 308.753 802.21 309.139 802.517C309.526 802.824 310.018 802.977 310.616 802.977ZM320.504 795.273V796.409H315.8V795.273H320.504ZM317.209 804V794.068C317.209 793.568 317.326 793.152 317.561 792.818C317.796 792.485 318.101 792.235 318.476 792.068C318.851 791.902 319.247 791.818 319.663 791.818C319.993 791.818 320.262 791.845 320.47 791.898C320.679 791.951 320.834 792 320.936 792.045L320.55 793.205C320.482 793.182 320.387 793.153 320.266 793.119C320.148 793.085 319.993 793.068 319.8 793.068C319.357 793.068 319.036 793.18 318.839 793.403C318.646 793.627 318.55 793.955 318.55 794.386V804H317.209ZM322.384 804V795.273H323.724V804H322.384ZM323.065 793.818C322.804 793.818 322.579 793.729 322.389 793.551C322.204 793.373 322.111 793.159 322.111 792.909C322.111 792.659 322.204 792.445 322.389 792.267C322.579 792.089 322.804 792 323.065 792C323.327 792 323.55 792.089 323.736 792.267C323.925 792.445 324.02 792.659 324.02 792.909C324.02 793.159 323.925 793.373 323.736 793.551C323.55 793.729 323.327 793.818 323.065 793.818ZM327.521 792.364V804H326.18V792.364H327.521ZM333.636 804.182C332.795 804.182 332.07 803.996 331.46 803.625C330.854 803.25 330.386 802.727 330.057 802.057C329.731 801.383 329.568 800.598 329.568 799.705C329.568 798.811 329.731 798.023 330.057 797.341C330.386 796.655 330.845 796.121 331.432 795.739C332.023 795.352 332.712 795.159 333.5 795.159C333.955 795.159 334.403 795.235 334.847 795.386C335.29 795.538 335.693 795.784 336.057 796.125C336.42 796.462 336.71 796.909 336.926 797.466C337.142 798.023 337.25 798.708 337.25 799.523V800.091H330.523V798.932H335.886C335.886 798.439 335.788 798 335.591 797.614C335.398 797.227 335.121 796.922 334.761 796.699C334.405 796.475 333.985 796.364 333.5 796.364C332.966 796.364 332.504 796.496 332.114 796.761C331.727 797.023 331.43 797.364 331.222 797.784C331.013 798.205 330.909 798.655 330.909 799.136V799.909C330.909 800.568 331.023 801.127 331.25 801.585C331.481 802.04 331.801 802.386 332.21 802.625C332.619 802.86 333.095 802.977 333.636 802.977C333.989 802.977 334.307 802.928 334.591 802.83C334.879 802.727 335.127 802.576 335.335 802.375C335.544 802.17 335.705 801.917 335.818 801.614L337.114 801.977C336.977 802.417 336.748 802.803 336.426 803.136C336.104 803.466 335.706 803.723 335.233 803.909C334.759 804.091 334.227 804.182 333.636 804.182Z" fill="black"/>
<rect x="58.5" y="206.5" width="110" height="41" rx="20.5" stroke="white"/>
<rect x="219.5" y="206.5" width="110" height="41" rx="20.5" stroke="white"/>
<defs>
<filter id="filter0_d_102_2693" x="16" y="303" width="358" height="66" filterUnits="userSpaceOnUse" color-interpolation-filters="sRGB">
<feFlood flood-opacity="0" result="BackgroundImageFix"/>
<feColorMatrix in="SourceAlpha" type="matrix" values="0 0 0 0 0 0 0 0 0 0 0 0 0 0 0 0 0 0 127 0" result="hardAlpha"/>
<feOffset dy="4"/>
<feGaussianBlur stdDeviation="2"/>
<feComposite in2="hardAlpha" operator="out"/>
<feColorMatrix type="matrix" values="0 0 0 0 0 0 0 0 0 0 0 0 0 0 0 0 0 0 0.25 0"/>
<feBlend mode="normal" in2="BackgroundImageFix" result="effect1_dropShadow_102_2693"/>
<feBlend mode="normal" in="SourceGraphic" in2="effect1_dropShadow_102_2693" result="shape"/>
</filter>
<filter id="filter1_d_102_2693" x="16" y="770" width="358" height="66" filterUnits="userSpaceOnUse" color-interpolation-filters="sRGB">
<feFlood flood-opacity="0" result="BackgroundImageFix"/>
<feColorMatrix in="SourceAlpha" type="matrix" values="0 0 0 0 0 0 0 0 0 0 0 0 0 0 0 0 0 0 127 0" result="hardAlpha"/>
<feOffset dy="4"/>
<feGaussianBlur stdDeviation="2"/>
<feComposite in2="hardAlpha" operator="out"/>
<feColorMatrix type="matrix" values="0 0 0 0 0 0 0 0 0 0 0 0 0 0 0 0 0 0 0.25 0"/>
<feBlend mode="normal" in2="BackgroundImageFix" result="effect1_dropShadow_102_2693"/>
<feBlend mode="normal" in="SourceGraphic" in2="effect1_dropShadow_102_2693" result="shape"/>
</filter>
</defs>
</svg>
