<svg width="525" height="42" viewBox="0 0 525 42" fill="none" xmlns="http://www.w3.org/2000/svg">
<path d="M0.144 41V1.8H4.848L25.736 33.216V1.8H30.44V41H25.736L4.848 9.584V41H0.144ZM50.9614 41.672C48.3107 41.672 45.9587 41.0747 43.9054 39.88C41.852 38.648 40.228 36.9493 39.0334 34.784C37.876 32.6187 37.2974 30.0613 37.2974 27.112C37.2974 24.2 37.876 21.6613 39.0334 19.496C40.1907 17.2933 41.796 15.5947 43.8494 14.4C45.94 13.168 48.348 12.552 51.0734 12.552C53.7614 12.552 56.076 13.168 58.0174 14.4C59.996 15.5947 61.508 17.1813 62.5534 19.16C63.5987 21.1387 64.1214 23.2667 64.1214 25.544C64.1214 25.9547 64.1027 26.3653 64.0654 26.776C64.0654 27.1867 64.0654 27.6533 64.0654 28.176H41.9454C42.0574 30.304 42.5427 32.0773 43.4014 33.496C44.2974 34.8773 45.3987 35.9227 46.7054 36.632C48.0494 37.3413 49.468 37.696 50.9614 37.696C52.9027 37.696 54.5267 37.248 55.8334 36.352C57.14 35.456 58.092 34.2427 58.6894 32.712H63.3374C62.5907 35.288 61.1534 37.4347 59.0254 39.152C56.9347 40.832 54.2467 41.672 50.9614 41.672ZM50.9614 16.528C48.7214 16.528 46.724 17.2187 44.9694 18.6C43.252 19.944 42.2627 21.9227 42.0014 24.536H59.4734C59.3614 22.0347 58.5027 20.0747 56.8974 18.656C55.292 17.2373 53.3134 16.528 50.9614 16.528ZM74.8624 41L66.7424 13.224H71.4464L77.3264 35.008L83.8224 13.224H89.1424L95.6944 35.008L101.518 13.224H106.278L98.1584 41H93.3424L86.5104 18.096L79.6784 41H74.8624ZM136.438 41.672C133.152 41.672 130.539 40.6827 128.598 38.704C126.656 36.688 125.686 33.608 125.686 29.464V13.224H130.39V28.96C130.39 34.7467 132.76 37.64 137.502 37.64C139.928 37.64 141.926 36.7813 143.494 35.064C145.099 33.3093 145.902 30.8267 145.902 27.616V13.224H150.606V41H146.35L146.014 36.016C145.155 37.7707 143.867 39.152 142.15 40.16C140.47 41.168 138.566 41.672 136.438 41.672ZM168.988 41.672C165.666 41.672 162.903 40.832 160.7 39.152C158.498 37.472 157.21 35.1947 156.836 32.32H161.652C161.951 33.776 162.716 35.0453 163.948 36.128C165.218 37.1733 166.916 37.696 169.044 37.696C171.023 37.696 172.479 37.2853 173.412 36.464C174.346 35.6053 174.812 34.5973 174.812 33.44C174.812 31.76 174.196 30.64 172.964 30.08C171.77 29.52 170.071 29.016 167.868 28.568C166.375 28.2693 164.882 27.84 163.388 27.28C161.895 26.72 160.644 25.936 159.636 24.928C158.628 23.8827 158.124 22.52 158.124 20.84C158.124 18.4133 159.02 16.4347 160.812 14.904C162.642 13.336 165.106 12.552 168.204 12.552C171.154 12.552 173.562 13.2987 175.428 14.792C177.332 16.248 178.434 18.3387 178.732 21.064H174.084C173.898 19.6453 173.282 18.544 172.236 17.76C171.228 16.9387 169.866 16.528 168.148 16.528C166.468 16.528 165.162 16.8827 164.228 17.592C163.332 18.3013 162.884 19.2347 162.884 20.392C162.884 21.512 163.463 22.3893 164.62 23.024C165.815 23.6587 167.42 24.2 169.436 24.648C171.154 25.0213 172.778 25.488 174.308 26.048C175.876 26.5707 177.146 27.3733 178.116 28.456C179.124 29.5013 179.628 31.032 179.628 33.048C179.666 35.5493 178.714 37.6213 176.772 39.264C174.868 40.8693 172.274 41.672 168.988 41.672ZM198.836 41.672C196.186 41.672 193.834 41.0747 191.78 39.88C189.727 38.648 188.103 36.9493 186.908 34.784C185.751 32.6187 185.172 30.0613 185.172 27.112C185.172 24.2 185.751 21.6613 186.908 19.496C188.066 17.2933 189.671 15.5947 191.724 14.4C193.815 13.168 196.223 12.552 198.948 12.552C201.636 12.552 203.951 13.168 205.892 14.4C207.871 15.5947 209.383 17.1813 210.428 19.16C211.474 21.1387 211.996 23.2667 211.996 25.544C211.996 25.9547 211.978 26.3653 211.94 26.776C211.94 27.1867 211.94 27.6533 211.94 28.176H189.82C189.932 30.304 190.418 32.0773 191.276 33.496C192.172 34.8773 193.274 35.9227 194.58 36.632C195.924 37.3413 197.343 37.696 198.836 37.696C200.778 37.696 202.402 37.248 203.708 36.352C205.015 35.456 205.967 34.2427 206.564 32.712H211.212C210.466 35.288 209.028 37.4347 206.9 39.152C204.81 40.832 202.122 41.672 198.836 41.672ZM198.836 16.528C196.596 16.528 194.599 17.2187 192.844 18.6C191.127 19.944 190.138 21.9227 189.876 24.536H207.348C207.236 22.0347 206.378 20.0747 204.772 18.656C203.167 17.2373 201.188 16.528 198.836 16.528ZM218.231 41V13.224H222.487L222.879 18.544C223.738 16.7147 225.045 15.2587 226.799 14.176C228.554 13.0933 230.719 12.552 233.295 12.552V17.48H232.007C230.365 17.48 228.853 17.7787 227.471 18.376C226.09 18.936 224.989 19.9067 224.167 21.288C223.346 22.6693 222.935 24.5733 222.935 27V41H218.231ZM265.995 41.672C263.233 41.672 260.806 41.0373 258.715 39.768C256.662 38.4987 255.057 36.7627 253.899 34.56C252.779 32.3573 252.219 29.856 252.219 27.056C252.219 24.256 252.798 21.7733 253.955 19.608C255.113 17.4053 256.718 15.688 258.771 14.456C260.825 13.1867 263.251 12.552 266.051 12.552C268.329 12.552 270.345 13.0187 272.099 13.952C273.854 14.8853 275.217 16.192 276.187 17.872V0.679998H280.891V41H276.635L276.187 36.408C275.291 37.752 274.003 38.9653 272.323 40.048C270.643 41.1307 268.534 41.672 265.995 41.672ZM266.499 37.584C268.366 37.584 270.009 37.1547 271.427 36.296C272.883 35.4 274.003 34.168 274.787 32.6C275.609 31.032 276.019 29.2027 276.019 27.112C276.019 25.0213 275.609 23.192 274.787 21.624C274.003 20.056 272.883 18.8427 271.427 17.984C270.009 17.088 268.366 16.64 266.499 16.64C264.67 16.64 263.027 17.088 261.571 17.984C260.153 18.8427 259.033 20.056 258.211 21.624C257.427 23.192 257.035 25.0213 257.035 27.112C257.035 29.2027 257.427 31.032 258.211 32.6C259.033 34.168 260.153 35.4 261.571 36.296C263.027 37.1547 264.67 37.584 266.499 37.584ZM297.799 41.672C295.485 41.672 293.562 41.28 292.031 40.496C290.501 39.712 289.362 38.6667 288.615 37.36C287.869 36.0533 287.495 34.6347 287.495 33.104C287.495 30.2667 288.578 28.0827 290.743 26.552C292.909 25.0213 295.858 24.256 299.591 24.256H307.095V23.92C307.095 21.4933 306.461 19.664 305.191 18.432C303.922 17.1627 302.223 16.528 300.095 16.528C298.266 16.528 296.679 16.9947 295.335 17.928C294.029 18.824 293.207 20.1493 292.871 21.904H288.055C288.242 19.888 288.914 18.1893 290.071 16.808C291.266 15.4267 292.741 14.3813 294.495 13.672C296.25 12.9253 298.117 12.552 300.095 12.552C303.978 12.552 306.89 13.5973 308.831 15.688C310.81 17.7413 311.799 20.4853 311.799 23.92V41H307.599L307.319 36.016C306.535 37.584 305.378 38.928 303.847 40.048C302.354 41.1307 300.338 41.672 297.799 41.672ZM298.527 37.696C300.319 37.696 301.85 37.2293 303.119 36.296C304.426 35.3627 305.415 34.1493 306.087 32.656C306.759 31.1627 307.095 29.5947 307.095 27.952V27.896H299.983C297.221 27.896 295.261 28.3813 294.103 29.352C292.983 30.2853 292.423 31.4613 292.423 32.88C292.423 34.336 292.946 35.512 293.991 36.408C295.074 37.2667 296.586 37.696 298.527 37.696ZM329.496 41.672C326.174 41.672 323.411 40.832 321.208 39.152C319.006 37.472 317.718 35.1947 317.344 32.32H322.16C322.459 33.776 323.224 35.0453 324.456 36.128C325.726 37.1733 327.424 37.696 329.552 37.696C331.531 37.696 332.987 37.2853 333.92 36.464C334.854 35.6053 335.32 34.5973 335.32 33.44C335.32 31.76 334.704 30.64 333.472 30.08C332.278 29.52 330.579 29.016 328.376 28.568C326.883 28.2693 325.39 27.84 323.896 27.28C322.403 26.72 321.152 25.936 320.144 24.928C319.136 23.8827 318.632 22.52 318.632 20.84C318.632 18.4133 319.528 16.4347 321.32 14.904C323.15 13.336 325.614 12.552 328.712 12.552C331.662 12.552 334.07 13.2987 335.936 14.792C337.84 16.248 338.942 18.3387 339.24 21.064H334.592C334.406 19.6453 333.79 18.544 332.744 17.76C331.736 16.9387 330.374 16.528 328.656 16.528C326.976 16.528 325.67 16.8827 324.736 17.592C323.84 18.3013 323.392 19.2347 323.392 20.392C323.392 21.512 323.971 22.3893 325.128 23.024C326.323 23.6587 327.928 24.2 329.944 24.648C331.662 25.0213 333.286 25.488 334.816 26.048C336.384 26.5707 337.654 27.3733 338.624 28.456C339.632 29.5013 340.136 31.032 340.136 33.048C340.174 35.5493 339.222 37.6213 337.28 39.264C335.376 40.8693 332.782 41.672 329.496 41.672ZM346.856 41V0.679998H351.56V17.984C352.494 16.2667 353.819 14.9413 355.536 14.008C357.254 13.0373 359.12 12.552 361.136 12.552C364.347 12.552 366.923 13.56 368.864 15.576C370.806 17.5547 371.776 20.616 371.776 24.76V41H367.128V25.264C367.128 19.4773 364.795 16.584 360.128 16.584C357.702 16.584 355.667 17.4613 354.024 19.216C352.382 20.9333 351.56 23.3973 351.56 26.608V41H346.856ZM393.743 41.672C391.466 41.672 389.431 41.2053 387.639 40.272C385.884 39.3387 384.54 38.032 383.607 36.352L383.159 41H378.903V0.679998H383.607V17.816C384.503 16.472 385.772 15.2587 387.415 14.176C389.095 13.0933 391.223 12.552 393.799 12.552C396.562 12.552 398.97 13.1867 401.023 14.456C403.076 15.7253 404.663 17.4613 405.783 19.664C406.94 21.8667 407.519 24.368 407.519 27.168C407.519 29.968 406.94 32.4693 405.783 34.672C404.663 36.8373 403.058 38.5547 400.967 39.824C398.914 41.056 396.506 41.672 393.743 41.672ZM393.239 37.584C395.106 37.584 396.748 37.1547 398.167 36.296C399.586 35.4 400.706 34.168 401.527 32.6C402.348 31.032 402.759 29.2027 402.759 27.112C402.759 25.0213 402.348 23.192 401.527 21.624C400.706 20.056 399.586 18.8427 398.167 17.984C396.748 17.088 395.106 16.64 393.239 16.64C391.372 16.64 389.73 17.088 388.311 17.984C386.892 18.8427 385.772 20.056 384.951 21.624C384.13 23.192 383.719 25.0213 383.719 27.112C383.719 29.2027 384.13 31.032 384.951 32.6C385.772 34.168 386.892 35.4 388.311 36.296C389.73 37.1547 391.372 37.584 393.239 37.584ZM426.723 41.672C424.11 41.672 421.758 41.0747 419.667 39.88C417.576 38.6853 415.915 37.0053 414.683 34.84C413.488 32.6373 412.891 30.0613 412.891 27.112C412.891 24.1627 413.507 21.6053 414.739 19.44C415.971 17.2373 417.632 15.5387 419.723 14.344C421.851 13.1493 424.222 12.552 426.835 12.552C429.448 12.552 431.8 13.1493 433.891 14.344C435.982 15.5387 437.624 17.2373 438.819 19.44C440.051 21.6053 440.667 24.1627 440.667 27.112C440.667 30.0613 440.051 32.6373 438.819 34.84C437.587 37.0053 435.907 38.6853 433.779 39.88C431.688 41.0747 429.336 41.672 426.723 41.672ZM426.723 37.64C428.328 37.64 429.822 37.248 431.203 36.464C432.584 35.68 433.704 34.504 434.563 32.936C435.422 31.368 435.851 29.4267 435.851 27.112C435.851 24.7973 435.422 22.856 434.563 21.288C433.742 19.72 432.64 18.544 431.259 17.76C429.878 16.976 428.403 16.584 426.835 16.584C425.23 16.584 423.736 16.976 422.355 17.76C420.974 18.544 419.854 19.72 418.995 21.288C418.136 22.856 417.707 24.7973 417.707 27.112C417.707 29.4267 418.136 31.368 418.995 32.936C419.854 34.504 420.955 35.68 422.299 36.464C423.68 37.248 425.155 37.64 426.723 37.64ZM456.448 41.672C454.133 41.672 452.21 41.28 450.68 40.496C449.149 39.712 448.01 38.6667 447.264 37.36C446.517 36.0533 446.144 34.6347 446.144 33.104C446.144 30.2667 447.226 28.0827 449.392 26.552C451.557 25.0213 454.506 24.256 458.24 24.256H465.744V23.92C465.744 21.4933 465.109 19.664 463.84 18.432C462.57 17.1627 460.872 16.528 458.744 16.528C456.914 16.528 455.328 16.9947 453.984 17.928C452.677 18.824 451.856 20.1493 451.52 21.904H446.704C446.89 19.888 447.562 18.1893 448.72 16.808C449.914 15.4267 451.389 14.3813 453.144 13.672C454.898 12.9253 456.765 12.552 458.744 12.552C462.626 12.552 465.538 13.5973 467.48 15.688C469.458 17.7413 470.448 20.4853 470.448 23.92V41H466.248L465.968 36.016C465.184 37.584 464.026 38.928 462.496 40.048C461.002 41.1307 458.986 41.672 456.448 41.672ZM457.176 37.696C458.968 37.696 460.498 37.2293 461.768 36.296C463.074 35.3627 464.064 34.1493 464.736 32.656C465.408 31.1627 465.744 29.5947 465.744 27.952V27.896H458.632C455.869 27.896 453.909 28.3813 452.752 29.352C451.632 30.2853 451.072 31.4613 451.072 32.88C451.072 34.336 451.594 35.512 452.64 36.408C453.722 37.2667 455.234 37.696 457.176 37.696ZM477.505 41V13.224H481.761L482.153 18.544C483.011 16.7147 484.318 15.2587 486.073 14.176C487.827 13.0933 489.993 12.552 492.569 12.552V17.48H491.281C489.638 17.48 488.126 17.7787 486.745 18.376C485.363 18.936 484.262 19.9067 483.441 21.288C482.619 22.6693 482.209 24.5733 482.209 27V41H477.505ZM509.409 41.672C506.647 41.672 504.22 41.0373 502.129 39.768C500.076 38.4987 498.471 36.7627 497.313 34.56C496.193 32.3573 495.633 29.856 495.633 27.056C495.633 24.256 496.212 21.7733 497.369 19.608C498.527 17.4053 500.132 15.688 502.185 14.456C504.239 13.1867 506.665 12.552 509.465 12.552C511.743 12.552 513.759 13.0187 515.513 13.952C517.268 14.8853 518.631 16.192 519.601 17.872V0.679998H524.305V41H520.049L519.601 36.408C518.705 37.752 517.417 38.9653 515.737 40.048C514.057 41.1307 511.948 41.672 509.409 41.672ZM509.913 37.584C511.78 37.584 513.423 37.1547 514.841 36.296C516.297 35.4 517.417 34.168 518.201 32.6C519.023 31.032 519.433 29.2027 519.433 27.112C519.433 25.0213 519.023 23.192 518.201 21.624C517.417 20.056 516.297 18.8427 514.841 17.984C513.423 17.088 511.78 16.64 509.913 16.64C508.084 16.64 506.441 17.088 504.985 17.984C503.567 18.8427 502.447 20.056 501.625 21.624C500.841 23.192 500.449 25.0213 500.449 27.112C500.449 29.2027 500.841 31.032 501.625 32.6C502.447 34.168 503.567 35.4 504.985 36.296C506.441 37.1547 508.084 37.584 509.913 37.584Z" fill="white"/>
</svg>
