<svg width="505" height="54" viewBox="0 0 505 54" fill="none" xmlns="http://www.w3.org/2000/svg">
<path d="M15.192 41.672C12.3173 41.672 9.77867 41.1867 7.576 40.216C5.37333 39.208 3.63733 37.7893 2.368 35.96C1.09867 34.0933 0.445333 31.8347 0.408 29.184H7.968C8.04267 31.0133 8.696 32.5627 9.928 33.832C11.1973 35.064 12.9333 35.68 15.136 35.68C17.04 35.68 18.552 35.232 19.672 34.336C20.792 33.4027 21.352 32.1707 21.352 30.64C21.352 29.0347 20.848 27.784 19.84 26.888C18.8693 25.992 17.5627 25.264 15.92 24.704C14.2773 24.144 12.5227 23.5467 10.656 22.912C7.632 21.8667 5.31733 20.5227 3.712 18.88C2.144 17.2373 1.36 15.0533 1.36 12.328C1.32267 10.0133 1.864 8.03467 2.984 6.392C4.14133 4.712 5.70933 3.424 7.688 2.528C9.66667 1.59467 11.944 1.128 14.52 1.128C17.1333 1.128 19.4293 1.59467 21.408 2.528C23.424 3.46133 24.992 4.768 26.112 6.448C27.2693 8.128 27.8853 10.1253 27.96 12.44H20.288C20.2507 11.0587 19.7093 9.84533 18.664 8.8C17.656 7.71733 16.2373 7.176 14.408 7.176C12.84 7.13867 11.5147 7.53067 10.432 8.352C9.38667 9.136 8.864 10.2933 8.864 11.824C8.864 13.1307 9.27467 14.176 10.096 14.96C10.9173 15.7067 12.0373 16.3413 13.456 16.864C14.8747 17.3867 16.4987 17.9467 18.328 18.544C20.2693 19.216 22.0427 20 23.648 20.896C25.2533 21.792 26.5413 22.9867 27.512 24.48C28.4827 25.936 28.968 27.8213 28.968 30.136C28.968 32.1893 28.4453 34.0933 27.4 35.848C26.3547 37.6027 24.8053 39.0213 22.752 40.104C20.6987 41.1493 18.1787 41.672 15.192 41.672ZM48.6621 41.672C45.8247 41.672 43.3234 41.056 41.1581 39.824C38.9927 38.592 37.2754 36.8747 36.0061 34.672C34.7741 32.4693 34.1581 29.9493 34.1581 27.112C34.1581 24.2747 34.7741 21.7547 36.0061 19.552C37.2754 17.3493 38.9927 15.632 41.1581 14.4C43.3234 13.168 45.8247 12.552 48.6621 12.552C52.2087 12.552 55.1954 13.4853 57.6221 15.352C60.0487 17.1813 61.5981 19.72 62.2701 22.968H54.7101C54.3367 21.624 53.5901 20.5787 52.4701 19.832C51.3874 19.048 50.0994 18.656 48.6061 18.656C46.6274 18.656 44.9474 19.4027 43.5661 20.896C42.1847 22.3893 41.4941 24.4613 41.4941 27.112C41.4941 29.7627 42.1847 31.8347 43.5661 33.328C44.9474 34.8213 46.6274 35.568 48.6061 35.568C50.0994 35.568 51.3874 35.1947 52.4701 34.448C53.5901 33.7013 54.3367 32.6373 54.7101 31.256H62.2701C61.5981 34.392 60.0487 36.912 57.6221 38.816C55.1954 40.72 52.2087 41.672 48.6621 41.672ZM68.6322 41V13.224H75.0162L75.6882 18.432C76.6962 16.64 78.0589 15.2213 79.7762 14.176C81.5309 13.0933 83.5842 12.552 85.9362 12.552V20.112H83.9202C82.3522 20.112 80.9522 20.3547 79.7202 20.84C78.4882 21.3253 77.5175 22.1653 76.8082 23.36C76.1362 24.5547 75.8002 26.216 75.8002 28.344V41H68.6322ZM103.839 41.672C101.039 41.672 98.5565 41.0747 96.3911 39.88C94.2258 38.6853 92.5271 37.0053 91.2951 34.84C90.0631 32.6747 89.4471 30.1733 89.4471 27.336C89.4471 24.4613 90.0445 21.904 91.2391 19.664C92.4711 17.424 94.1511 15.688 96.2791 14.456C98.4445 13.1867 100.983 12.552 103.895 12.552C106.62 12.552 109.028 13.1493 111.119 14.344C113.21 15.5387 114.834 17.1813 115.991 19.272C117.186 21.3253 117.783 23.6213 117.783 26.16C117.783 26.5707 117.764 27 117.727 27.448C117.727 27.896 117.708 28.3627 117.671 28.848H96.5591C96.7085 31.0133 97.4551 32.712 98.7991 33.944C100.18 35.176 101.842 35.792 103.783 35.792C105.239 35.792 106.452 35.4747 107.423 34.84C108.431 34.168 109.178 33.3093 109.663 32.264H116.943C116.42 34.0187 115.543 35.624 114.311 37.08C113.116 38.4987 111.623 39.6187 109.831 40.44C108.076 41.2613 106.079 41.672 103.839 41.672ZM103.895 18.376C102.14 18.376 100.591 18.88 99.2471 19.888C97.9031 20.8587 97.0445 22.352 96.6711 24.368H110.503C110.391 22.5387 109.719 21.0827 108.487 20C107.255 18.9173 105.724 18.376 103.895 18.376ZM137.308 41.672C134.508 41.672 132.025 41.0747 129.86 39.88C127.695 38.6853 125.996 37.0053 124.764 34.84C123.532 32.6747 122.916 30.1733 122.916 27.336C122.916 24.4613 123.513 21.904 124.708 19.664C125.94 17.424 127.62 15.688 129.748 14.456C131.913 13.1867 134.452 12.552 137.364 12.552C140.089 12.552 142.497 13.1493 144.588 14.344C146.679 15.5387 148.303 17.1813 149.46 19.272C150.655 21.3253 151.252 23.6213 151.252 26.16C151.252 26.5707 151.233 27 151.196 27.448C151.196 27.896 151.177 28.3627 151.14 28.848H130.028C130.177 31.0133 130.924 32.712 132.268 33.944C133.649 35.176 135.311 35.792 137.252 35.792C138.708 35.792 139.921 35.4747 140.892 34.84C141.9 34.168 142.647 33.3093 143.132 32.264H150.412C149.889 34.0187 149.012 35.624 147.78 37.08C146.585 38.4987 145.092 39.6187 143.3 40.44C141.545 41.2613 139.548 41.672 137.308 41.672ZM137.364 18.376C135.609 18.376 134.06 18.88 132.716 19.888C131.372 20.8587 130.513 22.352 130.14 24.368H143.972C143.86 22.5387 143.188 21.0827 141.956 20C140.724 18.9173 139.193 18.376 137.364 18.376ZM157.281 41V13.224H163.609L164.169 17.928C165.027 16.2853 166.259 14.9787 167.865 14.008C169.507 13.0373 171.43 12.552 173.633 12.552C177.067 12.552 179.737 13.6347 181.641 15.8C183.545 17.9653 184.497 21.1387 184.497 25.32V41H177.329V25.992C177.329 23.6027 176.843 21.7733 175.873 20.504C174.902 19.2347 173.39 18.6 171.337 18.6C169.321 18.6 167.659 19.3093 166.353 20.728C165.083 22.1467 164.449 24.1253 164.449 26.664V41H157.281ZM202.831 41.672C200.367 41.672 198.202 41.28 196.335 40.496C194.468 39.6747 192.975 38.5547 191.855 37.136C190.735 35.7173 190.063 34.0747 189.839 32.208H197.063C197.287 33.2907 197.884 34.224 198.855 35.008C199.863 35.7547 201.151 36.128 202.719 36.128C204.287 36.128 205.426 35.8107 206.135 35.176C206.882 34.5413 207.255 33.8133 207.255 32.992C207.255 31.7973 206.732 30.9947 205.687 30.584C204.642 30.136 203.186 29.7067 201.319 29.296C200.124 29.0347 198.911 28.7173 197.679 28.344C196.447 27.9707 195.308 27.504 194.263 26.944C193.255 26.3467 192.434 25.6 191.799 24.704C191.164 23.7707 190.847 22.632 190.847 21.288C190.847 18.824 191.818 16.752 193.759 15.072C195.738 13.392 198.5 12.552 202.047 12.552C205.332 12.552 207.946 13.3173 209.887 14.848C211.866 16.3787 213.042 18.488 213.415 21.176H206.639C206.228 19.1227 204.679 18.096 201.991 18.096C200.647 18.096 199.602 18.3573 198.855 18.88C198.146 19.4027 197.791 20.056 197.791 20.84C197.791 21.6613 198.332 22.3147 199.415 22.8C200.498 23.2853 201.935 23.7333 203.727 24.144C205.668 24.592 207.442 25.096 209.047 25.656C210.69 26.1787 211.996 26.9813 212.967 28.064C213.938 29.1093 214.423 30.6213 214.423 32.6C214.46 34.3173 214.012 35.8667 213.079 37.248C212.146 38.6293 210.802 39.712 209.047 40.496C207.292 41.28 205.22 41.672 202.831 41.672ZM247.445 41.672C244.757 41.672 242.33 41.056 240.165 39.824C238.037 38.592 236.338 36.8933 235.069 34.728C233.837 32.5253 233.221 29.9867 233.221 27.112C233.221 24.2373 233.855 21.7173 235.125 19.552C236.394 17.3493 238.093 15.632 240.221 14.4C242.386 13.168 244.813 12.552 247.501 12.552C250.151 12.552 252.541 13.168 254.669 14.4C256.834 15.632 258.533 17.3493 259.765 19.552C261.034 21.7173 261.669 24.2373 261.669 27.112C261.669 29.9867 261.034 32.5253 259.765 34.728C258.533 36.8933 256.834 38.592 254.669 39.824C252.503 41.056 250.095 41.672 247.445 41.672ZM247.445 35.456C249.311 35.456 250.935 34.7653 252.317 33.384C253.698 31.9653 254.389 29.8747 254.389 27.112C254.389 24.3493 253.698 22.2773 252.317 20.896C250.935 19.4773 249.33 18.768 247.501 18.768C245.597 18.768 243.954 19.4773 242.573 20.896C241.229 22.2773 240.557 24.3493 240.557 27.112C240.557 29.8747 241.229 31.9653 242.573 33.384C243.954 34.7653 245.578 35.456 247.445 35.456ZM269.366 41V19.216H265.558V13.224H269.366V9.976C269.366 6.616 270.206 4.22666 271.886 2.808C273.603 1.38933 275.918 0.679998 278.829 0.679998H281.91V6.784H279.95C278.718 6.784 277.84 7.02667 277.318 7.512C276.795 7.99733 276.534 8.81866 276.534 9.976V13.224H282.526V19.216H276.534V41H269.366ZM313.922 41C311.01 41 308.677 40.2907 306.922 38.872C305.168 37.4533 304.29 34.9333 304.29 31.312V19.216H299.53V13.224H304.29L305.13 5.776H311.458V13.224H318.962V19.216H311.458V31.368C311.458 32.712 311.738 33.6453 312.298 34.168C312.896 34.6533 313.904 34.896 315.322 34.896H318.794V41H313.922ZM325.117 41V0.679998H332.285V17.48C333.218 15.9493 334.469 14.7547 336.037 13.896C337.642 13 339.471 12.552 341.525 12.552C344.959 12.552 347.61 13.6347 349.477 15.8C351.381 17.9653 352.333 21.1387 352.333 25.32V41H345.221V25.992C345.221 23.6027 344.735 21.7733 343.765 20.504C342.831 19.2347 341.338 18.6 339.285 18.6C337.269 18.6 335.589 19.3093 334.245 20.728C332.938 22.1467 332.285 24.1253 332.285 26.664V41H325.117ZM372.683 41.672C369.883 41.672 367.4 41.0747 365.235 39.88C363.07 38.6853 361.371 37.0053 360.139 34.84C358.907 32.6747 358.291 30.1733 358.291 27.336C358.291 24.4613 358.888 21.904 360.083 19.664C361.315 17.424 362.995 15.688 365.123 14.456C367.288 13.1867 369.827 12.552 372.739 12.552C375.464 12.552 377.872 13.1493 379.963 14.344C382.054 15.5387 383.678 17.1813 384.835 19.272C386.03 21.3253 386.627 23.6213 386.627 26.16C386.627 26.5707 386.608 27 386.571 27.448C386.571 27.896 386.552 28.3627 386.515 28.848H365.403C365.552 31.0133 366.299 32.712 367.643 33.944C369.024 35.176 370.686 35.792 372.627 35.792C374.083 35.792 375.296 35.4747 376.267 34.84C377.275 34.168 378.022 33.3093 378.507 32.264H385.787C385.264 34.0187 384.387 35.624 383.155 37.08C381.96 38.4987 380.467 39.6187 378.675 40.44C376.92 41.2613 374.923 41.672 372.683 41.672ZM372.739 18.376C370.984 18.376 369.435 18.88 368.091 19.888C366.747 20.8587 365.888 22.352 365.515 24.368H379.347C379.235 22.5387 378.563 21.0827 377.331 20C376.099 18.9173 374.568 18.376 372.739 18.376ZM415.575 41.672C413.186 41.672 411.226 41.2987 409.695 40.552C408.165 39.768 407.026 38.7413 406.279 37.472C405.533 36.2027 405.159 34.8027 405.159 33.272C405.159 30.696 406.167 28.6053 408.183 27C410.199 25.3947 413.223 24.592 417.255 24.592H424.311V23.92C424.311 22.016 423.77 20.616 422.687 19.72C421.605 18.824 420.261 18.376 418.655 18.376C417.199 18.376 415.93 18.7307 414.847 19.44C413.765 20.112 413.093 21.12 412.831 22.464H405.831C406.018 20.448 406.69 18.6933 407.847 17.2C409.042 15.7067 410.573 14.568 412.439 13.784C414.306 12.9627 416.397 12.552 418.711 12.552C422.669 12.552 425.786 13.5413 428.063 15.52C430.341 17.4987 431.479 20.2987 431.479 23.92V41H425.375L424.703 36.52C423.882 38.0133 422.725 39.2453 421.231 40.216C419.775 41.1867 417.89 41.672 415.575 41.672ZM417.199 36.072C419.253 36.072 420.839 35.4 421.959 34.056C423.117 32.712 423.845 31.0507 424.143 29.072H418.039C416.135 29.072 414.773 29.4267 413.951 30.136C413.13 30.808 412.719 31.648 412.719 32.656C412.719 33.7387 413.13 34.5787 413.951 35.176C414.773 35.7733 415.855 36.072 417.199 36.072ZM438.32 53.32V13.224H444.704L445.488 17.2C446.384 15.968 447.56 14.8853 449.016 13.952C450.509 13.0187 452.432 12.552 454.784 12.552C457.397 12.552 459.73 13.1867 461.784 14.456C463.837 15.7253 465.461 17.4613 466.656 19.664C467.85 21.8667 468.448 24.368 468.448 27.168C468.448 29.968 467.85 32.4693 466.656 34.672C465.461 36.8373 463.837 38.5547 461.784 39.824C459.73 41.056 457.397 41.672 454.784 41.672C452.693 41.672 450.864 41.28 449.296 40.496C447.728 39.712 446.458 38.6107 445.488 37.192V53.32H438.32ZM453.272 35.4C455.549 35.4 457.434 34.6347 458.928 33.104C460.421 31.5733 461.168 29.5947 461.168 27.168C461.168 24.7413 460.421 22.744 458.928 21.176C457.434 19.608 455.549 18.824 453.272 18.824C450.957 18.824 449.053 19.608 447.56 21.176C446.104 22.7067 445.376 24.6853 445.376 27.112C445.376 29.5387 446.104 31.536 447.56 33.104C449.053 34.6347 450.957 35.4 453.272 35.4ZM474.851 53.32V13.224H481.235L482.019 17.2C482.915 15.968 484.091 14.8853 485.547 13.952C487.04 13.0187 488.963 12.552 491.315 12.552C493.928 12.552 496.262 13.1867 498.315 14.456C500.368 15.7253 501.992 17.4613 503.187 19.664C504.382 21.8667 504.979 24.368 504.979 27.168C504.979 29.968 504.382 32.4693 503.187 34.672C501.992 36.8373 500.368 38.5547 498.315 39.824C496.262 41.056 493.928 41.672 491.315 41.672C489.224 41.672 487.395 41.28 485.827 40.496C484.259 39.712 482.99 38.6107 482.019 37.192V53.32H474.851ZM489.803 35.4C492.08 35.4 493.966 34.6347 495.459 33.104C496.952 31.5733 497.699 29.5947 497.699 27.168C497.699 24.7413 496.952 22.744 495.459 21.176C493.966 19.608 492.08 18.824 489.803 18.824C487.488 18.824 485.584 19.608 484.091 21.176C482.635 22.7067 481.907 24.6853 481.907 27.112C481.907 29.5387 482.635 31.536 484.091 33.104C485.584 34.6347 487.488 35.4 489.803 35.4Z" fill="white"/>
</svg>
